<svg width="22" height="21" viewBox="0 0 22 21" fill="none" xmlns="http://www.w3.org/2000/svg">
<path d="M5.36954 20.3564V7.08581H0.948348V20.3564H5.36954ZM3.15951 5.27286C4.70126 5.27286 5.66092 4.25383 5.66092 2.98039C5.6322 1.67824 4.70132 0.6875 3.18877 0.6875C1.67646 0.6875 0.6875 1.67826 0.6875 2.98039C0.6875 4.25389 1.64693 5.27286 3.13065 5.27286H3.15938H3.15951ZM7.81665 20.3564H12.2378V12.9454C12.2378 12.5488 12.2666 12.1526 12.3833 11.8691C12.7029 11.0766 13.4304 10.2559 14.6517 10.2559C16.2516 10.2559 16.8916 11.4728 16.8916 13.2568V20.3563H21.3125V12.7471C21.3125 8.67086 19.1313 6.77426 16.2224 6.77426C13.8374 6.77426 12.7902 8.1043 12.2084 9.01019H12.2379V7.08554H7.81675C7.87477 8.33077 7.81675 20.3561 7.81675 20.3561L7.81665 20.3564Z" fill="white"/>
</svg>
