<svg width="24" height="19" viewBox="0 0 24 19" fill="none" xmlns="http://www.w3.org/2000/svg">
<path d="M23.25 2.79465C22.4226 3.1613 21.5337 3.40903 20.5993 3.521C21.5634 2.94408 22.2848 2.03607 22.6287 0.966393C21.7228 1.50446 20.7314 1.88319 19.6975 2.08614C19.0023 1.3438 18.0814 0.851768 17.0778 0.68643C16.0743 0.521092 15.0442 0.691699 14.1476 1.17177C13.2509 1.65183 12.5379 2.4145 12.1191 3.34135C11.7003 4.26821 11.5992 5.3074 11.8315 6.29758C9.99603 6.20542 8.20042 5.72834 6.56122 4.89731C4.92202 4.06627 3.47588 2.89985 2.31666 1.47375C1.92029 2.15749 1.69237 2.95023 1.69237 3.7945C1.69193 4.55454 1.8791 5.30293 2.23726 5.97328C2.59543 6.64364 3.11352 7.21522 3.74557 7.63732C3.01256 7.61399 2.29572 7.41593 1.65472 7.05961V7.11906C1.65464 8.18504 2.02337 9.21822 2.69834 10.0433C3.37332 10.8683 4.31295 11.4345 5.35781 11.6456C4.67782 11.8296 3.9649 11.8568 3.2729 11.7249C3.5677 12.6421 4.14194 13.4442 4.91523 14.0188C5.68852 14.5935 6.62215 14.9119 7.58542 14.9296C5.95022 16.2132 3.93077 16.9095 1.85191 16.9065C1.48366 16.9065 1.11573 16.885 0.75 16.842C2.86016 18.1988 5.31653 18.9188 7.82522 18.916C16.3175 18.916 20.96 11.8824 20.96 5.7823C20.96 5.58411 20.955 5.38395 20.9461 5.18576C21.8491 4.53271 22.6286 3.72404 23.248 2.79763L23.25 2.79465Z" fill="white"/>
</svg>
