<svg width="23" height="16" viewBox="0 0 23 16" fill="none" xmlns="http://www.w3.org/2000/svg">
<path d="M11.4327 0.5H11.5515C12.6485 0.504004 18.2073 0.544043 19.7061 0.947104C20.1592 1.07012 20.5721 1.30989 20.9035 1.64246C21.2349 1.97503 21.4732 2.38876 21.5946 2.84229C21.7294 3.34945 21.8242 4.02078 21.8882 4.71345L21.9016 4.85226L21.9309 5.19926L21.9416 5.33806C22.0284 6.55792 22.039 7.70037 22.0404 7.94995V8.05005C22.039 8.30897 22.027 9.52883 21.9309 10.7994L21.9203 10.9395L21.9082 11.0783C21.8415 11.8418 21.7428 12.5998 21.5946 13.1577C21.4736 13.6114 21.2354 14.0253 20.9039 14.358C20.5725 14.6906 20.1594 14.9303 19.7061 15.0529C18.1579 15.4693 12.2735 15.4987 11.458 15.5H11.2685C10.8561 15.5 9.15044 15.492 7.36203 15.4306L7.13514 15.4226L7.01902 15.4173L6.7908 15.4079L6.56258 15.3986C5.08113 15.3332 3.67042 15.2277 3.02045 15.0516C2.56732 14.929 2.15435 14.6896 1.82291 14.3572C1.49146 14.0248 1.25318 13.6112 1.13193 13.1577C0.98379 12.6012 0.885026 11.8418 0.818295 11.0783L0.807617 10.9382L0.79694 10.7994C0.731073 9.89505 0.694573 8.9888 0.6875 8.08208L0.6875 7.91792C0.690169 7.63097 0.700846 6.63934 0.772917 5.54493L0.782259 5.40746L0.786263 5.33806L0.79694 5.19926L0.826302 4.85226L0.839649 4.71345C0.903711 4.02078 0.998471 3.34812 1.13327 2.84229C1.25431 2.38858 1.4925 1.97466 1.82396 1.64203C2.15542 1.3094 2.5685 1.06975 3.02178 0.947104C3.67175 0.773601 5.08246 0.66683 6.56391 0.600098L6.7908 0.590755L7.02036 0.582748L7.13514 0.578744L7.36336 0.569401C8.63355 0.528528 9.90425 0.505836 11.1751 0.501335H11.4327V0.5ZM9.22919 4.78419V11.2145L14.7773 8.00067L9.22919 4.78419Z" fill="white"/>
</svg>
