<svg width="640" height="160" viewBox="0 0 640 160" fill="none" xmlns="http://www.w3.org/2000/svg">
<path d="M104.426 98.9807C103.785 97.7716 102.721 96.8802 101.993 95.7343C101.39 94.7881 100.727 93.8798 100.155 92.9139C97.8113 88.9336 97.6468 84.6735 98.5874 80.2784C98.8039 79.2703 99.3537 78.4943 100.147 77.8559C101.856 76.4823 103.875 75.747 105.911 75.044C110.728 73.3653 115.719 72.2911 120.601 70.8387C123.694 69.9178 126.774 68.9547 129.638 67.4264C130.964 66.7234 132.234 65.9234 133.25 64.793C134.673 63.2099 135.164 61.4299 134.458 59.3519C131.757 51.3997 128.412 43.7456 124.182 36.4753C123.714 35.6696 123.137 34.9287 122.611 34.1498C122.62 34.058 122.596 33.9659 122.543 33.8905C122.49 33.8151 122.411 33.7614 122.322 33.7392L122.333 33.7533C122.257 33.2162 122.145 32.7073 121.472 32.6285L121.481 32.637C121.605 32.0085 121.2 31.5797 120.889 31.1255C120.386 30.3958 119.858 29.6816 119.342 28.9617C115.922 24.2011 112.031 19.8637 107.541 16.09C103.903 13.002 99.9039 10.3658 95.6321 8.23907C91.224 6.0933 86.5916 4.44291 81.8198 3.31815C78.049 2.44117 74.2251 1.8109 70.3723 1.43133C69.7284 1.36806 69.0676 1.37088 68.2943 0.940648C70.856 0.340296 73.3066 0.320613 75.7459 0.217976C76.4672 0.217976 77.2166 0.490736 77.8915 0.00708008H83.5154C84.0567 0.486518 84.7062 0.195481 85.3052 0.255938C89.1505 0.430279 92.8974 1.22184 96.5994 2.19056C103.206 3.9054 109.532 6.56178 115.382 10.0781C121.429 13.7307 126.94 18.205 131.757 23.373C136.484 28.4106 140.353 34.0584 143.934 39.9382C144.106 40.2194 144.28 40.5006 144.28 40.8394C144.983 42.2609 145.776 43.6514 146.389 45.1136C148.753 50.7937 150.146 56.7382 151.001 62.8134C151.274 64.7523 151.396 66.7122 151.652 68.6524C152.014 71.2429 152.182 73.8569 152.155 76.4725C152.138 77.5087 151.722 78.3621 151.05 79.1283C150.25 80.038 149.214 80.547 148.117 80.9828C145.996 81.8264 143.75 82.0078 141.52 82.0753C138.393 82.1681 135.268 82.1048 132.134 81.9262C127.791 81.6788 123.43 81.6942 119.077 81.8503C117.34 81.8978 115.637 82.3376 114.094 83.1368C111.586 84.457 111.103 87.1466 113.004 89.2359C114.251 90.6067 115.816 91.5192 117.513 92.2348C119.428 93.4201 121.537 94.2032 123.583 95.1002C127.52 96.838 131.507 98.4591 135.144 100.79C137.485 102.292 139.614 104.035 141.072 106.462C141.727 107.545 142.154 108.752 142.326 110.006C142.572 112.848 141.904 115.498 140.488 117.935C138.843 120.775 136.782 123.315 134.51 125.679C132.761 127.507 130.855 129.154 128.954 130.811C128.221 131.447 127.33 131.92 126.776 132.759C126.608 132.841 126.447 132.935 126.294 133.04C123.324 135.393 120.278 137.643 117.155 139.789C112.429 143.023 107.42 145.704 102.042 147.682C101.596 147.823 101.139 147.926 100.708 148.096C94.4806 150.559 87.9596 151.65 81.3263 152.089C77.031 152.37 72.7245 152.089 68.47 151.484C63.2468 150.728 58.1229 149.399 53.1913 147.519C48.2938 145.656 43.5943 143.31 39.1625 140.515C35.0908 137.943 31.2279 135.055 27.6096 131.878C23.6022 128.369 19.8696 124.559 16.4447 120.479C15.6813 119.575 15.1582 118.414 13.9983 117.873L14.0067 117.881C14.1009 117.25 13.6187 116.987 13.2306 116.664C11.9512 114.868 10.6507 113.092 9.41202 111.279C8.87493 110.493 8.16491 109.763 8.12695 108.581C8.9368 108.606 9.45138 109.078 9.973 109.483C12.2226 111.235 14.3315 113.161 16.4658 115.057C20.8004 118.91 25.0676 122.846 29.5582 126.52C37.0465 132.641 45.5414 136.88 54.7421 139.76C61.0563 141.728 67.5365 142.853 74.0813 143.764C78.8138 144.423 83.4029 143.754 87.9625 142.749C95.4802 141.092 102.713 138.586 109.557 135.016C112.975 133.234 116.224 131.196 118.99 128.491C121.122 126.403 122.845 124.031 123.289 120.953C123.404 120.155 123.416 119.37 123.171 118.594C123.03 117.212 122.44 116.001 121.717 114.842C120.508 112.903 118.852 111.395 117.066 110.02C112.907 106.818 108.934 103.412 105.307 99.6064C105.055 99.3421 104.868 98.9807 104.426 98.9807Z" fill="#B3B8BF"/>
<path d="M95.6316 8.23917C99.9019 10.3621 103.9 12.994 107.537 16.0775C112.025 19.8511 115.918 24.1886 119.339 28.9492C119.857 29.669 120.384 30.3833 120.886 31.113C121.198 31.5671 121.601 31.9959 121.478 32.6244C120.353 31.8469 119.622 30.6785 118.718 29.6873C111.156 21.4132 102.064 15.5404 91.3645 12.1928C87.5206 10.9907 83.5796 10.1808 79.5965 9.59172C79.4616 9.58809 79.3268 9.59941 79.1944 9.62546C79.2745 9.96571 79.5768 10.0374 79.8046 10.1766C87.5009 14.8599 92.8956 21.5538 96.6931 29.6128C99.042 34.6251 100.55 39.9898 101.156 45.4919C101.738 50.6026 101.351 55.6824 100.269 60.7045C98.0541 70.9865 93.5199 80.2111 87.4193 88.7116C83.8299 93.7197 79.7933 98.3341 74.9272 102.151C69.6464 106.295 63.6907 109.223 57.4397 111.571C53.2822 113.156 48.9591 114.266 44.5525 114.881C39.0622 115.625 33.6084 115.615 28.3613 113.538C25.5677 112.433 23.0186 110.836 20.4555 109.281C16.4007 106.819 12.5933 104.042 9.42004 100.457C4.8942 95.3717 2.31705 89.3921 1.12478 82.7601C0.892794 81.4722 0.753603 80.1675 0.552548 78.8754C0.508963 78.5942 0.530053 78.1344 0 78.4536V77.8912C0.189807 77.9868 0.350088 77.932 0.368366 77.7295C0.396485 77.4385 0.430228 77.1067 0 77.0476V68.0494C0.149033 68.0873 0.281195 68.0297 0.272759 67.8835C0.264323 67.7372 0.140598 67.7007 0 67.7682V66.9246C0.535677 67.2423 0.506151 66.7756 0.546924 66.5028C0.710018 65.4399 0.82812 64.3699 0.994025 63.307C2.18348 55.7386 4.74376 48.6328 8.3051 41.8757C11.5937 35.636 15.4545 29.7689 20.1153 24.4655C24.8225 19.0989 30.6784 15.2437 37.046 12.1351C42.9192 9.2629 49.1121 7.09711 55.4953 5.68311C55.3673 6.0346 55.1241 6.11615 54.9118 6.23003C54.6995 6.34391 54.497 6.44796 54.2917 6.56184C48.433 9.81667 42.6503 13.1952 37.3272 17.2937C34.767 19.262 32.2517 21.2965 29.7265 23.314C26.1666 26.1569 23.4081 29.6958 20.9631 33.4961C17.8505 38.3462 15.0742 43.4042 12.6538 48.6342C10.6264 53.0026 9.50861 57.6325 8.97153 62.4128C7.70615 73.6887 9.23304 84.661 12.9083 95.3225C14.4141 99.6894 17.3413 103.221 20.8169 106.253C23.3251 108.44 26.1722 110.009 29.4313 110.791C33.8924 111.862 38.1638 111.13 42.3438 109.468C44.2154 108.722 46.0119 107.8 47.709 106.714C55.8889 101.49 63.8664 95.9847 71.2337 89.6423C75.8622 85.6578 80.1856 81.378 83.7469 76.3854C85.7715 73.5481 87.4489 70.5253 88.5272 67.1987C90.2144 62.0163 89.9712 56.8733 88.1884 51.7611C86.8851 48.0241 84.9786 44.5907 82.9638 41.2037C80.6186 37.2585 78.123 33.3963 76.0351 29.3007C75.9719 29.1755 75.9072 29.0504 75.8369 28.9281C74.8527 27.2058 74.1919 25.3471 73.0432 23.6712C71.5895 21.5509 70.9835 18.978 70.5462 16.4191C70.2833 14.8866 70.154 13.3654 70.5279 11.8244C71.0018 9.87151 72.2306 8.73126 74.1835 8.41913C76.5399 8.03671 78.9244 7.91017 81.3104 7.84128C82.7585 7.7991 84.1954 7.61632 85.652 7.63882C88.5515 7.66465 91.4451 7.90668 94.3086 8.36289C94.7431 8.43601 95.2267 8.65393 95.6316 8.23917Z" fill="#011028"/>
<path d="M126.773 132.759C127.327 131.916 128.218 131.447 128.951 130.811C130.856 129.154 132.758 127.499 134.507 125.679C136.779 123.315 138.84 120.775 140.485 117.935C141.891 115.498 142.569 112.848 142.323 110.006C143.009 110.643 143.729 111.252 144.373 111.923C147.505 115.156 148.145 118.913 146.644 123.073C145.479 126.297 143.444 128.979 141.191 131.509C136.21 137.109 130.306 141.632 124.263 145.991C121.124 148.286 117.813 150.337 114.36 152.127C108.408 155.162 102.173 157.396 95.5927 158.622C92.0496 159.282 88.4826 159.737 84.8735 159.785C84.5923 159.785 84.3111 159.816 84.0777 160H82.3906C82.1262 159.734 81.786 159.792 81.464 159.788C76.1593 159.71 70.9487 158.923 65.8211 157.603C56.2394 155.135 47.535 150.812 39.5294 145.045C35.013 141.787 30.7894 138.142 26.9065 134.151C22.2822 129.38 18.0686 124.227 14.3104 118.747C14.1318 118.489 13.8886 118.234 13.9997 117.864C15.1596 118.406 15.6869 119.567 16.4461 120.471C19.871 124.55 23.6036 128.361 27.6109 131.869C31.2293 135.047 35.0922 137.935 39.1638 140.506C43.5956 143.302 48.2952 145.648 53.1927 147.511C58.1243 149.39 63.2482 150.72 68.4714 151.476C72.7259 152.076 77.0324 152.364 81.3276 152.08C87.961 151.642 94.4819 150.55 100.709 148.087C101.141 147.917 101.598 147.806 102.043 147.674C102.223 147.9 102.444 147.854 102.673 147.774C103.334 147.54 104 147.322 104.657 147.071C110.329 144.962 115.834 142.521 120.755 138.933C123.105 137.223 125.284 135.324 126.773 132.759Z" fill="#011028"/>
<path d="M77.8912 0C77.2163 0.483656 76.4669 0.213708 75.7456 0.210896C75.7147 0.139192 75.6796 0.0702988 75.6416 0H77.8912Z" fill="#011028"/>
<path d="M85.3045 0.248858C84.7055 0.188401 84.0559 0.479438 83.5146 0H85.483L85.3045 0.248858Z" fill="#011028"/>
<path d="M117.51 92.2319C115.823 91.5162 114.248 90.6037 113.001 89.2329C111.1 87.1436 111.582 84.4526 114.09 83.1338C115.633 82.3346 117.336 81.8948 119.073 81.8473C123.432 81.6913 127.79 81.6758 132.13 81.9232C135.264 82.1018 138.39 82.1651 141.517 82.0723C143.747 82.0048 145.992 81.8248 148.114 80.9798C149.21 80.544 150.246 80.035 151.046 79.1254C151.718 78.3591 152.135 77.5057 152.152 76.4695C152.179 73.8539 152.01 71.2399 151.648 68.6494C151.392 66.7092 151.27 64.7493 150.997 62.8104C150.142 56.7352 148.748 50.7907 146.386 45.1106C145.775 43.647 144.98 42.2579 144.277 40.8364C144.72 40.873 144.887 41.2357 145.089 41.5394C148.142 46.1594 150.947 50.9032 152.71 56.1967C154.327 61.0515 155.401 66.0203 156.095 71.0846C156.599 74.7401 156.843 78.4252 157.196 82.0976C157.545 85.7152 156.274 87.6709 152.556 88.873C151.264 89.2909 149.926 89.55 148.57 89.6449C143.952 89.9654 139.335 89.7334 134.713 89.5324C130.792 89.3623 126.854 89.1584 122.934 89.6842C121.677 89.853 120.452 90.151 119.307 90.7218C118.588 91.0846 117.916 91.5008 117.51 92.2319Z" fill="#011028"/>
<path d="M104.426 98.9807C104.867 98.9807 105.054 99.3435 105.306 99.6078C108.933 103.404 112.907 106.819 117.066 110.022C118.851 111.397 120.507 112.904 121.716 114.843C122.439 116.003 123.024 117.213 123.17 118.595C118.941 115.263 114.753 111.883 110.987 108.018C108.694 105.663 106.583 103.168 105.026 100.247C104.805 99.8341 104.625 99.4025 104.426 98.9807Z" fill="#011028"/>
<path d="M121.477 32.6187C122.149 32.703 122.261 33.212 122.337 33.7434C121.921 33.4622 121.524 33.1698 121.477 32.6187Z" fill="#011028"/>
<path d="M13.2275 116.655C13.6156 116.979 14.0978 117.242 14.0036 117.873C13.4356 117.663 13.2992 117.18 13.2275 116.655Z" fill="#011028"/>
<path d="M122.32 33.7322C122.41 33.7544 122.488 33.8081 122.542 33.8835C122.595 33.9589 122.619 34.0509 122.61 34.1427C122.528 34.1078 122.458 34.0509 122.407 33.9784C122.356 33.9059 122.326 33.8207 122.32 33.7322Z" fill="#011028"/>
<path d="M193.767 76.8064C190.023 76.8064 186.585 75.9277 183.452 74.1704C180.319 72.4131 177.836 69.9872 176.003 66.8927C174.169 63.7601 173.252 60.2263 173.252 56.2914C173.252 52.3947 174.169 48.8992 176.003 45.8047C177.836 42.6721 180.319 40.2271 183.452 38.4697C186.585 36.7124 190.023 35.8337 193.767 35.8337C197.549 35.8337 200.987 36.7124 204.082 38.4697C207.214 40.2271 209.678 42.6721 211.474 45.8047C213.308 48.8992 214.225 52.3947 214.225 56.2914C214.225 60.2263 213.308 63.7601 211.474 66.8927C209.678 69.9872 207.214 72.4131 204.082 74.1704C200.949 75.9277 197.511 76.8064 193.767 76.8064ZM193.767 69.6434C196.174 69.6434 198.294 69.1085 200.128 68.0388C201.961 66.9309 203.394 65.3646 204.426 63.3399C205.457 61.3151 205.973 58.9656 205.973 56.2914C205.973 53.6172 205.457 51.2868 204.426 49.3003C203.394 47.2755 201.961 45.7283 200.128 44.6586C198.294 43.5889 196.174 43.0541 193.767 43.0541C191.36 43.0541 189.221 43.5889 187.349 44.6586C185.515 45.7283 184.082 47.2755 183.051 49.3003C182.02 51.2868 181.504 53.6172 181.504 56.2914C181.504 58.9656 182.02 61.3151 183.051 63.3399C184.082 65.3646 185.515 66.9309 187.349 68.0388C189.221 69.1085 191.36 69.6434 193.767 69.6434Z" fill="#011028"/>
<path d="M232.342 76.921C229.744 76.921 227.414 76.4626 225.351 75.5457C223.288 74.5906 221.645 73.3108 220.422 71.7063C219.238 70.1018 218.589 68.3254 218.474 66.377H226.554C226.707 67.5995 227.299 68.6119 228.33 69.4141C229.4 70.2164 230.718 70.6175 232.284 70.6175C233.813 70.6175 234.997 70.3119 235.837 69.7007C236.716 69.0894 237.155 68.3063 237.155 67.3512C237.155 66.3197 236.62 65.5556 235.551 65.059C234.519 64.5242 232.858 63.9511 230.565 63.3399C228.197 62.7668 226.248 62.1747 224.72 61.5634C223.23 60.9522 221.931 60.0162 220.824 58.7555C219.754 57.4948 219.219 55.7948 219.219 53.6554C219.219 51.8981 219.716 50.2936 220.709 48.8418C221.74 47.3901 223.192 46.244 225.064 45.4036C226.974 44.5631 229.209 44.1429 231.769 44.1429C235.551 44.1429 238.569 45.098 240.823 47.0081C243.077 48.88 244.318 51.4205 244.548 54.6296H236.869C236.754 53.3689 236.219 52.3756 235.264 51.6498C234.347 50.8857 233.106 50.5037 231.54 50.5037C230.088 50.5037 228.961 50.7711 228.159 51.3059C227.394 51.8408 227.012 52.5857 227.012 53.5408C227.012 54.6105 227.547 55.4319 228.617 56.0049C229.687 56.5397 231.348 57.0937 233.602 57.6667C235.895 58.2398 237.786 58.8319 239.276 59.4432C240.766 60.0544 242.045 61.0095 243.115 62.3084C244.223 63.5691 244.796 65.25 244.834 67.3512C244.834 69.1849 244.318 70.8276 243.287 72.2794C242.294 73.7311 240.842 74.8772 238.932 75.7176C237.06 76.5199 234.863 76.921 232.342 76.921Z" fill="#011028"/>
<path d="M249.357 60.532C249.357 57.2465 250.025 54.3813 251.362 51.9363C252.699 49.4531 254.552 47.5429 256.921 46.2058C259.289 44.8305 262.002 44.1429 265.058 44.1429C268.993 44.1429 272.24 45.1362 274.8 47.1227C277.398 49.0711 279.136 51.8217 280.015 55.3745H271.362C270.903 53.9992 270.12 52.9296 269.012 52.1655C267.942 51.3632 266.605 50.9621 265.001 50.9621C262.709 50.9621 260.894 51.8026 259.557 53.4835C258.22 55.1262 257.551 57.4757 257.551 60.532C257.551 63.55 258.22 65.8995 259.557 67.5804C260.894 69.2231 262.709 70.0445 265.001 70.0445C268.248 70.0445 270.368 68.5928 271.362 65.6893H280.015C279.136 69.1276 277.398 71.8591 274.8 73.8839C272.202 75.9086 268.955 76.921 265.058 76.921C262.002 76.921 259.289 76.2525 256.921 74.9154C254.552 73.5401 252.699 71.6299 251.362 69.1849C250.025 66.7017 249.357 63.8174 249.357 60.532Z" fill="#011028"/>
<path d="M283.829 60.4173C283.829 57.2083 284.459 54.3622 285.72 51.879C287.019 49.3958 288.757 47.4856 290.935 46.1485C293.15 44.8114 295.615 44.1429 298.327 44.1429C300.695 44.1429 302.758 44.6204 304.516 45.5755C306.311 46.5306 307.744 47.734 308.814 49.1857V44.6586H316.894V76.4053H308.814V71.7636C307.782 73.2535 306.35 74.4951 304.516 75.4884C302.72 76.4435 300.638 76.921 298.27 76.921C295.595 76.921 293.15 76.2334 290.935 74.8581C288.757 73.4827 287.019 71.5535 285.72 69.0703C284.459 66.5489 283.829 63.6646 283.829 60.4173ZM308.814 60.532C308.814 58.5836 308.432 56.9218 307.668 55.5465C306.903 54.133 305.872 53.0633 304.573 52.3374C303.274 51.5734 301.88 51.1913 300.39 51.1913C298.9 51.1913 297.525 51.5543 296.264 52.2801C295.003 53.006 293.972 54.0757 293.17 55.4892C292.405 56.8645 292.023 58.5072 292.023 60.4173C292.023 62.3275 292.405 64.0084 293.17 65.4601C293.972 66.8736 295.003 67.9624 296.264 68.7265C297.563 69.4905 298.938 69.8726 300.39 69.8726C301.88 69.8726 303.274 69.5096 304.573 68.7838C305.872 68.0197 306.903 66.95 307.668 65.5747C308.432 64.1612 308.814 62.4803 308.814 60.532Z" fill="#011028"/>
<path d="M332.752 49.5868C333.783 47.9059 335.12 46.5879 336.763 45.6328C338.444 44.6777 340.354 44.2002 342.493 44.2002V52.6239H340.373C337.852 52.6239 335.942 53.2161 334.643 54.4004C333.382 55.5847 332.752 57.6476 332.752 60.5893V76.4053H324.729V44.6586H332.752V49.5868Z" fill="#011028"/>
<path d="M384.244 55.8903C386.498 56.3105 388.351 57.4375 389.803 59.2713C391.254 61.105 391.98 63.2062 391.98 65.5747C391.98 67.7141 391.445 69.6051 390.376 71.2479C389.344 72.8524 387.835 74.1131 385.849 75.03C383.862 75.9468 381.513 76.4053 378.8 76.4053H361.552V36.4068H378.055C380.768 36.4068 383.098 36.8461 385.046 37.7248C387.033 38.6035 388.523 39.826 389.516 41.3923C390.548 42.9586 391.063 44.735 391.063 46.7216C391.063 49.052 390.433 51.0003 389.172 52.5666C387.95 54.133 386.307 55.2408 384.244 55.8903ZM369.574 52.9105H376.909C378.819 52.9105 380.29 52.4902 381.322 51.6498C382.353 50.7711 382.869 49.5295 382.869 47.925C382.869 46.3205 382.353 45.0789 381.322 44.2002C380.29 43.3215 378.819 42.8822 376.909 42.8822H369.574V52.9105ZM377.654 69.8726C379.602 69.8726 381.111 69.4141 382.181 68.4973C383.289 67.5804 383.843 66.2815 383.843 64.6006C383.843 62.8814 383.27 61.5443 382.124 60.5893C380.978 59.596 379.431 59.0993 377.482 59.0993H369.574V69.8726H377.654Z" fill="#011028"/>
<path d="M406.397 34V76.4053H398.374V34H406.397Z" fill="#011028"/>
<path d="M412.26 60.4173C412.26 57.2083 412.891 54.3622 414.151 51.879C415.45 49.3958 417.188 47.4856 419.366 46.1485C421.582 44.8114 424.046 44.1429 426.758 44.1429C429.127 44.1429 431.19 44.6204 432.947 45.5755C434.743 46.5306 436.175 47.734 437.245 49.1857V44.6586H445.325V76.4053H437.245V71.7636C436.213 73.2535 434.781 74.4951 432.947 75.4884C431.152 76.4435 429.069 76.921 426.701 76.921C424.027 76.921 421.582 76.2334 419.366 74.8581C417.188 73.4827 415.45 71.5535 414.151 69.0703C412.891 66.5489 412.26 63.6646 412.26 60.4173ZM437.245 60.532C437.245 58.5836 436.863 56.9218 436.099 55.5465C435.335 54.133 434.303 53.0633 433.004 52.3374C431.705 51.5734 430.311 51.1913 428.821 51.1913C427.331 51.1913 425.956 51.5543 424.695 52.2801C423.435 53.006 422.403 54.0757 421.601 55.4892C420.837 56.8645 420.455 58.5072 420.455 60.4173C420.455 62.3275 420.837 64.0084 421.601 65.4601C422.403 66.8736 423.435 67.9624 424.695 68.7265C425.994 69.4905 427.369 69.8726 428.821 69.8726C430.311 69.8726 431.705 69.5096 433.004 68.7838C434.303 68.0197 435.335 66.95 436.099 65.5747C436.863 64.1612 437.245 62.4803 437.245 60.532Z" fill="#011028"/>
<path d="M470.753 44.2002C474.535 44.2002 477.591 45.4036 479.921 47.8104C482.252 50.1789 483.417 53.5026 483.417 57.7813V76.4053H475.394V58.8701C475.394 56.3487 474.764 54.4195 473.503 53.0824C472.243 51.7071 470.524 51.0194 468.346 51.0194C466.13 51.0194 464.373 51.7071 463.074 53.0824C461.813 54.4195 461.183 56.3487 461.183 58.8701V76.4053H453.16V44.6586H461.183V48.6126C462.253 47.2373 463.609 46.1676 465.252 45.4036C466.932 44.6013 468.766 44.2002 470.753 44.2002Z" fill="#011028"/>
<path d="M488.983 60.532C488.983 57.2465 489.652 54.3813 490.989 51.9363C492.326 49.4531 494.179 47.5429 496.547 46.2058C498.916 44.8305 501.628 44.1429 504.685 44.1429C508.619 44.1429 511.867 45.1362 514.426 47.1227C517.024 49.0711 518.762 51.8217 519.641 55.3745H510.988C510.53 53.9992 509.746 52.9296 508.639 52.1655C507.569 51.3632 506.232 50.9621 504.627 50.9621C502.335 50.9621 500.52 51.8026 499.183 53.4835C497.846 55.1262 497.178 57.4757 497.178 60.532C497.178 63.55 497.846 65.8995 499.183 67.5804C500.52 69.2231 502.335 70.0445 504.627 70.0445C507.875 70.0445 509.995 68.5928 510.988 65.6893H519.641C518.762 69.1276 517.024 71.8591 514.426 73.8839C511.829 75.9086 508.581 76.921 504.685 76.921C501.628 76.921 498.916 76.2525 496.547 74.9154C494.179 73.5401 492.326 71.6299 490.989 69.1849C489.652 66.7017 488.983 63.8174 488.983 60.532Z" fill="#011028"/>
<path d="M523.455 60.4173C523.455 57.2083 524.086 54.3622 525.346 51.879C526.645 49.3958 528.384 47.4856 530.561 46.1485C532.777 44.8114 535.241 44.1429 537.953 44.1429C540.322 44.1429 542.385 44.6204 544.142 45.5755C545.938 46.5306 547.37 47.734 548.44 49.1857V44.6586H556.52V76.4053H548.44V71.7636C547.409 73.2535 545.976 74.4951 544.142 75.4884C542.347 76.4435 540.265 76.921 537.896 76.921C535.222 76.921 532.777 76.2334 530.561 74.8581C528.384 73.4827 526.645 71.5535 525.346 69.0703C524.086 66.5489 523.455 63.6646 523.455 60.4173ZM548.44 60.532C548.44 58.5836 548.058 56.9218 547.294 55.5465C546.53 54.133 545.498 53.0633 544.2 52.3374C542.901 51.5734 541.506 51.1913 540.016 51.1913C538.526 51.1913 537.151 51.5543 535.89 52.2801C534.63 53.006 533.598 54.0757 532.796 55.4892C532.032 56.8645 531.65 58.5072 531.65 60.4173C531.65 62.3275 532.032 64.0084 532.796 65.4601C533.598 66.8736 534.63 67.9624 535.89 68.7265C537.189 69.4905 538.565 69.8726 540.016 69.8726C541.506 69.8726 542.901 69.5096 544.2 68.7838C545.498 68.0197 546.53 66.95 547.294 65.5747C548.058 64.1612 548.44 62.4803 548.44 60.532Z" fill="#011028"/>
<path d="M572.378 49.5868C573.41 47.9059 574.747 46.5879 576.389 45.6328C578.07 44.6777 579.98 44.2002 582.12 44.2002V52.6239H580C577.478 52.6239 575.568 53.2161 574.269 54.4004C573.008 55.5847 572.378 57.6476 572.378 60.5893V76.4053H564.355V44.6586H572.378V49.5868Z" fill="#011028"/>
<path d="M596.864 51.2486V66.6062C596.864 67.6759 597.112 68.4591 597.609 68.9557C598.144 69.4141 599.023 69.6434 600.245 69.6434H603.97V76.4053H598.927C592.165 76.4053 588.784 73.1198 588.784 66.5489V51.2486H585.002V44.6586H588.784V36.8079H596.864V44.6586H603.97V51.2486H596.864Z" fill="#011028"/>
<path d="M639.252 59.8443C639.252 60.9904 639.176 62.0219 639.023 62.9387H615.814C616.005 65.2309 616.808 67.0265 618.221 68.3254C619.635 69.6242 621.373 70.2737 623.436 70.2737C626.416 70.2737 628.536 68.9939 629.797 66.4343H638.45C637.533 69.4905 635.775 72.0119 633.178 73.9985C630.58 75.9468 627.39 76.921 623.608 76.921C620.552 76.921 617.801 76.2525 615.356 74.9154C612.949 73.5401 611.058 71.6108 609.683 69.1276C608.346 66.6444 607.677 63.7792 607.677 60.532C607.677 57.2465 608.346 54.3622 609.683 51.879C611.02 49.3958 612.892 47.4856 615.299 46.1485C617.705 44.8114 620.475 44.1429 623.608 44.1429C626.626 44.1429 629.319 44.7923 631.688 46.0912C634.095 47.3901 635.947 49.243 637.246 51.6498C638.583 54.0183 639.252 56.7499 639.252 59.8443ZM630.943 57.5521C630.905 55.4892 630.16 53.8464 628.708 52.6239C627.256 51.3632 625.48 50.7329 623.379 50.7329C621.392 50.7329 619.711 51.3441 618.336 52.5666C616.999 53.7509 616.177 55.4128 615.872 57.5521H630.943Z" fill="#011028"/>
<path d="M183.193 126.813C181.176 126.813 179.421 126.447 177.928 125.713C176.435 124.98 175.282 123.958 174.47 122.648C173.658 121.338 173.252 119.819 173.252 118.09H176.71C176.71 119.164 176.959 120.16 177.456 121.076C177.954 121.967 178.675 122.688 179.618 123.238C180.587 123.762 181.779 124.024 183.193 124.024C185.053 124.024 186.494 123.578 187.516 122.688C188.537 121.797 189.048 120.684 189.048 119.348C189.048 118.247 188.813 117.37 188.341 116.715C187.869 116.034 187.228 115.484 186.416 115.064C185.63 114.645 184.713 114.279 183.665 113.964C182.643 113.65 181.569 113.296 180.443 112.903C178.321 112.17 176.749 111.266 175.728 110.192C174.706 109.092 174.195 107.664 174.195 105.909C174.169 104.442 174.509 103.145 175.217 102.019C175.924 100.866 176.919 99.9754 178.203 99.3466C179.513 98.6917 181.058 98.3643 182.84 98.3643C184.595 98.3643 186.114 98.6917 187.398 99.3466C188.708 100.002 189.716 100.905 190.424 102.058C191.157 103.211 191.537 104.52 191.563 105.987H188.105C188.105 105.228 187.909 104.481 187.516 103.748C187.123 102.988 186.52 102.372 185.708 101.901C184.922 101.429 183.927 101.193 182.722 101.193C181.229 101.167 179.998 101.547 179.028 102.333C178.085 103.119 177.614 104.206 177.614 105.594C177.614 106.773 177.941 107.677 178.596 108.306C179.277 108.934 180.22 109.458 181.425 109.878C182.63 110.271 184.019 110.729 185.59 111.253C186.9 111.724 188.079 112.275 189.127 112.903C190.175 113.532 190.987 114.344 191.563 115.339C192.166 116.335 192.467 117.605 192.467 119.151C192.467 120.461 192.126 121.705 191.445 122.884C190.764 124.037 189.729 124.98 188.341 125.713C186.979 126.447 185.263 126.813 183.193 126.813Z" fill="#011028"/>
<path d="M205.832 126.813C203.998 126.813 202.348 126.394 200.881 125.556C199.414 124.718 198.248 123.539 197.384 122.02C196.545 120.474 196.126 118.666 196.126 116.597C196.126 114.527 196.558 112.733 197.423 111.214C198.287 109.668 199.453 108.476 200.92 107.638C202.413 106.799 204.077 106.38 205.911 106.38C207.744 106.38 209.395 106.799 210.862 107.638C212.329 108.476 213.481 109.668 214.32 111.214C215.184 112.733 215.616 114.527 215.616 116.597C215.616 118.666 215.184 120.474 214.32 122.02C213.455 123.539 212.276 124.718 210.783 125.556C209.316 126.394 207.666 126.813 205.832 126.813ZM205.832 123.984C206.958 123.984 208.006 123.709 208.976 123.159C209.945 122.609 210.731 121.784 211.333 120.684C211.936 119.583 212.237 118.221 212.237 116.597C212.237 114.973 211.936 113.611 211.333 112.51C210.757 111.41 209.984 110.585 209.015 110.035C208.046 109.485 207.011 109.21 205.911 109.21C204.784 109.21 203.736 109.485 202.767 110.035C201.798 110.585 201.012 111.41 200.409 112.51C199.807 113.611 199.506 114.973 199.506 116.597C199.506 118.221 199.807 119.583 200.409 120.684C201.012 121.784 201.785 122.609 202.728 123.159C203.697 123.709 204.732 123.984 205.832 123.984Z" fill="#011028"/>
<path d="M221.267 126.342V109.642H218.32V106.852H221.267V103.473C221.267 101.586 221.738 100.211 222.681 99.3466C223.624 98.4822 225 98.0499 226.807 98.0499H228.772V100.879H227.318C226.323 100.879 225.615 101.089 225.196 101.508C224.777 101.901 224.567 102.582 224.567 103.551V106.852H229.361V109.642H224.567V126.342H221.267Z" fill="#011028"/>
<path d="M240.993 126.342C239.211 126.342 237.81 125.91 236.788 125.045C235.767 124.181 235.256 122.622 235.256 120.369V109.642H231.877V106.852H235.256L235.688 102.176H238.557V106.852H244.294V109.642H238.557V120.369C238.557 121.6 238.805 122.439 239.303 122.884C239.801 123.303 240.678 123.513 241.936 123.513H243.979V126.342H240.993Z" fill="#011028"/>
<path d="M252.416 126.342L246.719 106.852H250.02L254.145 122.137L258.704 106.852H262.437L267.034 122.137L271.121 106.852H274.461L268.763 126.342H265.384L260.59 110.271L255.796 126.342H252.416Z" fill="#011028"/>
<path d="M283.904 126.813C282.28 126.813 280.931 126.538 279.857 125.988C278.783 125.438 277.984 124.705 277.46 123.788C276.936 122.871 276.674 121.875 276.674 120.801C276.674 118.811 277.434 117.278 278.953 116.204C280.473 115.13 282.542 114.593 285.162 114.593H290.427V114.357C290.427 112.654 289.982 111.371 289.091 110.506C288.2 109.616 287.008 109.17 285.515 109.17C284.232 109.17 283.118 109.498 282.175 110.153C281.258 110.781 280.682 111.711 280.446 112.943H277.067C277.198 111.528 277.67 110.336 278.482 109.367C279.32 108.397 280.355 107.664 281.586 107.166C282.817 106.642 284.127 106.38 285.515 106.38C288.24 106.38 290.283 107.114 291.645 108.581C293.034 110.022 293.728 111.947 293.728 114.357V126.342H290.781L290.584 122.845C290.034 123.945 289.222 124.888 288.148 125.674C287.1 126.434 285.686 126.813 283.904 126.813ZM284.415 124.024C285.672 124.024 286.747 123.696 287.637 123.041C288.554 122.386 289.248 121.535 289.72 120.487C290.191 119.439 290.427 118.339 290.427 117.186V117.147H285.437C283.498 117.147 282.123 117.488 281.311 118.169C280.525 118.824 280.132 119.649 280.132 120.644C280.132 121.666 280.499 122.491 281.232 123.12C281.992 123.722 283.053 124.024 284.415 124.024Z" fill="#011028"/>
<path d="M298.68 126.342V106.852H301.666L301.941 110.585C302.544 109.301 303.46 108.28 304.692 107.52C305.923 106.76 307.442 106.38 309.25 106.38V109.838H308.346C307.193 109.838 306.132 110.048 305.163 110.467C304.194 110.86 303.421 111.541 302.845 112.51C302.268 113.48 301.98 114.816 301.98 116.518V126.342H298.68Z" fill="#011028"/>
<path d="M320.988 126.813C319.128 126.813 317.478 126.394 316.037 125.556C314.596 124.692 313.457 123.5 312.618 121.98C311.806 120.461 311.4 118.666 311.4 116.597C311.4 114.554 311.806 112.772 312.618 111.253C313.43 109.707 314.557 108.515 315.998 107.677C317.465 106.813 319.154 106.38 321.067 106.38C322.953 106.38 324.577 106.813 325.939 107.677C327.328 108.515 328.389 109.629 329.122 111.017C329.856 112.406 330.222 113.899 330.222 115.497C330.222 115.785 330.209 116.073 330.183 116.361C330.183 116.649 330.183 116.977 330.183 117.344H314.662C314.74 118.837 315.081 120.081 315.683 121.076C316.312 122.046 317.085 122.779 318.002 123.277C318.945 123.775 319.94 124.024 320.988 124.024C322.35 124.024 323.49 123.709 324.407 123.08C325.324 122.452 325.992 121.6 326.411 120.526H329.672C329.148 122.334 328.14 123.84 326.646 125.045C325.179 126.224 323.293 126.813 320.988 126.813ZM320.988 109.17C319.416 109.17 318.015 109.655 316.784 110.624C315.579 111.567 314.884 112.956 314.701 114.789H326.961C326.882 113.034 326.28 111.659 325.153 110.663C324.027 109.668 322.638 109.17 320.988 109.17Z" fill="#011028"/>
<path d="M343.464 126.342L353.602 98.8358H357.099L367.198 126.342H363.701L361.186 119.269H349.476L346.922 126.342H343.464ZM350.458 116.597H360.203L355.331 103.001L350.458 116.597Z" fill="#011028"/>
<path d="M371.09 126.342V106.852H374.077L374.352 110.585C374.954 109.301 375.871 108.28 377.102 107.52C378.334 106.76 379.853 106.38 381.661 106.38V109.838H380.757C379.604 109.838 378.543 110.048 377.574 110.467C376.605 110.86 375.832 111.541 375.256 112.51C374.679 113.48 374.391 114.816 374.391 116.518V126.342H371.09Z" fill="#011028"/>
<path d="M393.595 126.813C391.735 126.813 390.059 126.394 388.566 125.556C387.099 124.692 385.933 123.5 385.068 121.98C384.23 120.435 383.811 118.64 383.811 116.597C383.811 114.554 384.23 112.772 385.068 111.253C385.933 109.707 387.099 108.515 388.566 107.677C390.059 106.813 391.735 106.38 393.595 106.38C395.901 106.38 397.839 106.983 399.411 108.188C401.009 109.393 402.017 111.004 402.437 113.021H399.057C398.795 111.816 398.153 110.886 397.132 110.231C396.11 109.55 394.918 109.21 393.556 109.21C392.456 109.21 391.421 109.485 390.452 110.035C389.483 110.585 388.697 111.41 388.094 112.51C387.492 113.611 387.19 114.973 387.19 116.597C387.19 118.221 387.492 119.583 388.094 120.684C388.697 121.784 389.483 122.622 390.452 123.198C391.421 123.749 392.456 124.024 393.556 124.024C394.918 124.024 396.11 123.696 397.132 123.041C398.153 122.36 398.795 121.404 399.057 120.173H402.437C402.044 122.137 401.048 123.735 399.45 124.967C397.852 126.198 395.901 126.813 393.595 126.813Z" fill="#011028"/>
<path d="M407.046 126.342V98.0499H410.347V110.192C411.002 108.987 411.932 108.057 413.137 107.402C414.342 106.721 415.652 106.38 417.066 106.38C419.319 106.38 421.127 107.088 422.489 108.502C423.851 109.891 424.532 112.039 424.532 114.947V126.342H421.271V115.3C421.271 111.24 419.634 109.21 416.359 109.21C414.656 109.21 413.229 109.825 412.076 111.056C410.923 112.261 410.347 113.99 410.347 116.243V126.342H407.046Z" fill="#011028"/>
<path d="M431.537 102.529C430.882 102.529 430.332 102.32 429.887 101.901C429.468 101.455 429.258 100.905 429.258 100.25C429.258 99.6217 429.468 99.0978 429.887 98.6786C430.332 98.2595 430.882 98.0499 431.537 98.0499C432.166 98.0499 432.703 98.2595 433.148 98.6786C433.594 99.0978 433.816 99.6217 433.816 100.25C433.816 100.905 433.594 101.455 433.148 101.901C432.703 102.32 432.166 102.529 431.537 102.529ZM429.887 126.342V106.852H433.188V126.342H429.887Z" fill="#011028"/>
<path d="M446.636 126.342C444.855 126.342 443.454 125.91 442.432 125.045C441.41 124.181 440.899 122.622 440.899 120.369V109.642H437.52V106.852H440.899L441.332 102.176H444.2V106.852H449.937V109.642H444.2V120.369C444.2 121.6 444.449 122.439 444.947 122.884C445.444 123.303 446.322 123.513 447.579 123.513H449.623V126.342H446.636Z" fill="#011028"/>
<path d="M462.356 126.813C460.496 126.813 458.846 126.394 457.405 125.556C455.964 124.692 454.825 123.5 453.986 121.98C453.174 120.461 452.768 118.666 452.768 116.597C452.768 114.554 453.174 112.772 453.986 111.253C454.798 109.707 455.925 108.515 457.366 107.677C458.833 106.813 460.522 106.38 462.435 106.38C464.321 106.38 465.945 106.813 467.307 107.677C468.696 108.515 469.756 109.629 470.49 111.017C471.223 112.406 471.59 113.899 471.59 115.497C471.59 115.785 471.577 116.073 471.551 116.361C471.551 116.649 471.551 116.977 471.551 117.344H456.03C456.108 118.837 456.449 120.081 457.051 121.076C457.68 122.046 458.453 122.779 459.37 123.277C460.313 123.775 461.308 124.024 462.356 124.024C463.718 124.024 464.858 123.709 465.775 123.08C466.691 122.452 467.36 121.6 467.779 120.526H471.04C470.516 122.334 469.508 123.84 468.014 125.045C466.547 126.224 464.661 126.813 462.356 126.813ZM462.356 109.17C460.784 109.17 459.383 109.655 458.152 110.624C456.947 111.567 456.252 112.956 456.069 114.789H468.329C468.25 113.034 467.648 111.659 466.521 110.663C465.395 109.668 464.006 109.17 462.356 109.17Z" fill="#011028"/>
<path d="M484.924 126.813C483.064 126.813 481.388 126.394 479.895 125.556C478.428 124.692 477.262 123.5 476.397 121.98C475.559 120.435 475.14 118.64 475.14 116.597C475.14 114.554 475.559 112.772 476.397 111.253C477.262 109.707 478.428 108.515 479.895 107.677C481.388 106.813 483.064 106.38 484.924 106.38C487.23 106.38 489.168 106.983 490.74 108.188C492.338 109.393 493.346 111.004 493.766 113.021H490.386C490.124 111.816 489.482 110.886 488.461 110.231C487.439 109.55 486.247 109.21 484.885 109.21C483.785 109.21 482.75 109.485 481.781 110.035C480.811 110.585 480.026 111.41 479.423 112.51C478.821 113.611 478.519 114.973 478.519 116.597C478.519 118.221 478.821 119.583 479.423 120.684C480.026 121.784 480.811 122.622 481.781 123.198C482.75 123.749 483.785 124.024 484.885 124.024C486.247 124.024 487.439 123.696 488.461 123.041C489.482 122.36 490.124 121.404 490.386 120.173H493.766C493.373 122.137 492.377 123.735 490.779 124.967C489.181 126.198 487.23 126.813 484.924 126.813Z" fill="#011028"/>
<path d="M505.54 126.342C503.758 126.342 502.357 125.91 501.335 125.045C500.314 124.181 499.803 122.622 499.803 120.369V109.642H496.423V106.852H499.803L500.235 102.176H503.103V106.852H508.84V109.642H503.103V120.369C503.103 121.6 503.352 122.439 503.85 122.884C504.348 123.303 505.225 123.513 506.483 123.513H508.526V126.342H505.54Z" fill="#011028"/>
<rect x="173.252" y="90.3221" width="466" height="1.63727" fill="#011028"/>
</svg>
