<svg width="194" height="54" viewBox="0 0 194 54" fill="none" xmlns="http://www.w3.org/2000/svg">
<path d="M31.6546 33.406C31.4603 32.998 31.1377 32.6971 30.9169 32.3104C30.7341 31.991 30.5334 31.6845 30.3599 31.3585C29.6494 30.0151 29.5996 28.5774 29.8847 27.094C29.9503 26.7538 30.117 26.4919 30.3573 26.2764C30.8756 25.8128 31.4876 25.5647 32.1047 25.3274C33.5648 24.7608 35.0778 24.3983 36.5575 23.9081C37.4951 23.5973 38.4289 23.2723 39.297 22.7565C39.6989 22.5192 40.0838 22.2492 40.3919 21.8677C40.8232 21.3334 40.9719 20.7327 40.758 20.0313C39.9393 17.3475 38.9254 14.7642 37.643 12.3105C37.5011 12.0386 37.3263 11.7885 37.1669 11.5256C37.1697 11.4946 37.1624 11.4636 37.1462 11.4381C37.1301 11.4127 37.1063 11.3945 37.0792 11.387L37.0826 11.3918C37.0595 11.2105 37.0255 11.0387 36.8217 11.0122L36.8243 11.015C36.8618 10.8029 36.7391 10.6582 36.6449 10.5049C36.4923 10.2586 36.3325 10.0176 36.1761 9.77464C35.1391 8.16792 33.9599 6.70404 32.5987 5.43044C31.4959 4.38821 30.2838 3.49851 28.9889 2.78074C27.6527 2.05654 26.2485 1.49953 24.802 1.11993C23.659 0.823948 22.4999 0.61123 21.332 0.483127C21.1368 0.461774 20.9365 0.462723 20.7021 0.31752C21.4786 0.114902 22.2214 0.108259 22.9609 0.0736189C23.1795 0.0736189 23.4067 0.165675 23.6112 0.00244141H25.316C25.4801 0.164252 25.677 0.0660266 25.8585 0.0864309C27.0241 0.145271 28.1599 0.412424 29.2821 0.739366C31.2847 1.31812 33.2022 2.21465 34.9755 3.4014C36.8086 4.63416 38.4791 6.14425 39.9393 7.88843C41.3721 9.58863 42.545 11.4948 43.6305 13.4792C43.6825 13.5741 43.7353 13.669 43.7353 13.7834C43.9484 14.2631 44.1888 14.7324 44.3746 15.2259C45.091 17.1429 45.5134 19.1492 45.7725 21.1996C45.8552 21.8539 45.8923 22.5154 45.9698 23.1702C46.0796 24.0445 46.1306 24.9267 46.1224 25.8095C46.1173 26.1592 45.9911 26.4473 45.7874 26.7059C45.5449 27.0129 45.2308 27.1847 44.8984 27.3318C44.2553 27.6165 43.5747 27.6777 42.8987 27.7005C41.9509 27.7318 41.0035 27.7104 40.0535 27.6502C38.737 27.5666 37.415 27.5719 36.0955 27.6245C35.5691 27.6406 35.0527 27.789 34.5851 28.0587C33.8248 28.5043 33.6786 29.412 34.2548 30.1172C34.6328 30.5798 35.1072 30.8878 35.6216 31.1293C36.2021 31.5293 36.8413 31.7936 37.4614 32.0964C38.6548 32.6829 39.8634 33.23 40.966 34.0167C41.6756 34.5235 42.3208 35.1119 42.7628 35.9309C42.9615 36.2966 43.0909 36.7037 43.1429 37.1272C43.2175 38.0862 43.0151 38.9807 42.5859 39.803C42.0873 40.7615 41.4625 41.619 40.7738 42.4166C40.2436 43.0335 39.6657 43.5896 39.0895 44.1486C38.8674 44.3636 38.5972 44.523 38.4293 44.8063C38.3785 44.8338 38.3296 44.8655 38.2831 44.9012C37.383 45.6952 36.4596 46.4545 35.5129 47.1789C34.0805 48.2703 32.562 49.1752 30.9318 49.8428C30.7967 49.8903 30.6582 49.9249 30.5274 49.9823C28.6398 50.8137 26.6632 51.1819 24.6524 51.33C23.3504 51.4249 22.045 51.33 20.7554 51.1259C19.1721 50.8708 17.6189 50.422 16.124 49.7878C14.6394 49.1591 13.2149 48.3672 11.8715 47.4237C10.6373 46.5559 9.46635 45.5812 8.36953 44.5088C7.1548 43.3246 6.02337 42.0386 4.98519 40.6619C4.75377 40.3568 4.59523 39.9648 4.24362 39.7821L4.24618 39.785C4.27473 39.5719 4.12855 39.4832 4.01092 39.374C3.62309 38.7681 3.22887 38.1688 2.8534 37.5566C2.6906 37.2914 2.47537 37.0451 2.46387 36.646C2.70935 36.6546 2.86533 36.814 3.02345 36.9507C3.70535 37.5419 4.34463 38.192 4.99158 38.8317C6.30551 40.1323 7.59899 41.4605 8.96023 42.7004C11.2301 44.7664 13.8051 46.1971 16.5941 47.1689C18.5081 47.8332 20.4724 48.2129 22.4563 48.5204C23.8908 48.7429 25.2819 48.517 26.664 48.1777C28.9428 47.6188 31.1351 46.7727 33.2098 45.5679C34.2459 44.9667 35.2308 44.2786 36.0691 43.3657C36.7156 42.661 37.2377 41.8605 37.3724 40.8218C37.4073 40.5523 37.4107 40.2875 37.3366 40.0256C37.2939 39.5591 37.115 39.1505 36.8959 38.7591C36.5294 38.1047 36.0273 37.596 35.4861 37.1319C34.2254 36.051 33.021 34.9017 31.9214 33.6172C31.8452 33.528 31.7885 33.406 31.6546 33.406Z" fill="#B3B8BF"/>
<path d="M28.9883 2.78064C30.2828 3.49714 31.4946 4.38541 32.5973 5.42607C33.9577 6.69967 35.1378 8.16356 36.1747 9.77027C36.3315 10.0132 36.4914 10.2543 36.6435 10.5006C36.7381 10.6538 36.8604 10.7985 36.8229 11.0107C36.482 10.7482 36.2604 10.3539 35.9863 10.0194C33.6943 7.22686 30.9381 5.24481 27.6949 4.11498C26.5297 3.70927 25.3351 3.43595 24.1277 3.23713C24.0868 3.2359 24.0459 3.23972 24.0058 3.24851C24.0301 3.36335 24.1217 3.38755 24.1908 3.43452C26.5237 5.01514 28.159 7.27431 29.3101 9.99424C30.0221 11.6859 30.4791 13.4965 30.6628 15.3534C30.8393 17.0783 30.7221 18.7927 30.3939 20.4877C29.7227 23.9578 28.3482 27.0711 26.499 29.9401C25.4109 31.6303 24.1874 33.1877 22.7123 34.476C21.1116 35.8744 19.3062 36.8628 17.4114 37.6552C16.1512 38.1901 14.8407 38.5648 13.505 38.7723C11.8407 39.0233 10.1876 39.02 8.59703 38.3191C7.7502 37.9461 6.97752 37.4071 6.20059 36.8823C4.97146 36.0514 3.81735 35.1142 2.85545 33.9042C1.48355 32.1879 0.702355 30.1697 0.340949 27.9314C0.270628 27.4968 0.228436 27.0564 0.167491 26.6204C0.154279 26.5255 0.160672 26.3703 0 26.478V26.2882C0.0575352 26.3205 0.10612 26.302 0.111661 26.2336C0.120185 26.1354 0.130413 26.0234 0 26.0035V22.9666C0.0451758 22.9794 0.0852373 22.9599 0.0826802 22.9106C0.080123 22.8612 0.0426186 22.8489 0 22.8717V22.587C0.162377 22.6942 0.153427 22.5367 0.165787 22.4446C0.215224 22.0859 0.251024 21.7248 0.301314 21.366C0.661867 18.8117 1.43795 16.4135 2.51748 14.133C3.51433 12.0271 4.68464 10.0469 6.09745 8.25704C7.52432 6.44581 9.29939 5.14468 11.2296 4.09553C13.0099 3.12615 14.8871 2.3952 16.822 1.91797C16.7832 2.0366 16.7095 2.06412 16.6451 2.10256C16.5808 2.14099 16.5194 2.17611 16.4572 2.21454C14.6813 3.31305 12.9284 4.45331 11.3148 5.83653C10.5387 6.50085 9.77629 7.18748 9.01086 7.86841C7.93175 8.82788 7.09558 10.0222 6.35444 11.3049C5.41093 12.9418 4.56937 14.6488 3.83568 16.414C3.22112 17.8883 2.8823 19.4509 2.7195 21.0642C2.33593 24.8699 2.79877 28.573 3.91282 32.1713C4.36926 33.6451 5.25658 34.8371 6.31012 35.8601C7.07043 36.5985 7.93346 37.1281 8.92136 37.3919C10.2736 37.7535 11.5684 37.5062 12.8355 36.9454C13.4028 36.6936 13.9474 36.3823 14.4618 36.0158C16.9413 34.253 19.3595 32.3948 21.5927 30.2542C22.9957 28.9094 24.3063 27.465 25.3858 25.78C25.9995 24.8224 26.5079 23.8022 26.8348 22.6795C27.3462 20.9304 27.2725 19.1946 26.7321 17.4693C26.337 16.208 25.7591 15.0493 25.1484 13.9062C24.4375 12.5747 23.681 11.2712 23.0482 9.8889C23.029 9.84667 23.0094 9.80444 22.9881 9.76315C22.6897 9.18187 22.4894 8.55456 22.1412 7.98893C21.7006 7.27336 21.5169 6.405 21.3843 5.54138C21.3046 5.02415 21.2654 4.51073 21.3788 3.99066C21.5224 3.33155 21.8949 2.94672 22.4869 2.84138C23.2012 2.71231 23.924 2.6696 24.6472 2.64635C25.0862 2.63212 25.5217 2.57043 25.9633 2.57802C26.8422 2.58674 27.7193 2.66842 28.5873 2.8224C28.719 2.84707 28.8656 2.92062 28.9883 2.78064Z" fill="white"/>
<path d="M38.4282 44.8061C38.5962 44.5213 38.8664 44.3633 39.0884 44.1484C39.6659 43.5894 40.2425 43.0309 40.7727 42.4164C41.4614 41.6187 42.0862 40.7613 42.5848 39.8028C43.011 38.9804 43.2165 38.086 43.1419 37.127C43.3498 37.3419 43.5681 37.5474 43.7632 37.7737C44.7128 38.8651 44.9067 40.133 44.4515 41.5371C44.0987 42.6252 43.4815 43.5301 42.7988 44.3842C41.2888 46.2742 39.4993 47.8007 37.6675 49.2717C36.7158 50.0464 35.7122 50.7387 34.6655 51.3425C32.8614 52.367 30.9713 53.121 28.9767 53.5348C27.9027 53.7573 26.8215 53.9111 25.7275 53.9272C25.6422 53.9272 25.557 53.9376 25.4862 53.9998H24.9748C24.8947 53.9101 24.7916 53.9296 24.694 53.9282C23.086 53.9021 21.5065 53.6363 19.9522 53.1908C17.0478 52.358 14.4092 50.8988 11.9825 48.9524C10.6135 47.8531 9.33323 46.6229 8.15623 45.2758C6.75449 43.6655 5.47723 41.9264 4.33803 40.077C4.2839 39.9897 4.21017 39.9038 4.24384 39.779C4.59544 39.9617 4.75526 40.3537 4.98541 40.6588C6.02359 42.0355 7.15502 43.3215 8.36975 44.5057C9.46657 45.5781 10.6375 46.5528 11.8717 47.4206C13.2151 48.3641 14.6397 49.156 16.1242 49.7847C17.6191 50.419 19.1723 50.8677 20.7556 51.1228C22.0452 51.3254 23.3506 51.4227 24.6526 51.3269C26.6634 51.1788 28.64 50.8106 30.5276 49.9792C30.6584 49.9218 30.797 49.8843 30.9321 49.8397C30.9866 49.9161 31.0535 49.9005 31.123 49.8734C31.3233 49.7946 31.5253 49.7211 31.7243 49.6362C33.4436 48.9244 35.1125 48.1006 36.6042 46.8897C37.3163 46.3126 37.9769 45.6716 38.4282 44.8061Z" fill="white"/>
<path d="M23.6106 0C23.406 0.163234 23.1789 0.0721265 22.9602 0.0711775C22.9509 0.0469772 22.9402 0.0237258 22.9287 0H23.6106Z" fill="white"/>
<path d="M25.858 0.0839894C25.6764 0.0635852 25.4795 0.16181 25.3154 0H25.9121L25.858 0.0839894Z" fill="white"/>
<path d="M35.62 31.1282C35.1086 30.8867 34.6313 30.5787 34.2533 30.116C33.6771 29.4109 33.8232 28.5027 34.5836 28.0576C35.0512 27.7879 35.5675 27.6394 36.094 27.6234C37.4151 27.5707 38.7363 27.5655 40.052 27.649C41.0019 27.7093 41.9493 27.7306 42.8972 27.6993C43.5731 27.6765 44.2537 27.6158 44.8968 27.3306C45.2293 27.1835 45.5434 27.0118 45.7859 26.7047C45.9896 26.4461 46.1157 26.1581 46.1209 25.8084C46.1291 24.9256 46.0781 24.0434 45.9683 23.1691C45.8907 22.5143 45.8536 21.8528 45.7709 21.1984C45.5118 19.1481 45.0891 17.1418 44.3731 15.2248C44.1881 14.7308 43.9469 14.262 43.7338 13.7822C43.868 13.7946 43.9187 13.917 43.9801 14.0195C44.9054 15.5787 45.7556 17.1798 46.29 18.9663C46.7802 20.6048 47.1058 22.2818 47.3163 23.991C47.4689 25.2247 47.543 26.4684 47.65 27.7079C47.7557 28.9288 47.3704 29.5889 46.2436 29.9946C45.8518 30.1356 45.4461 30.2231 45.0353 30.2551C43.6353 30.3633 42.2357 30.285 40.8349 30.2171C39.6462 30.1597 38.4525 30.0909 37.2643 30.2684C36.8833 30.3253 36.5121 30.4259 36.1647 30.6186C35.9469 30.741 35.7432 30.8814 35.62 31.1282Z" fill="white"/>
<path d="M31.6543 33.4058C31.7881 33.4058 31.8448 33.5282 31.9211 33.6174C33.0207 34.8986 34.2251 36.0512 35.4857 37.1321C36.027 37.5962 36.529 38.1049 36.8955 38.7593C37.1146 39.1507 37.2919 39.5593 37.3362 40.0257C36.0542 38.9011 34.7846 37.7604 33.6433 36.456C32.9482 35.6611 32.3081 34.8189 31.8363 33.8333C31.7694 33.6938 31.7148 33.5481 31.6543 33.4058Z" fill="white"/>
<path d="M36.8223 11.0088C37.026 11.0373 37.0601 11.209 37.0831 11.3884C36.9569 11.2935 36.8368 11.1948 36.8223 11.0088Z" fill="white"/>
<path d="M4.00977 39.3711C4.12739 39.4802 4.27357 39.569 4.24502 39.782C4.07284 39.7113 4.0315 39.5481 4.00977 39.3711Z" fill="white"/>
<path d="M37.0781 11.3848C37.1053 11.3923 37.1291 11.4104 37.1452 11.4358C37.1613 11.4613 37.1687 11.4923 37.1659 11.5233C37.1412 11.5115 37.1199 11.4923 37.1044 11.4679C37.0889 11.4434 37.0798 11.4146 37.0781 11.3848Z" fill="white"/>
<path d="M58.7352 25.9223C57.6003 25.9223 56.5581 25.6257 55.6085 25.0326C54.659 24.4395 53.9062 23.6208 53.3504 22.5764C52.7945 21.5191 52.5166 20.3265 52.5166 18.9985C52.5166 17.6833 52.7945 16.5036 53.3504 15.4592C53.9062 14.4019 54.659 13.5767 55.6085 12.9836C56.5581 12.3905 57.6003 12.094 58.7352 12.094C59.8817 12.094 60.9239 12.3905 61.8619 12.9836C62.8115 13.5767 63.5584 14.4019 64.1027 15.4592C64.6585 16.5036 64.9364 17.6833 64.9364 18.9985C64.9364 20.3265 64.6585 21.5191 64.1027 22.5764C63.5584 23.6208 62.8115 24.4395 61.8619 25.0326C60.9123 25.6257 59.8701 25.9223 58.7352 25.9223ZM58.7352 23.5047C59.4648 23.5047 60.1075 23.3242 60.6633 22.9632C61.2192 22.5893 61.6534 22.0607 61.9661 21.3773C62.2788 20.6939 62.4351 19.901 62.4351 18.9985C62.4351 18.0959 62.2788 17.3094 61.9661 16.6389C61.6534 15.9556 61.2192 15.4334 60.6633 15.0724C60.1075 14.7114 59.4648 14.5309 58.7352 14.5309C58.0056 14.5309 57.3572 14.7114 56.7897 15.0724C56.2339 15.4334 55.7996 15.9556 55.4869 16.6389C55.1743 17.3094 55.0179 18.0959 55.0179 18.9985C55.0179 19.901 55.1743 20.6939 55.4869 21.3773C55.7996 22.0607 56.2339 22.5893 56.7897 22.9632C57.3572 23.3242 58.0056 23.5047 58.7352 23.5047Z" fill="white"/>
<path d="M70.4282 25.9609C69.6407 25.9609 68.9343 25.8062 68.309 25.4968C67.6837 25.1744 67.1857 24.7425 66.8152 24.201C66.4562 23.6594 66.2593 23.0599 66.2246 22.4023H68.6738C68.7201 22.8149 68.8996 23.1566 69.2123 23.4274C69.5365 23.6981 69.936 23.8335 70.4108 23.8335C70.874 23.8335 71.233 23.7304 71.4878 23.5241C71.7541 23.3178 71.8873 23.0535 71.8873 22.7311C71.8873 22.383 71.7252 22.1251 71.4009 21.9575C71.0883 21.777 70.5845 21.5836 69.8897 21.3773C69.1717 21.1839 68.5811 20.984 68.1179 20.7778C67.6663 20.5715 67.2726 20.2556 66.9367 19.8301C66.6125 19.4046 66.4504 18.8308 66.4504 18.1088C66.4504 17.5157 66.6009 16.9742 66.902 16.4842C67.2147 15.9943 67.6547 15.6075 68.2222 15.3238C68.8012 15.0401 69.4786 14.8983 70.2545 14.8983C71.4009 14.8983 72.3158 15.2207 72.999 15.8653C73.6823 16.4971 74.0586 17.3545 74.1281 18.4376H71.8005C71.7657 18.0121 71.6036 17.6769 71.3141 17.4319C71.0362 17.174 70.6598 17.0451 70.185 17.0451C69.745 17.0451 69.4033 17.1353 69.1602 17.3159C68.9286 17.4964 68.8128 17.7478 68.8128 18.0701C68.8128 18.4311 68.9749 18.7083 69.2991 18.9017C69.6234 19.0823 70.1271 19.2692 70.8103 19.4626C71.5052 19.656 72.0784 19.8559 72.53 20.0622C72.9816 20.2685 73.3696 20.5908 73.6938 21.0292C74.0297 21.4547 74.2034 22.022 74.2149 22.7311C74.2149 23.35 74.0586 23.9044 73.7459 24.3944C73.4449 24.8843 73.0048 25.2711 72.4258 25.5548C71.8584 25.8256 71.1925 25.9609 70.4282 25.9609Z" fill="white"/>
<path d="M75.5859 20.4296C75.5859 19.3208 75.7885 18.3538 76.1938 17.5286C76.5991 16.6905 77.1608 16.0458 77.8787 15.5946C78.5967 15.1304 79.4189 14.8983 80.3453 14.8983C81.5381 14.8983 82.5224 15.2336 83.2983 15.904C84.0858 16.5616 84.6127 17.4899 84.879 18.689H82.2561C82.1171 18.2248 81.8797 17.8638 81.5439 17.606C81.2197 17.3352 80.8143 17.1998 80.328 17.1998C79.6332 17.1998 79.0831 17.4835 78.6778 18.0508C78.2725 18.6052 78.0698 19.3981 78.0698 20.4296C78.0698 21.4482 78.2725 22.2412 78.6778 22.8085C79.0831 23.3629 79.6332 23.6401 80.328 23.6401C81.3123 23.6401 81.955 23.1502 82.2561 22.1702H84.879C84.6127 23.3307 84.0858 24.2525 83.2983 24.9359C82.5109 25.6193 81.5265 25.9609 80.3453 25.9609C79.4189 25.9609 78.5967 25.7353 77.8787 25.284C77.1608 24.8199 76.5991 24.1752 76.1938 23.35C75.7885 22.5119 75.5859 21.5385 75.5859 20.4296Z" fill="white"/>
<path d="M86.0352 20.3909C86.0352 19.3079 86.2263 18.3473 86.6085 17.5093C87.0022 16.6712 87.5291 16.0265 88.1892 15.5752C88.8608 15.124 89.6077 14.8983 90.4299 14.8983C91.1479 14.8983 91.7733 15.0595 92.306 15.3818C92.8502 15.7042 93.2845 16.1103 93.6087 16.6003V15.0724H96.058V25.7869H93.6087V24.2203C93.2961 24.7232 92.8618 25.1422 92.306 25.4774C91.7617 25.7998 91.1306 25.9609 90.4126 25.9609C89.602 25.9609 88.8608 25.7289 88.1892 25.2647C87.5291 24.8005 87.0022 24.1494 86.6085 23.3113C86.2263 22.4604 86.0352 21.4869 86.0352 20.3909ZM93.6087 20.4296C93.6087 19.7721 93.4929 19.2112 93.2613 18.747C93.0297 18.27 92.717 17.909 92.3233 17.664C91.9296 17.4061 91.5069 17.2772 91.0553 17.2772C90.6037 17.2772 90.1868 17.3997 89.8046 17.6446C89.4225 17.8896 89.1098 18.2506 88.8666 18.7277C88.635 19.1919 88.5192 19.7463 88.5192 20.3909C88.5192 21.0356 88.635 21.6029 88.8666 22.0929C89.1098 22.5699 89.4225 22.9374 89.8046 23.1953C90.1983 23.4532 90.6152 23.5821 91.0553 23.5821C91.5069 23.5821 91.9296 23.4596 92.3233 23.2146C92.717 22.9568 93.0297 22.5957 93.2613 22.1316C93.4929 21.6545 93.6087 21.0872 93.6087 20.4296Z" fill="white"/>
<path d="M100.865 16.7356C101.178 16.1683 101.583 15.7235 102.081 15.4012C102.59 15.0788 103.169 14.9177 103.818 14.9177V17.7607H103.175C102.411 17.7607 101.832 17.9605 101.438 18.3602C101.056 18.7599 100.865 19.4562 100.865 20.449V25.7869H98.4331V15.0724H100.865V16.7356Z" fill="white"/>
<path d="M116.474 18.8631C117.157 19.0049 117.718 19.3853 118.159 20.0041C118.599 20.623 118.819 21.3322 118.819 22.1316C118.819 22.8536 118.656 23.4918 118.332 24.0463C118.02 24.5878 117.562 25.0133 116.96 25.3227C116.358 25.6322 115.646 25.7869 114.823 25.7869H109.595V12.2874H114.598C115.42 12.2874 116.126 12.4357 116.717 12.7322C117.319 13.0288 117.771 13.4414 118.072 13.97C118.384 14.4986 118.541 15.0982 118.541 15.7686C118.541 16.5551 118.35 17.2127 117.967 17.7413C117.597 18.27 117.099 18.6439 116.474 18.8631ZM112.027 17.8574H114.25C114.829 17.8574 115.275 17.7155 115.588 17.4319C115.9 17.1353 116.057 16.7163 116.057 16.1748C116.057 15.6332 115.9 15.2142 115.588 14.9177C115.275 14.6211 114.829 14.4728 114.25 14.4728H112.027V17.8574ZM114.476 23.5821C115.067 23.5821 115.524 23.4274 115.848 23.1179C116.184 22.8085 116.352 22.3701 116.352 21.8028C116.352 21.2226 116.178 20.7713 115.831 20.449C115.483 20.1137 115.014 19.9461 114.424 19.9461H112.027V23.5821H114.476Z" fill="white"/>
<path d="M123.189 11.4751V25.7869H120.757V11.4751H123.189Z" fill="white"/>
<path d="M124.966 20.3909C124.966 19.3079 125.157 18.3473 125.539 17.5093C125.933 16.6712 126.46 16.0265 127.12 15.5752C127.792 15.124 128.538 14.8983 129.361 14.8983C130.079 14.8983 130.704 15.0595 131.237 15.3818C131.781 15.7042 132.215 16.1103 132.539 16.6003V15.0724H134.989V25.7869H132.539V24.2203C132.227 24.7232 131.793 25.1422 131.237 25.4774C130.692 25.7998 130.061 25.9609 129.343 25.9609C128.533 25.9609 127.792 25.7289 127.12 25.2647C126.46 24.8005 125.933 24.1494 125.539 23.3113C125.157 22.4604 124.966 21.4869 124.966 20.3909ZM132.539 20.4296C132.539 19.7721 132.424 19.2112 132.192 18.747C131.96 18.27 131.648 17.909 131.254 17.664C130.86 17.4061 130.438 17.2772 129.986 17.2772C129.534 17.2772 129.117 17.3997 128.735 17.6446C128.353 17.8896 128.041 18.2506 127.797 18.7277C127.566 19.1919 127.45 19.7463 127.45 20.3909C127.45 21.0356 127.566 21.6029 127.797 22.0929C128.041 22.5699 128.353 22.9374 128.735 23.1953C129.129 23.4532 129.546 23.5821 129.986 23.5821C130.438 23.5821 130.86 23.4596 131.254 23.2146C131.648 22.9568 131.96 22.5957 132.192 22.1316C132.424 21.6545 132.539 21.0872 132.539 20.4296Z" fill="white"/>
<path d="M142.697 14.9177C143.843 14.9177 144.769 15.3238 145.476 16.1361C146.182 16.9355 146.535 18.0572 146.535 19.5013V25.7869H144.104V19.8688C144.104 19.0178 143.912 18.3667 143.53 17.9154C143.148 17.4512 142.627 17.2191 141.967 17.2191C141.295 17.2191 140.763 17.4512 140.369 17.9154C139.987 18.3667 139.796 19.0178 139.796 19.8688V25.7869H137.364V15.0724H139.796V16.4069C140.12 15.9427 140.531 15.5817 141.029 15.3238C141.539 15.053 142.094 14.9177 142.697 14.9177Z" fill="white"/>
<path d="M148.223 20.4296C148.223 19.3208 148.425 18.3538 148.831 17.5286C149.236 16.6905 149.798 16.0458 150.516 15.5946C151.233 15.1304 152.056 14.8983 152.982 14.8983C154.175 14.8983 155.159 15.2336 155.935 15.904C156.723 16.5616 157.249 17.4899 157.516 18.689H154.893C154.754 18.2248 154.517 17.8638 154.181 17.606C153.856 17.3352 153.451 17.1998 152.965 17.1998C152.27 17.1998 151.72 17.4835 151.315 18.0508C150.909 18.6052 150.707 19.3981 150.707 20.4296C150.707 21.4482 150.909 22.2412 151.315 22.8085C151.72 23.3629 152.27 23.6401 152.965 23.6401C153.949 23.6401 154.592 23.1502 154.893 22.1702H157.516C157.249 23.3307 156.723 24.2525 155.935 24.9359C155.148 25.6193 154.163 25.9609 152.982 25.9609C152.056 25.9609 151.233 25.7353 150.516 25.284C149.798 24.8199 149.236 24.1752 148.831 23.35C148.425 22.5119 148.223 21.5385 148.223 20.4296Z" fill="white"/>
<path d="M158.672 20.3909C158.672 19.3079 158.863 18.3473 159.245 17.5093C159.639 16.6712 160.166 16.0265 160.826 15.5752C161.498 15.124 162.245 14.8983 163.067 14.8983C163.785 14.8983 164.41 15.0595 164.943 15.3818C165.487 15.7042 165.921 16.1103 166.245 16.6003V15.0724H168.695V25.7869H166.245V24.2203C165.933 24.7232 165.499 25.1422 164.943 25.4774C164.398 25.7998 163.767 25.9609 163.049 25.9609C162.239 25.9609 161.498 25.7289 160.826 25.2647C160.166 24.8005 159.639 24.1494 159.245 23.3113C158.863 22.4604 158.672 21.4869 158.672 20.3909ZM166.245 20.4296C166.245 19.7721 166.13 19.2112 165.898 18.747C165.666 18.27 165.354 17.909 164.96 17.664C164.566 17.4061 164.144 17.2772 163.692 17.2772C163.24 17.2772 162.824 17.3997 162.441 17.6446C162.059 17.8896 161.747 18.2506 161.503 18.7277C161.272 19.1919 161.156 19.7463 161.156 20.3909C161.156 21.0356 161.272 21.6029 161.503 22.0929C161.747 22.5699 162.059 22.9374 162.441 23.1953C162.835 23.4532 163.252 23.5821 163.692 23.5821C164.144 23.5821 164.566 23.4596 164.96 23.2146C165.354 22.9568 165.666 22.5957 165.898 22.1316C166.13 21.6545 166.245 21.0872 166.245 20.4296Z" fill="white"/>
<path d="M173.502 16.7356C173.814 16.1683 174.22 15.7235 174.718 15.4012C175.227 15.0788 175.806 14.9177 176.455 14.9177V17.7607H175.812C175.048 17.7607 174.469 17.9605 174.075 18.3602C173.693 18.7599 173.502 19.4562 173.502 20.449V25.7869H171.07V15.0724H173.502V16.7356Z" fill="white"/>
<path d="M180.924 17.2965V22.4797C180.924 22.8407 180.999 23.105 181.15 23.2726C181.312 23.4274 181.578 23.5047 181.949 23.5047H183.078V25.7869H181.549C179.5 25.7869 178.475 24.678 178.475 22.4604V17.2965H177.328V15.0724H178.475V12.4228H180.924V15.0724H183.078V17.2965H180.924Z" fill="white"/>
<path d="M193.773 20.1975C193.773 20.5844 193.75 20.9325 193.703 21.2419H186.668C186.726 22.0155 186.969 22.6215 187.398 23.0599C187.826 23.4983 188.353 23.7175 188.979 23.7175C189.882 23.7175 190.525 23.2855 190.907 22.4217H193.53C193.252 23.4532 192.719 24.3041 191.932 24.9746C191.144 25.6322 190.177 25.9609 189.031 25.9609C188.104 25.9609 187.271 25.7353 186.529 25.284C185.8 24.8199 185.227 24.1687 184.81 23.3307C184.404 22.4926 184.202 21.5256 184.202 20.4296C184.202 19.3208 184.404 18.3473 184.81 17.5093C185.215 16.6712 185.782 16.0265 186.512 15.5752C187.242 15.124 188.081 14.8983 189.031 14.8983C189.946 14.8983 190.762 15.1175 191.48 15.5559C192.21 15.9943 192.771 16.6196 193.165 17.4319C193.57 18.2313 193.773 19.1532 193.773 20.1975ZM191.254 19.4239C191.243 18.7277 191.017 18.1733 190.577 17.7607C190.137 17.3352 189.598 17.1224 188.961 17.1224C188.359 17.1224 187.85 17.3287 187.433 17.7413C187.027 18.141 186.778 18.7019 186.686 19.4239H191.254Z" fill="white"/>
<path d="M55.5301 42.7995C54.9187 42.7995 54.3866 42.6757 53.934 42.4282C53.4814 42.1806 53.132 41.8358 52.8858 41.3937C52.6397 40.9517 52.5166 40.4389 52.5166 39.8554H53.5648C53.5648 40.2178 53.6402 40.5538 53.7911 40.8633C53.942 41.1639 54.1603 41.407 54.4462 41.5927C54.74 41.7695 55.1013 41.8579 55.5301 41.8579C56.0939 41.8579 56.5307 41.7076 56.8403 41.407C57.15 41.1064 57.3049 40.7306 57.3049 40.2797C57.3049 39.9084 57.2334 39.6122 57.0905 39.3912C56.9475 39.1613 56.753 38.9757 56.5068 38.8342C56.2686 38.6927 55.9907 38.569 55.6731 38.4629C55.3634 38.3568 55.0378 38.2374 54.6963 38.1048C54.0531 37.8572 53.5767 37.5522 53.267 37.1897C52.9573 36.8184 52.8025 36.3365 52.8025 35.7442C52.7945 35.2491 52.8978 34.8114 53.1122 34.4312C53.3266 34.0422 53.6283 33.7416 54.0174 33.5294C54.4144 33.3084 54.8829 33.1979 55.4229 33.1979C55.9549 33.1979 56.4155 33.3084 56.8046 33.5294C57.2016 33.7505 57.5074 34.0555 57.7218 34.4445C57.9441 34.8335 58.0592 35.2756 58.0672 35.7707H57.019C57.019 35.5143 56.9595 35.2623 56.8403 35.0148C56.7212 34.7584 56.5386 34.5506 56.2924 34.3915C56.0542 34.2323 55.7525 34.1527 55.3872 34.1527C54.9346 34.1439 54.5613 34.2721 54.2675 34.5373C53.9817 34.8026 53.8387 35.1695 53.8387 35.6381C53.8387 36.0359 53.938 36.341 54.1365 36.5531C54.343 36.7653 54.6288 36.9422 54.9941 37.0836C55.3594 37.2162 55.7803 37.371 56.2567 37.5478C56.6537 37.7069 57.0111 37.8926 57.3287 38.1048C57.6463 38.317 57.8925 38.5911 58.0672 38.927C58.2498 39.263 58.3411 39.6918 58.3411 40.2134C58.3411 40.6555 58.2379 41.0755 58.0315 41.4733C57.825 41.8623 57.5113 42.1806 57.0905 42.4282C56.6776 42.6757 56.1574 42.7995 55.5301 42.7995Z" fill="white"/>
<path d="M62.3924 42.7995C61.8366 42.7995 61.3363 42.658 60.8916 42.3751C60.4469 42.0922 60.0936 41.6943 59.8315 41.1815C59.5774 40.6599 59.4504 40.0499 59.4504 39.3514C59.4504 38.6529 59.5814 38.0473 59.8434 37.5345C60.1055 37.0129 60.4588 36.6106 60.9035 36.3277C61.3562 36.0448 61.8604 35.9033 62.4162 35.9033C62.9721 35.9033 63.4724 36.0448 63.917 36.3277C64.3617 36.6106 64.7111 37.0129 64.9652 37.5345C65.2273 38.0473 65.3583 38.6529 65.3583 39.3514C65.3583 40.0499 65.2273 40.6599 64.9652 41.1815C64.7032 41.6943 64.3458 42.0922 63.8932 42.3751C63.4485 42.658 62.9483 42.7995 62.3924 42.7995ZM62.3924 41.8446C62.7339 41.8446 63.0515 41.7518 63.3453 41.5661C63.6391 41.3805 63.8773 41.102 64.06 40.7306C64.2426 40.3593 64.3339 39.8996 64.3339 39.3514C64.3339 38.8032 64.2426 38.3435 64.06 37.9722C63.8853 37.6008 63.651 37.3223 63.3572 37.1367C63.0634 36.951 62.7498 36.8582 62.4162 36.8582C62.0748 36.8582 61.7572 36.951 61.4634 37.1367C61.1695 37.3223 60.9313 37.6008 60.7487 37.9722C60.566 38.3435 60.4747 38.8032 60.4747 39.3514C60.4747 39.8996 60.566 40.3593 60.7487 40.7306C60.9313 41.102 61.1656 41.3805 61.4514 41.5661C61.7452 41.7518 62.0589 41.8446 62.3924 41.8446Z" fill="white"/>
<path d="M67.0711 42.6404V37.0041H66.1777V36.0625H67.0711V34.9219C67.0711 34.2854 67.214 33.8212 67.4999 33.5294C67.7857 33.2377 68.2026 33.0918 68.7505 33.0918H69.3461V34.0467H68.9054C68.6036 34.0467 68.3892 34.1174 68.2622 34.2588C68.1351 34.3915 68.0716 34.6213 68.0716 34.9485V36.0625H69.5248V37.0041H68.0716V42.6404H67.0711Z" fill="white"/>
<path d="M73.0506 42.6404C72.5106 42.6404 72.0858 42.4945 71.7761 42.2027C71.4664 41.9109 71.3115 41.3849 71.3115 40.6245V37.0041H70.2872V36.0625H71.3115L71.4426 34.4843H72.3121V36.0625H74.0511V37.0041H72.3121V40.6245C72.3121 41.0401 72.3875 41.323 72.5384 41.4733C72.6893 41.6148 72.9553 41.6855 73.3364 41.6855H73.9558V42.6404H73.0506Z" fill="white"/>
<path d="M76.5133 42.6404L74.7862 36.0625H75.7868L77.0374 41.2213L78.4191 36.0625H79.5507L80.9443 41.2213L82.183 36.0625H83.1955L81.4684 42.6404H80.444L78.9909 37.2162L77.5377 42.6404H76.5133Z" fill="white"/>
<path d="M86.0581 42.7995C85.5657 42.7995 85.1568 42.7067 84.8312 42.521C84.5057 42.3353 84.2635 42.0878 84.1046 41.7783C83.9458 41.4689 83.8664 41.1329 83.8664 40.7704C83.8664 40.0985 84.0967 39.5813 84.5573 39.2188C85.0178 38.8563 85.6452 38.675 86.4392 38.675H88.0353V38.5955C88.0353 38.0208 87.9003 37.5876 87.6303 37.2958C87.3604 36.9952 86.9991 36.8449 86.5464 36.8449C86.1573 36.8449 85.8199 36.9554 85.534 37.1765C85.2561 37.3886 85.0814 37.7025 85.0099 38.1181H83.9855C84.0252 37.6406 84.1682 37.2383 84.4143 36.9112C84.6684 36.5841 84.9821 36.3365 85.3553 36.1686C85.7285 35.9917 86.1256 35.9033 86.5464 35.9033C87.3723 35.9033 87.9916 36.1509 88.4046 36.646C88.8254 37.1323 89.0359 37.7821 89.0359 38.5955V42.6404H88.1425L88.083 41.46C87.9162 41.8314 87.67 42.1497 87.3445 42.4149C87.0268 42.6713 86.598 42.7995 86.0581 42.7995ZM86.2129 41.8579C86.5941 41.8579 86.9196 41.7474 87.1896 41.5264C87.4676 41.3053 87.678 41.018 87.8209 40.6643C87.9639 40.3107 88.0353 39.9393 88.0353 39.5503V39.5371H86.5226C85.935 39.5371 85.5181 39.652 85.2719 39.8819C85.0337 40.1029 84.9146 40.3814 84.9146 40.7174C84.9146 41.0622 85.0258 41.3407 85.2481 41.5529C85.4784 41.7562 85.8 41.8579 86.2129 41.8579Z" fill="white"/>
<path d="M90.5368 42.6404V36.0625H91.4421L91.5255 37.3223C91.7081 36.8891 91.986 36.5443 92.3592 36.2879C92.7325 36.0315 93.193 35.9033 93.7409 35.9033V37.0704H93.467C93.1176 37.0704 92.796 37.1411 92.5022 37.2826C92.2084 37.4152 91.9741 37.645 91.7994 37.9722C91.6247 38.2993 91.5374 38.7502 91.5374 39.3249V42.6404H90.5368Z" fill="white"/>
<path d="M97.2991 42.7995C96.7353 42.7995 96.2351 42.658 95.7983 42.3751C95.3616 42.0834 95.0161 41.6811 94.762 41.1683C94.5159 40.6555 94.3928 40.0499 94.3928 39.3514C94.3928 38.6618 94.5159 38.0606 94.762 37.5478C95.0082 37.0262 95.3497 36.6239 95.7864 36.341C96.2311 36.0492 96.7433 35.9033 97.3229 35.9033C97.8947 35.9033 98.387 36.0492 98.7999 36.341C99.2208 36.6239 99.5424 36.9996 99.7647 37.4682C99.9871 37.9368 100.098 38.4408 100.098 38.9801C100.098 39.0773 100.094 39.1746 100.086 39.2718C100.086 39.3691 100.086 39.4796 100.086 39.6034H95.3814C95.4052 40.1073 95.5085 40.5273 95.6911 40.8633C95.8817 41.1904 96.1159 41.4379 96.3939 41.6059C96.6797 41.7739 96.9815 41.8579 97.2991 41.8579C97.712 41.8579 98.0575 41.7518 98.3354 41.5396C98.6133 41.3274 98.8158 41.0401 98.9428 40.6776H99.9315C99.7727 41.2876 99.4669 41.796 99.0143 42.2027C98.5696 42.6006 97.9979 42.7995 97.2991 42.7995ZM97.2991 36.8449C96.8227 36.8449 96.3978 37.0085 96.0246 37.3356C95.6593 37.6539 95.4489 38.1225 95.3933 38.7414H99.1096C99.0858 38.149 98.9031 37.6848 98.5617 37.3489C98.2202 37.0129 97.7994 36.8449 97.2991 36.8449Z" fill="white"/>
<path d="M104.112 42.6404L107.185 33.357H108.245L111.306 42.6404H110.246L109.484 40.2532H105.934L105.16 42.6404H104.112ZM106.232 39.3514H109.186L107.709 34.7628L106.232 39.3514Z" fill="white"/>
<path d="M112.486 42.6404V36.0625H113.392L113.475 37.3223C113.658 36.8891 113.936 36.5443 114.309 36.2879C114.682 36.0315 115.143 35.9033 115.69 35.9033V37.0704H115.417C115.067 37.0704 114.746 37.1411 114.452 37.2826C114.158 37.4152 113.924 37.645 113.749 37.9722C113.574 38.2993 113.487 38.7502 113.487 39.3249V42.6404H112.486Z" fill="white"/>
<path d="M119.308 42.7995C118.744 42.7995 118.236 42.658 117.784 42.3751C117.339 42.0834 116.986 41.6811 116.723 41.1683C116.469 40.6467 116.342 40.041 116.342 39.3514C116.342 38.6618 116.469 38.0606 116.723 37.5478C116.986 37.0262 117.339 36.6239 117.784 36.341C118.236 36.0492 118.744 35.9033 119.308 35.9033C120.007 35.9033 120.595 36.1067 121.071 36.5134C121.555 36.9201 121.861 37.4638 121.988 38.1446H120.964C120.884 37.7379 120.69 37.424 120.38 37.203C120.07 36.9731 119.709 36.8582 119.296 36.8582C118.963 36.8582 118.649 36.951 118.355 37.1367C118.061 37.3223 117.823 37.6008 117.641 37.9722C117.458 38.3435 117.367 38.8032 117.367 39.3514C117.367 39.8996 117.458 40.3593 117.641 40.7306C117.823 41.102 118.061 41.3849 118.355 41.5794C118.649 41.7651 118.963 41.8579 119.296 41.8579C119.709 41.8579 120.07 41.7474 120.38 41.5264C120.69 41.2965 120.884 40.9738 120.964 40.5582H121.988C121.869 41.2213 121.567 41.7606 121.083 42.1762C120.599 42.5917 120.007 42.7995 119.308 42.7995Z" fill="white"/>
<path d="M123.386 42.6404V33.0918H124.386V37.1897C124.585 36.783 124.866 36.4692 125.232 36.2481C125.597 36.0183 125.994 35.9033 126.423 35.9033C127.106 35.9033 127.654 36.142 128.067 36.6195C128.48 37.088 128.686 37.813 128.686 38.7944V42.6404H127.697V38.9138C127.697 37.5434 127.201 36.8582 126.208 36.8582C125.692 36.8582 125.26 37.0659 124.91 37.4815C124.561 37.8882 124.386 38.4717 124.386 39.232V42.6404H123.386Z" fill="white"/>
<path d="M130.809 34.6037C130.611 34.6037 130.444 34.5329 130.309 34.3915C130.182 34.2412 130.118 34.0555 130.118 33.8345C130.118 33.6223 130.182 33.4454 130.309 33.304C130.444 33.1625 130.611 33.0918 130.809 33.0918C131 33.0918 131.163 33.1625 131.298 33.304C131.433 33.4454 131.5 33.6223 131.5 33.8345C131.5 34.0555 131.433 34.2412 131.298 34.3915C131.163 34.5329 131 34.6037 130.809 34.6037ZM130.309 42.6404V36.0625H131.31V42.6404H130.309Z" fill="white"/>
<path d="M135.386 42.6404C134.846 42.6404 134.421 42.4945 134.112 42.2027C133.802 41.9109 133.647 41.3849 133.647 40.6245V37.0041H132.623V36.0625H133.647L133.778 34.4843H134.648V36.0625H136.387V37.0041H134.648V40.6245C134.648 41.0401 134.723 41.323 134.874 41.4733C135.025 41.6148 135.291 41.6855 135.672 41.6855H136.292V42.6404H135.386Z" fill="white"/>
<path d="M140.151 42.7995C139.587 42.7995 139.087 42.658 138.65 42.3751C138.214 42.0834 137.868 41.6811 137.614 41.1683C137.368 40.6555 137.245 40.0499 137.245 39.3514C137.245 38.6618 137.368 38.0606 137.614 37.5478C137.86 37.0262 138.202 36.6239 138.639 36.341C139.083 36.0492 139.595 35.9033 140.175 35.9033C140.747 35.9033 141.239 36.0492 141.652 36.341C142.073 36.6239 142.395 36.9996 142.617 37.4682C142.839 37.9368 142.95 38.4408 142.95 38.9801C142.95 39.0773 142.946 39.1746 142.938 39.2718C142.938 39.3691 142.938 39.4796 142.938 39.6034H138.234C138.257 40.1073 138.361 40.5273 138.543 40.8633C138.734 41.1904 138.968 41.4379 139.246 41.6059C139.532 41.7739 139.834 41.8579 140.151 41.8579C140.564 41.8579 140.91 41.7518 141.188 41.5396C141.465 41.3274 141.668 41.0401 141.795 40.6776H142.784C142.625 41.2876 142.319 41.796 141.866 42.2027C141.422 42.6006 140.85 42.7995 140.151 42.7995ZM140.151 36.8449C139.675 36.8449 139.25 37.0085 138.877 37.3356C138.512 37.6539 138.301 38.1225 138.245 38.7414H141.962C141.938 38.149 141.755 37.6848 141.414 37.3489C141.072 37.0129 140.652 36.8449 140.151 36.8449Z" fill="white"/>
<path d="M146.992 42.7995C146.428 42.7995 145.92 42.658 145.468 42.3751C145.023 42.0834 144.67 41.6811 144.408 41.1683C144.153 40.6467 144.026 40.041 144.026 39.3514C144.026 38.6618 144.153 38.0606 144.408 37.5478C144.67 37.0262 145.023 36.6239 145.468 36.341C145.92 36.0492 146.428 35.9033 146.992 35.9033C147.691 35.9033 148.279 36.1067 148.755 36.5134C149.24 36.9201 149.545 37.4638 149.672 38.1446H148.648C148.569 37.7379 148.374 37.424 148.064 37.203C147.755 36.9731 147.393 36.8582 146.98 36.8582C146.647 36.8582 146.333 36.951 146.039 37.1367C145.746 37.3223 145.507 37.6008 145.325 37.9722C145.142 38.3435 145.051 38.8032 145.051 39.3514C145.051 39.8996 145.142 40.3593 145.325 40.7306C145.507 41.102 145.746 41.3849 146.039 41.5794C146.333 41.7651 146.647 41.8579 146.98 41.8579C147.393 41.8579 147.755 41.7474 148.064 41.5264C148.374 41.2965 148.569 40.9738 148.648 40.5582H149.672C149.553 41.2213 149.251 41.7606 148.767 42.1762C148.283 42.5917 147.691 42.7995 146.992 42.7995Z" fill="white"/>
<path d="M153.241 42.6404C152.701 42.6404 152.277 42.4945 151.967 42.2027C151.657 41.9109 151.502 41.3849 151.502 40.6245V37.0041H150.478V36.0625H151.502L151.633 34.4843H152.503V36.0625H154.242V37.0041H152.503V40.6245C152.503 41.0401 152.578 41.323 152.729 41.4733C152.88 41.6148 153.146 41.6855 153.527 41.6855H154.147V42.6404H153.241Z" fill="white"/>
<rect x="52.5166" y="30.4839" width="141.256" height="0.55258" fill="white"/>
</svg>
