<svg width="88" height="85" viewBox="0 0 88 85" fill="none" xmlns="http://www.w3.org/2000/svg">
<path d="M78.1787 75.1152C61.1787 94.1152 12.1748 82.6152 3.85298 58.7122C-4.46881 34.8093 5.71398 17.2837 24.5791 6.90381C43.4442 -3.47604 55.7421 -0.616141 70.4399 9.99953C85.1378 20.6152 95.1787 56.1152 78.1787 75.1152Z" fill="#D4F4E9"/>
<path d="M17.7119 43.9455C17.7119 29.2255 29.6586 17.2788 44.3786 17.2788C59.0986 17.2788 71.0452 29.2255 71.0452 43.9455C71.0452 58.6655 59.0986 70.6121 44.3786 70.6121C29.6586 70.6121 17.7119 58.6655 17.7119 43.9455ZM44.3786 59.9455C53.2052 59.9455 60.3786 52.7721 60.3786 43.9455C60.3786 35.1188 53.2052 27.9455 44.3786 27.9455C35.5519 27.9455 28.3786 35.1188 28.3786 43.9455C28.3786 52.7721 35.5519 59.9455 44.3786 59.9455Z" fill="#0A9C76"/>
</svg>
