<svg width="88" height="85" viewBox="0 0 88 85" fill="none" xmlns="http://www.w3.org/2000/svg">
<path d="M78.1787 75.1152C61.1787 94.1152 12.1748 82.6152 3.85298 58.7122C-4.46881 34.8093 5.71398 17.2837 24.5791 6.90381C43.4442 -3.47604 55.7421 -0.616141 70.4399 9.99953C85.1378 20.6152 95.1787 56.1152 78.1787 75.1152Z" fill="#D4F4E9"/>
<path d="M63.0453 22.6118H25.712C22.752 22.6118 20.3787 25.0118 20.3787 27.9451V59.9451C20.3787 62.8785 22.752 65.2785 25.712 65.2785H63.0453C65.9787 65.2785 68.3787 62.8785 68.3787 59.9451V27.9451C68.3787 25.0118 65.9787 22.6118 63.0453 22.6118ZM63.0453 59.9451H25.712V27.9451H63.0453V59.9451ZM32.3787 46.6118H37.712V51.9451H41.712V35.9451H37.712V42.6118H32.3787V35.9451H28.3787V51.9451H32.3787V46.6118ZM49.712 51.9451H51.712V55.9451H55.712V51.9451H57.712C59.1787 51.9451 60.3787 50.7451 60.3787 49.2785V38.6118C60.3787 37.1451 59.1787 35.9451 57.712 35.9451H49.712C48.2453 35.9451 47.0453 37.1451 47.0453 38.6118V49.2785C47.0453 50.7451 48.2453 51.9451 49.712 51.9451ZM51.0453 39.9451H56.3787V47.9451H51.0453V39.9451Z" fill="#0A9C76"/>
</svg>
