<svg width="88" height="85" viewBox="0 0 88 85" fill="none" xmlns="http://www.w3.org/2000/svg">
<path d="M78.1787 75.1152C61.1787 94.1152 12.1748 82.6152 3.85298 58.7122C-4.46881 34.8093 5.71398 17.2837 24.5791 6.90381C43.4442 -3.47604 55.7421 -0.616141 70.4399 9.99953C85.1378 20.6152 95.1787 56.1152 78.1787 75.1152Z" fill="#D4F4E9"/>
<path d="M44.3786 17.2788C29.6586 17.2788 17.7119 29.2255 17.7119 43.9455C17.7119 58.6655 29.6586 70.6121 44.3786 70.6121C59.0986 70.6121 71.0452 58.6655 71.0452 43.9455C71.0452 29.2255 59.0986 17.2788 44.3786 17.2788ZM44.3786 65.2788C32.6186 65.2788 23.0452 55.7055 23.0452 43.9455C23.0452 32.1855 32.6186 22.6121 44.3786 22.6121C56.1386 22.6121 65.7119 32.1855 65.7119 43.9455C65.7119 55.7055 56.1386 65.2788 44.3786 65.2788ZM45.2052 41.6521C40.4852 40.4521 38.9652 39.1455 38.9652 37.1988C38.9652 34.9588 41.0719 33.3855 44.5652 33.3855C48.2452 33.3855 49.6319 35.1455 49.7386 37.7588H54.2986C54.1652 34.1855 51.9786 30.9055 47.6586 29.8388V25.2788H41.4452V29.7855C37.4186 30.6388 34.1919 33.2521 34.1919 37.2788C34.1919 42.0521 38.1652 44.4521 43.9519 45.8388C49.1519 47.0655 50.1919 48.9055 50.1919 50.8255C50.1919 52.2388 49.1519 54.5321 44.5919 54.5321C40.3252 54.5321 38.6452 52.6121 38.4052 50.1588H33.8186C34.0852 54.6921 37.4452 57.2521 41.4452 58.0788V62.6121H47.6852V58.1588C51.7386 57.3855 54.9386 55.0655 54.9652 50.7721C54.9386 44.9055 49.8986 42.8788 45.2052 41.6521Z" fill="#0A9C76"/>
</svg>
