<svg width="88" height="85" viewBox="0 0 88 85" fill="none" xmlns="http://www.w3.org/2000/svg">
<path d="M78.1787 75.1152C61.1787 94.1152 12.1748 82.6152 3.85298 58.7122C-4.46881 34.8093 5.71398 17.2837 24.5791 6.90381C43.4442 -3.47604 55.7421 -0.616141 70.4399 9.99953C85.1378 20.6152 95.1787 56.1152 78.1787 75.1152Z" fill="#D4F4E9"/>
<path d="M68.2987 31.3318C69.3387 30.2918 69.3387 28.6118 68.2987 27.5718L60.752 20.0251C59.712 18.9851 58.032 18.9851 56.992 20.0251L45.0187 31.9984L34.6453 21.6251C32.5653 19.5451 29.1787 19.5451 27.0987 21.6251L22.032 26.6918C19.952 28.7718 19.952 32.1584 22.032 34.2384L32.4053 44.6118L20.3787 56.6384V67.9451H31.6853L43.7387 55.8918L54.112 66.2651C56.6453 68.7985 60.0587 67.8651 61.6587 66.2651L66.7253 61.1984C68.8053 59.1184 68.8053 55.7318 66.7253 53.6518L56.352 43.2784L68.2987 31.3318ZM25.8187 30.4518L30.8587 25.3851L34.2453 28.7718L31.0987 31.9451L34.8587 35.7051L38.032 32.5318L41.232 35.7318L36.1653 40.7984L25.8187 30.4518ZM55.7653 50.2918L52.592 53.4651L56.352 57.2251L59.5253 54.0518L62.912 57.4384L57.8453 62.5051L47.472 52.1318L52.5387 47.0651L55.7653 50.2918ZM29.472 62.6118H25.712V58.8518L51.3387 33.2251L54.8053 36.6918L55.0987 36.9851L29.472 62.6118ZM55.0987 29.4384L58.8587 25.6785L62.6187 29.4384L58.8587 33.1984L55.0987 29.4384Z" fill="#0A9C76"/>
</svg>
