<svg width="88" height="85" viewBox="0 0 88 85" fill="none" xmlns="http://www.w3.org/2000/svg">
<path d="M78.1787 75.1152C61.1787 94.1152 12.1748 82.6152 3.85298 58.7122C-4.46881 34.8093 5.71398 17.2837 24.5791 6.90381C43.4442 -3.47604 55.7421 -0.616141 70.4399 9.99953C85.1378 20.6152 95.1787 56.1152 78.1787 75.1152Z" fill="#D4F4E9"/>
<path d="M44.352 61.3855L24.6987 46.1055L20.3787 49.4655L44.3787 68.1321L68.3787 49.4655L64.032 46.0788L44.352 61.3855ZM44.3787 54.6121L64.0053 39.3321L68.3787 35.9455L44.3787 17.2788L20.3787 35.9455L24.7253 39.3321L44.3787 54.6121ZM44.3787 24.0255L59.6853 35.9455L44.3787 47.8655L29.072 35.9455L44.3787 24.0255V24.0255Z" fill="#0A9C76"/>
</svg>
