<svg width="117" height="234" viewBox="0 0 117 234" fill="none" xmlns="http://www.w3.org/2000/svg">
<path fill-rule="evenodd" clip-rule="evenodd" d="M23.074 1.04256C21.8154 2.2939 22.565 13.6764 24.0286 15.521C24.6784 16.3404 24.4985 17.2061 23.4348 18.3741C21.3754 20.6367 21.3008 29.4655 23.3341 30.2414C24.8267 30.8105 24.3643 34.1974 22.6423 35.2996C21.5171 36.0198 23.4823 43.5426 24.7959 43.5426C25.3245 43.5426 25.4224 44.0561 25.0159 44.7013C24.6141 45.339 24.4099 46.6144 24.5628 47.5376C24.7157 48.4599 24.3615 49.7891 23.776 50.4908C22.8633 51.5836 22.6209 57.603 22.9826 70.1572C23.0152 71.2862 22.3673 72.8796 21.5423 73.6999C20.7181 74.5193 20.0431 75.8448 20.0431 76.6438C20.0431 77.4437 19.3244 78.6199 18.4471 79.2586C17.1018 80.2356 17.0449 80.6517 18.0863 81.8994C18.7659 82.7132 19.6945 83.1507 20.1485 82.8717C20.6034 82.5927 21.4397 82.6493 22.0075 82.9978C22.7402 83.4483 22.7039 83.8376 21.8816 84.3437C21.0491 84.8544 21.2999 85.3614 22.7738 86.1456C24.4575 87.0419 24.7204 87.7631 24.244 90.1851C23.9252 91.8063 23.2148 94.0392 22.6666 95.1469C22.0764 96.3389 21.9711 98.2307 22.4074 99.7815C22.8139 101.223 23.005 102.819 22.8325 103.329C22.6601 103.839 22.4139 108 22.2843 112.575C22.1398 117.686 21.6476 121.026 21.0071 121.239C20.2753 121.482 20.3228 122.013 21.1675 123.024C21.9627 123.977 22.3701 127.449 22.372 133.285C22.3729 139.516 22.716 142.218 23.5392 142.491C24.1806 142.703 24.7045 143.468 24.7045 144.19C24.7045 145.367 25.3105 145.671 27.1639 145.425C28.3441 145.267 29.2279 147.767 28.4691 149.115C27.341 151.12 29.7696 154.289 34.5867 157.096C38.7782 159.537 40.5533 159.5 40.5533 156.969C40.5533 156.022 41.287 155.663 42.8131 155.862C45.2864 156.183 49.876 152.844 49.876 150.721C49.876 150.016 50.524 148.903 51.3173 148.249C52.1098 147.596 52.5554 146.536 52.3083 145.896C52.0604 145.254 52.4538 144.502 53.1819 144.225C53.9212 143.943 54.2633 143.09 53.9557 142.295C53.6536 141.51 53.8699 140.869 54.4377 140.869C55.0054 140.869 55.4697 140.412 55.4697 139.852C55.4697 139.293 57.1142 136.979 59.1252 134.708C61.5509 131.967 63.0006 129.282 63.4351 126.722C64.1548 122.487 65.5588 119.489 67.3562 118.345C67.9976 117.937 68.5216 117.139 68.5216 116.571C68.5216 114.876 71.6167 108.427 72.4297 108.427C72.8445 108.427 73.183 107.136 73.183 105.557C73.183 103.979 73.9745 101.581 74.9412 100.227C77.7549 96.2898 79.8432 90.5457 79.2763 88.3016C78.8754 86.7119 79.0843 86.356 80.175 86.7722C81.3357 87.2152 81.566 86.5266 81.4327 83.021C81.2695 78.7136 82.9793 76.0904 86.0018 76.0144C87.073 75.9875 87.334 74.5638 87.5568 67.5285C87.5997 66.1659 88.8089 63.9237 90.307 62.4304C92.4513 60.292 92.6815 59.7044 91.4724 59.4643C89.3561 59.0435 89.5855 57.4464 91.7623 57.4464C94.2618 57.4464 96.7276 54.7435 96.1683 52.6171C95.8979 51.5883 96.2587 50.6326 97.0288 50.3388C97.7578 50.0607 98.3545 49.068 98.3545 48.1327C98.3545 47.1975 98.8131 46.151 99.3744 45.8062C99.9356 45.4613 100.205 44.1924 99.9729 42.9855C99.614 41.1206 99.8536 40.8675 101.573 41.2967C103.2 41.7036 103.945 41.115 105.402 38.2694C106.397 36.3266 108.379 33.277 109.807 31.4927C111.235 29.7084 112.808 27.7443 113.304 27.1288C113.799 26.5133 114.203 25.1572 114.203 24.1163C114.203 23.0522 114.815 22.2235 115.602 22.2235C116.609 22.2235 117 21.1974 117 18.5474C117 15.7231 116.36 14.2205 114.235 12.059C112.713 10.5129 110.855 9.2467 110.106 9.2467C109.356 9.2467 108.084 8.59137 107.277 7.79051C105.946 6.46595 105.813 6.46595 105.813 7.79051C105.813 8.59137 105.17 9.2467 104.385 9.2467C103.599 9.2467 102.755 9.77226 102.507 10.4146C102.221 11.1543 100.084 11.6094 96.6736 11.6548C93.5085 11.6975 90.3453 12.325 88.9963 13.1768C87.734 13.974 85.4191 14.8907 83.8519 15.2151C82.2857 15.5386 80.41 16.6222 79.6837 17.6232C78.1128 19.7904 76.9121 19.9767 76.9121 18.0524C76.9121 16.3024 75.9565 16.3015 72.59 18.0468C71.1217 18.8078 68.3472 19.4335 66.424 19.4372C64.5016 19.44 62.9279 19.8228 62.9279 20.2881C62.9279 20.7534 61.1874 21.4264 59.0608 21.7833C56.9334 22.1401 53.8009 23.0114 52.0986 23.7187C50.3962 24.4259 47.9863 25.0043 46.7426 25.0043C45.499 25.0043 44.2404 25.63 43.9449 26.3947C43.6298 27.2122 42.2314 27.785 40.5533 27.785C38.9758 27.785 37.4758 28.3616 37.2008 29.0725C36.9136 29.8178 35.9422 30.1626 34.899 29.8919C33.7942 29.6046 33.095 29.8929 33.095 30.6344C33.095 31.3833 32.6102 31.1887 31.829 30.1255C30.9471 28.9261 30.6338 26.0118 30.796 20.5069C30.9247 16.1634 30.6786 11.957 30.2488 11.1599C29.819 10.3627 29.2233 8.18631 28.925 6.32413C28.6266 4.46103 27.7382 2.69154 26.9504 2.39122C26.1635 2.08997 25.7795 1.42445 26.0992 0.910935C26.8991 -0.37748 24.3922 -0.268104 23.074 1.04256ZM89.8064 31.451C89.7244 33.518 89.1249 35.3227 88.4313 35.5869C87.7545 35.8455 86.9294 37.7411 86.5984 39.7997C86.2675 41.8584 85.6307 43.5426 85.1832 43.5426C84.7357 43.5426 84.3703 44.1683 84.3703 44.933C84.3703 45.6977 83.741 46.3234 82.9719 46.3234C82.2027 46.3234 81.5735 46.9491 81.5735 47.7138C81.5735 48.4785 81.1353 49.1041 80.6002 49.1041C80.065 49.1041 79.6949 49.626 79.7788 50.2628C80.148 53.0927 79.5924 54.4506 78.1128 54.331C77.189 54.2559 76.3779 54.9826 76.1849 56.056C75.6069 59.2845 73.2044 63.7976 70.4915 66.7498C68.6437 68.7613 67.9976 70.2777 68.3062 71.8813C68.654 73.6878 68.4321 74.0382 67.2341 73.5812C66.2291 73.1984 65.7247 73.5034 65.7247 74.4952C65.7247 75.3146 65.0955 75.9847 64.3263 75.9847C63.5572 75.9847 62.9158 75.2552 62.9009 74.3626C62.8794 73.1224 62.2212 73.4524 60.104 75.7678C58.5807 77.4326 57.3342 79.4588 57.3342 80.2708C57.3342 81.3924 56.76 81.6037 54.9439 81.1504C53.1446 80.7018 51.8198 81.1717 49.5833 83.0534C47.9499 84.428 46.7184 85.9027 46.8461 86.33C47.1817 87.4488 45.4384 87.2903 44.7205 86.1354C43.8936 84.8062 41.2553 87.0271 41.8454 88.5556C42.5325 90.3362 41.4091 90.8719 39.9762 89.4473C39.2676 88.7428 38.6887 87.0113 38.6887 85.5978C38.6887 83.6995 38.9619 83.3009 39.7347 84.0693C41.1993 85.5255 43.3501 84.4846 43.3501 82.3193C43.3501 81.3238 43.6848 80.7157 44.094 80.9669C45.0925 81.5805 46.3725 80.5841 47.7598 78.1129C48.4823 76.8245 48.568 75.8633 47.9928 75.5092C46.5161 74.6018 46.9449 73.2068 48.7107 73.1734C50.4438 73.14 54.5374 70.16 54.5374 68.9309C54.5374 68.5277 54.0442 68.689 53.4411 69.2887C51.9103 70.8107 49.9338 69.0125 50.5519 66.6618C50.936 65.2028 51.3061 65.0453 52.3428 65.9008C53.0616 66.494 53.8997 66.7313 54.2046 66.4282C54.5094 66.1251 55.3513 66.4653 56.0738 67.1836C57.7417 68.8419 60.1311 67.9789 60.1311 65.7182C60.1311 64.5651 60.5953 64.1702 61.5295 64.5262C62.4152 64.8645 62.9279 64.5141 62.9279 63.5705C62.9279 62.7511 63.3474 62.081 63.8602 62.081C64.3729 62.081 64.7925 61.4998 64.7925 60.7898C64.7925 60.0798 65.4218 59.2585 66.1909 58.9647C66.96 58.6718 67.5893 58.0016 67.5893 57.4751C67.5893 56.9496 66.96 56.5195 66.1909 56.5195C65.4218 56.5195 64.7925 55.866 64.7925 55.067C64.7925 54.0353 65.3341 53.7851 66.657 54.2022C67.7991 54.5627 68.5216 54.369 68.5216 53.7016C68.5216 53.1028 69.1509 52.8535 69.92 53.1473C70.6966 53.443 71.3184 53.1733 71.3184 52.5393C71.3184 51.9108 72.2609 50.9858 73.4123 50.4825C74.5637 49.9791 76.1029 48.32 76.8338 46.7943C77.5647 45.2685 78.7198 43.4666 79.4022 42.789C81.1353 41.0659 80.9554 39.8229 78.6144 37.3453C76.1019 34.6869 74.0099 34.6164 72.2236 37.1293C71.4694 38.1897 70.1223 39.454 69.2301 39.9378C67.6238 40.8082 67.5184 40.0407 68.4172 34.0417C68.475 33.6589 69.5256 33.3465 70.7525 33.3465C71.9794 33.3465 73.2091 32.7617 73.485 32.0461C73.7824 31.2767 75.2507 30.7642 77.0808 30.792C81.428 30.8568 87.43 29.7483 88.5012 28.6832C89.8745 27.3179 89.9621 27.5023 89.8064 31.451ZM52.0846 37.3406C51.9904 38.4881 52.5619 38.6986 54.6484 38.2833C57.6111 37.6947 57.9617 38.4696 55.9358 41.1299C54.3472 43.2173 54.8917 44.4695 57.3893 44.4695C61.0792 44.4695 58.6767 48.2653 54.694 48.7259C52.3857 48.9929 51.4525 48.5248 49.8592 46.3002C47.7887 43.4092 44.2824 42.5499 44.2824 44.933C44.2824 45.7978 45.1624 46.3234 46.6131 46.3234C49.4127 46.3234 49.6644 48.2106 47.0792 49.816C45.0179 51.0951 44.5481 53.7359 46.38 53.7433C47.0214 53.7461 46.2868 54.5294 44.7485 55.4832C43.1105 56.4991 41.5844 56.8819 41.066 56.4055C39.4271 54.9011 38.5535 55.5759 38.8546 58.1119C39.1511 60.6025 38.5153 60.9047 34.183 60.33C32.696 60.1326 33.4027 56.9746 35.2216 55.6927C36.8689 54.5312 36.8997 54.318 35.532 53.557C34.6967 53.0917 33.6442 52.9379 33.1929 53.215C32.7426 53.4922 31.856 53.0973 31.2221 52.3381C30.3243 51.2629 30.3169 50.6614 31.1876 49.6186C31.8029 48.8817 32.1674 47.318 31.9977 46.1426C31.4859 42.5944 33.8809 40.9398 39.3963 41.0335C42.0924 41.0789 44.7988 40.6191 45.4095 40.012C46.0201 39.4049 47.275 38.908 48.1979 38.908C49.1209 38.908 49.8266 38.5957 49.766 38.2129C49.4565 36.2654 50 35.0891 51.0414 35.4543C51.6828 35.6796 52.1517 36.5277 52.0846 37.3406ZM64.3263 45.3965C64.6433 45.9063 64.4578 46.3234 63.9152 46.3234C63.3726 46.3234 62.9279 45.9063 62.9279 45.3965C62.9279 44.8867 63.1125 44.4695 63.339 44.4695C63.5656 44.4695 64.0094 44.8867 64.3263 45.3965ZM28.1381 53.913C27.8407 54.6517 27.6198 54.4321 27.575 53.3522C27.5349 52.3752 27.7549 51.8283 28.0645 52.1361C28.374 52.4438 28.4075 53.2437 28.1381 53.913ZM57.3342 62.7567C56.5651 63.0477 55.6888 63.6604 55.3877 64.1174C55.0856 64.5753 54.3006 64.3037 53.6415 63.5149C52.6001 62.2673 52.8537 62.0902 55.589 62.1542C57.3175 62.1941 58.1034 62.4656 57.3342 62.7567ZM36.509 78.0703C36.2508 78.708 36.0392 78.1861 36.0392 76.9116C36.0392 75.6371 36.2508 75.1162 36.509 75.753C36.7682 76.3907 36.7682 77.4335 36.509 78.0703ZM35.8919 85.772C35.8919 86.5664 35.4723 86.9594 34.9596 86.6443C34.4468 86.3291 34.0273 85.6793 34.0273 85.1992C34.0273 84.7191 34.4468 84.327 34.9596 84.327C35.4723 84.327 35.8919 84.9777 35.8919 85.772ZM51.7406 86.6443C51.7406 87.409 51.3211 88.0346 50.8083 88.0346C50.2956 88.0346 49.876 87.409 49.876 86.6443C49.876 85.8796 50.2956 85.2539 50.8083 85.2539C51.3211 85.2539 51.7406 85.8796 51.7406 86.6443ZM47.0792 93.6953C47.0792 94.1504 46.4499 94.5231 45.6808 94.5231C44.9116 94.5231 44.2824 93.9104 44.2824 93.1614C44.2824 92.3328 44.8287 92.0093 45.6808 92.3337C46.4499 92.6275 47.0792 93.2402 47.0792 93.6953ZM41.2329 94.156C40.9234 94.4637 40.1188 94.4971 39.4466 94.2292C38.7027 93.9335 38.9236 93.7139 40.0097 93.6694C40.9924 93.6295 41.5424 93.8483 41.2329 94.156ZM57.3342 95.9134C57.3342 96.6781 56.9147 97.3038 56.402 97.3038C55.8892 97.3038 55.4697 96.6781 55.4697 95.9134C55.4697 95.1487 55.8892 94.5231 56.402 94.5231C56.9147 94.5231 57.3342 95.1487 57.3342 95.9134ZM43.6577 98.7711C43.379 99.4932 43.5701 100.085 44.0829 100.085C44.5956 100.085 45.2333 99.5182 45.5009 98.8258C46.0145 97.4938 51.3789 96.0451 52.7279 96.8737C53.166 97.1435 53.2882 97.9731 53.001 98.7183C52.7129 99.4645 52.1228 99.8556 51.6893 99.5896C51.2567 99.3236 50.4718 99.9057 49.945 100.884C49.175 102.314 49.3325 102.75 50.7524 103.119C51.7219 103.371 52.9731 103.123 53.5324 102.567C54.2652 101.838 54.4927 102.228 54.3472 103.968C54.1701 106.096 53.8885 106.282 51.9503 105.55C49.0677 104.46 49.1712 104.409 49.4108 106.805C49.5255 107.951 49.4425 108.192 49.2262 107.34C49.0099 106.487 47.5369 105.34 45.9521 104.791C42.0924 103.453 41.1853 103.532 41.8109 105.153C42.5912 107.175 40.8208 107.8 39.7067 105.897C38.8705 104.47 38.7418 104.452 38.7167 105.765C38.7018 106.594 38.1023 107.757 37.3863 108.347C36.041 109.458 36.4074 113.061 37.8655 113.061C39.8764 113.061 38.4426 115.393 36.3571 115.512C34.9223 115.595 34.0273 115.15 34.0273 114.354C34.0273 113.643 34.5522 113.048 35.1927 113.032C35.904 113.014 35.7231 112.523 34.7265 111.771C32.7687 110.294 32.6876 107.86 34.4935 104.719C35.6821 102.652 35.8313 102.602 35.8797 104.256C35.9301 105.985 36.0476 105.961 37.6492 103.89C38.6076 102.652 39.8335 101.96 40.4255 102.323C41.0446 102.703 41.4855 102.373 41.4855 101.53C41.4855 100.735 40.8562 100.085 40.0871 100.085C39.318 100.085 38.6887 99.4144 38.6887 98.595C38.6887 97.6514 39.2015 97.301 40.0871 97.6394C40.8562 97.9323 41.4855 97.7812 41.4855 97.3038C41.4855 96.8264 42.0887 96.6652 42.8252 96.946C43.5617 97.2269 43.9365 98.0481 43.6577 98.7711ZM37.7564 100.493C37.7564 100.719 37.3369 101.16 36.8241 101.475C36.3114 101.79 35.8919 101.606 35.8919 101.066C35.8919 100.527 36.3114 100.085 36.8241 100.085C37.3369 100.085 37.7564 100.268 37.7564 100.493ZM58.8007 104.321C57.4685 105.645 57.3342 105.645 57.3342 104.322C57.3342 103.521 57.7538 102.865 58.2665 102.865C58.7793 102.865 59.2473 102.136 59.3069 101.243C59.4095 99.6999 59.4356 99.6999 59.8411 101.241C60.0751 102.133 59.6071 103.519 58.8007 104.321ZM47.2852 110.244C47.1034 111.032 47.867 111.183 49.849 110.75C53.3842 109.978 53.3767 110.365 49.7837 113.937C48.0926 115.62 47.1146 117.377 47.4241 118.18C47.715 118.933 47.5146 119.55 46.9794 119.55C46.4443 119.55 46.1329 118.35 46.2877 116.885C46.4425 115.419 46.0472 113.595 45.4095 112.832C44.0875 111.247 44.9079 108.151 46.4947 108.735C47.0727 108.948 47.4288 109.627 47.2852 110.244ZM37.2288 122.153C36.6983 124.037 36.4317 124.25 36.1408 123.026C35.9282 122.133 35.3661 121.404 34.8915 121.404C34.4161 121.404 34.0273 120.348 34.0273 119.058C34.0273 117.766 33.4008 116.472 32.6345 116.18C31.8682 115.887 31.4589 115.298 31.7246 114.871C31.9894 114.443 33.495 115.345 35.0696 116.876C37.4339 119.173 37.8096 120.091 37.2288 122.153ZM41.4855 128.178C41.4855 128.846 40.8693 130.201 40.1169 131.191C38.822 132.893 38.7465 132.827 38.7185 129.978C38.698 127.905 39.125 126.965 40.0871 126.965C40.8562 126.965 41.4855 127.511 41.4855 128.178ZM16.5126 196.012C11.8615 198.639 9.3434 201.13 9.24458 203.204C9.00685 208.164 8.9882 208.185 5.10806 207.988C0.501681 207.754 -0.837067 209.554 0.482105 214.208C2.3998 220.976 6.12331 226.145 9.07863 226.145C10.0482 226.145 11.9193 227.42 13.2375 228.977C14.5558 230.534 16.1854 231.598 16.8585 231.342C17.5325 231.085 18.3417 231.685 18.6578 232.674C19.1994 234.372 19.3924 234.39 22.0774 233.01C23.6417 232.205 25.7123 231.752 26.6782 232.003C27.644 232.255 28.4374 232.186 28.4411 231.851C28.4495 231.111 33.0335 228.926 34.5792 228.926C35.9329 228.926 36.9388 226.594 36.2993 224.938C35.6318 223.209 38.3456 217.205 40.0974 216.537C41.2515 216.097 41.4333 215.225 40.929 212.549C40.5728 210.667 40.2092 208.471 40.1188 207.671C39.9128 205.837 38.8202 202.924 37.6623 201.119C37.1719 200.354 36.5417 199.068 36.2629 198.262C35.5516 196.202 26.4367 193.355 25.4578 194.886C24.974 195.643 24.7288 195.674 24.7185 194.978C24.6952 193.259 20.4375 193.796 16.5126 196.012ZM18.1786 196.893C18.1786 197.118 17.7591 197.559 17.2463 197.874C16.7336 198.189 16.314 198.005 16.314 197.466C16.314 196.926 16.7336 196.484 17.2463 196.484C17.7591 196.484 18.1786 196.667 18.1786 196.893ZM29.3659 205.74C29.3659 206.807 23.9438 209.461 21.7641 209.461C19.3682 209.461 19.6096 207.207 22.1408 205.958C26.0619 204.022 29.3659 203.922 29.3659 205.74Z" fill="#11507A"/>
</svg>
