<svg width="199" height="59" viewBox="0 0 199 59" fill="none" xmlns="http://www.w3.org/2000/svg">
<path d="M115.309 15.1884L126.676 10.9558L115.309 6.60233V0.676758L134.778 8.53721V13.3744L115.309 21.2349V15.1884Z" fill="#011028"/>
<path d="M7.80137 52.677C3.68975 52.677 0.303711 50.6212 0.303711 46.0258V45.784C0.303711 40.2212 5.14091 38.2863 11.0665 38.2863H13.8479V37.198C13.8479 34.9003 12.8804 33.5701 10.4618 33.5701C8.28509 33.5701 7.19672 34.7794 7.07579 36.4724H1.02929C1.51301 31.3933 5.5037 28.9747 10.8246 28.9747C16.2665 28.9747 20.2572 31.2724 20.2572 36.9561V52.1933H14.0897V49.5328C12.8804 51.2258 10.8246 52.677 7.80137 52.677ZM13.8479 44.6956V42.5189H11.3083C8.16416 42.5189 6.59207 43.3654 6.59207 45.4212V45.6631C6.59207 47.2351 7.55951 48.3235 9.73625 48.3235C11.913 48.2026 13.8479 46.9933 13.8479 44.6956ZM34.6478 52.677C28.3595 52.677 23.7641 48.8072 23.7641 41.0677V40.7049C23.7641 32.9654 28.6013 28.8538 34.6478 28.8538C39.8478 28.8538 44.0804 31.5142 44.5641 37.4398H38.5176C38.1548 35.2631 36.9455 33.8119 34.7687 33.8119C32.1083 33.8119 30.1734 35.9887 30.1734 40.4631V41.1886C30.1734 45.784 31.8664 47.8398 34.7687 47.8398C36.9455 47.8398 38.5176 46.2677 38.8804 43.7282H44.685C44.3222 49.0491 40.8152 52.677 34.6478 52.677ZM58.3501 52.677C52.0617 52.677 47.4664 48.8072 47.4664 41.0677V40.7049C47.4664 32.9654 52.3036 28.8538 58.3501 28.8538C63.5501 28.8538 67.7826 31.5142 68.2663 37.4398H62.2198C61.8571 35.2631 60.6478 33.8119 58.471 33.8119C55.8106 33.8119 53.8757 35.9887 53.8757 40.4631V41.1886C53.8757 45.784 55.5687 47.8398 58.471 47.8398C60.6478 47.8398 62.2198 46.2677 62.5826 43.7282H68.3873C68.0245 49.0491 64.5175 52.677 58.3501 52.677ZM82.1733 52.677C75.6431 52.677 71.1687 48.8072 71.1687 41.1886V40.7049C71.1687 33.0863 75.8849 28.8538 82.0524 28.8538C87.7361 28.8538 92.4523 31.998 92.4523 39.6166V42.3979H77.578C77.8198 46.5096 79.6338 48.0817 82.2942 48.0817C84.7128 48.0817 86.0431 46.7514 86.5268 45.1793H92.4523C91.7268 49.4119 88.0989 52.677 82.1733 52.677ZM77.6989 38.1654H86.164C86.0431 34.7794 84.471 33.3282 81.9314 33.3282C79.9966 33.4491 78.1826 34.5375 77.6989 38.1654ZM96.3221 29.4584H102.731V32.8445C103.82 30.6677 106.117 28.9747 109.624 28.9747C113.736 28.9747 116.517 31.5142 116.517 36.9561V52.1933H110.108V37.9235C110.108 35.2631 109.02 34.0538 106.722 34.0538C104.545 34.0538 102.731 35.384 102.731 38.2863V52.1933H96.3221V29.4584ZM128.248 22.5654V29.4584H132.601V34.1747H128.248V44.9375C128.248 46.6305 128.973 47.477 130.545 47.477C131.513 47.477 132.117 47.3561 132.722 47.1142V52.0723C131.996 52.3142 130.666 52.5561 129.094 52.5561C124.136 52.5561 121.838 50.2584 121.838 45.6631V34.1747H119.178V29.4584H121.838V25.2259L128.248 22.5654ZM156.545 52.1933H150.257V48.8072C149.168 50.984 146.992 52.677 143.606 52.677C139.494 52.677 136.471 50.1375 136.471 44.8165V29.4584H142.88V43.97C142.88 46.6305 143.968 47.8398 146.145 47.8398C148.322 47.8398 150.136 46.3886 150.136 43.6072V29.4584H156.545V52.1933ZM161.261 29.4584H167.671V33.691C169.001 30.6677 171.178 29.2166 174.564 29.2166V35.5049C170.21 35.5049 167.671 36.8352 167.671 40.584V52.3142H161.261V29.4584ZM187.503 52.677C180.973 52.677 176.499 48.8072 176.499 41.1886V40.7049C176.499 33.0863 181.215 28.8538 187.382 28.8538C193.066 28.8538 197.782 31.998 197.782 39.6166V42.3979H183.029C183.271 46.5096 185.085 48.0817 187.745 48.0817C190.164 48.0817 191.494 46.7514 191.978 45.1793H197.903C196.936 49.4119 193.429 52.677 187.503 52.677ZM182.908 38.1654H191.494C191.373 34.7794 189.801 33.3282 187.261 33.3282C185.327 33.4491 183.513 34.5375 182.908 38.1654Z" fill="#011028"/>
</svg>
