<svg width="121" height="49" viewBox="0 0 121 49" fill="none" xmlns="http://www.w3.org/2000/svg">
<path d="M66.769 11.0297C55.9454 11.0297 47.7572 19.4375 47.7572 29.8532C47.7572 40.8336 56.2905 48.6768 66.769 48.6768C77.2474 48.6768 85.7494 40.8336 85.7494 29.8532C85.7494 19.4375 77.5925 11.0297 66.769 11.0297ZM66.769 20.9748C71.4435 20.9434 75.2709 24.9277 75.2709 29.8532C75.2709 34.7473 71.4435 38.7317 66.769 38.7317C62.0944 38.7317 58.267 34.7473 58.267 29.8532C58.267 24.9277 62.0944 20.9748 66.769 20.9748Z" fill="#011028"/>
<path d="M120.927 42.0873C120.927 45.7265 117.978 48.6755 114.339 48.6755C110.7 48.6755 107.751 45.7265 107.751 42.0873C107.751 38.4481 110.7 35.499 114.339 35.499C117.978 35.499 120.927 38.4481 120.927 42.0873Z" fill="#011028"/>
<path d="M101.749 47.4219H91.3964V0.676758H101.749V47.4219Z" fill="#011028"/>
<path fill-rule="evenodd" clip-rule="evenodd" d="M0.416016 47.4219L19.2395 0.676758H28.965L47.4748 47.4219H34.2984L32.1023 40.8336H15.7886L13.5925 47.4219H0.416016ZM28.965 31.1081H19.2395L24.1023 15.4219L28.965 31.1081Z" fill="#011028"/>
</svg>
