<svg width="144" height="36" viewBox="0 0 144 36" fill="none" xmlns="http://www.w3.org/2000/svg">
<path d="M49.6213 16.9477C53.1239 18.1152 55.1119 20.1347 55.3643 23.6373C55.6483 27.5186 53.9759 30.4217 50.852 32.5674C49.0534 33.8296 47.0023 34.5869 44.8565 34.9656C40.786 35.7229 36.6838 35.7544 32.6132 35.0918C28.5111 34.4291 26.7124 31.9363 27.596 27.8342C29.4262 19.3774 31.3826 10.9207 33.3074 2.49552C33.4652 1.83286 33.6545 1.32799 34.5065 1.26488C39.1135 0.854661 43.689 0.160452 48.3276 0.949326C50.0316 1.23332 51.6724 1.64354 53.1871 2.40085C58.4252 4.98836 58.9616 11.2362 54.323 14.7388C52.9977 15.717 51.5146 16.3481 49.6213 16.9477ZM37.5674 20.1663C36.9678 22.9116 36.3998 25.436 35.8318 27.9288C35.6109 28.8755 35.7372 29.6328 36.8731 29.6959C39.5238 29.8221 42.1744 29.6959 44.541 28.3075C46.3396 27.2662 47.0969 25.6253 46.8445 23.5427C46.5921 21.5547 45.1721 20.7658 43.4366 20.2294C41.5117 19.6614 39.65 20.6081 37.5674 20.1663ZM43.405 6.37678C42.5846 6.91321 41.0384 5.61946 40.5335 7.32343C39.9971 9.21672 39.6184 11.1731 39.1767 13.1295C39.0189 13.7922 39.2398 14.3917 39.9655 14.4233C42.8055 14.5811 45.6454 14.6126 47.9489 12.5931C50.1893 10.6367 49.4951 7.60742 46.6552 6.69233C45.6454 6.40833 44.6041 6.40833 43.405 6.37678Z" fill="#011028"/>
<path d="M118.127 6.85008C116.517 2.43239 112.447 1.39107 108.282 0.980858C104.432 0.602199 100.551 0.791528 96.701 1.2333C95.3757 1.39107 94.713 1.89595 94.3975 3.28437C92.1255 13.6344 89.7589 23.9844 87.4554 34.3344C87.3607 34.7131 87.1714 35.1233 87.6763 35.5966C88.5913 35.5966 89.6642 35.5966 90.7055 35.5966C94.5552 35.5966 95.6912 34.6816 96.5432 30.9581C97.0481 28.7492 97.5529 26.5088 98.0263 24.3631C98.8151 24.0791 99.4462 24.3 100.077 24.3315C105.631 24.5209 110.901 23.6058 114.971 19.4405C118.442 15.9064 119.894 11.6149 118.127 6.85008ZM111.185 12.3722C110.427 15.9695 107.335 18.2099 103.075 18.2414C100.298 18.2414 100.046 17.9259 100.645 15.1175C101.15 12.814 101.687 10.542 102.097 8.2385C102.286 7.10252 102.854 6.66075 103.959 6.66075C105.126 6.6292 106.294 6.56609 107.461 6.78697C110.49 7.35496 111.816 9.34292 111.185 12.3722Z" fill="#011028"/>
<path d="M86.982 1.58049C79.6928 -1.07012 72.6876 -0.596797 66.6606 4.60977C60.8861 9.59545 59.0559 16.222 59.7817 23.669C60.1919 27.9289 61.9905 31.4946 65.8087 33.6719C70.6681 36.4487 75.8747 36.5434 81.1128 34.9972C82.2803 34.6501 83.1639 33.8297 83.4794 32.599C83.9528 30.7373 84.363 28.8755 84.8363 26.7614C83.1954 27.6449 81.8701 28.4653 80.3555 28.9386C75.5907 30.4217 70.8259 28.5915 69.1535 24.6156C66.85 19.1251 70.1317 10.479 75.5907 7.9546C80.0715 5.90352 84.3945 6.81862 88.7176 9.21679C88.97 8.27015 89.2224 7.41816 89.4433 6.56618C90.0744 3.94712 89.538 2.52714 86.982 1.58049Z" fill="#011028"/>
<path d="M13.7746 4.16797C18.066 6.34526 21.5055 9.4692 24.0299 13.5082C25.5761 16.0011 25.3868 18.7464 23.6513 21.1445C20.0856 26.1302 15.3523 29.7906 9.86175 32.315C6.16982 34.019 2.09923 32.031 0.521484 28.0235C2.73033 26.856 4.93918 25.6569 6.9587 24.1738C9.98797 21.965 12.607 19.409 13.9008 15.7802C15.6679 11.8989 15.8256 8.01767 13.7746 4.16797Z" fill="#011028"/>
<path d="M132.106 4.16797C136.397 6.31371 139.837 9.50076 142.393 13.5082C143.939 15.938 143.813 18.6201 142.14 20.9868C138.543 26.0987 133.715 29.8221 128.099 32.3781C124.438 34.019 120.462 31.9994 118.916 28.0866C120.999 26.9506 123.113 25.8147 125.038 24.3947C128.162 22.1227 130.938 19.5352 132.264 15.7802C134.062 11.8674 134.189 7.98612 132.106 4.16797Z" fill="#011028"/>
<path opacity="0.6" d="M13.7741 4.16781C15.8252 8.01752 15.6358 11.8672 13.8688 15.7485C11.1866 12.8454 7.84177 10.8575 4.30762 9.27972C6.16936 4.26248 10.3977 2.05363 13.7741 4.16781Z" fill="#011028"/>
<path opacity="0.6" d="M132.106 4.16807C134.189 8.01777 134.062 11.8675 132.232 15.7803C129.582 12.8772 126.268 10.9208 122.545 9.24842C123.776 6.47158 125.543 4.45206 128.319 3.41075C129.739 2.84276 130.97 3.25297 132.106 4.16807Z" fill="#011028"/>
</svg>
