<svg width="122" height="56" viewBox="0 0 122 56" fill="none" xmlns="http://www.w3.org/2000/svg">
<path d="M117.681 2.87179C117.681 2.87179 117.585 2.87179 117.681 2.87179L109.257 0.0957265C109.161 0.0957265 109.065 0.0957265 108.969 0.0957265L108.682 0C101.79 6.22222 89.2498 6.79658 75.0822 5.74359C68.86 5.26496 62.3506 4.49915 55.8412 3.63761C51.2463 3.15897 46.5558 2.58462 41.9609 2.20171C41.7694 2.20171 41.4822 2.20171 41.1951 2.10598C40.7164 2.10598 40.1421 2.01026 39.6634 2.01026C34.4942 1.53162 29.6122 1.24444 25.113 1.24444C12.4771 1.53162 3.00019 7.65812 0.702759 25.1761C0.702759 25.2718 0.702759 25.3675 0.702759 25.3675C0.702759 25.4632 0.702759 25.559 0.702759 25.559C-1.02032 39.535 3.19165 54.2769 3.67028 54.5641C3.76601 54.5641 3.76601 54.6598 3.86173 54.6598L10.8498 56H10.9455C11.0412 56 11.1369 56 11.2327 55.9043C20.8053 47.1932 43.2053 49.4906 64.7438 51.6923C75.8481 52.9368 87.2395 54.0855 96.6207 53.7026C98.1523 53.6068 99.5882 53.5111 101.024 53.3197C112.99 51.5009 119.308 43.9385 120.744 29.9624C122.371 15.5077 117.968 3.06325 117.681 2.87179ZM13.0515 5.55214C31.6224 -5.83932 86.2822 19.6239 116.149 4.59487C116.149 4.59487 126.966 38.3863 107.534 48.7248C87.9096 59.2547 28.9421 36.4718 4.53182 52.6496C4.72327 51.8838 -6.09382 17.2308 13.0515 5.55214ZM80.7301 52.2667C81.113 52.2667 81.6874 52.3624 82.0703 52.3624C81.6874 52.3624 81.113 52.2667 80.7301 52.2667Z" fill="white"/>
<path d="M29.5166 28.5265C31.0483 27.4735 31.9098 25.9419 31.9098 23.9317C31.9098 19.9112 29.3252 17.8052 24.2517 17.8052H13.3389V41.3539H24.6346C28.4637 41.3539 32.9628 39.5351 32.9628 34.3659C32.9628 31.4941 31.8141 29.5795 29.5166 28.5265ZM23.9645 36.4718H19.1782V22.5915H23.2944C25.879 22.5915 26.1662 23.6445 26.1662 24.6975C26.1662 26.1334 25.3047 26.8992 23.6773 26.8992H22.2414L20.2312 31.2069H24.0602C26.1662 31.2069 27.0278 32.0684 27.0278 33.8872C27.2192 35.0359 26.7406 36.4718 23.9645 36.4718Z" fill="white"/>
<path d="M40.3335 17.8052H34.3984V41.3539H40.3335V17.8052Z" fill="white"/>
<path d="M54.501 31.0155L51.5335 17.7095H42.248V41.1625H48.0874V26.8035L51.5335 41.1625H57.4686L60.9147 26.612V41.1625H66.754V17.7095H57.4686L54.501 31.0155Z" fill="white"/>
<path d="M85.1338 28.6222C86.6655 27.5693 87.527 26.0376 87.527 24.0274C87.527 20.0069 84.9424 17.9009 79.8689 17.9009H68.9561V41.4496H80.2518C84.0808 41.4496 88.58 39.6308 88.58 34.4616C88.58 31.6855 87.3355 29.6752 85.1338 28.6222ZM79.5817 36.5675H74.7954V22.8787H78.9116C81.4962 22.8787 81.7834 23.9316 81.7834 24.9846C81.7834 26.4205 80.9219 27.1863 79.2945 27.1863H77.9543L75.7526 31.494H79.5817C81.6877 31.494 82.5492 32.3556 82.5492 34.1744C82.7407 35.2274 82.3578 36.5675 79.5817 36.5675Z" fill="white"/>
<path d="M101.12 17.5181C94.6107 17.5181 89.3457 22.783 89.3457 29.2924C89.3457 35.8018 94.6107 41.0668 101.12 41.0668C107.629 41.0668 112.894 35.8018 112.894 29.2924C112.99 22.8788 107.725 17.5181 101.12 17.5181ZM101.12 35.5146C97.7696 35.5146 94.8978 32.7386 94.8978 29.2924C94.8978 25.8463 97.6739 23.0702 101.12 23.0702C104.566 23.0702 107.247 25.8463 107.247 29.2924C107.342 32.8343 104.47 35.5146 101.12 35.5146Z" fill="white"/>
<path d="M21.0927 14.742C20.614 15.0291 20.0397 15.2206 19.4653 15.3163C18.891 15.412 18.3166 15.5078 17.7422 15.5078C17.1679 15.5078 16.5935 15.412 16.0192 15.2206C15.5405 15.0291 15.0619 14.742 14.679 14.4548C14.2961 14.0719 14.0089 13.689 13.8175 13.2103C13.626 12.7317 13.5303 12.1573 13.5303 11.583C13.5303 11.0086 13.626 10.4343 13.8175 9.95564C14.0089 9.47701 14.2961 9.0941 14.679 8.71119C15.0619 8.32829 15.5405 8.13684 16.0192 7.94538C16.6892 7.75393 17.2636 7.6582 17.838 7.6582C18.5081 7.6582 19.0824 7.75393 19.561 7.84966C20.0397 8.04111 20.5183 8.23256 20.9012 8.61547L19.7525 9.85991C19.561 9.66846 19.2739 9.47701 18.9867 9.38128C18.6995 9.28555 18.3166 9.18983 17.838 9.18983C17.4551 9.18983 17.1679 9.28555 16.8807 9.38128C16.5935 9.47701 16.3063 9.66846 16.1149 9.85991C15.9234 10.0514 15.732 10.3385 15.6363 10.6257C15.5405 10.9129 15.4448 11.2001 15.4448 11.583C15.4448 11.9659 15.5405 12.2531 15.6363 12.5403C15.732 12.8274 15.9234 13.1146 16.1149 13.3061C16.3063 13.4975 16.5935 13.689 16.8807 13.7847C17.1679 13.8804 17.5508 13.9762 17.838 13.9762C18.2209 13.9762 18.5081 13.9762 18.7952 13.8804C19.0824 13.7847 19.2739 13.689 19.4653 13.5932V12.3488H18.0294V10.8172H21.0927V14.742Z" fill="white"/>
<path d="M22.1455 7.84961H25.2088C25.5917 7.84961 25.9746 7.84961 26.3575 7.94534C26.7404 8.04106 27.0276 8.13679 27.3147 8.32824C27.6019 8.51969 27.7934 8.71115 27.9848 8.99833C28.1763 9.28551 28.1763 9.66841 28.1763 10.0513C28.1763 10.53 28.0806 11.0086 27.7934 11.3915C27.5062 11.7744 27.1233 11.9658 26.5489 12.0616L28.5592 15.2205H26.4532L24.8259 12.253H23.9643V15.2205H22.2412V7.84961H22.1455ZM23.8686 10.9129H24.9216C25.113 10.9129 25.2088 10.9129 25.4002 10.9129C25.5917 10.9129 25.6874 10.9129 25.8788 10.8171C25.9746 10.7214 26.166 10.7214 26.2617 10.53C26.3575 10.4342 26.3575 10.2428 26.3575 10.0513C26.3575 9.85987 26.3575 9.66841 26.2617 9.57269C26.166 9.47696 26.0703 9.38123 25.9746 9.28551C25.8788 9.18978 25.6874 9.18978 25.5917 9.18978C25.4002 9.18978 25.3045 9.18978 25.113 9.18978H23.9643V10.9129H23.8686Z" fill="white"/>
<path d="M35.4518 12.4445C35.4518 12.9231 35.3561 13.306 35.2603 13.6889C35.1646 14.0718 34.8774 14.359 34.686 14.6462C34.3988 14.9334 34.1116 15.1248 33.633 15.3163C33.1543 15.412 32.6757 15.5077 32.1971 15.5077C31.6227 15.5077 31.1441 15.412 30.7612 15.3163C30.3783 15.1248 29.9954 14.9334 29.7082 14.6462C29.421 14.359 29.2296 14.0718 29.1338 13.6889C29.0381 13.306 28.9424 12.9231 28.9424 12.4445V7.84961H30.6655V12.3488C30.6655 12.5402 30.6655 12.8274 30.7612 13.0188C30.8569 13.2103 30.9526 13.4017 31.0484 13.4975C31.1441 13.5932 31.3355 13.7847 31.527 13.7847C31.7185 13.8804 31.9099 13.8804 32.1971 13.8804C32.3885 13.8804 32.6757 13.8804 32.8672 13.7847C33.0586 13.6889 33.2501 13.5932 33.3458 13.4975C33.4415 13.306 33.633 13.2103 33.633 13.0188C33.7287 12.8274 33.7287 12.6359 33.7287 12.3488V7.84961H35.4518V12.4445Z" fill="white"/>
<path d="M36.6006 7.84961H39.4724C39.8553 7.84961 40.2382 7.84961 40.6211 7.94534C41.004 8.04106 41.2912 8.13679 41.5784 8.32824C41.8655 8.51969 42.057 8.71115 42.2484 8.99833C42.4399 9.28551 42.4399 9.66841 42.4399 10.0513C42.4399 10.53 42.3442 10.8171 42.2484 11.1043C42.057 11.3915 41.8655 11.6787 41.6741 11.7744C41.3869 11.9658 41.0997 12.0616 40.7168 12.1573C40.3339 12.253 39.951 12.253 39.5681 12.253H38.3237V15.1248H36.6006C36.6006 15.1248 36.6006 7.84961 36.6006 7.84961ZM38.3237 11.0086H39.4724C39.6638 11.0086 39.7596 11.0086 39.951 11.0086C40.0467 11.0086 40.2382 10.9129 40.3339 10.9129C40.4296 10.8171 40.5254 10.7214 40.6211 10.6257C40.7168 10.53 40.7168 10.3385 40.7168 10.147C40.7168 9.95559 40.7168 9.76414 40.6211 9.66841C40.5254 9.57269 40.4296 9.47696 40.2382 9.38123C40.0467 9.28551 39.951 9.28551 39.7596 9.28551C39.5681 9.28551 39.3767 9.28551 39.2809 9.28551H38.4194L38.3237 11.0086Z" fill="white"/>
<path d="M43.1094 11.583C43.1094 11.0086 43.2051 10.4343 43.3966 9.95564C43.588 9.47701 43.8752 9.0941 44.2581 8.71119C44.641 8.32829 45.1196 8.13684 45.5983 7.94538C46.0769 7.75393 46.6513 7.6582 47.3213 7.6582C47.8957 7.6582 48.4701 7.75393 49.0444 7.94538C49.5231 8.13684 50.0017 8.42402 50.3846 8.71119C50.7675 9.0941 51.0547 9.47701 51.2461 9.95564C51.4376 10.4343 51.5333 11.0086 51.5333 11.583C51.5333 12.1573 51.4376 12.7317 51.2461 13.2103C51.0547 13.689 50.7675 14.0719 50.3846 14.4548C50.0017 14.8377 49.5231 15.0291 49.0444 15.2206C48.5658 15.412 47.9914 15.5078 47.3213 15.5078C46.747 15.5078 46.1726 15.412 45.5983 15.2206C45.1196 15.0291 44.641 14.742 44.2581 14.4548C43.8752 14.0719 43.588 13.689 43.3966 13.2103C43.2051 12.7317 43.1094 12.1573 43.1094 11.583ZM44.9282 11.583C44.9282 11.9659 45.0239 12.2531 45.1196 12.5403C45.2154 12.8274 45.4068 13.1146 45.5983 13.3061C45.7897 13.4975 46.0769 13.689 46.3641 13.7847C46.6513 13.8804 47.0342 13.9762 47.3213 13.9762C47.7042 13.9762 47.9914 13.8804 48.2786 13.7847C48.5658 13.689 48.853 13.4975 49.0444 13.3061C49.2359 13.1146 49.4273 12.8274 49.5231 12.5403C49.6188 12.2531 49.7145 11.9659 49.7145 11.583C49.7145 11.2001 49.6188 10.9129 49.5231 10.6257C49.4273 10.3385 49.2359 10.0514 49.0444 9.85991C48.853 9.66846 48.5658 9.47701 48.2786 9.38128C47.9914 9.28555 47.6085 9.18983 47.3213 9.18983C46.9384 9.18983 46.6513 9.28555 46.3641 9.38128C46.0769 9.47701 45.7897 9.66846 45.5983 9.85991C45.4068 10.0514 45.2154 10.3385 45.1196 10.6257C44.9282 10.9129 44.9282 11.2001 44.9282 11.583Z" fill="white"/>
<path d="M115.67 52.8409C115.67 52.458 115.766 52.1709 115.861 51.8837C115.957 51.5965 116.149 51.3093 116.436 51.1179C116.627 50.9264 116.914 50.735 117.202 50.5435C117.489 50.4478 117.872 50.3521 118.159 50.3521C118.542 50.3521 118.829 50.4478 119.116 50.5435C119.403 50.6392 119.69 50.8307 119.882 51.0221C120.073 51.2136 120.265 51.5008 120.456 51.7879C120.552 52.0751 120.648 52.458 120.648 52.7452C120.648 53.1281 120.552 53.4153 120.456 53.7025C120.361 53.9897 120.169 54.2768 119.882 54.4683C119.69 54.6597 119.403 54.8512 119.116 55.0427C118.829 55.1384 118.446 55.2341 118.159 55.2341C117.776 55.2341 117.489 55.1384 117.202 55.0427C116.914 54.9469 116.627 54.7555 116.436 54.564C116.244 54.3726 116.053 54.0854 115.861 53.7982C115.766 53.511 115.67 53.2238 115.67 52.8409ZM116.149 52.8409C116.149 53.1281 116.244 53.4153 116.34 53.7025C116.436 53.9897 116.627 54.1811 116.819 54.3726C117.01 54.564 117.202 54.7555 117.489 54.8512C117.776 54.9469 118.063 55.0427 118.35 55.0427C118.637 55.0427 118.925 54.9469 119.212 54.8512C119.499 54.7555 119.69 54.564 119.882 54.3726C120.073 54.1811 120.265 53.9897 120.361 53.7025C120.456 53.4153 120.552 53.1281 120.552 52.8409C120.552 52.5538 120.456 52.2666 120.361 51.9794C120.265 51.6922 120.073 51.5008 119.882 51.3093C119.69 51.1179 119.499 50.9264 119.212 50.8307C118.925 50.735 118.637 50.6392 118.35 50.6392C118.063 50.6392 117.776 50.735 117.489 50.8307C117.202 50.9264 117.01 51.1179 116.819 51.3093C116.627 51.5008 116.436 51.6922 116.34 51.9794C116.149 52.2666 116.149 52.5538 116.149 52.8409ZM117.297 51.405H118.35C118.733 51.405 118.925 51.5008 119.116 51.5965C119.308 51.6922 119.403 51.9794 119.403 52.2666C119.403 52.5538 119.308 52.7452 119.212 52.8409C119.02 52.9367 118.925 53.0324 118.637 53.0324L119.499 54.2768H119.02L118.255 53.0324H117.776V54.2768H117.393V51.405H117.297ZM117.68 52.7452H118.159C118.255 52.7452 118.35 52.7452 118.446 52.7452C118.542 52.7452 118.637 52.7452 118.733 52.6495C118.829 52.6495 118.829 52.5538 118.925 52.5538C118.925 52.458 119.02 52.3623 119.02 52.2666C119.02 52.1709 119.02 52.0751 118.925 51.9794C118.925 51.8837 118.829 51.8837 118.733 51.8837C118.637 51.8837 118.637 51.7879 118.542 51.7879C118.446 51.7879 118.35 51.7879 118.35 51.7879H117.68V52.7452Z" fill="white"/>
</svg>
