<svg width="185" height="60" viewBox="0 0 185 60" fill="none" xmlns="http://www.w3.org/2000/svg">
<path d="M71.1467 52.3397C64.3284 47.9475 55.0751 47.1767 40.1521 51.317C24.2432 55.0555 18.9389 57.4521 11.9728 52.6411C9.29662 50.2778 8.33714 46.4726 9.0536 40.9915C10.7153 32.0564 15.2061 23.4577 23.1829 13.9196C27.6351 8.95801 31.7653 4.7 37.2187 2.99016C41.3984 1.91753 41.0076 5.2023 40.5019 5.67208C39.9682 5.67208 39.0717 5.75614 38.3789 6.20828C37.8165 6.64439 36.273 8.05258 36.1901 9.94681C36.0705 12.8466 39.0713 12.243 40.3656 10.6509C41.7608 8.85677 43.8226 5.42105 42.2008 2.21895C41.5209 1.07921 40.3464 0.291514 38.888 0.0232989C33.8943 -0.262095 29.2437 2.1184 24.9514 4.75016C15.5645 11.2709 8.05564 20.3064 3.8068 30.1967C1.35736 36.1641 -0.857995 44.7122 2.46252 51.6695C5.03152 56.4969 10.3644 59.0611 16.7272 58.5249C21.1897 58.0561 26.5859 56.6137 30.2151 55.7429C33.8446 54.8705 52.4223 48.4846 58.5264 59.5992C58.5264 59.5992 60.5562 55.6588 65.6289 55.5748C69.7994 55.19 75.8161 56.7821 80.1973 60C78.7376 57.8048 74.5992 54.5695 71.1467 52.3397Z" fill="white"/>
<path d="M42.0466 15.0426C38.5719 12.7629 31.5883 17.1212 25.9947 24.5971C20.8796 31.3029 18.6709 39.0967 21.0747 42.7008C24.6502 46.9416 31.2882 40.7731 34.111 37.4714L34.4752 37.0855C36.3948 35.0236 37.8777 32.5425 39.3134 30.1618C39.3134 30.1618 40.6327 27.9826 40.6957 27.8819C41.5111 27.7316 42.4932 27.4968 43.6 27.1782C43.5842 27.2282 39.3656 34.319 39.796 37.8386C39.93 38.9124 39.8278 42.8348 43.6573 44.0247C48.7614 44.8802 52.8371 40.9236 56.4327 37.4034C56.4327 37.4034 57.0454 36.8173 57.3919 36.4826C57.3042 36.8335 57.1899 37.3019 57.1899 37.3019C55.6956 42.4986 57.7098 43.5891 58.9698 43.9913C62.7777 45.0985 67.3269 39.5663 67.3418 39.5663C67.2236 41.3089 66.8789 42.7503 68.7158 43.9072C70.4495 44.5279 72.2042 43.5815 73.5382 42.693C78.3425 39.3072 82.2129 34.0075 85.339 29.4268H83.3449C83.3213 29.4268 78.4245 36.5245 75.2446 38.0672C75.2396 38.0672 74.6608 38.3643 74.3275 38.1292C73.9145 37.7772 74.0774 37.0449 74.3323 36.5264C74.3483 36.4927 86.6102 15.2258 86.6102 15.2258H80.8208C80.8208 15.2258 80.1884 16.249 80.1368 16.3161C80.0979 16.2826 80.0051 16.1067 79.941 16.0224C76.3541 11.0608 68.2314 18.6927 62.116 27.5431C59.7616 30.9463 56.7641 34.778 53.6559 37.5438C53.6559 37.5438 49.0511 41.7647 47.0838 38.7321C46.3646 37.4579 46.5859 35.5951 46.9915 34.3717C49.2822 27.8507 53.2294 21.9328 57.7213 18.3622C58.9891 17.3738 60.3675 17.088 61.0512 17.5071C61.703 17.8933 61.8082 18.848 61.3959 19.5019C60.3498 19.4685 59.5115 19.7864 58.8303 20.4905C57.4881 21.8987 57.0218 23.2567 57.4485 24.5309C59.5216 27.481 63.6561 21.6474 63.4562 18.0937C63.3847 16.8195 62.7051 15.6129 61.6905 15.0256C60.1785 14.1209 57.872 14.3552 56.3793 15.0765C54.3808 15.8305 51.2179 18.462 49.3716 20.5074C47.0472 23.0725 43.0606 25.9219 41.8141 25.6028C42.2216 24.513 45.5888 17.6237 42.0466 15.0426ZM69.9586 25.2343C71.0849 23.6756 74.3628 19.5015 75.1619 18.7976C77.8496 16.4331 78.9238 17.4735 79.0168 18.2105C76.5085 22.7029 73.548 27.8493 70.7647 32.4761C70.7704 32.4596 69.8936 33.8002 69.8936 33.8002C68.6643 35.6771 67.4265 37.2866 65.4074 38.4094C65.1195 38.4939 64.6449 38.5276 64.3291 38.2919C63.9489 38.0404 63.7988 37.6212 63.8417 37.1853C63.9628 35.7442 65.4301 31.3364 69.9586 25.2343ZM38.4634 27.9329C38.4634 27.9329 38.4128 28.0843 38.388 28.1338C38.3816 28.1338 35.8637 32.2402 35.8637 32.2402C34.3442 34.2689 32.447 36.8175 30.0754 38.0406C29.3725 38.2752 28.4006 38.4266 27.9054 37.8067C26.8557 36.5493 27.3967 34.8058 27.8362 33.398L27.992 32.895C29.2522 29.4758 31.2516 26.4579 33.198 23.6585C33.2223 23.642 33.2768 23.6252 33.2965 23.6252C33.3013 23.642 33.3091 23.642 33.3123 23.6756C34.5336 26.022 36.8236 27.1111 38.5362 27.6148C38.5465 27.6148 38.5577 27.6315 38.5577 27.6652C38.558 27.7151 38.53 27.7827 38.4634 27.9329ZM40.8487 23.089C40.8375 23.1225 39.7273 25.6704 39.7273 25.6704C39.5667 25.8044 39.3129 25.7375 39.022 25.6704L38.5236 25.5861C36.9585 25.1003 35.778 24.0609 35.4141 22.8206C34.9122 20.4067 36.9743 18.5124 37.8827 17.8255C38.7545 17.2215 40.1098 16.9031 40.8968 17.5236C41.3821 18.0937 41.5661 18.831 41.5661 19.6361C41.5663 20.7253 41.23 21.9488 40.8487 23.089ZM114.039 30.8664C113.48 29.6597 112.155 28.8885 110.743 28.9721C106.157 29.3915 101.671 33.163 99.3153 38.577C98.0793 41.36 97.4048 43.6562 96.9625 47.3104C98.3888 45.6681 101.298 42.9695 104.599 41.4942C104.599 41.4942 105.048 37.9909 107.338 34.8729C108.205 33.5817 109.939 31.5033 111.887 32.0563C113.589 32.6264 112.991 37.337 110.729 41.8955C109.056 45.2485 106.495 48.602 103.904 50.9147C101.613 52.8591 98.2239 55.2059 95.2586 53.3958C93.3909 52.2899 92.4383 49.9758 92.6394 46.9923C93.5318 38.5273 97.3853 31.3192 102.9 23.1055C108.586 15.4785 114.853 7.65028 123.297 3.47565C125.019 2.60412 126.614 2.40302 127.992 2.93945C127.992 2.93945 120.066 7.29778 116.288 15.361C115.327 17.4064 113.99 20.1714 115.336 22.619C116.04 23.8928 117.289 23.9935 118.294 23.9264C122.926 22.8533 125.918 18.5287 128.362 14.573C129.78 11.5725 131.039 8.58869 131.039 5.26956C131.039 4.86735 131.019 4.33114 130.985 3.92848C133.197 2.75552 137.734 4.83368 137.734 4.83368C141.28 6.00755 148.829 11.791 151.375 12.8969C152.618 11.4555 154.659 9.27652 155.808 8.18671L154.144 7.16401C151.481 5.538 148.665 3.99559 145.894 2.47036C139.6 -0.965592 134.476 0.241033 131.869 1.1799C130.844 1.54844 129.908 1.86705 129.908 1.86705C127.973 -0.245007 124.799 -0.0443607 122.461 0.525969C114.052 2.93968 106.244 8.82324 97.8734 19.0321C91.7194 27.0282 87.902 33.9347 85.8674 40.7569C84.2991 45.3498 83.8225 52.1051 87.6503 56.1116C90.9049 59.5136 95.2203 58.7766 98.2676 57.5534C104.87 54.3014 110.805 47.2941 113.762 39.231C114.476 36.8342 115.267 33.4482 114.039 30.8664ZM129.222 5.60511C128.348 15.6294 120.556 21.5136 118.627 21.9823C117.459 22.2166 115.465 21.6973 117.245 17.4904C119.866 11.824 124.341 7.01353 129.142 4.5492C129.259 4.96836 129.256 5.23588 129.222 5.60511ZM175.443 6.87862C171.252 9.25934 166.907 10.8011 161.647 10.2649C160.19 11.9081 158.77 13.6009 157.462 15.344C164.844 17.2215 172.67 13.0476 177.035 9.07519C181.652 5.06868 184.02 0.0234375 184.02 0.0234375C184.02 0.0234375 180.559 3.9791 175.443 6.87862ZM96.2323 15.2263H90.7342L87.6329 20.2653H93.1298L96.2323 15.2263Z" fill="white"/>
<path d="M161.625 52.8064C161.033 53.2086 160.203 52.8994 160.513 51.9777C161.287 49.6309 164.362 44.8483 164.362 44.8483L172.928 29.6565H167.061C166.782 30.1146 166.185 31.1664 166.185 31.1664C165.914 30.7142 165.102 29.7089 164.768 29.4916C163.335 28.5857 161.232 29.014 159.781 29.8351C153.473 33.5235 148.871 40.8107 145.241 46.4936C145.241 46.4936 141.421 52.8107 139.3 53.2805C137.644 53.4147 137.815 51.1843 137.887 50.6646C138.527 46.9091 140.013 43.3389 141.511 40.1036C144.558 37.9916 148.035 35.2258 151.194 32.1918C158.052 25.6369 163.833 18.211 164.678 16.5515C164.678 16.5515 163.763 16.7361 162.683 16.7693C157.408 24.1282 146.612 34.8234 143.339 36.4155C144.789 32.928 154.157 16.2831 162.128 8.32089L163.383 7.11358C165.322 5.21935 167.332 3.27496 168.898 2.95635C169.064 2.93963 169.277 2.95635 169.461 3.34253C169.53 4.81737 168.981 5.90718 168.352 7.14747L167.469 8.9581C167.469 8.9581 168.719 8.72332 169.541 8.45442C170.493 6.66166 171.549 4.64948 171.159 2.25295C171.03 1.48174 170.471 0.895149 169.742 0.760927C167.364 0.308328 164.772 2.06787 162.687 3.49324L162.603 3.54317C151.883 11.9415 142.831 24.0444 134.917 40.5727C134.344 41.0079 132.128 41.5281 131.751 41.2763C132.533 39.6675 133.517 37.5046 134.009 35.1578C134.094 34.4869 134.173 33.8002 134.173 33.1298C134.173 31.687 133.827 30.3297 132.535 29.3915C131.019 28.637 129.146 28.9893 127.883 29.5587C122.227 31.9055 117.999 37.7059 114.947 42.4827C113.306 45.5176 111.67 48.768 111.217 52.4901C110.898 55.4063 111.548 57.284 113.206 58.2229C114.911 59.094 117.057 58.1886 117.9 57.7531C123.631 54.7357 127.636 48.6847 130.792 43.1527C130.918 43.1362 132.641 43.0863 133.945 42.7505C133.962 42.7505 133.969 42.7505 133.998 42.7679C133.924 43.0185 133.25 45.0307 133.25 45.0307C131.249 50.897 130.324 54.8871 132.214 57.2504C134.914 60.5862 139.385 57.1336 143.021 52.5732C142.241 58.0376 145.073 58.8931 147.232 58.4744C149.712 57.8042 152.475 55.155 153.757 53.7977C153.346 55.3898 153.457 58.2401 155.714 58.5246C157.26 58.8104 158.417 57.9694 159.756 57.2483C164.559 54.633 170.308 45.9184 171.801 43.3989H169.844C167.721 46.6063 165.021 50.8107 161.625 52.8064ZM118.514 52.2228C118.209 51.7699 118.108 51.2752 118.098 50.7401C118.04 47.4531 121.576 41.567 124.072 38.3603H124.077C125.123 40.6508 127.492 42.1231 128.922 42.7436C127.146 46.7 121.055 55.1729 118.514 52.2228ZM129.924 40.9749C129.755 41.0931 126.768 40.0867 126.191 37.3209C125.701 34.9397 127.341 33.0792 128.927 32.1414C129.608 31.6045 130.634 31.4208 131.386 31.6879C132.085 32.1582 132.274 32.9969 132.274 33.9005C132.274 34.4548 132.2 35.0242 132.136 35.5437L132.121 35.6614C131.621 37.5199 130.883 39.3058 129.924 40.9749ZM153.882 51.1669C153.88 51.1669 153.315 51.6696 153.315 51.6696C152.509 52.3902 151.68 53.1612 150.679 52.7755C150.403 52.6751 150.208 52.3066 150.162 52.0207C150.116 49.9589 151.044 48.0484 151.945 46.1878L152.176 45.7015C154.766 41.3769 157.777 36.281 162.198 32.7445C162.943 32.2069 163.752 31.7553 164.605 32.1075C164.802 32.2917 165.03 32.6103 165.03 32.9284C165.03 33.0295 164.94 33.2974 164.889 33.381C163.654 35.3767 162.478 37.4716 161.334 39.4831C159.099 43.456 156.78 47.5621 153.882 51.1669Z" fill="white"/>
</svg>
