<svg width="126" height="56" viewBox="0 0 126 56" fill="none" xmlns="http://www.w3.org/2000/svg">
<path d="M50.4647 0C46.7308 0 43.7028 3.02883 43.7028 6.76446C43.7028 10.5001 46.7308 13.5265 50.4647 13.5265C54.2004 13.5265 57.2267 10.5001 57.2267 6.76446C57.2267 3.02883 54.2004 0 50.4647 0ZM98.9528 0.0235138L98.8329 0.0755272L98.502 0.208462C96.8643 0.880543 90.5074 2.77683 87.589 3.59066L86.8802 3.7861V6.84782L87.9564 6.72792C88.6018 6.65454 89.1021 6.65504 89.7908 6.65504C90.5113 6.65504 91.0224 6.80649 91.3126 7.10326C91.8013 7.59856 91.7881 8.57884 91.7764 9.36763C91.7764 9.37263 91.7714 9.71941 91.7714 9.71941V46.2135C91.7714 51.1748 91.4632 51.6068 87.6726 52.0087L86.7996 52.0999V55.1044H104.802V52.0244L104.643 52.0094C101.166 51.6391 100.232 51.5372 100.232 46.2924V27.896C100.667 27.3557 103.867 23.5836 107.799 23.5836C111.213 23.5836 112.732 25.8947 112.732 31.0778V46.3711C112.732 51.1874 111.9 51.7405 108.346 52.0074L108.276 52.0124V55.1054H125.847V52.1583L125.049 52.0202C121.632 51.4165 121.19 51.3339 121.19 46.3709V30.765C121.19 21.9312 117.648 17.4521 110.676 17.4521C106.733 17.4521 103.137 19.1328 100.232 22.2781V0.791603L98.9524 0.0254974L98.9528 0.0235138ZM31.4397 0.0678406L31.346 0.101688L31.0932 0.19294V0.189579C29.7007 0.688221 24.2083 2.48635 19.779 3.57703L19.0389 3.76202V6.83942L20.1047 6.72736C22.5929 6.4722 23.5365 6.79604 23.8883 7.11298C24.2969 7.48154 24.3183 8.2289 24.3183 9.41124V19.7691C22.0419 18.1548 19.842 17.4525 17.0587 17.4525C12.6426 17.4525 8.25191 19.6687 5.01993 23.5344C1.84131 27.3351 0.0195312 32.4313 0.0195312 37.5195C0.0195312 55.3638 13.574 55.8774 15.12 55.8774C18.8956 55.8774 21.9818 54.7031 24.3183 52.4118V55.1662L25.4335 56L37.9777 51.5598V48.5866L36.9354 48.6673C34.4973 48.8574 33.5635 48.5017 33.2066 48.1749C32.8448 47.8397 32.7793 47.2543 32.7793 46.2153V0.604008L31.4399 0.0671806L31.4397 0.0678406ZM74.8497 17.4502C68.0789 17.4502 63.1629 21.8742 63.1629 27.9696C63.1629 34.1518 67.6937 37.2217 72.7418 40.0734L77.2418 42.6323C79.6933 44.0132 80.7884 45.5738 80.7884 47.6901C80.7884 50.4935 78.7196 52.2346 75.3892 52.2346C69.2488 52.2346 67.4035 47.1329 66.4045 42.1399L66.2483 41.3633H63.2438V55.4136H65.5785L65.8678 55.0879C66.4064 54.4808 66.4046 54.4808 66.9283 54.4808C67.8305 54.4507 68.9959 54.7258 70.3367 55.041C72.0211 55.4329 73.9326 55.8774 75.9338 55.8774C81.0119 55.8774 88.1627 52.4713 88.1627 44.8967C88.1627 39.6134 84.9989 37.246 81.1765 34.9062C81.1732 34.9029 72.7807 29.9319 72.7807 29.9319C70.8562 28.7845 69.917 27.2515 69.917 25.252C69.917 23.6143 71.2308 21.1765 74.8496 21.1765C77.5363 21.1765 80.8382 22.1731 82.5159 29.9579L82.6826 30.7266H85.6298L85.2598 18.1485H82.9042L82.6227 18.6358C82.496 18.8643 82.2862 19.0006 82.0677 19.0006C81.946 18.9956 81.2832 18.7824 80.8847 18.654C79.3838 18.1737 77.1294 17.4502 74.8496 17.4502H74.8497ZM46.1554 19.3602C45.9987 19.3018 45.9426 19.4147 46.0043 19.5348C46.7965 21.1174 47.9956 22.7034 50.4654 22.7034C52.9336 22.7034 54.137 21.1174 54.9292 19.5348C54.9875 19.4147 54.9308 19.3018 54.7729 19.3602C54.6662 19.4002 52.9471 20.0351 50.4656 20.0351C47.984 20.0351 46.2623 19.4002 46.1556 19.3602H46.1554ZM17.2911 21.5647C21.6904 21.5647 24.3189 25.2555 24.3189 28.8244V46.0699C23.7852 48.2946 21.2895 49.9108 18.3777 49.9108C13.8833 49.9108 8.63224 46.0079 8.63224 35.0345C8.63224 25.0934 13.2954 21.5652 17.2912 21.5652L17.2911 21.5647ZM44.0191 27.769C43.9226 27.7824 43.8979 27.8901 43.9592 28.0114C45.1633 30.3678 46.9221 32.5244 50.4659 32.5244C54.0114 32.5244 55.7692 30.3678 56.9699 28.0114C57.055 27.8496 56.9816 27.7124 56.7901 27.7925C56.2264 28.0443 53.7612 29.0745 50.4659 29.0745C47.1705 29.0745 44.7027 28.0443 44.139 27.7925C44.0915 27.7725 44.0513 27.7648 44.0191 27.769L44.0191 27.769ZM41.8511 36.7356C41.7346 36.7489 41.7049 36.8803 41.7886 37.0404C43.4246 40.2124 45.7762 42.9816 50.4658 42.9816C55.157 42.9816 57.5069 40.2124 59.1429 37.0404C59.253 36.8269 59.1656 36.6667 58.9371 36.7668C57.8898 37.2471 54.6283 38.7003 50.4657 38.7003C46.3048 38.7003 43.0416 37.2471 41.9943 36.7668C41.9371 36.7418 41.8899 36.7313 41.8511 36.7356L41.8511 36.7356ZM39.4825 46.5176C39.3449 46.5292 39.3097 46.6848 39.4148 46.885C41.5261 50.9541 44.5273 54.3844 50.4659 54.3844C56.4046 54.3844 59.4057 50.9541 61.517 46.885C61.6571 46.6181 61.5476 46.4316 61.2773 46.5566C59.703 47.2838 55.5691 49.2014 50.466 49.2014C45.3612 49.2014 41.2307 47.2838 39.6547 46.5566C39.5877 46.5253 39.5286 46.5134 39.4827 46.5176L39.4825 46.5176Z" fill="white"/>
</svg>
