<svg width="185" height="37" viewBox="0 0 185 37" fill="none" xmlns="http://www.w3.org/2000/svg">
<path d="M15.1401 33.5464C6.12385 33.5464 0.511719 25.8489 0.511719 17.5994C0.511719 8.88982 5.54117 1.80566 15.1401 1.80566C22.2242 1.80566 27.683 5.94576 28.143 11.9872H21.9175C21.6109 9.16583 18.6668 6.95779 15.2627 6.95779C10.2333 6.95779 6.98253 10.7912 6.98253 17.8754C6.98253 22.7515 9.49726 28.2103 15.2627 28.2103C20.5682 28.2103 22.5002 25.5422 22.5002 21.4021H15.8761V16.526H28.2964V21.5554C28.143 28.5169 25.0149 33.5464 15.1401 33.5464Z" fill="#011028"/>
<path d="M31.6699 32.5039V2.51123H37.4354V32.5039H31.6699Z" fill="#011028"/>
<path d="M40.2567 19.8075C40.6861 14.9314 45.1328 10.4846 50.0089 10.0552C57.7064 9.31922 62.7052 14.042 62.7052 21.5862C62.7052 28.517 58.4118 33.1171 51.481 33.1171C43.7835 33.0864 39.5207 27.4743 40.2567 19.8075ZM56.7864 21.5555C56.7864 17.1087 55.0077 14.9007 51.481 14.9007C47.9236 14.9007 46.1755 17.1087 46.1755 21.5555C46.1755 26.0023 47.9542 28.2103 51.481 28.2103C55.0077 28.2103 56.7864 26.0023 56.7864 21.5555Z" fill="#011028"/>
<path d="M65.373 32.5039V2.51123H71.1385V13.4288C72.7639 11.0674 74.9719 10.0247 77.64 10.0247C83.2521 10.0247 86.6562 14.7475 86.6562 21.4023C86.6562 28.7932 82.6694 33.2093 77.2106 33.2093C74.5426 33.2093 72.4879 32.1666 71.1385 29.9585V32.6266H65.373V32.5039ZM80.7374 21.709C80.7374 17.2622 79.112 14.9008 75.7079 14.9008C72.4572 14.9008 70.8318 17.2622 70.8318 21.985C70.8318 25.6651 73.0399 28.3331 75.7079 28.3331C78.652 28.3638 80.7374 25.5731 80.7374 21.709Z" fill="#011028"/>
<path d="M103.769 32.5036C103.616 31.9209 103.463 31.1849 103.463 30.5715C102.144 32.0436 99.7826 33.0863 96.8078 33.0863C91.7784 33.0863 89.417 30.5715 89.417 27.0141C89.417 20.666 93.7104 19.93 99.4759 19.194C102.42 18.7646 103.156 18.1513 103.156 16.6792C103.156 15.2072 101.684 14.4712 99.4759 14.4712C96.8078 14.4712 95.7958 15.7899 95.4891 17.7219H90.0303C90.1837 13.1525 92.6984 10.0244 99.6292 10.0244C106.56 10.0244 108.952 13.1218 108.952 18.7339V32.6569H103.769V32.5036ZM103.493 21.7087C102.911 22.2914 101.868 22.598 99.8132 23.0274C96.5625 23.6101 95.3665 24.6527 95.3665 26.4315C95.3665 28.0568 96.4091 28.9462 98.1879 28.9462C101.132 28.9462 103.371 26.7381 103.493 24.2234V21.7087Z" fill="#011028"/>
<path d="M127.26 32.5036V19.194C127.26 15.7899 126.217 14.9005 123.579 14.9005C120.482 14.9005 119.133 16.5259 119.133 19.93V32.4729H113.367V10.4538H118.673V13.7045C119.991 11.1898 122.23 9.87109 125.757 9.87109C129.897 9.87109 132.994 12.3858 132.994 17.2619V32.4729H127.26V32.5036Z" fill="#011028"/>
<path d="M149.862 24.2237C149.708 26.5851 148.666 28.0571 146.458 28.0571C144.096 28.0571 143.054 26.4317 143.054 23.6104V14.5941H152.07V10.0247H143.054V4.56592H137.288V24.2237C137.288 28.9465 139.803 33.0866 146.304 33.0866C152.499 33.0866 155.167 28.9465 155.167 24.2237H149.862Z" fill="#011028"/>
<path d="M162.283 0.885766C161.7 0.456423 160.811 0.732427 160.351 1.31511C160.197 1.62178 160.044 2.05113 160.197 2.3578L162.865 6.19123C167.895 13.7354 167.895 23.6103 162.865 31.1545L160.197 34.9879C160.044 35.7239 160.351 36.4599 161.087 36.6132C161.393 36.7666 161.823 36.6132 162.129 36.4599L183.842 19.8995C184.578 19.3169 184.731 18.2742 184.149 17.5381C183.995 17.3848 183.995 17.2315 183.842 17.2315L162.283 0.885766Z" fill="#011028"/>
</svg>
