<svg width="89" height="88" viewBox="0 0 89 88" fill="none" xmlns="http://www.w3.org/2000/svg">
<path d="M13.3881 12.8879C-3.78692 30.0629 -3.78692 57.9195 13.3881 75.1121C30.5631 92.3047 58.4198 92.2871 75.6124 75.1121C92.805 57.9371 92.7874 30.0805 75.6124 12.8879C58.4373 -4.30475 30.5807 -4.28716 13.3881 12.8879ZM1.63307 44C1.63307 20.3316 20.8318 1.13283 44.5002 1.13283C68.1687 1.13283 87.3674 20.3316 87.3674 44C87.3674 67.6684 68.1687 86.8672 44.5002 86.8672C20.8318 86.8672 1.63307 67.6684 1.63307 44Z" fill="white"/>
<path d="M23.0678 22.5662C11.2248 34.4092 11.2248 53.6079 23.0678 65.4509C34.9108 77.2939 54.1096 77.2939 65.9526 65.4509C77.7956 53.6079 77.7956 34.4092 65.9526 22.5662C60.2686 16.8822 52.5434 13.6795 44.5014 13.6795C36.4594 13.6443 28.7342 16.847 23.0678 22.5662ZM15.3074 43.9997C15.3074 27.8806 28.3822 14.8057 44.5014 14.8057C60.6206 14.8057 73.6954 27.8806 73.6954 43.9997C73.6954 60.1189 60.6206 73.1938 44.5014 73.1938C28.4878 73.2993 15.413 60.4005 15.3074 44.3693C15.3074 44.2461 15.3074 44.1229 15.3074 43.9997Z" fill="white"/>
<path d="M9.55142 36.3807L7.98525 36.0288L8.88272 32.0342H9.05869L9.32265 32.087C10.4313 32.2629 11.4167 32.8613 12.0854 33.7763C12.6486 34.709 12.8069 35.8352 12.5078 36.8735C12.3846 37.419 12.1734 37.9469 11.8743 38.422C11.5751 38.8444 11.2056 39.2139 10.7656 39.4955C10.3257 39.777 9.83298 39.953 9.30506 40.041C8.23162 40.1994 7.14058 39.9706 6.24312 39.3547C5.38084 38.7564 4.80013 37.8413 4.64176 36.8031C4.57137 36.2575 4.58896 35.712 4.71215 35.1665C4.85292 34.4802 5.16968 33.8467 5.60961 33.3188C6.03195 32.8085 6.59506 32.4213 7.21097 32.1926L7.63331 34.1107C7.33415 34.2338 7.05259 34.4274 6.84143 34.6738C6.63026 34.9201 6.48948 35.2017 6.43669 35.5009C6.27831 36.0464 6.3839 36.6271 6.71824 37.0846C7.10539 37.5598 7.6509 37.8765 8.26681 37.9821C8.86512 38.1581 9.49863 38.1053 10.0617 37.8237C10.5369 37.5422 10.8712 37.067 10.9592 36.5215C11.0824 36.064 11.0472 35.5713 10.8712 35.1313C10.7128 34.7442 10.3785 34.4274 9.97376 34.3042L9.55142 36.3807Z" fill="white"/>
<path d="M13.9849 31.3305L7.22754 27.7934L8.23059 25.8577C8.47695 25.3298 8.77611 24.8019 9.12805 24.3268C9.33922 24.0804 9.58559 23.8692 9.88474 23.7285C10.2015 23.5877 10.5358 23.5173 10.8878 23.5349C11.2573 23.5525 11.6093 23.6581 11.9436 23.834C12.4364 24.0452 12.8411 24.4148 13.0875 24.8899C13.2634 25.365 13.2634 25.8753 13.0875 26.3505L16.8005 25.9281L15.7095 28.0222L12.2428 28.1982L14.8824 29.6236L13.9849 31.3305ZM11.2925 27.7407L11.4685 27.4063C11.6445 27.1071 11.7325 26.7728 11.7149 26.4209C11.6797 26.1569 11.5213 25.9281 11.2925 25.8049C11.0286 25.629 10.6942 25.5762 10.3951 25.6818C10.0959 25.8577 9.86714 26.1217 9.72637 26.4384L9.53279 26.808L11.2925 27.7407Z" fill="white"/>
<path d="M11.875 19.7687L13.2652 18.2202L16.0456 20.6662C16.3271 20.9301 16.6263 21.1765 16.943 21.4229C17.1014 21.5461 17.295 21.6516 17.4886 21.722C17.6821 21.7924 17.8933 21.7924 18.1045 21.722C18.3332 21.634 18.5444 21.4757 18.7028 21.2821C18.8787 21.1061 19.0019 20.895 19.0723 20.6662C19.1251 20.455 19.1075 20.2439 19.0195 20.0503C18.9315 19.8743 18.8084 19.6983 18.6676 19.54C18.4036 19.2584 18.1045 18.9768 17.8229 18.7305L17.4358 18.3785L15.0425 16.2493L16.4327 14.7007L19.4419 17.3931C19.917 17.7978 20.3569 18.2553 20.7265 18.7481C20.9552 19.0472 21.1136 19.3992 21.184 19.7687C21.2368 20.2087 21.1664 20.631 20.9904 21.0357C20.4977 22.0564 19.7234 22.9187 18.7732 23.517C18.4036 23.7457 17.9637 23.8513 17.5413 23.8513C17.1542 23.8337 16.7847 23.7281 16.4327 23.5522C15.8872 23.253 15.3769 22.8835 14.9017 22.4611L14.3034 21.9332L11.875 19.7687Z" fill="white"/>
<path d="M25.4059 17.3583L23.7869 18.4493L19.4932 12.1142L21.2881 10.9C21.7808 10.5481 22.2911 10.2489 22.8543 10.0026C23.171 9.87938 23.523 9.82658 23.8749 9.86178C24.2445 9.89697 24.5964 10.0202 24.8956 10.2137C25.2299 10.4425 25.5115 10.724 25.7402 11.0584C25.9866 11.3927 26.145 11.7799 26.233 12.1846C26.3033 12.5366 26.2857 12.9061 26.1802 13.2581C26.0922 13.522 25.9338 13.7684 25.7578 13.9796C25.4235 14.3139 25.0539 14.6131 24.6492 14.877L24.35 15.0706L24.0157 15.2818L25.4059 17.3583ZM23.0478 13.874L23.3822 13.6452C23.6989 13.4692 23.9629 13.2053 24.1389 12.8885C24.2269 12.6246 24.1565 12.343 23.9805 12.1494C23.8573 11.9207 23.6109 11.7623 23.347 11.7447C22.995 11.7799 22.6607 11.9383 22.3791 12.1494L22.0624 12.3782L23.0478 13.874Z" fill="white"/>
<path d="M36.1406 8.26029C36.5102 9.26334 36.4398 10.372 35.947 11.3222C35.7007 11.7974 35.3663 12.2373 34.9616 12.5892C34.1521 13.3107 33.0787 13.6803 32.0052 13.6275C31.4773 13.6099 30.9494 13.4691 30.4743 13.2403C29.9991 13.0292 29.5592 12.73 29.2073 12.3429C28.5034 11.551 28.1338 10.4952 28.1866 9.42172C28.2218 8.8938 28.3626 8.38347 28.6089 7.90835C28.8377 7.43322 29.1721 7.01088 29.5768 6.65893C30.4039 5.93744 31.4597 5.5679 32.5508 5.62069C33.0787 5.63829 33.6066 5.77906 34.0993 6.00783C35.032 6.44776 35.7887 7.25724 36.1406 8.26029ZM33.0083 11.6918C33.5362 11.5158 33.9585 11.1287 34.1521 10.6183C34.3633 10.0728 34.3633 9.45691 34.1521 8.91139C33.9761 8.34828 33.589 7.87315 33.0787 7.59159C32.146 7.08127 30.9846 7.39802 30.4567 8.33068C30.4215 8.38347 30.4039 8.43627 30.3863 8.48906C30.1751 9.03458 30.1751 9.65048 30.3863 10.196C30.5623 10.7591 30.9318 11.2342 31.4421 11.5334C31.9173 11.815 32.4804 11.8678 33.0083 11.6918Z" fill="white"/>
<path d="M51.891 11.9373L49.9553 11.7613L49.7969 8.41785C49.7969 8.18908 49.7969 7.92512 49.7969 7.64357C49.7969 7.36201 49.7969 7.06285 49.7969 6.7461C49.6913 7.15084 49.5681 7.53798 49.4097 7.92512L49.3218 8.13629L47.9668 11.6206L46.5766 11.4974L45.8551 7.78434V7.55558C45.7495 7.15084 45.6791 6.7285 45.6439 6.30617C45.5911 6.60532 45.5383 6.90448 45.4855 7.20363C45.4327 7.50279 45.38 7.78434 45.3096 8.03071L44.5705 11.2862L42.6348 11.1102L44.5001 3.61377L46.559 3.80734L47.3509 7.85473V7.99551C47.4213 8.29467 47.4564 8.59382 47.474 8.89298C47.5092 8.7522 47.5444 8.59382 47.5972 8.45304C47.65 8.29467 47.7204 8.1011 47.8084 7.87233L49.3218 4.0537L51.3807 4.24727L51.891 11.9373Z" fill="white"/>
<path d="M62.2383 12.008C61.8336 12.9935 61.0417 13.7853 60.0386 14.1549C59.5459 14.3485 59.0004 14.4365 58.4725 14.4365C57.3814 14.4189 56.3432 13.9789 55.5865 13.2222C55.1994 12.8527 54.9002 12.4128 54.689 11.92C54.4779 11.4273 54.3723 10.917 54.3723 10.3891C54.3547 8.7525 55.3753 7.27433 56.9063 6.69361C57.399 6.50004 57.927 6.39446 58.4549 6.41205C59.5459 6.42965 60.5842 6.86959 61.3584 7.62627C61.7456 7.99582 62.0447 8.45335 62.2559 8.94607C62.6606 9.93153 62.6606 11.0402 62.2383 12.008ZM57.6102 12.5007C58.1029 12.7471 58.6836 12.7471 59.1764 12.5007C59.7043 12.2368 60.109 11.7792 60.3202 11.2337C60.5666 10.7058 60.6018 10.0899 60.4082 9.54438C60.0562 8.54133 58.9652 8.01341 57.9622 8.34776C57.8918 8.36536 57.8214 8.40056 57.7686 8.43575C57.2407 8.69971 56.8359 9.13965 56.6248 9.68516C56.3784 10.2131 56.3432 10.829 56.5192 11.3921C56.6951 11.9024 57.0999 12.3072 57.6102 12.5007Z" fill="white"/>
<path d="M62.3262 16.6012L67.1479 10.6533L68.3797 11.6916C69.0484 12.2019 69.6819 12.7826 70.245 13.3985C70.5441 13.7681 70.7729 14.1904 70.8961 14.6479C71.0545 15.211 71.0545 15.7917 70.8961 16.3549C70.5617 17.5691 69.7347 18.5897 68.626 19.1704C68.0981 19.4168 67.5174 19.5224 66.9543 19.4872C66.4967 19.452 66.0392 19.3288 65.6345 19.1177C65.001 18.7657 64.3851 18.3434 63.8395 17.8682L63.5756 17.6395L62.3262 16.6012ZM65.0186 16.6012L65.2825 16.83C65.7401 17.2699 66.356 17.5339 66.9895 17.5691C67.5702 17.4987 68.0981 17.1643 68.4325 16.6716C68.8372 16.2493 69.0484 15.651 69.0132 15.0703C68.8724 14.4368 68.4853 13.8736 67.9397 13.5041L67.6758 13.2753L65.0186 16.6012Z" fill="white"/>
<path d="M68.8711 22.3904L74.9246 17.7095L77.793 21.4225L76.4732 22.4608L74.8542 20.3667L73.7984 21.1762L75.3293 23.1647L74.0447 24.1501L72.5137 22.1616L71.4931 22.9535L73.1121 25.0476L71.7571 26.1034L68.8711 22.3904Z" fill="white"/>
<path d="M72.7275 27.7571L79.5729 24.3433L80.4704 26.2086L75.2264 28.813L76.3878 31.1358L74.7864 31.9277L72.7275 27.7571Z" fill="white"/>
<path d="M80.8547 40.0413C79.8165 40.2876 78.7255 40.1117 77.828 39.5134C77.3881 39.2142 77.0009 38.8447 76.6842 38.4047C76.0682 37.5073 75.8219 36.4162 75.9979 35.3604C76.0858 34.8325 76.2794 34.3397 76.561 33.8822C76.8425 33.4247 77.1945 33.0375 77.6344 32.7208C78.5143 32.1049 79.5877 31.8585 80.6436 32.0345C81.1715 32.1225 81.6642 32.3336 82.1041 32.6328C82.5617 32.9143 82.9488 33.2839 83.248 33.7238C83.8639 34.6213 84.1102 35.7123 83.9343 36.7858C83.8463 37.3137 83.6527 37.824 83.3712 38.2815C82.7904 39.179 81.893 39.8125 80.8547 40.0413ZM77.7576 36.5394C77.8456 37.0673 78.1799 37.5425 78.6551 37.7888C79.7461 38.3167 81.0483 38.0176 81.7874 37.0673C82.4033 36.2051 82.2097 35.0084 81.3475 34.3925C81.2771 34.3397 81.2243 34.3045 81.1539 34.2693C80.0628 33.7414 78.7606 34.023 78.004 34.9732C77.6872 35.4484 77.5992 36.0115 77.7576 36.5394Z" fill="white"/>
<path d="M25.0893 80.1277L23.488 79.0014L25.0014 76.0275C25.1069 75.8163 25.2301 75.5875 25.3709 75.3412C25.5117 75.0948 25.6701 74.8133 25.846 74.5317C25.5645 74.8309 25.2653 75.1124 24.9486 75.3588L24.7726 75.4996L21.869 77.8576L20.7252 77.0657L21.9218 73.5287L22.0098 73.3175C22.133 72.9127 22.2738 72.5256 22.4673 72.1561L21.9218 72.8248L21.3587 73.4583L19.0886 75.9219L17.5049 74.8133L22.8369 69.1997L24.4734 70.3787L23.1712 74.2853V74.4261C23.0832 74.7429 22.9601 75.042 22.8193 75.3236C22.9249 75.2004 23.0305 75.0948 23.136 75.0068L23.5584 74.5141L26.7611 71.9449L28.4504 73.1239L25.0893 80.1277Z" fill="white"/>
<path d="M29.1387 81.8175L31.6375 74.5674L36.072 76.0984L35.5265 77.6821L33.0101 76.7846L32.5702 78.1044L34.9458 78.9139L34.4003 80.4625L32.0246 79.653L31.6023 80.8672L34.1187 81.7647L33.5556 83.3837L29.1387 81.8175Z" fill="white"/>
<path d="M41.2624 78.7195C41.3504 78.9131 41.4208 79.1242 41.456 79.353C41.5264 79.1594 41.6319 78.9835 41.7375 78.8075V78.7547L42.811 77.0653L45.2746 77.2765L42.4062 80.7256L44.8875 84.9314L42.5294 84.7378L41.4208 82.3622C41.368 82.2566 41.3328 82.151 41.2976 82.0454C41.28 81.9398 41.2624 81.8342 41.2448 81.7287C41.2096 81.8342 41.1568 81.9574 41.104 82.063C41.0512 82.1686 40.9984 82.2566 40.928 82.3446L39.4323 84.4914L37.0742 84.2979L40.2417 80.532L37.9893 76.6958L40.4705 76.907L41.2624 78.7195Z" fill="white"/>
<path d="M48.8644 84.5257L47.8613 76.9412L49.9554 76.6597L50.9585 84.2441L48.8644 84.5257Z" fill="white"/>
<path d="M58.5268 74.4609L59.2835 76.6078C58.9667 76.4318 58.6148 76.3087 58.2452 76.2383C57.9461 76.2031 57.6293 76.2383 57.3477 76.3439C56.8198 76.5022 56.3799 76.907 56.1687 77.4173C55.9576 77.9628 55.9576 78.5611 56.1687 79.1066C56.3447 79.6522 56.7142 80.0921 57.2246 80.356C57.6997 80.6024 58.2804 80.6376 58.7907 80.444C59.0899 80.3384 59.3538 80.1449 59.565 79.9161C59.8114 79.6522 60.0049 79.353 60.1457 79.0187L60.9024 81.1655C60.6561 81.4119 60.3921 81.6407 60.0929 81.8342C59.8114 82.0278 59.5122 82.1686 59.1955 82.2918C58.8259 82.4325 58.4388 82.5029 58.0516 82.5381C57.6997 82.5557 57.3301 82.5381 56.9782 82.4325C56.3447 82.2918 55.7464 81.975 55.2713 81.5351C54.7785 81.0599 54.409 80.4792 54.1802 79.8281C53.9867 79.3178 53.8987 78.7723 53.9163 78.2268C53.9339 77.6989 54.057 77.1885 54.2858 76.7134C54.497 76.2559 54.7961 75.8511 55.1833 75.5168C55.5704 75.1824 56.0279 74.9185 56.5207 74.7425C56.8374 74.6369 57.1718 74.5665 57.5061 74.5313C57.8229 74.4609 58.1748 74.4433 58.5268 74.4609Z" fill="white"/>
<path d="M69.1712 71.8218C69.8047 72.6841 70.051 73.7751 69.8399 74.831C69.7343 75.3589 69.5407 75.8692 69.2415 76.3092C68.6608 77.2242 67.7282 77.8577 66.6899 78.1041C66.1796 78.2097 65.6517 78.2097 65.1414 78.1041C64.6134 78.0337 64.1207 77.8401 63.6632 77.5586C62.7481 76.9955 62.1146 76.0804 61.8683 75.0421C61.7627 74.5318 61.7627 73.9863 61.8683 73.476C61.9562 72.9481 62.1498 72.4553 62.449 71.9978C63.0473 71.0827 63.9623 70.4492 65.0182 70.2029C65.5461 70.0797 66.074 70.0621 66.6019 70.1325C67.6402 70.326 68.5728 70.942 69.1712 71.8218ZM67.1299 76.0276C67.5874 75.7284 67.8865 75.2357 67.9217 74.6726C68.0097 73.4584 67.2178 72.3322 66.0388 72.0154C65.0182 71.769 63.9799 72.4201 63.7512 73.4408C63.7336 73.5112 63.716 73.5816 63.716 73.6695C63.6456 74.8838 64.4199 75.9748 65.5989 76.3092C66.1444 76.4499 66.7075 76.3267 67.1475 75.9924L67.1299 76.0276Z" fill="white"/>
<path d="M51.8555 38.7969C51.9225 38.7854 51.9867 38.7603 52.0408 38.7217C52.2344 38.5457 52.4279 38.3697 52.6039 38.1762C52.252 38.141 51.8824 38.229 51.6009 38.4401C51.6009 38.4401 51.538 38.5029 51.5043 38.5754C51.6349 38.6496 51.7515 38.7237 51.8555 38.7969Z" fill="white"/>
<path d="M50.8162 38.2453C50.9395 38.0841 51.0486 37.9101 51.1435 37.7362C50.8443 37.7538 50.5628 37.8593 50.334 38.0529C50.331 38.0569 50.3283 38.061 50.3259 38.0652C50.5019 38.1236 50.665 38.1838 50.8162 38.2453Z" fill="white"/>
<path d="M34.8485 21.318C34.9365 20.9661 35.0596 20.6142 35.218 20.2798C34.9013 20.4206 34.6373 20.6669 34.4613 20.9485C34.6021 21.0541 34.7253 21.1773 34.8485 21.318Z" fill="white"/>
<path d="M33.7222 22.3035C33.8982 22.1275 34.1269 22.0043 34.3557 21.9691C34.4613 21.9339 34.5669 21.9867 34.6021 22.0923C34.6021 22.1099 34.6021 22.1099 34.6197 22.1275L34.6197 22.585C34.6197 22.585 33.863 22.3387 33.7222 22.3035Z" fill="white"/>
<path d="M33.1942 23.2888C32.9127 23.0952 32.6663 22.8664 32.4551 22.6025L32.4199 23.3064C32.1736 23.4295 31.9976 23.6583 31.9272 23.9223C32.2616 23.8695 32.6135 23.9047 32.9303 24.0103C32.9654 23.7639 33.0534 23.5175 33.1942 23.2888Z" fill="white"/>
<path d="M36.0095 20.4732C36.1327 20.2621 36.3967 20.1917 36.6078 20.3149C36.8894 20.4908 37.083 20.7724 37.1886 21.0891C36.8366 21.0539 36.5023 21.0012 36.1679 20.8956C36.0095 20.8252 35.9391 20.6316 36.0095 20.4732Z" fill="white"/>
<path d="M38.5261 22.0041C38.4733 21.7929 38.2445 21.2826 38.2445 21.2826C38.6141 21.2826 38.9836 21.441 39.2476 21.7225C39.0012 21.7929 38.7549 21.8809 38.5261 22.0041Z" fill="white"/>
<path d="M36.7135 22.673C36.7135 22.673 37.611 25.2598 39.1243 25.4533C38.5084 24.7494 37.9805 23.9928 37.5406 23.1657C37.2414 23.0249 36.9599 22.8665 36.7135 22.673Z" fill="white"/>
<path d="M38.5613 23.1655C38.8781 24.2038 39.8635 24.8901 40.9545 24.8021C40.9545 24.8021 38.8077 23.3943 38.5613 23.1655Z" fill="white"/>
<path d="M39.6876 22.5322C39.9164 22.409 40.2155 22.4442 40.4091 22.6202C40.4091 22.6202 41.1834 23.3417 41.3066 23.4648C41.4298 23.588 39.5644 23.4296 39.6876 22.5322Z" fill="white"/>
<path d="M41.9927 25.4006H40.7961C40.9193 25.6293 41.1304 25.7877 41.3768 25.8229C41.6231 25.7701 41.8519 25.6117 41.9927 25.4006Z" fill="white"/>
<path d="M41.7643 26.6148H42.4858C42.521 26.8436 42.6266 27.0724 42.7674 27.2659C42.3627 27.1603 42.0107 26.9316 41.7643 26.6148Z" fill="white"/>
<path d="M42.8198 28.269C42.4503 28.1283 42.0807 27.9699 41.7464 27.7763C41.8168 28.0403 41.9223 28.3042 42.0631 28.5682C42.2039 28.4978 42.8198 28.269 42.8198 28.269Z" fill="white"/>
<path d="M38.1743 26.4564C38.7726 26.8084 39.4061 27.0548 40.0924 27.1955L40.286 28.093C39.3886 27.829 38.6319 27.2483 38.1743 26.4564Z" fill="white"/>
<path d="M41.3417 28.7441C40.2154 28.7089 39.1068 28.5505 38.0334 28.2866C38.5965 29.0608 39.406 29.6064 40.321 29.8527C40.2506 29.6767 40.2154 29.4832 40.2154 29.2896C40.6906 29.36 41.1481 29.4832 41.588 29.6416L41.3417 28.7441Z" fill="white"/>
<path d="M40.8668 30.5564L41.3772 31.4539L40.6557 31.3483C40.7788 31.1019 40.8492 30.838 40.8668 30.5564Z" fill="white"/>
<path d="M40.2332 30.6446C39.6525 30.4686 38.5967 30.275 38.5967 30.275C38.9838 30.8206 39.5293 31.2605 40.1629 31.5421C40.1277 31.2429 40.1453 30.9437 40.2332 30.6446Z" fill="white"/>
<path d="M36.5025 27.8465C36.872 28.4272 37.2768 28.9903 37.7167 29.5183C37.7167 29.5183 37.2944 29.3247 37.0304 29.1839C36.9952 29.3951 36.9776 29.6062 36.9776 29.835C36.9799 29.8327 36.9709 29.8227 36.9539 29.8038C36.8398 29.6769 36.3646 29.1482 36.5025 27.8465Z" fill="white"/>
<path d="M35.6228 28.4095C35.7636 28.1632 35.3412 27.9344 35.3412 27.9344C34.7971 27.9774 34.8472 28.7778 34.8658 29.0744C34.8695 29.1326 34.8719 29.1714 34.8684 29.1813L34.8661 29.1838L34.8676 29.1829L34.8684 29.1813C35.047 28.9853 35.6228 28.4095 35.6228 28.4095Z" fill="white"/>
<path d="M35.3409 24.7493C35.7632 25.0485 36.0272 25.5412 36.0447 26.0691C35.904 25.8052 35.64 25.6292 35.3409 25.5764C35.3936 25.3125 35.3936 25.0309 35.3409 24.7493Z" fill="white"/>
<path d="M35.7812 24.1688L36.1507 23.676C36.1507 24.0808 36.4499 24.4151 36.8194 24.4679C36.6962 24.5735 36.6435 24.7319 36.661 24.8903C36.8018 24.9782 36.9602 25.0662 37.1186 25.119C37.013 25.5238 36.9426 25.9285 36.925 26.3332C36.6083 25.5766 36.2387 24.8551 35.7812 24.1688Z" fill="white"/>
<path d="M29.7277 24.6614C29.4462 24.7846 29.2702 25.0662 29.2702 25.3653C29.2702 25.3653 29.147 25.7701 29.6925 25.6997C29.6397 25.3653 29.6398 24.9958 29.7277 24.6614Z" fill="white"/>
<path d="M30.238 25.6468C29.9036 25.6468 30.1852 24.9077 30.1852 24.9077C30.238 25.1189 30.326 25.3477 30.4316 25.5588C30.3788 25.6116 30.3084 25.6468 30.238 25.6468Z" fill="white"/>
<path d="M32.0856 26.5794L32.5607 26.9666C32.5607 26.9666 31.9624 27.3361 31.6632 27.4593C31.8392 27.1954 31.98 26.8962 32.0856 26.5794Z" fill="white"/>
<path d="M33.5464 27.8464C33.8103 25.8579 32.3849 25.7347 32.3849 25.7347C33.5464 25.4004 34.3207 26.9314 34.3207 26.949C34.655 26.773 34.9542 26.5266 35.2181 26.2627L35.3061 26.9841L34.9718 26.861L34.8662 27.2129C34.7254 27.1953 34.5846 27.1601 34.4438 27.1073C34.2503 27.4593 33.9335 27.7232 33.5464 27.8464Z" fill="white"/>
<path d="M33.9154 31.9466C33.9154 31.9466 34.0562 30.6796 34.6545 30.8028C34.7601 30.838 34.8305 30.9084 34.9009 30.9964C35.112 30.5916 35.376 30.2221 35.6927 29.8877L35.7455 30.0109L35.4816 31.4011L36.5022 30.9788L37.4525 31.7531L37.9628 31.3483L39.1242 32.5274L39.4586 31.8938L40.1273 32.7913C40.2505 32.8089 40.356 32.8089 40.4792 32.7913C40.62 32.457 40.9368 32.2106 41.3063 32.1754L41.9926 32.4746L41.9398 30.574L42.8373 30.5213L42.9077 29.2015L44.1219 28.7791L44.4738 28.9551L43.418 29.5886L43.594 30.9084C43.242 30.9612 42.9077 31.0844 42.5909 31.2603L42.7317 33.0553L40.8664 33.1433C40.7256 33.4248 40.6552 33.724 40.6728 34.0407C40.2329 33.7768 39.8281 33.46 39.4586 33.0905C39.3354 33.2488 39.2474 33.4248 39.1946 33.6184L38.086 32.5449L37.5581 32.9673L36.1679 31.6651L34.6017 32.5625L34.5489 31.7883C34.5841 31.7179 34.1442 31.8411 33.9154 31.9466Z" fill="white"/>
<path d="M33.3353 33.2666V33.8825C32.5082 34.4457 31.734 35.0792 31.0301 35.7654L29.024 37.5076C28.6192 37.8595 28.1265 38.1411 27.5986 38.2995C27.1235 38.4403 26.6659 38.581 26.226 38.7746C26.7187 38.4051 27.2642 38.0883 27.8449 37.8771C28.4081 37.5428 28.9536 37.1732 29.4815 36.7685C30.0798 36.2406 30.6429 35.6599 31.1708 35.0616C31.8219 34.3753 32.5434 33.777 33.3353 33.2666Z" fill="white"/>
<path d="M36.2387 33.9352C36.2387 33.9352 36.6962 33.4249 36.3619 33.1257C36.1859 33.073 36.0099 33.1257 35.8691 33.2489C35.6404 33.3017 35.394 33.2137 35.2356 33.0378C35.2356 33.0378 33.7751 34.076 32.8424 34.9031L30.9947 36.3989C30.3436 36.874 29.7453 37.4195 29.1997 38.0178C28.7246 38.2994 28.2319 38.5457 27.704 38.7217C27.704 38.7217 26.173 39.0561 26.1378 39.408C26.8945 39.4608 27.6688 39.3904 28.4079 39.1792C28.4079 39.1792 30.062 37.8066 30.2028 37.6835C31.1179 36.8916 32.1033 36.1525 33.1416 35.519C33.9158 35.1142 34.7253 34.7623 35.5524 34.4455C35.834 34.3224 36.0627 34.1464 36.2387 33.9352Z" fill="white"/>
<path d="M41.4825 34.516C40.9722 34.5688 40.4619 34.5336 39.9691 34.4456L39.8284 34.7271C41.6233 35.3254 44.5093 34.5864 44.5093 34.5864C46.5858 34.0408 48.5039 33.0026 50.1052 31.5772C48.627 32.4219 43.823 33.3193 43.823 33.3193C43.1543 34.6392 42.7671 34.428 42.7671 34.428H42.7495C42.6263 34.4456 42.5208 34.3576 42.5032 34.2344C42.3448 33.6185 41.9752 33.6889 41.9752 33.6889C41.6409 33.8121 41.4297 34.164 41.4825 34.516Z" fill="white"/>
<path d="M45.1602 30.2223C44.9314 30.451 44.7731 30.7326 44.7203 31.0493C45.389 31.0493 46.0401 30.9086 46.6384 30.6446C46.6384 30.6446 49.3308 29.2896 51.1257 29.3952C51.1257 29.3952 50.0347 28.5505 47.8702 29.3952C46.9903 29.7471 46.0753 30.0287 45.1602 30.2223Z" fill="white"/>
<path d="M56.6869 26.9492C54.6632 26.7205 52.6219 27.1076 50.827 28.0754C52.8683 27.7763 54.9272 27.6179 56.9861 27.6003L56.6869 26.9492Z" fill="white"/>
<path d="M54.1878 28.6913C54.1878 28.6913 57.8481 27.4595 58.3232 31.2429C58.3232 31.2429 55.842 29.1136 54.1878 28.6913Z" fill="white"/>
<path d="M58.3058 28.6737C58.3938 28.3393 58.4466 27.9874 58.429 27.653C58.8161 27.917 59.1329 28.2689 59.3616 28.6737C59.0097 28.6209 58.6577 28.6209 58.3058 28.6737Z" fill="white"/>
<path d="M54.7157 32.3691C55.2613 32.5627 55.7716 32.8794 56.1939 33.2666C55.7364 33.5833 55.2965 33.9353 54.9093 34.34C54.6102 33.9881 54.135 33.8825 53.7127 34.0761C53.9239 33.4426 54.2582 32.8619 54.7157 32.3691Z" fill="white"/>
<path d="M58.6045 35.2199C57.5663 35.0088 57.4431 33.5834 57.4431 33.5834C57.9358 34.0057 58.5693 34.2697 59.2204 34.3401C60.4699 34.6568 60.4699 35.3783 60.4699 35.3783C59.854 35.2551 59.238 35.2024 58.6045 35.2199Z" fill="white"/>
<path d="M61.8604 34.8328C62.1068 35.1143 62.3355 35.4487 62.4939 35.783C62.5643 35.4663 62.6699 35.1671 62.8283 34.8856C62.5115 34.8856 62.1772 34.868 61.8604 34.8328Z" fill="white"/>
<path d="M62.5114 38.6866C62.7929 38.493 63.0569 38.2819 63.3033 38.0355C63.2329 39.3729 62.3706 39.109 62.3706 39.109C62.177 38.933 62.5114 38.6866 62.5114 38.6866Z" fill="white"/>
<path d="M61.5962 38.7393L61.0331 39.1264C61.0331 39.1264 61.3147 39.9359 61.5962 38.7393Z" fill="white"/>
<path d="M60.7163 38.8097C60.7163 38.8097 60.03 39.0385 59.9068 39.0913C59.7836 39.1617 60.3291 39.7424 60.7163 38.8097Z" fill="white"/>
<path d="M57.8306 26.4916C58.0418 26.5795 58.253 26.7203 58.4114 26.8963C58.4114 26.8963 58.7457 24.9958 58.1826 24.2919C58.2882 25.031 58.165 25.8053 57.8306 26.4916Z" fill="white"/>
<path d="M46.0576 23.4648C46.1808 24.0983 46.7263 24.5558 47.3774 24.5558V24.591C45.9872 25.0309 45.7233 23.4296 45.7233 23.4296C45.7057 22.6553 46.1632 21.9338 46.8847 21.6346C47.5006 21.4059 48.1517 21.2475 48.8204 21.1771C48.9964 21.1595 49.1724 21.1243 49.3483 21.0891C50.2986 20.4556 51.4776 20.2444 52.5863 20.526C52.5863 20.526 51.284 20.7724 51.2137 21.1419C51.9527 21.3003 52.727 21.3355 53.4837 21.2299C53.4837 21.2299 53.0086 22.1274 50.2458 21.5643C49.1548 21.4059 48.0461 21.5291 47.0079 21.9162C46.392 22.1802 46.0048 22.7961 46.0576 23.4648Z" fill="white"/>
<path d="M54.5851 57.1681C54.6003 56.9982 54.6076 56.8378 54.6076 56.689C54.8413 54.1869 54.8261 51.6654 54.5627 49.1672C54.201 49.354 53.8354 49.5309 53.4652 49.6977C53.7129 52.1108 53.7955 54.992 53.4079 57.9659C53.8118 57.7252 54.2066 57.4601 54.5851 57.1681Z" fill="white"/>
<path d="M53.0322 58.1813C53.4439 55.195 53.3669 52.2874 53.1215 49.8493C52.3976 50.1619 51.659 50.4368 50.9086 50.6733C51.1288 53.1757 51.2614 56.1386 51.0923 59.0709C51.7427 58.8252 52.3964 58.532 53.0322 58.1813Z" fill="white"/>
<path d="M50.7182 59.2074C50.8963 56.2754 50.7665 53.3004 50.5475 50.7839C49.6725 51.044 48.7817 51.2523 47.8808 51.4082C47.919 51.9255 47.955 52.4618 47.987 53.0128C48.1134 55.174 48.1852 57.5621 48.1229 59.9148C48.9311 59.7514 49.8163 59.5242 50.7182 59.2074Z" fill="white"/>
<path d="M47.7831 59.9808C47.8067 59.1159 47.8123 58.2456 47.8033 57.3829C47.791 56.2043 47.7517 55.04 47.6955 53.9243C47.6528 53.0709 47.6 52.2459 47.5422 51.4641C47.1063 51.5329 46.6683 51.5893 46.2285 51.6334C46.0269 51.6536 45.8247 51.6713 45.6219 51.6862C45.5107 51.6943 45.3995 51.7019 45.2883 51.7087C45.0636 51.7221 44.8384 51.7325 44.6126 51.7396V53.1928C45.6949 53.274 46.5481 54.1779 46.5481 55.281C46.5481 56.3843 45.6949 57.2883 44.6126 57.3692V60.3296C45.0137 60.3206 46.2291 60.2695 47.7831 59.9808Z" fill="white"/>
<path d="M44.2779 60.3343V57.3678C43.2041 57.2785 42.3599 56.3784 42.3599 55.281C42.3599 54.1838 43.2041 53.2835 44.2779 53.1942V51.744C43.878 51.741 42.8317 51.7162 41.4815 51.5503C41.4006 54.0577 41.3843 57.0487 41.5466 60.1327C42.4458 60.2737 43.3596 60.3416 44.2779 60.3343Z" fill="white"/>
<path d="M41.2142 60.0771C41.0614 56.9968 41.0816 54.0105 41.1636 51.5093C40.3015 51.3927 39.3338 51.2189 38.3408 50.9594C38.2043 53.3916 38.1981 56.3006 38.529 59.3672C38.7654 59.4512 39.0035 59.5298 39.2434 59.6031C39.491 59.6786 39.7404 59.7486 39.9915 59.8126C40.3953 59.9159 40.803 60.0041 41.2142 60.0771Z" fill="white"/>
<path d="M38.1813 59.2394C37.8651 56.1844 37.8791 53.2916 38.0195 50.8729C37.2321 50.6533 36.4346 50.3784 35.6663 50.0344C35.4405 52.4009 35.409 55.2111 35.8808 58.1588C36.6211 58.5778 37.3899 58.9387 38.1813 59.2394Z" fill="white"/>
<path d="M35.5079 57.9415C35.0636 55.0111 35.1052 52.2254 35.3349 49.8808C34.9912 49.7157 34.6542 49.536 34.3284 49.3402C34.1307 51.7693 34.133 54.2116 34.3352 56.6539C34.3352 56.6635 34.3627 56.8699 34.4279 57.2276L34.4762 57.2695C34.8126 57.5068 35.1569 57.7306 35.5079 57.9415Z" fill="white"/>
<path d="M36.4829 63.6854C36.7997 64.3599 37.1591 65.0401 37.5669 65.7042C37.7382 65.789 37.9111 65.8699 38.0853 65.9477C37.272 64.404 36.6654 62.8266 36.2217 61.2588C36.0622 61.1875 35.9038 61.1139 35.746 61.0384C35.6168 60.9766 35.4882 60.9134 35.3607 60.8491C35.6545 61.7384 36.0235 62.7062 36.4829 63.6854Z" fill="white"/>
<path d="M36.6138 61.4293C36.6688 61.6185 36.7266 61.8078 36.7867 61.9971C36.8873 62.3113 36.9951 62.6258 37.1097 62.9401C37.5023 64.0176 37.9808 65.0917 38.5587 66.1484C38.7474 66.2246 38.9378 66.2967 39.1299 66.3644C39.2928 66.422 39.4562 66.4764 39.6208 66.5281C39.1748 65.0737 38.835 63.6017 38.5817 62.1437C37.9145 61.9395 37.2574 61.7011 36.6138 61.4293Z" fill="white"/>
<path d="M38.9395 62.2495C39.0389 62.8081 39.1513 63.3686 39.2776 63.9291C39.3624 64.306 39.454 64.6828 39.5517 65.0589C39.6887 65.5846 39.8387 66.1091 40.0021 66.6315L39.9847 66.6371C40.106 66.6716 40.2279 66.7045 40.3498 66.7359C40.5357 66.7837 40.7227 66.8275 40.9103 66.8679C41.24 66.9387 41.5719 66.9977 41.905 67.0448C41.6837 65.6573 41.518 64.2268 41.3956 62.7918C40.8895 62.7121 40.3869 62.6138 39.8887 62.4967C39.6702 62.4456 39.4529 62.3905 39.2366 62.3321C39.1372 62.3054 39.0384 62.2779 38.9395 62.2495Z" fill="white"/>
<path d="M41.7359 62.8424C41.8084 63.6548 41.8943 64.4655 41.9976 65.2678C42.0353 65.5615 42.0752 65.8541 42.1173 66.1451C42.1633 66.4624 42.2122 66.7778 42.2639 67.0912C42.9311 67.1687 43.6045 67.1993 44.2779 67.1819V63.0392C43.8595 63.0327 43.4422 63.0137 43.026 62.9819C42.5935 62.9491 42.1633 62.9024 41.7359 62.8424Z" fill="white"/>
<path d="M44.6126 63.0372V67.1774H44.6492C45.0401 67.1743 45.9308 67.149 47.0221 66.9996C47.1299 66.5225 47.2248 66.0266 47.3074 65.5155C47.4523 64.623 47.5601 63.6848 47.6388 62.721C46.6402 62.8932 45.6292 62.9993 44.6126 63.0372Z" fill="white"/>
<path d="M47.9825 62.6593C47.8629 64.1751 47.6719 65.6298 47.3838 66.9465C47.8112 66.8794 48.2622 66.7932 48.7216 66.682C48.9412 66.6289 49.1625 66.5702 49.3838 66.5051C49.8752 65.1417 50.2139 63.6306 50.4369 62.0563C50.1184 62.1532 49.7977 62.2434 49.4759 62.3265C49.2569 62.3829 49.0367 62.4363 48.8165 62.4863C48.6784 62.5177 48.5396 62.5478 48.4009 62.5764C48.2616 62.6053 48.1223 62.6329 47.9825 62.6593Z" fill="white"/>
<path d="M50.8193 61.9361C50.7413 62.5076 50.648 63.0712 50.5385 63.6233C50.3487 64.5812 50.1083 65.504 49.8095 66.3717C49.9275 66.3324 50.0448 66.2914 50.1617 66.2484C50.2841 66.2032 50.4065 66.156 50.5273 66.1063C51.3608 64.5829 51.9679 62.9794 52.3992 61.3593C51.8797 61.5708 51.3523 61.7634 50.8193 61.9361Z" fill="white"/>
<path d="M52.7924 61.1951C52.3841 62.7893 51.8118 64.3714 51.0283 65.8848C51.1861 65.8095 51.3405 65.73 51.4928 65.6458L51.6174 65.5775C52.3841 64.2538 53.1608 62.4691 53.7303 60.7679C53.4209 60.9176 53.108 61.0597 52.7924 61.1951Z" fill="white"/>
<path d="M38.0431 50.4907C37.2591 50.2672 36.4666 49.9869 35.7067 49.6362C35.7898 48.8547 35.8932 48.126 36.0044 47.4613C36.725 47.8067 37.4652 48.1071 38.2206 48.3616C38.1538 49.0131 38.0926 49.7263 38.0431 50.4907Z" fill="white"/>
<path d="M35.3765 49.4784C35.4618 48.6955 35.5674 47.9662 35.6803 47.302C35.5944 47.2591 35.509 47.2153 35.4236 47.1709L35.2147 47.0602C35.0254 46.9589 34.8378 46.8541 34.6519 46.7463L34.388 48.9285C34.5312 49.0181 34.6772 49.104 34.8249 49.1872C34.9159 49.2386 35.008 49.2885 35.1007 49.3374C35.1917 49.3854 35.2838 49.4326 35.3765 49.4784Z" fill="white"/>
<path d="M38.2532 48.0499C37.504 47.7974 36.7705 47.4986 36.0572 47.1543C36.3913 45.2607 36.7806 43.9384 36.921 43.4857C37.536 43.7794 38.1656 44.0378 38.8075 44.2599C38.7401 44.6042 38.475 45.9895 38.2532 48.0499Z" fill="white"/>
<path d="M36.3279 44.3104C36.4548 43.837 36.5582 43.5039 36.6138 43.3354C36.434 43.2453 36.2554 43.1521 36.078 43.056C35.8701 42.9431 35.664 42.826 35.4601 42.705C35.1501 43.9743 34.8216 45.418 34.666 46.4093C35.0159 46.616 35.3725 46.8109 35.7342 46.9942C35.9347 45.8763 36.1532 44.9608 36.3279 44.3104Z" fill="white"/>
<path d="M38.5688 48.1532C38.7834 46.1436 39.0429 44.7693 39.1288 44.368C39.9218 44.6261 40.7328 44.8286 41.5556 44.9746L41.5545 44.9878V44.9931C41.5135 45.452 41.39 46.8353 41.2821 48.8019C40.3627 48.6519 39.4557 48.4349 38.5688 48.1532Z" fill="white"/>
<path d="M41.5994 48.851C41.7067 46.9075 41.832 45.5256 41.8814 45.0293C42.2594 45.0894 42.6402 45.1375 43.0232 45.1731C43.4394 45.2122 43.8578 45.2366 44.2779 45.2464V49.0515C43.3798 49.0479 42.4846 48.9802 41.5994 48.851Z" fill="white"/>
<path d="M44.6126 49.0462V45.2478C44.9019 45.2386 45.7584 45.1976 46.8856 45.0322L46.8952 45.1057L46.8968 45.1158L46.9013 45.1495L46.9064 45.186L46.9171 45.2709C46.994 45.878 47.1513 47.1257 47.3113 48.7704C46.7418 48.8586 46.224 48.9196 45.7904 48.9614C45.554 48.9841 45.3428 49.0013 45.1614 49.0142C44.921 49.0316 44.734 49.0411 44.6126 49.0462Z" fill="white"/>
<path d="M47.6506 48.7154C47.4641 46.7988 47.2821 45.4253 47.2209 44.9805C47.9814 44.8575 48.8435 44.6786 49.7258 44.4188L49.7331 44.4632C49.8185 44.9625 50.0448 46.2914 50.2678 48.1164C49.3653 48.386 48.4644 48.5784 47.6506 48.7154Z" fill="white"/>
<path d="M50.6261 48.0052C50.3897 46.0911 50.1499 44.7314 50.0746 44.3121C50.7216 44.1068 51.3737 43.8566 52.001 43.5517C52.1257 44.0279 52.4582 45.3175 52.7587 47.1265C52.0853 47.4801 51.3585 47.769 50.6261 48.0052Z" fill="white"/>
<path d="M53.0912 46.9437C52.7795 45.104 52.4352 43.817 52.3127 43.3944C52.6525 43.2166 52.9833 43.0215 53.299 42.8081C53.4742 43.4287 53.6371 44.0529 53.7871 44.6797C53.9112 45.199 54.0269 45.7202 54.1336 46.2425C53.8106 46.4989 53.4607 46.732 53.0912 46.9437Z" fill="white"/>
<path d="M50.666 48.3335C51.3984 48.099 52.1285 47.8128 52.8132 47.4641C52.912 48.0911 53.0058 48.7749 53.0856 49.5037C52.8581 49.6019 52.6289 49.6966 52.3987 49.7873C51.8977 49.985 51.39 50.1644 50.8772 50.3259C50.8115 49.6177 50.7396 48.9496 50.666 48.3335Z" fill="white"/>
<path d="M53.1479 47.2863C53.2501 47.9198 53.3467 48.6121 53.4287 49.352C53.7983 49.1849 54.1634 49.008 54.5245 48.821C54.461 48.2675 54.3852 47.7154 54.2976 47.165C54.2622 46.9841 54.2251 46.8039 54.1853 46.6233C53.8595 46.8645 53.5113 47.085 53.1479 47.2863Z" fill="white"/>
<path d="M50.3071 48.4441C50.3796 49.0608 50.4509 49.7289 50.5161 50.4363C50.2757 50.5076 50.0347 50.5747 49.7921 50.6379C49.8578 50.5705 49.9129 50.4952 49.9567 50.4149C50.0033 50.3293 50.0375 50.2377 50.0589 50.1425C50.0976 49.9662 50.0903 49.7786 50.0325 49.5972C50.0325 49.5972 49.8595 48.8819 49.5248 48.6592C49.7837 48.5935 50.0448 48.5222 50.3071 48.4441Z" fill="white"/>
<path fill-rule="evenodd" clip-rule="evenodd" d="M46.6581 49.1995L46.8929 49.1678C47.0389 49.1476 47.1889 49.1257 47.3428 49.1015C47.4018 49.7238 47.4607 50.3969 47.5158 51.1097L47.3574 51.1335C47.0962 51.172 46.8345 51.206 46.5722 51.2355C46.3841 51.2568 46.1954 51.2756 46.0066 51.2919C45.5438 51.3324 45.0788 51.3588 44.6126 51.3711V49.3815C44.8047 49.3739 45.1529 49.3554 45.6135 49.3141L45.9128 49.2855C46.0746 49.2692 46.247 49.2501 46.4284 49.2282L46.6581 49.1995ZM47.1086 50.445L47.0884 50.4669C47.0642 50.4913 47.0367 50.5126 47.0069 50.5301C46.9496 50.5635 46.8834 50.5826 46.812 50.5826C46.5986 50.5826 46.4251 50.4093 46.4251 50.1956C46.4251 50.0847 46.4717 49.9844 46.5464 49.9139C46.616 49.8485 46.7093 49.8083 46.812 49.8083C46.9199 49.8083 47.017 49.8522 47.0872 49.9229C47.1563 49.9928 47.1996 50.0892 47.1996 50.1956C47.1996 50.2436 47.1906 50.2897 47.1749 50.3321C47.1647 50.3593 47.1513 50.3852 47.1355 50.409C47.1271 50.4214 47.1181 50.4335 47.1086 50.445Z" fill="white"/>
<path d="M48.6542 50.9038C48.3886 50.9589 48.1218 51.0091 47.8544 51.0546C47.8365 50.8235 47.8185 50.5963 47.8 50.3739L47.8241 50.3832C47.8365 50.3877 47.8488 50.3916 47.8612 50.3947C47.8915 50.4023 47.923 50.4065 47.9555 50.4065C48.1695 50.4065 48.3431 50.2332 48.3431 50.0195C48.3431 49.8055 48.1695 49.6323 47.9555 49.6323C47.9016 49.6323 47.8499 49.6435 47.8028 49.6637C47.7814 49.673 47.7612 49.6839 47.7421 49.6966L47.6826 49.0462L48.0111 48.9884L48.2745 48.9384C48.6795 49.0779 49.0081 49.3894 49.1524 49.8083C49.1827 50.081 49.1153 50.3436 48.9783 50.5615C48.894 50.6952 48.7845 50.812 48.6542 50.9038Z" fill="white"/>
<path d="M44.2779 49.3852V51.3745C44.2032 51.3739 44.1083 51.3725 43.9954 51.3697C43.8011 51.3649 43.5523 51.3559 43.2591 51.3394C42.9693 51.3228 42.6357 51.2989 42.2684 51.2641C42.0246 51.2408 41.7657 51.2127 41.4944 51.1788C41.5197 50.4643 41.55 49.7923 41.5826 49.1723C42.4734 49.3054 43.3742 49.377 44.2779 49.3852Z" fill="white"/>
<path d="M41.2215 50.0178L41.1973 50.5983L41.1765 51.1372C40.9333 51.1038 40.6817 51.0659 40.4239 51.0226C40.2655 50.9959 40.1044 50.9673 39.9409 50.9364C39.4304 50.8401 38.9002 50.7224 38.3633 50.5792C38.411 49.821 38.4717 49.1128 38.5368 48.4649C39.4293 48.7488 40.3414 48.9687 41.2653 49.1223C41.2501 49.4099 41.2355 49.7087 41.2215 50.0178Z" fill="white"/>
<path d="M38.6469 67.265L38.6576 67.2751C38.698 67.3122 38.8502 67.4453 39.1372 67.6183C39.5905 67.8379 40.0566 68.0277 40.5329 68.1872C40.52 68.1378 40.5099 68.0881 40.502 68.0381C40.4773 67.8803 40.4762 67.7196 40.4947 67.5641C40.5273 67.3998 40.6222 67.2563 40.7519 67.1583C40.1914 67.0364 39.6371 66.8834 39.0917 66.6991C38.734 66.5784 38.3801 66.4444 38.0308 66.297L38.6469 67.265Z" fill="white"/>
<path fill-rule="evenodd" clip-rule="evenodd" d="M41.7185 67.3366L41.7073 67.3442C41.6882 67.3571 41.6696 67.3711 41.6517 67.386C41.5905 67.4357 41.5371 67.495 41.4939 67.5621C41.4489 67.6312 41.4141 67.7087 41.3922 67.7929C41.3922 68.0642 41.4961 68.3183 41.673 68.5062C42.0729 68.5969 42.4778 68.6666 42.8867 68.7151C43.1417 68.7413 43.4096 68.7618 43.6916 68.7758C43.9432 68.7882 44.2055 68.7952 44.479 68.796L44.4891 68.7957L44.4953 68.796H44.5464C44.6143 68.7969 45.4102 68.8056 46.4262 68.6859C47.7045 68.4933 48.9407 68.0631 50.0673 67.4057C50.2487 67.2754 50.4178 67.1271 50.5722 66.9648C50.6913 66.8398 50.8014 66.7064 50.9025 66.5663C50.985 66.4517 51.0614 66.3327 51.1305 66.2099C49.0142 67.0777 46.7604 67.5287 44.4717 67.5113C43.55 67.5335 42.6284 67.475 41.7185 67.3366ZM42.8002 68.0746C42.8002 68.1743 42.7626 68.2653 42.7003 68.3338C42.6295 68.4121 42.5267 68.4616 42.4127 68.4616C42.1993 68.4616 42.0257 68.2883 42.0257 68.0746C42.0257 68.0083 42.042 67.946 42.0718 67.8915C42.0813 67.8741 42.092 67.8572 42.1038 67.8415L42.1263 67.8143L42.1414 67.7985C42.2111 67.7298 42.3071 67.6873 42.4127 67.6873C42.6267 67.6873 42.8002 67.8606 42.8002 68.0746ZM43.9089 68.1802C43.9089 68.2234 43.9022 68.265 43.8893 68.3037C43.8786 68.3341 43.8645 68.363 43.8471 68.3897C43.8202 68.4315 43.7854 68.4677 43.7449 68.4964C43.7202 68.5138 43.6932 68.5284 43.6646 68.5396C43.6202 68.5573 43.5719 68.5672 43.5214 68.5672C43.308 68.5672 43.1344 68.3939 43.1344 68.1802C43.1344 67.9662 43.308 67.7929 43.5214 67.7929C43.6595 67.7929 43.7809 67.8651 43.8494 67.9738C43.887 68.0336 43.9089 68.1044 43.9089 68.1802Z" fill="white"/>
<path d="M52.3874 39.9428C52.3683 39.8827 52.2493 39.5868 51.7837 39.2321L51.0586 39.8148C51.1648 39.8861 51.2574 39.9617 51.3344 40.0417C51.3518 40.0574 51.3686 40.0737 51.3844 40.0908C51.4091 40.117 51.4321 40.1445 51.4534 40.1734L52.3874 39.9428Z" fill="white"/>
<path d="M51.4928 39.033C51.1462 38.819 50.6694 38.5963 50.0156 38.3986L49.4293 39.1846C49.9286 39.3068 50.3846 39.4553 50.748 39.6362L51.4928 39.033Z" fill="white"/>
<path d="M49.673 38.3017C49.4298 38.2377 49.1653 38.177 48.8778 38.1214C48.5885 38.0656 48.2751 38.0145 47.9359 37.9695L47.4916 38.844C47.6904 38.8687 47.8915 38.8962 48.0926 38.9268L48.3133 38.9617L48.4655 38.9872L48.6054 39.0116C48.771 39.0414 48.935 39.0737 49.0957 39.1082L49.673 38.3017Z" fill="white"/>
<path d="M47.5781 37.9257C47.0058 37.8611 46.3655 37.8139 45.6506 37.7898L45.4046 38.6575C45.8668 38.6845 46.4773 38.7286 47.1344 38.8016L47.5781 37.9257Z" fill="white"/>
<path d="M45.2984 37.78L45.012 37.7749L44.762 37.7724L44.5419 37.7718C44.1504 37.7718 43.6461 37.7845 43.0794 37.8156L43.2271 38.7011C43.4691 38.6828 43.6887 38.6679 43.8791 38.6558L44.3335 38.6292H44.3403L44.5593 38.6162C44.577 38.6177 44.6257 38.6197 44.7008 38.6229C44.7875 38.6265 44.9093 38.6316 45.0597 38.639L45.2984 37.78Z" fill="white"/>
<path d="M42.7401 37.8361C42.2425 37.8687 41.7067 37.915 41.1642 37.9785L41.5455 38.8639C42.0201 38.8066 42.4784 38.7623 42.8907 38.7277L42.7401 37.8361Z" fill="white"/>
<path d="M40.7856 38.0257C40.2931 38.0906 39.7999 38.17 39.3287 38.2669L39.7443 39.1476C40.2038 39.054 40.6845 38.9771 41.1586 38.9134L40.7856 38.0257Z" fill="white"/>
<path d="M39.0159 38.3346C38.7559 38.3936 38.5042 38.4584 38.2655 38.5295C38.1835 38.5539 38.1027 38.5792 38.0235 38.605L37.8988 38.6469C37.8286 38.6713 37.7589 38.6963 37.6915 38.7221L38.302 39.5359C38.4447 39.4843 38.5952 39.4354 38.7525 39.3893C38.9749 39.3242 39.2102 39.2647 39.454 39.2099L39.0159 38.3346Z" fill="white"/>
<path d="M37.3248 38.8757C36.9682 39.0406 36.675 39.2282 36.4694 39.4416L37.3737 40.0086C37.4579 39.944 37.5534 39.8819 37.6578 39.8229C37.7533 39.7696 37.8567 39.7185 37.9673 39.6696L37.3248 38.8757Z" fill="white"/>
<path d="M36.2672 39.7095L36.2436 39.7544C36.2262 39.789 36.2116 39.8238 36.1987 39.8592L36.201 39.8656L36.2026 39.8691C36.2219 39.9108 36.3981 40.2922 36.9586 40.7598L36.958 40.7362L36.9575 40.7103C36.9575 40.5435 37.0176 40.3899 37.1271 40.2487L36.2672 39.7095Z" fill="white"/>
<path d="M37.5135 41.1602C37.6741 41.261 37.8539 41.3624 38.0532 41.4626C38.0414 41.4129 38.0336 41.3615 38.0308 41.3088V41.1681C38.0313 41.1546 38.033 41.1411 38.0347 41.1276L38.0375 41.1105L38.0476 41.065C38.0527 41.0476 38.0583 41.0305 38.065 41.0133L38.0836 40.9706V39.9723C37.5916 40.1829 37.2917 40.4284 37.2917 40.7103C37.2984 40.7968 37.3203 40.878 37.3551 40.9516C37.3933 41.0319 37.4467 41.1026 37.5135 41.1602Z" fill="white"/>
<path d="M38.6958 41.7488L38.5986 41.7098C38.5817 41.6991 38.5655 41.6876 38.5503 41.6749C38.525 41.6542 38.502 41.6309 38.4818 41.6053C38.4031 41.5065 38.3633 41.3753 38.3829 41.2386V41.1858H38.4177V41.0672C38.4571 41.0004 38.5278 40.9341 38.6272 40.869H42.5402C42.6755 41.3571 43.4287 41.7311 44.3835 41.7311C44.4318 41.7311 44.4795 41.7303 44.5267 41.7283L44.5975 41.7247L44.6677 41.7196C44.8081 41.7078 44.9435 41.6876 45.0715 41.6601C45.6781 41.5292 46.1246 41.2304 46.2268 40.869H50.115C50.1364 40.8982 50.1549 40.9282 50.1701 40.9589C50.2066 41.031 50.2257 41.1066 50.2257 41.1858V41.2386L50.2296 41.2588L50.2313 41.2753L50.2324 41.302C50.2319 41.3621 50.2122 41.4146 50.1729 41.4671C50.1504 41.4935 50.1268 41.5191 50.1027 41.5438C50.06 41.5868 50.0145 41.6269 49.9662 41.664C49.9269 41.6943 49.8859 41.7227 49.8438 41.7488H38.6958Z" fill="white"/>
<path fill-rule="evenodd" clip-rule="evenodd" d="M38.5941 42.0717V42.0833H38.6239C39.9224 42.5772 41.8117 42.9628 44.5419 42.9628C44.6795 42.9628 45.9999 42.8901 47.5416 42.6356C47.928 42.7817 48.2392 43.0863 48.3785 43.491C48.42 43.867 48.2762 44.2242 48.0196 44.4711C47.6764 44.5413 47.3456 44.6 47.0333 44.6491C46.5492 44.7252 46.1094 44.7783 45.7359 44.8151L45.4933 44.8378L45.3433 44.8505C45.1574 44.8653 44.9968 44.8757 44.8659 44.8828C44.6211 44.8962 44.4801 44.8985 44.4717 44.8985C41.3394 44.8457 38.2599 43.9836 35.5674 42.382C35.6376 42.0125 35.9016 40.9566 36.078 40.3408C36.3784 40.7637 37.0754 41.4823 38.5649 42.0605L38.5761 42.0656L38.5941 42.0717ZM47.2518 44.0538C47.4658 44.0538 47.6393 43.8805 47.6393 43.6668C47.6393 43.4528 47.4658 43.2796 47.2518 43.2796C47.0384 43.2796 46.8648 43.4528 46.8648 43.6668C46.8648 43.7117 46.8727 43.7547 46.8867 43.7949C46.9002 43.8342 46.9204 43.8704 46.9451 43.9027C46.9755 43.9417 47.0125 43.9749 47.0552 44.0001C47.1125 44.0341 47.1799 44.0538 47.2518 44.0538ZM46.1605 44.1771C46.3745 44.1771 46.5481 44.0038 46.5481 43.7901C46.5481 43.5761 46.3745 43.4028 46.1605 43.4028C45.9471 43.4028 45.7736 43.5761 45.7736 43.7901C45.7736 44.0038 45.9471 44.1771 46.1605 44.1771Z" fill="white"/>
<path d="M49.2585 43.2798C49.2585 43.2798 49.1069 42.6516 48.812 42.3894C49.0187 42.3425 49.2248 42.2925 49.4282 42.2383L49.4338 42.2591C49.6332 42.2341 49.8252 42.17 49.9977 42.074C51.1833 41.7022 52.1954 41.1829 52.5666 40.464L53.1822 42.4525C51.9477 43.3012 50.4801 43.8558 49.1052 44.2181C49.3023 43.9532 49.363 43.6067 49.2585 43.2798Z" fill="white"/>
<path d="M50.5363 41.5607L50.5952 41.5382V41.3865C50.5818 41.4464 50.5627 41.505 50.5363 41.5607Z" fill="white"/>
<path d="M50.9294 41.4011L51.0597 41.3422L51.0356 41.2911C51.2288 41.1678 51.317 40.9215 51.2642 40.6926C51.2642 40.5519 51.194 40.3936 51.0704 40.288C51.0288 40.245 50.9817 40.2037 50.9294 40.1636V41.4011Z" fill="white"/>
<path d="M51.5944 41.0524C51.7646 40.9437 51.9134 40.8286 52.0359 40.7067C52.1645 40.5789 52.2639 40.4438 52.3307 40.3012L51.5961 40.4826C51.6096 40.5401 51.6163 40.5988 51.6163 40.6575V40.8159C51.6208 40.8957 51.6129 40.9754 51.5944 41.0524Z" fill="white"/>
<path d="M48.7064 42.0833C47.172 42.4214 45.5292 42.5918 44.5599 42.646C42.4711 42.646 40.8912 42.4138 39.7011 42.0833H48.7064Z" fill="white"/>
<path d="M50.5952 41.0187V39.9574C50.402 39.8594 50.1763 39.771 49.9269 39.6915C49.7393 39.6317 49.5382 39.5769 49.3282 39.5267V39.9959C50.0005 40.2327 50.4981 40.5615 50.5952 41.0187Z" fill="white"/>
<path d="M48.4312 39.3458C48.6222 39.3781 48.8104 39.4135 48.994 39.452V39.8895C48.5009 39.7474 47.9432 39.6457 47.3928 39.573V39.1967C47.7365 39.238 48.0875 39.2874 48.4312 39.3458Z" fill="white"/>
<path d="M47.0586 39.5323V39.1585C46.4088 39.0886 45.8045 39.0459 45.3512 39.0206V39.4073C45.814 39.4247 46.4211 39.4604 47.0586 39.5323Z" fill="white"/>
<path d="M44.5419 38.9858C44.5419 38.9858 44.7194 38.9897 45.017 39.0035V39.3969L44.8216 39.393L44.6565 39.391L44.5593 39.3908C44.411 39.3975 44.192 39.4107 43.9235 39.4312C43.7258 39.4461 43.5006 39.4652 43.2568 39.4888V39.0526C43.7084 39.0206 44.1431 38.9984 44.5419 38.9858Z" fill="white"/>
<path d="M42.2043 39.1425C42.01 39.1622 41.8151 39.1835 41.6208 39.2065V39.6887L41.8028 39.6617L42.0684 39.625L42.2757 39.598C42.4981 39.5696 42.7154 39.5444 42.9227 39.5225V39.0776C42.6857 39.0967 42.4453 39.1184 42.2043 39.1425Z" fill="white"/>
<path d="M39.8258 39.4826C40.0325 39.4419 40.2465 39.4037 40.4649 39.368C40.716 39.327 40.9732 39.2894 41.2338 39.2551V39.7505C40.7463 39.8325 40.2633 39.9308 39.8258 40.0473V39.4826Z" fill="white"/>
<path d="M38.8306 39.7159C38.6851 39.7569 38.5469 39.7996 38.4177 39.8443V40.616C38.5132 40.5494 38.6239 40.4865 38.7474 40.4267L38.8558 40.3762C39.0496 40.2899 39.2698 40.2105 39.509 40.1375V39.5483C39.2692 39.6005 39.0417 39.6564 38.8306 39.7159Z" fill="white"/>
<path d="M49.7045 40.5345H46.2218C46.0931 40.1195 45.5175 39.7901 44.7531 39.7089C46.42 39.7291 48.6941 39.9701 49.7045 40.5345Z" fill="white"/>
<path d="M39.3995 40.5345C40.3835 40.2181 41.9589 39.9496 43.5674 39.7895C43.5158 39.803 43.4652 39.8179 43.4164 39.8336L43.3237 39.8662C43.231 39.9007 43.1451 39.9398 43.0659 39.9827C42.9592 40.0406 42.8659 40.1054 42.7879 40.1762C42.7115 40.2453 42.6497 40.32 42.6042 40.3989C42.5924 40.4194 42.5818 40.4402 42.5728 40.4612C42.5621 40.4854 42.5526 40.5098 42.5452 40.5345H39.3995Z" fill="white"/>
<path d="M42.8525 40.7106C42.8525 40.507 43.1142 40.2891 43.5388 40.1591V41.2633C43.3063 41.1936 43.1209 41.0984 42.9985 40.9937C42.8929 40.903 42.8351 40.8052 42.8351 40.7106H42.8525Z" fill="white"/>
<path d="M45.2108 40.1537C45.6461 40.2829 45.9145 40.5042 45.9145 40.7106C45.9145 40.9167 45.6461 41.138 45.2108 41.2672V40.1537Z" fill="white"/>
<path d="M45.0344 40.2178C45.0344 40.3832 44.7351 40.5171 44.3661 40.5171C43.9965 40.5171 43.6972 40.3832 43.6972 40.2178C43.6972 40.1537 43.7421 40.0945 43.8185 40.0459C43.9398 39.969 44.1397 39.9187 44.3661 39.9187C44.7351 39.9187 45.0344 40.0526 45.0344 40.2178Z" fill="white"/>
<path d="M45.8089 55.281C45.8089 56.0294 45.2024 56.6359 44.4543 56.6359C43.7056 56.6359 43.099 56.0294 43.099 55.281C43.099 54.5326 43.7056 53.926 44.4543 53.926C45.2024 53.926 45.8089 54.5326 45.8089 55.281Z" fill="white"/>
<path fill-rule="evenodd" clip-rule="evenodd" d="M53.7629 60.3843C54.0797 59.5045 54.3088 58.607 54.4492 57.6918C50.5729 60.4721 45.3144 60.6685 44.5622 60.6966L44.5497 60.6972C44.5003 60.6988 44.4739 60.7 44.4717 60.7011C43.3113 60.7126 42.1572 60.6084 41.0254 60.3933C40.6503 60.5346 40.3346 60.8202 40.1605 61.1937C40.1605 61.1937 40.0038 61.9432 40.7076 62.3897C41.9387 62.6289 43.1939 62.753 44.4543 62.7598C47.6921 62.6368 50.8592 61.8449 53.7629 60.3843ZM41.3214 61.8626C41.3911 61.8626 41.4562 61.8443 41.5124 61.8126C41.6298 61.746 41.709 61.6199 41.709 61.4756C41.709 61.2616 41.5354 61.0883 41.3214 61.0883C41.272 61.0883 41.2248 61.0976 41.1816 61.1145C41.1529 61.1254 41.1265 61.1397 41.1018 61.1569C41.0007 61.2268 40.9345 61.3433 40.9345 61.4756C40.9345 61.6893 41.108 61.8626 41.3214 61.8626ZM42.4655 62.0033C42.6795 62.0033 42.853 61.83 42.853 61.6163C42.853 61.4023 42.6795 61.229 42.4655 61.229C42.2521 61.229 42.0785 61.4023 42.0785 61.6163C42.0785 61.83 42.2521 62.0033 42.4655 62.0033Z" fill="white"/>
<path d="M34.5997 57.78C36.2189 58.853 38.0005 59.6446 39.8629 60.1313C39.723 60.2549 39.6067 60.4009 39.5141 60.5612C39.4253 60.7146 39.3591 60.8808 39.3158 61.053C39.2119 61.4088 39.2456 61.7646 39.3956 62.0889C37.9617 61.709 36.57 61.1687 35.2507 60.4722L34.5997 57.78Z" fill="white"/>
<path fill-rule="evenodd" clip-rule="evenodd" d="M72.5941 43.8073C72.5941 59.4253 59.9331 72.0862 44.3151 72.0862C28.6971 72.0862 16.0361 59.4253 16.0361 43.8073C16.0361 28.1892 28.6971 15.5283 44.3151 15.5283C59.9331 15.5283 72.5941 28.1892 72.5941 43.8073ZM63.356 39.3729L63.3601 39.3887C63.3617 39.3952 63.3631 39.4015 63.3644 39.4079H63.6374L63.391 40.0766L62.1944 40.4285L60.5403 40.6397L59.678 40.4285L58.411 40.3581L58.1309 39.4129L52.6427 39.1055C53.2404 38.5264 53.9781 38.0878 54.7685 37.8594L56.3522 37.1027C56.7042 36.8916 56.8098 36.434 56.581 36.0821C56.4578 35.695 56.0883 35.4486 55.6835 35.4662C55.8067 35.0087 56.1411 34.6391 56.581 34.4807C56.581 34.4807 56.7042 36.7508 57.9888 37.3667C57.9184 37.1555 57.9184 36.9444 57.9888 36.7332C58.1296 36.9444 58.3231 37.1203 58.5695 37.2259C58.5695 37.2259 58.4287 36.434 59.5726 36.2581C59.5726 36.2581 61.1387 35.8709 61.2267 36.8564C61.4027 37.4547 61.1035 38.0882 60.5228 38.317L59.4142 39.0033C59.4142 39.0033 59.177 39.199 59.1157 39.4079H62.7226L63.4088 38.7217C63.4088 38.7217 63.62 38.7217 63.4088 37.9298C63.4088 37.9298 62.7753 35.2374 63.62 35.5366C63.8663 35.607 64.0951 35.7477 64.2711 35.9237C64.2711 35.9237 63.9719 33.7592 62.8809 33.7944C62.5113 33.7416 62.1242 33.8296 61.8074 34.0232C61.4379 34.1992 61.0155 34.0936 60.7516 33.7944C60.2237 33.2313 59.8189 32.5626 59.5726 31.8235C59.5726 31.8235 59.027 30.4861 60.3644 30.7149C60.1357 30.3982 59.9421 30.0462 59.7837 29.6767C60.1357 29.7294 60.4876 29.835 60.8044 30.0286C60.382 28.9904 59.7661 28.0577 59.0094 27.2306C59.0094 27.2306 60.0477 22.8665 57.0561 22.7433C54.6981 22.6201 52.34 22.9721 50.1052 23.7639C50.1052 23.7639 47.7823 24.4854 46.7089 23.4296C46.7089 23.4296 46.2162 22.6553 47.5008 22.321C48.2047 22.0746 48.9789 22.0394 49.7004 22.1978C49.7004 22.1978 53.1319 23.0952 55.0852 21.8282C54.6101 21.7754 54.135 21.6171 53.7126 21.3707C54.4693 21.1595 55.2612 21.0715 56.0355 21.1067C56.0355 21.1067 50.9147 18.6783 48.4158 20.6844C48.4158 20.6844 44.562 20.8076 45.0371 23.5352C45.0371 23.5352 45.5651 26.1572 49.2605 25.2773C49.2605 25.2773 53.0791 24.3799 53.5367 24.2391C53.5367 24.2391 59.4142 23.2184 56.933 26.2628C54.7509 26.2452 52.5864 26.5619 50.4923 27.1602C48.7502 27.8113 46.9552 28.2337 45.1075 28.4448C45.3011 28.1809 45.3891 27.8641 45.3891 27.5474C44.7204 27.653 44.0165 27.5122 43.4358 27.1602C43.6821 26.7907 43.9813 26.4563 44.3332 26.1748C43.9461 26.1748 43.559 26.0692 43.2246 25.8756C43.6997 25.5589 44.2277 25.3477 44.7908 25.2421C44.1573 24.7318 43.383 24.415 42.5559 24.3447C42.8903 24.1863 43.1894 23.9751 43.4534 23.7287C42.6967 23.4648 42.028 23.0073 41.5001 22.4089C41.5001 22.4089 40.3562 20.9484 39.7051 21.1419C39.3356 20.4732 38.5965 20.0861 37.8222 20.1741C37.8222 20.1741 37.2591 19.5582 35.517 19.7517C35.4114 19.5758 35.3234 19.3998 35.2354 19.2062C34.7075 19.611 34.2852 20.1213 33.9684 20.702C33.1765 21.0715 32.4902 21.6523 32.0151 22.3914C31.8215 22.7609 31.54 23.06 31.188 23.2888C31.188 23.2888 28.83 24.2567 28.9531 25.3125C28.918 25.6997 29.1995 26.034 29.5691 26.0692H29.6746C29.9034 26.1396 30.0442 26.3684 29.9738 26.6147C30.4313 26.7027 30.9065 26.7203 31.3816 26.7027C30.8185 27.389 30.097 27.9521 29.2875 28.3217C29.2875 28.3217 30.4137 28.656 32.719 27.4242C32.6134 27.7233 32.3494 27.9345 32.0503 27.9697C32.0503 27.9697 31.9975 28.1105 32.0503 28.1633C31.9623 28.2689 31.8215 28.3217 31.6807 28.3041C31.6807 28.3041 31.6807 29.0959 34.0388 28.7968C33.9156 29.1487 33.6868 29.4831 33.4053 29.747C33.5637 29.8174 33.7572 29.835 33.9332 29.7998C33.634 30.7501 33.1941 31.6652 32.631 32.4922C32.3846 32.8794 32.1031 33.2313 31.7863 33.5657C31.7863 33.5657 29.7978 34.8503 29.8682 35.2726C30.0618 35.2902 30.2554 35.2902 30.4489 35.2726C29.745 36.1877 28.8476 36.9268 27.8093 37.4371C26.9119 37.7362 26.0848 38.1762 25.3105 38.7217C25.3105 38.7217 24.9939 39.2078 24.9119 39.629L28.917 39.4497C29.0523 39.3366 29.1991 39.2063 29.3579 39.0561C29.3579 39.0561 32.9478 36.0645 34.3027 36.0293C34.3027 36.2405 34.3731 36.4516 34.4963 36.61C34.4963 36.61 35.5346 35.167 36.1681 35.167C36.3488 35.167 36.5453 35.306 36.8221 35.5017C37.5156 35.9921 38.7131 36.8388 41.4297 36.7508C43.5414 36.7684 45.6003 36.1525 47.36 35.0087C48.8734 34.164 50.3339 33.2137 51.7065 32.1403C52.3752 32.0875 53.0263 32.1227 53.6774 32.2635C52.7096 33.2489 52.1817 34.5863 52.2697 35.9765C52.3928 35.8005 52.5336 35.6246 52.692 35.4662C52.7096 35.6422 52.7624 35.8181 52.868 35.9589C52.956 35.6774 53.1495 35.4486 53.4135 35.343C53.7478 35.343 54.0118 35.607 54.0118 35.9413C54.0118 36.0293 53.9942 36.0997 53.959 36.1701C53.9062 36.6276 53.5191 36.9796 53.0615 36.9796C52.2873 37.0148 51.513 37.1203 50.7563 37.3315C50.4178 37.4669 50.1001 37.6648 49.8353 37.9172C48.6339 37.5883 46.9326 37.3495 44.5245 37.3495C44.5065 37.3514 44.4644 37.3531 44.4003 37.3554L44.2723 37.3596L44.2583 37.3599L44.2551 37.36C42.9817 37.4006 37.7132 37.5688 36.2169 39.1794L29.6046 39.3729C29.6053 39.3883 29.6056 39.4036 29.6055 39.4189L29.8509 39.4079L29.3934 40.3757L28.5663 40.6925L27.2817 40.9213L26.525 40.7277L25.8563 40.8157L24.9589 40.7981L24.4486 40.4461L24.1846 40.0766L23.9558 39.6719L24.293 39.6568L24.2902 39.6368L20.5419 39.7072L18.8702 41.1678L18.9131 41.17L19.1867 40.9212L35.3538 41.7575C35.2824 42.0417 35.2072 42.3451 35.131 42.6584C35.0862 42.8425 35.041 43.0301 34.996 43.2191L19.375 42.5407L34.0021 56.5014C34.0074 56.5698 34.0128 56.6383 34.0184 56.7067C34.0184 56.7421 34.2481 58.3515 34.9294 60.5141L34.9693 60.6834H34.9833C35.4978 62.2827 36.256 64.1628 37.3439 65.9266L37.327 65.9451L37.6842 66.4574L37.7926 66.6185L37.8982 66.7724L38.0353 66.9651L38.1122 67.0712L38.5413 67.6871C38.7171 67.7817 38.8946 67.8718 39.0743 67.9572C39.7382 68.3481 40.9502 68.8634 42.9238 69.0547C43.4478 69.1139 43.9769 69.1392 44.5065 69.1302C45.3338 69.1661 46.1544 69.1021 46.9553 68.9443C48.2077 68.746 49.664 68.3369 50.5778 67.4939C52.3414 65.8657 54.743 59.9232 54.9148 56.974L54.9176 56.9227C54.9215 56.8437 54.9237 56.7671 54.9242 56.6926L69.9023 41.8715L69.8966 41.8719L69.3389 42.3292L53.8137 43.3735C53.6564 42.7803 53.4875 42.1907 53.3071 41.6056L69.0574 40.4287L69.7898 41.1721L69.867 41.1678L68.4416 39.5488L63.356 39.3729Z" fill="white"/>
</svg>
