<svg width="214" height="63" viewBox="0 0 214 63" fill="none" xmlns="http://www.w3.org/2000/svg">
<path d="M71.6714 8.88175H84.6828V55.8527H71.6714V8.88175Z" fill="#011028"/>
<path d="M91.511 55.8527V8.88175H127.291V17.9845H104.518V27.6797H125.466V36.7872H104.518V46.7404H127.291V55.8527H91.511Z" fill="#011028"/>
<path d="M134.578 55.8527V8.88175H170.348V17.9845H147.589V27.6797H168.528V36.7872H147.589V46.7404H170.348V55.8527H134.578Z" fill="#011028"/>
<path d="M177.636 55.8527V8.88175H213.416V17.9845H190.657V27.6797H211.595V36.7872H190.657V46.7404H213.416V55.8527H177.636Z" fill="#011028"/>
<path d="M29.9372 9.4075C32.0158 7.79242 34.6248 9.13516 36.3689 10.6212C38.1942 12.0165 40.1007 13.5981 41.7684 15.2179L42.0742 15.39C46.6996 19.6857 51.0001 24.4544 54.5313 29.5004C55.0999 30.3796 55.6064 31.3735 55.2863 32.5394C54.1108 35.4828 51.7169 37.829 49.6288 40.3949C45.1037 45.2688 40.3301 49.9803 34.9832 53.7408C33.9033 54.5054 32.4458 55.2078 31.1509 54.6057C27.2183 52.5462 23.9022 49.1727 20.457 46.1003C16.4671 42.3971 12.4581 38.087 9.43341 33.5763C8.98427 32.9455 8.85529 32.1619 8.86961 31.3305C9.26143 29.7727 10.3222 28.4921 11.3352 27.1781C14.9094 22.6244 19.2864 18.3 23.7111 14.3531C23.8161 14.2527 24.0027 14.0377 24.165 13.9326C26.0621 12.2888 27.9494 10.8362 29.9372 9.4075ZM36.0201 4.66739L33.6739 1.3369C33.3822 1.16488 33.024 0.873399 32.7087 0.787391C32.0158 0.486344 31.2657 0.849529 30.7018 1.27956L26.4538 6.81287C19.6351 15.2562 11.5646 23.1404 2.75812 29.185C2.06528 29.7297 1.02829 30.2601 0.813267 31.1584C0.584066 31.9612 1.00438 32.6302 1.50141 33.1271C8.55421 37.9867 15.2964 43.7493 21.2932 50.3243C22.3588 51.4472 23.2237 52.5558 24.2654 53.607C26.019 55.9436 28.0833 58.2946 29.6936 60.8032C30.2001 61.3336 30.2861 62.1985 31.0793 62.4565C31.6957 62.6715 32.4602 62.8196 33.0527 62.4565L33.6404 61.8688C40.9369 51.5332 50.1877 42.2537 60.5233 34.7613C61.5602 33.8343 63.5336 33.4903 63.5623 31.7749C63.4905 30.9864 63.032 30.2028 62.3487 29.7727L62.1815 29.7439C56.8632 26.1268 51.9034 22.0317 47.2349 17.392L42.0743 12.002C39.9814 9.68453 37.9553 7.1139 36.0201 4.66739ZM30.7019 10.6784C32.8235 9.23537 34.7252 11.2518 36.369 12.4082C42.7241 17.521 48.721 23.3744 53.2843 29.9876C53.8625 30.8382 54.1205 32.1618 53.6091 33.127C52.4193 35.1052 50.8234 36.9067 49.3087 38.7415V38.8371C45.529 42.8604 41.5439 46.9937 37.2291 50.3958C35.1266 51.6812 33.1962 54.4765 30.4869 52.742C24.3181 48.2313 18.4121 42.6263 13.4091 36.6151C12.5586 35.2915 11.235 34.2117 10.6425 32.7112C9.8206 30.6805 11.6364 29.2231 12.6733 27.694C17.7766 21.4009 24.1174 15.2274 30.7019 10.6784ZM32.0398 14.826L31.4665 16.6704L28.5851 24.9321C29.3066 25.0038 30.2001 24.9321 30.9073 25.0038V25.0707L30.4869 34.4123L30.5586 34.5126C31.4809 34.5986 32.6324 34.6464 33.5738 34.4839V34.3357L33.1963 25.2808L33.2535 24.975L35.7908 24.9319C34.5245 21.5871 33.2965 18.2088 32.1163 14.8257L32.0398 14.826ZM22.2299 27.7657C20.6148 28.578 18.2352 29.8013 18.498 32.0184C18.842 33.2273 20.1561 34.0109 21.193 34.5127C26.927 37.0356 34.5389 37.1216 40.5931 35.239C42.0887 34.6608 44.0955 33.8246 44.3678 31.9945C44.354 30.4798 42.7528 29.5289 41.6012 28.9507V28.879C42.0026 28.7166 42.4613 28.578 42.8771 28.5302V28.492C40.851 28.1289 38.8919 27.5985 36.928 27.0777C37.3055 27.9425 37.5779 28.8504 37.8933 29.744C38.4858 29.5576 39.0926 29.4143 39.7281 29.3282C40.765 29.7296 42.2463 30.3078 42.3944 31.6027C42.5092 32.8117 41.1807 33.4042 40.3445 33.8916C35.9054 35.5066 30.9074 35.6643 26.2772 34.4411C24.9966 34.0349 23.1521 33.5188 22.9944 31.8894C23.9023 29.744 26.2484 29.2996 28.2123 28.7787C27.2041 28.1289 26.1769 27.5507 25.2021 26.8292C24.146 26.8913 23.1808 27.35 22.2299 27.7657ZM30.4295 37.0787C30.2576 40.3948 30.2145 43.4625 29.9708 46.793C31.2801 46.9076 32.7661 47.0224 34.1614 46.8217L33.7457 37.5517L33.6739 37.1121C32.6035 37.1503 31.5955 37.1932 30.4295 37.0787Z" fill="#011028"/>
<path d="M42.6716 56.0488C41.5105 56.0488 40.4784 56.8515 40.4784 58.2277C40.4784 59.6086 41.5105 60.4162 42.6716 60.4162C43.8232 60.4162 44.8553 59.6086 44.8553 58.2277C44.8553 56.8515 43.8232 56.0488 42.6716 56.0488ZM42.6716 59.9097V59.9048C41.8068 59.9097 41.1091 59.2358 41.1091 58.2276C41.1091 57.2289 41.8068 56.56 42.6716 56.56C43.5174 56.56 44.2342 57.2289 44.2342 58.2276C44.2342 59.2358 43.5174 59.9097 42.6716 59.9097ZM43.6465 57.7641C43.6465 57.2289 43.2928 57.0569 42.6812 57.0569H41.8068V59.4031H42.3085V58.4188H42.5474L43.0874 59.4032H43.6847L43.0778 58.3758C43.3978 58.3472 43.6465 58.1941 43.6465 57.7641ZM42.7528 58.0174H42.3085V57.4488H42.6621C42.8532 57.4488 43.1112 57.4679 43.1112 57.7116C43.1112 57.9744 42.9822 58.0174 42.7528 58.0174Z" fill="#011028"/>
</svg>
