<svg width="222" height="64" viewBox="0 0 222 64" fill="none" xmlns="http://www.w3.org/2000/svg">
<path fill-rule="evenodd" clip-rule="evenodd" d="M56.0821 52.2428C51.8614 57.8804 50.2458 59.3114 48.1072 59.3114C46.3562 59.3114 45.5798 58.3027 45.7467 56.2637C43.6708 58.5444 42.7301 59.1804 41.2462 59.1804C39.134 59.1804 38.2321 57.35 38.8957 54.6367C40.0923 49.7547 45.4042 44.3855 49.0843 44.3855C50.2082 44.3855 50.7149 44.9961 50.9018 46.4894L52.0182 44.6857C52.8284 44.7875 53.1709 44.7875 53.8896 44.7875C54.5431 44.7875 54.8303 44.7875 55.4763 44.6857L54.8378 45.8165C54.4615 46.4894 54.2031 47.016 53.1056 48.9025C52.6353 49.6428 52.2489 50.3907 51.8614 51.0267C51.0756 52.2592 50.3428 53.5256 49.6651 54.8224C49.1508 55.6849 48.7796 56.2636 48.5488 56.6007C48.3004 57.0103 48.1725 57.3487 48.1072 57.5993C48.0044 57.9923 48.3293 58.3472 48.9276 58.3472C50.3098 58.3472 52.1273 56.5639 55.9165 51.2595L56.6465 51.4936L56.0821 52.2428ZM49.0555 45.1551C48.4283 45.1551 47.7937 45.7135 46.5381 47.5109C45.333 49.222 44.1953 50.9809 43.1277 52.7834C41.9198 54.694 41.4394 55.8312 41.191 56.8729C40.9602 57.7595 41.329 58.3485 41.9649 58.304C43.1001 58.304 44.678 56.8526 46.513 54.058C48.2716 51.5712 49.6387 48.8859 49.9711 47.4167C50.3023 46.1905 49.8319 45.1551 49.0555 45.1551Z" fill="white"/>
<path fill-rule="evenodd" clip-rule="evenodd" d="M63.9127 52.0469L62.2319 54.2055C59.5766 57.8804 57.7152 59.3114 55.7246 59.3114C53.9548 59.3114 53.068 57.9923 53.5396 56.0665C53.7591 55.2168 54.2408 54.2055 55.3383 52.2428L66.928 32.4171L67.3984 32.4616H68.4595C68.8935 32.4616 69.3162 32.4616 70.3573 32.3611L57.7716 53.9893C57.5409 54.3366 57.1257 55.0947 56.5713 56.2357C56.0821 57.0854 55.9918 57.3118 55.9542 57.6298C55.8262 58.1513 55.9905 58.4325 56.5274 58.4325C57.2649 58.4325 58.2244 57.7596 59.5992 56.3209C60.4558 55.3936 61.2849 54.3378 63.1927 51.7849L63.6192 51.2608L64.3266 51.4949C64.1247 51.7836 63.9315 51.9502 63.9127 52.0469Z" fill="white"/>
<path fill-rule="evenodd" clip-rule="evenodd" d="M79.3582 52.2428C75.0973 57.8804 73.4818 59.3114 71.362 59.3114C69.5997 59.3114 68.8346 58.3027 68.9726 56.2637C66.9256 58.5444 65.9585 59.1804 64.5098 59.1804C62.3423 59.1804 61.4493 57.35 62.1492 54.6367C63.347 49.7547 68.6678 44.3855 72.3466 44.3855C73.4805 44.3855 73.9973 44.9961 74.1365 46.4894L75.234 44.6857C76.0619 44.7875 76.4306 44.7875 77.1318 44.7875C77.7702 44.7875 78.0838 44.7875 78.7473 44.6857L78.1101 45.8165C77.7163 46.4894 77.4278 47.016 76.304 48.9025C75.8624 49.6428 75.4724 50.3907 75.0961 51.0267C74.1365 52.5328 73.4442 53.8315 72.901 54.8224C72.4119 55.6849 72.0255 56.2636 71.7847 56.6007C71.5727 57.0103 71.3971 57.3487 71.362 57.5993C71.2341 57.9923 71.6104 58.3472 72.1535 58.3472C73.5934 58.3472 75.3632 56.5639 79.1613 51.2595L79.89 51.4936L79.3582 52.2428ZM72.3115 45.1551C71.658 45.1551 71.0409 45.7135 69.7678 47.5109C68.5745 49.231 67.4359 50.9894 66.3536 52.7834C65.1934 54.694 64.6941 55.8312 64.4195 56.8729C64.205 57.7595 64.5474 58.3485 65.2009 58.304C66.3536 58.304 67.9039 56.8526 69.7389 54.058C71.5188 51.5712 72.876 48.8859 73.2146 47.4167C73.5119 46.1905 73.1055 45.1551 72.3115 45.1551Z" fill="white"/>
<path fill-rule="evenodd" clip-rule="evenodd" d="M90.386 52.4933C88.5045 55.1493 87.3443 56.3743 85.7099 57.5992C84.2725 58.6372 82.5579 59.3114 81.1832 59.3114C78.499 59.3114 77.1343 57.2367 77.8643 54.2627C79.0358 49.6415 84.5685 44.4618 88.3214 44.4618C90.1928 44.4618 91.0871 45.6766 90.598 47.5096C89.9808 50.0332 87.2853 50.5281 87.6566 48.9012C87.979 47.4803 89.4729 48.4445 89.7212 47.4154C90.0348 46.146 89.4729 45.2097 88.4305 45.2097C87.7294 45.2097 86.8802 45.7135 85.957 46.8443C83.8298 49.5206 80.6752 54.9738 80.2149 56.8716C79.974 57.8804 80.5284 58.5431 81.6523 58.5431C83.2942 58.5431 85.5155 57.2367 87.2854 55.2536C88.3753 53.9678 89.4098 52.6348 90.386 51.2582L91.1336 51.4923L90.386 52.4933Z" fill="white"/>
<path fill-rule="evenodd" clip-rule="evenodd" d="M97.7437 52.978C94.322 57.6285 92.4042 59.3114 90.3484 59.3114C88.5033 59.3114 87.4346 57.8804 87.8862 56.0665C88.0981 55.3936 88.3101 55.0107 89.4729 52.8864L94.2028 44.6857C94.9604 44.7875 95.3003 44.7875 95.8723 44.7875C96.5183 44.7875 96.8682 44.7875 97.6521 44.6857L91.6478 55.0107L90.9943 56.2624C90.6807 56.8513 90.4211 57.3487 90.3308 57.6285C90.2543 58.0763 90.5678 58.4783 90.9943 58.4783C91.8698 58.4783 93.0589 57.5993 94.6531 55.7205C95.6302 54.6342 96.3602 53.6509 98.0824 51.2583L98.8111 51.4923L97.7437 52.978ZM97.1642 43.2738C96.1758 43.2738 95.6691 42.8044 95.8447 42.0463C96.0843 41.1393 97.183 40.3748 98.2994 40.3748C99.23 40.3748 99.7443 40.8989 99.57 41.6469C99.3492 42.5614 98.3169 43.2738 97.1642 43.2738Z" fill="white"/>
<path fill-rule="evenodd" clip-rule="evenodd" d="M106.062 54.9166C103.812 57.9478 101.885 59.3114 99.9224 59.3114C97.3762 59.3114 95.8723 57.3118 96.5195 54.6927C97.7173 49.8755 103.352 44.4898 107.281 44.4898C109.244 44.4898 110.185 45.8458 109.631 48.0527C109.291 49.3922 108.719 50.6642 107.132 53.3265L106.625 54.1788C107.631 54.1788 108.376 53.5797 109.992 51.2595L110.711 51.4935C108.765 54.2055 107.888 54.9166 106.062 54.9166ZM104.329 52.978C104.716 51.3434 106.146 50.0345 107.463 50.0345C107.601 50.0345 107.824 50.0345 108.006 50.0892C108.459 49.3235 108.597 48.8846 108.718 48.3504C109.195 46.4894 108.718 45.2645 107.492 45.2645C106.366 45.2645 105.555 46.0251 103.592 48.7625C102.502 50.1668 101.591 51.7365 100.474 53.7018C99.4232 55.5627 99.1209 56.2636 98.9528 56.9569C98.6756 57.9478 99.1648 58.5838 100.161 58.5838C101.757 58.5838 103.48 57.2367 105.307 54.8224C104.439 54.5438 104.107 53.8875 104.329 52.978ZM130.581 52.6053C126.451 58.0763 125.104 59.3101 122.965 59.3101C121.13 59.3101 120.29 58.3014 120.596 56.2344C118.632 58.5418 117.516 59.216 116.123 59.216C113.957 59.216 113.024 57.3474 113.668 54.6914C114.897 49.7521 120.366 44.3219 124.055 44.3219C125.261 44.3219 125.787 45.0329 125.841 46.4881L134.122 32.2936C134.659 32.4603 134.945 32.4603 135.626 32.4603C136.418 32.4603 136.806 32.4603 137.6 32.2936L124.633 54.6342L123.759 56.1593C123.379 56.6809 123.103 57.2355 123.066 57.5433C122.945 57.991 123.251 58.3459 123.759 58.3459C124.967 58.3459 126.386 56.9543 130.175 51.9489L130.694 51.2582L131.419 51.4923L130.581 52.6053ZM123.969 45.2098C123.057 45.2645 122.447 45.9106 120.512 48.9012C119.782 50.0892 118.961 51.3434 118.077 52.8864C116.97 54.8593 116.435 55.9278 116.068 57.0854C115.901 57.7214 116.299 58.2251 116.852 58.2251C117.772 58.2251 119.284 56.8717 121.156 54.2627C122.964 51.851 124.356 49.0971 124.78 47.3582C125.102 46.0251 124.773 45.1551 123.969 45.2098ZM33.7856 19.1549L32.5413 20.7742C30.5307 23.5116 29.1923 24.5216 27.7073 24.5216C26.4078 24.5216 25.7631 23.5599 26.1055 22.1836C26.2886 21.5107 26.6022 20.7742 27.4602 19.3521L35.9806 4.66913L36.3494 4.71747H37.1333C37.4469 4.71747 37.7793 4.71747 38.5344 4.62207L29.2312 20.6228C29.0556 20.8849 28.7245 21.4369 28.3344 22.2688C27.9656 22.8769 27.9217 23.0753 27.864 23.3462C27.8089 23.6719 27.9481 23.8601 28.2905 23.8601C28.8349 23.8601 29.59 23.4124 30.5495 22.3439C31.2306 21.6621 31.785 20.8861 33.2412 18.9692L33.5473 18.6219L34.0979 18.7619C33.9599 18.9692 33.7856 19.0913 33.7856 19.1549ZM176.135 52.978C172.696 57.6285 170.814 59.3114 168.756 59.3114C166.903 59.3114 165.833 57.8804 166.304 56.0665C166.451 55.3936 166.684 55.0107 167.882 52.8864L172.583 44.6857C173.33 44.7874 173.69 44.7874 174.261 44.7874C174.898 44.7874 175.248 44.7874 176.032 44.6857L170.02 55.0107L169.383 56.2624C169.098 56.8513 168.839 57.3487 168.748 57.6285C168.719 57.7296 168.713 57.8363 168.733 57.94C168.752 58.0436 168.795 58.141 168.859 58.2242C168.923 58.3073 169.006 58.3738 169.1 58.418C169.195 58.4621 169.298 58.4828 169.402 58.4782C170.22 58.4782 171.466 57.5993 173.034 55.7205C174.021 54.6342 174.788 53.6509 176.484 51.2582L177.211 51.4923L176.135 52.978ZM175.552 43.2737C174.604 43.2737 174.067 42.8044 174.261 42.0462C174.477 41.1393 175.628 40.3748 176.706 40.3748C177.603 40.3748 178.146 40.8989 177.978 41.6468C177.729 42.5614 176.706 43.2737 175.552 43.2737ZM198.468 52.3827C196.246 55.3936 195.782 55.9278 194.744 57.0116C193.441 58.4324 191.791 59.3127 190.501 59.3127C188.793 59.3127 187.725 57.9491 188.129 56.3209C188.305 55.6098 188.738 54.6939 189.275 53.8888C189.771 53.198 190.426 52.1397 191.34 50.7838C192.897 48.6048 193.542 47.3607 193.718 46.5657C193.875 46.0264 193.772 45.716 193.274 45.2123L192.721 45.9603L191.133 48.3529L189.372 50.6655L188.811 51.4948L188.056 51.2608L188.627 50.4658C189.485 49.2408 190.138 48.3517 190.482 47.9243L192.16 45.5125L192.767 44.631C192.086 44.0242 191.816 43.406 191.991 42.6606C192.279 41.5451 193.451 40.516 194.509 40.516C195.267 40.516 195.599 40.9014 195.432 41.6023C195.256 42.2752 194.936 42.901 193.911 44.3868C196.011 45.847 196.463 46.4169 196.106 47.9052C195.859 48.7651 195.412 49.7191 194.065 51.8535C193.081 53.4143 192.48 54.4624 192.14 55.0132L191.071 56.7152C190.832 57.1248 190.645 57.5471 190.601 57.8282C190.48 58.2276 190.765 58.5456 191.125 58.5456C191.76 58.5456 192.729 57.9491 193.651 57.1248C194.778 56.041 195.78 54.8237 197.828 51.9527L198.365 51.262L199.103 51.4961L198.468 52.3827Z" fill="white"/>
<path fill-rule="evenodd" clip-rule="evenodd" d="M208.749 52.3827C206.52 55.3936 206.14 55.9278 205.089 57.0116C203.705 58.4324 202.09 59.3127 200.8 59.3127C199.104 59.3127 198.004 57.9491 198.421 56.3209C198.598 55.6098 199.049 54.694 199.575 53.8888C200.056 53.1981 200.747 52.1397 201.64 50.7838C203.171 48.6048 203.815 47.3608 204.046 46.5657C204.159 46.0264 204.075 45.716 203.612 45.2123L203.051 45.9603L201.483 48.3529L199.666 50.6655L199.115 51.4948L198.421 51.2608L198.938 50.4658C199.833 49.2408 200.47 48.3517 200.763 47.9243L202.434 45.5125L203.097 44.631C202.388 44.0242 202.128 43.406 202.314 42.6606C202.571 41.5451 203.732 40.516 204.83 40.516C205.596 40.516 205.927 40.9014 205.77 41.6023C205.596 42.2752 205.217 42.9011 204.223 44.3868C206.327 45.8471 206.758 46.4169 206.408 47.9052C206.204 48.7651 205.724 49.7191 204.359 51.8535C203.419 53.4143 202.801 54.4625 202.434 55.0132L201.39 56.7152C201.113 57.1248 200.966 57.5471 200.866 57.8282C200.8 58.2276 201.069 58.5456 201.427 58.5456C202.09 58.5456 203.087 57.9491 203.972 57.1248C205.096 56.041 206.093 54.8237 208.169 51.9528L208.668 51.2621L209.413 51.4961L208.749 52.3827Z" fill="white"/>
<path fill-rule="evenodd" clip-rule="evenodd" d="M216.596 54.9166C214.367 57.9478 212.466 59.3114 210.504 59.3114C207.893 59.3114 206.435 57.3118 207.052 54.6927C208.28 49.8756 213.933 44.4898 217.844 44.4898C219.806 44.4898 220.777 45.8458 220.186 48.0527C219.88 49.3922 219.299 50.6642 217.704 53.3266L217.205 54.1788C218.194 54.1788 218.912 53.5797 220.561 51.2595L221.291 51.4936C219.298 54.2055 218.46 54.9166 216.596 54.9166ZM214.89 52.978C215.297 51.3435 216.679 50.0346 218.024 50.0346C218.127 50.0346 218.35 50.0346 218.587 50.0893C218.977 49.3235 219.158 48.8847 219.297 48.3504C219.738 46.4894 219.223 45.2645 218.053 45.2645C216.926 45.2645 216.068 46.0251 214.159 48.7625C213.074 50.1668 212.144 51.7365 210.997 53.7018C209.966 55.5628 209.652 56.2637 209.496 56.9569C209.249 57.9478 209.735 58.5838 210.721 58.5838C212.289 58.5838 214.034 57.2367 215.821 54.8224C215.011 54.5439 214.668 53.8875 214.89 52.978ZM58.4339 19.361C56.6352 15.3592 51.3421 18.959 51.3421 18.959C37.6037 12.1703 27.1015 31.8001 27.1015 31.8001C21.8346 27.245 12.4186 31.6958 12.4186 31.6958C-2.30564 40.1217 1.21518 53.5059 1.21518 53.5059C4.02858 69.8412 24.2956 62.2282 24.2956 62.2282C38.1656 57.5916 42.5181 38.4095 42.5181 38.4095C44.032 31.6958 51.3421 20.4829 51.3421 20.4829C56.5261 23.4493 55.687 29.4799 55.687 29.4799C56.3944 38.3421 44.3055 39.113 44.3055 39.113C58.1203 40.4117 57.8908 29.8081 57.8908 29.8081C58.38 23.6528 52.634 19.5098 52.634 19.5098C55.7321 16.387 58.4339 19.361 58.4339 19.361ZM37.1334 38.8789C37.1334 38.8789 30.1068 59.8826 18.063 62.3325C18.063 62.3325 1.89 65.8204 2.61749 49.4825C2.61749 49.4825 3.32742 33.1561 19.7688 30.5001C19.7688 30.5001 23.8917 30.1261 26.6938 32.8381C26.1507 34.4637 25.0344 38.1221 26.0115 39.7859C26.0115 39.7859 26.3175 35.0171 27.1642 33.3227C29.2313 35.7904 30.246 40.3748 27.5329 48.7791C27.5329 48.7791 25.2489 54.1101 18.7741 57.7405C18.7741 57.7405 34.2673 52.3166 29.4257 35.0616C29.4257 35.0616 28.9553 33.4258 27.5806 32.3127C27.5806 32.3127 39.1264 13.0492 50.1831 20.3239C50.1819 20.3239 41.0079 29.2828 37.1334 38.8789ZM11.7287 0.855633C15.2044 -0.660617 20.1376 2.6212 20.1376 2.6212C22.1658 0.537628 25.1171 0.0987785 25.1171 0.0987785C32.0434 -0.696235 30.5495 3.56885 30.5495 3.56885C29.3316 6.27063 26.3727 6.29862 26.3727 6.29862C23.2169 6.82142 20.3872 4.47453 20.3872 4.47453C19.3173 6.35458 20.8024 6.97152 20.8024 6.97152C23.9757 6.97152 23.3197 8.62641 23.3197 8.62641C22.0466 10.0765 20.8024 8.26262 20.8024 8.26262C20.4624 7.93444 19.4301 8.21428 19.4301 8.21428C11.9407 9.53209 9.545 16.1428 9.545 16.1428C6.41802 24.4784 14.4681 24.43 14.4681 24.43C19.3173 24.8409 21.2175 22.3439 21.2175 22.3439C27.2294 16.5015 23.6797 13.4614 23.6797 13.4614C18.4781 8.42289 11.9407 18.3816 11.9407 18.3816C18.1746 6.56192 25.1171 12.9093 25.1171 12.9093C31.0375 19.6688 19.9908 24.4784 19.9908 24.4784C6.15838 29.6682 6.4544 17.6222 6.4544 17.6222C6.8332 8.3364 19.5029 7.11144 19.5029 7.11144C18.8645 6.40928 19.5029 3.35007 19.5029 3.35007C16.2455 1.00446 13.2214 1.00446 13.2214 1.00446C8.56539 1.21052 11.3412 4.81925 11.3412 4.81925C8.78614 1.77149 11.7287 0.855633 11.7287 0.855633ZM27.2294 4.8854C31.6659 4.04459 29.4244 1.66718 29.4244 1.66718C25.1648 -1.5116 21.2903 3.30554 21.2903 3.30554C22.443 5.81015 27.2294 4.8854 27.2294 4.8854ZM183.362 20.6229C183.362 20.6229 172.955 27.0567 163.872 42.1506L159.472 42.2053C159.472 42.2053 160.919 33.5657 173.287 21.0146L169.69 22.6047C169.69 22.6047 159.83 23.5218 155.608 22.1277C155.608 22.1277 149.116 20.8187 146.535 26.104C146.535 26.104 142.808 34.0249 150.611 34.3887C150.611 34.3887 155.266 35.3529 159.278 29.4125C159.278 29.4125 155.452 33.567 151.958 33.67C151.958 33.67 145.427 34.7995 146.24 28.4878C146.24 28.4878 147.888 22.7382 152.592 22.9977C152.592 22.9977 156.067 23.0753 156.742 23.56C156.742 23.56 161.529 25.6092 167.602 23.9886C167.602 23.9886 157.009 34.0249 153.273 42.7789H149.245V43.7699H152.391C152.391 43.7699 147.888 55.8286 139.147 61.6011C139.147 61.6011 135.734 64.4656 127.26 60.6025C127.26 60.6025 131.833 65.1385 139.053 63.1262C139.053 63.1262 150.128 61.6685 158.669 43.4595H162.892C162.892 43.4595 158.446 50.088 158.446 55.2778C158.446 55.2778 157.701 66.5022 168.868 60.8353C168.868 60.8353 156.014 67.0987 168.109 43.4022H170.481V42.3732H169.016C169.016 42.3744 171.081 34.175 183.362 20.6229Z" fill="white"/>
<path fill-rule="evenodd" clip-rule="evenodd" d="M139.719 55.4585C137.534 57.8511 135.008 59.1804 132.648 59.1804C129.934 59.1804 128.441 57.3118 129.06 54.694C130.224 50.046 136.022 44.4059 139.711 44.4059C141.637 44.4059 142.624 45.8165 142.127 47.8569C141.24 51.3753 136.066 51.3994 133.918 51.608C133.627 52.2313 131.965 55.8439 131.836 56.3756C131.478 57.7595 131.89 58.4999 133.11 58.4999C135.645 58.4999 138.431 56.3209 141.861 51.7849L142.265 51.1692L143.013 51.3753C141.637 53.3265 140.889 54.2157 139.719 55.4585ZM140.742 47.7983C142.698 44.8244 139.424 45.3688 139.424 45.3688C136.214 46.3431 134.72 50.5408 134.72 50.5408C139.211 50.9886 140.742 47.7983 140.742 47.7983ZM185.586 55.4585C183.325 57.8511 180.802 59.1804 178.467 59.1804C175.755 59.1804 174.233 57.3118 174.897 54.694C176.031 50.046 181.822 44.4059 185.502 44.4059C187.427 44.4059 188.435 45.8165 187.928 47.8569C187.051 51.3753 181.916 51.3994 179.749 51.608C179.438 52.2313 177.803 55.8439 177.646 56.3756C177.35 57.7595 177.7 58.4999 178.908 58.4999C181.483 58.4999 184.259 56.3209 187.688 51.7849L188.13 51.1692L188.85 51.3753C187.429 53.3265 186.711 54.2157 185.586 55.4585ZM186.563 47.7983C188.516 44.8244 185.242 45.3688 185.242 45.3688C182.053 46.3431 180.541 50.5408 180.541 50.5408C185.041 50.9886 186.563 47.7983 186.563 47.7983Z" fill="white"/>
</svg>
