<svg width="139" height="60" viewBox="0 0 139 60" fill="none" xmlns="http://www.w3.org/2000/svg">
<path d="M68.7217 17.6686C71.8481 18.8459 73.9588 20.8886 73.9588 20.8886C74.0317 19.8672 74.2713 18.8459 74.5838 18.061C74.5838 18.061 73.5629 16.0978 70.5969 14.056C67.3933 11.8575 63.721 11.2295 63.721 11.2295C62.9386 12.8776 62.3916 14.6055 62.1572 16.4117C62.1572 16.4117 64.8148 16.1763 68.7217 17.6685V17.6686Z" fill="white"/>
<path d="M70.9863 11.1609C74.0294 14.1443 75.1233 17.1289 75.1233 17.1289C75.6755 16.1861 76.3735 15.4012 77.311 14.7723C77.311 14.7723 76.1442 11.2393 74.3419 8.64727C72.55 5.97768 69.5787 3.85742 69.5787 3.85742C68.0941 4.95625 66.844 6.29158 65.75 7.70541C65.75 7.70541 68.7191 9.03966 70.9861 11.1609H70.9863Z" fill="white"/>
<path d="M76.2982 7.46037C77.7047 10.9933 78.0172 14.3703 78.0172 14.3703C78.9548 13.8994 80.1217 13.507 81.1426 13.4285C81.1426 13.4285 81.2156 10.0515 80.4342 6.51757C79.5799 2.43416 78.6424 0 78.6424 0C76.84 0.156966 75.121 0.70637 73.4854 1.41379C73.4854 1.41379 75.3606 5.02524 76.2982 7.46035L76.2982 7.46037Z" fill="white"/>
<path d="M71.3057 29.6154C75.1302 27.8092 78.964 28.2016 78.964 28.2016C77.5576 27.6522 76.3804 26.7888 75.5261 25.6889C75.5261 25.6889 72.1611 25.2965 69.5858 25.7674C65.601 26.6307 63.8818 27.966 63.8818 27.966C64.6632 29.6152 65.6789 31.186 66.9291 32.5214C66.9291 32.5214 68.4918 30.9506 71.3057 29.6152V29.6154Z" fill="white"/>
<path d="M68.4024 23.8731C72.2331 23.7162 74.8896 24.7375 74.8896 24.7375C74.4208 23.8731 74.1083 22.8529 74.0249 21.8314C74.0249 21.8314 70.9036 20.1037 68.0897 19.7113C64.183 19.1619 61.916 19.9468 61.916 19.9468C61.9942 21.753 62.2286 23.5592 62.7755 25.2869C62.7755 25.2869 65.2768 24.0301 68.4023 23.8731L68.4024 23.8731Z" fill="white"/>
<path d="M81.5289 32.5977C87.0818 32.5977 89.5091 37.3874 89.5091 37.3874C91.2281 36.6025 92.7909 35.6597 94.2701 34.4028C94.2701 34.4028 89.582 28.5132 81.5287 28.5132C73.5589 28.5132 68.874 34.4028 68.874 34.4028C70.2805 35.6596 71.9224 36.6025 73.6423 37.3874C73.6423 37.3874 76.0593 32.5975 81.5287 32.5977H81.5289Z" fill="white"/>
<path d="M4.01133 44.8475V51.9155H6.9023C10.0287 51.9155 11.4352 50.6587 11.4352 48.3816C11.4352 46.1044 10.1069 44.8477 6.9023 44.8477L4.01133 44.8475ZM4.01133 58.119H6.04291V59.7683H0.103532V58.119H2.13511L2.13509 44.769H0.103516V43.1982L6.90229 43.1983C10.6538 43.1983 13.2323 44.8475 13.2323 48.3814C13.2323 51.9154 10.6538 53.5637 6.90229 53.5637H4.01131L4.01133 58.119Z" fill="white"/>
<path d="M24.1722 53.167C24.1722 50.9684 22.5315 49.2406 20.2656 49.2406C17.9997 49.2405 16.3578 50.9683 16.3578 53.167H24.1722ZM25.5797 56.387C25.0328 58.4287 23.1564 59.9994 20.2655 59.9994C16.7483 59.9994 14.5605 57.8007 14.5605 53.7948C14.5605 50.0264 16.8264 47.5913 20.2655 47.5913C24.016 47.5913 26.361 50.4974 25.8922 54.7378L16.3577 54.7378C16.514 56.544 17.7651 58.4287 20.2655 58.4288C21.9063 58.4288 23.0783 57.7214 23.7034 56.3872L25.5797 56.387Z" fill="white"/>
<path d="M31.9878 58.193H33.864V59.7638L28.3154 59.7638V58.193H30.1907V49.3973H28.3154V47.905H31.8315V49.5542C32.5347 48.2985 34.2548 47.1201 36.5988 47.905V49.6327C33.786 48.8478 31.9878 50.3401 31.9878 53.0882V58.193Z" fill="white"/>
<path d="M50.3466 58.1929H52.2219L52.2219 59.7636H46.7513V58.1929H48.6276L48.6275 53.1666C48.6275 50.4186 46.9856 49.2402 45.1104 49.2402C43.3132 49.2402 41.7506 50.497 41.7506 53.3236V58.1929H43.6259V59.7636H38.1553V58.1929H40.0305V49.3971H38.1553V47.9048L41.6725 47.9049V49.5541C42.2975 48.6123 43.6259 47.6694 45.5011 47.6694C48.0806 47.6694 50.3466 49.1617 50.3466 53.1667V58.1929Z" fill="white"/>
<path d="M59.5819 58.4292C61.9259 58.4292 63.5678 56.7799 63.5678 53.7953C63.5678 50.8118 61.9259 49.241 59.5819 49.241C57.316 49.241 55.597 50.8118 55.597 53.7953C55.5971 56.7799 57.316 58.4292 59.582 58.4292H59.5819ZM59.5819 47.5918C63.2552 47.5918 65.3649 50.2625 65.3649 53.7953C65.3649 57.4077 63.2552 59.9999 59.5819 59.9999C55.9876 59.9999 53.877 57.4079 53.877 53.7953C53.877 50.2623 55.9876 47.5918 59.5819 47.5918Z" fill="white"/>
<path d="M69.1838 53.794C69.1838 56.8571 70.982 58.4279 73.1707 58.4279C75.3584 58.4279 77.1504 56.8571 77.1504 53.794C77.1504 50.8106 75.3586 49.2398 73.1707 49.2398C70.9819 49.2398 69.1838 50.8105 69.1838 53.794ZM78.7965 58.1925H80.6718V59.7632H77.1504V58.0355C76.4524 59.1343 74.8897 59.9987 73.0146 59.9987C69.6527 59.9987 67.4648 57.3281 67.4648 53.794C67.4648 50.2611 69.6526 47.5905 73.0146 47.5905C74.8064 47.5905 76.2963 48.3764 77.0775 49.5537V44.6855L75.2023 44.6855V43.1147H78.7965V58.1925Z" fill="white"/>
<path d="M92.4713 44.8474V50.9724H96.2947C98.7951 50.9724 99.816 49.7941 99.816 47.9093C99.816 46.1041 98.7951 44.8474 96.2947 44.8474H92.4713ZM88.5645 43.1196H96.2947C99.4202 43.1196 101.691 44.8474 101.691 47.9093C101.691 50.58 100.045 52.1508 97.6283 52.6216L100.285 58.1189H102.473V59.7681H99.0348L95.5969 52.7001H92.4715V58.1189H94.2633V59.7681L88.5646 59.7681V58.1189H90.5962L90.5962 44.7689H88.5646L88.5645 43.1196Z" fill="white"/>
<path d="M106.3 45.39H108.259V43.1128H106.3V45.39ZM108.259 58.1905H110.134V59.7613H104.581V58.1905H106.456V49.3948H104.581V47.9025H108.259V58.1905Z" fill="white"/>
<path d="M123.192 55.4431C122.566 58.1138 120.764 59.9985 117.482 59.9985C113.888 59.9985 111.773 57.4064 111.773 53.7938C111.773 50.2609 113.888 47.5903 117.482 47.5903C119.201 47.5903 120.764 48.4547 121.473 49.5535V47.9042H123.108V52.2242H121.233C120.691 50.5749 119.587 49.2396 117.482 49.2396C115.211 49.2396 113.492 50.8103 113.492 53.7938C113.492 56.7784 115.211 58.4277 117.482 58.4277C119.514 58.4277 120.848 57.1709 121.389 55.4431H123.192Z" fill="white"/>
<path d="M127.099 53.7939C127.099 56.8569 128.818 58.4277 131.006 58.4277C133.194 58.4277 134.986 56.8569 134.986 53.7939C134.986 50.8104 133.194 49.2396 131.006 49.2396C128.818 49.2396 127.099 50.8104 127.099 53.7939ZM134.913 47.9042L138.507 47.9043V49.3965H136.632V58.1923H138.507V59.763H134.913V58.0353C134.204 59.2126 132.642 59.9985 130.85 59.9985C127.485 59.9985 125.297 57.3279 125.297 53.7938C125.297 50.2609 127.485 47.5903 130.85 47.5903C132.641 47.5903 134.204 48.3762 134.913 49.5535L134.913 47.9042Z" fill="white"/>
</svg>
