<svg width="179" height="53" viewBox="0 0 179 53" fill="none" xmlns="http://www.w3.org/2000/svg">
<path d="M58.0032 5.43371C57.7031 5.43371 57.4603 14.9409 57.4603 26.6673C57.4603 38.3938 57.7031 47.9043 58.0032 47.9043C58.3033 47.9043 58.5596 38.3904 58.5596 26.6673C58.5596 14.9443 58.3168 5.43371 58.0133 5.43371" fill="#011028"/>
<path d="M79.5873 21.3774C79.5873 20.0163 79.1815 19.0844 78.37 18.5815C77.5607 18.0753 76.1141 17.8273 74.0201 17.8273H72.1925V24.723H74.0707C75.1843 24.7531 76.298 24.6632 77.3921 24.4548C78.0594 24.3372 78.6597 23.9791 79.0781 23.4491C79.4618 22.8221 79.6431 22.0932 79.5974 21.3606L79.5873 21.3774ZM88.4421 21.3204C88.4443 22.3855 88.2595 23.4429 87.8958 24.4448C87.5002 25.495 86.8971 26.4558 86.1222 27.2708C85.191 28.2198 84.057 28.9485 82.8041 29.4028C81.2327 29.9754 79.5678 30.2516 77.8945 30.2175H72.1925V40.9449H63.5097V12.3328H77.8844C79.5589 12.2977 81.2249 12.5787 82.794 13.1608C84.0474 13.6221 85.1811 14.3563 86.112 15.3097C86.8946 16.136 87.5013 17.1109 87.8958 18.1759C88.2566 19.1913 88.4413 20.2603 88.4421 21.3372" fill="#011028"/>
<path d="M120.988 28.1323C120.988 30.5907 120.529 32.6792 119.609 34.3978C118.756 36.0487 117.499 37.4598 115.954 38.5011C114.454 39.4937 112.795 40.2259 111.048 40.6667C109.334 41.0983 107.573 41.3178 105.804 41.3204C103.377 41.3277 100.967 40.9089 98.6862 40.0834C96.392 39.2658 94.3856 37.8044 92.91 35.8762C91.3656 33.8938 90.5934 31.3126 90.5934 28.1323V12.3328H99.256V25.903C99.256 27.787 99.5292 29.3514 100.075 30.5963C100.531 31.7148 101.331 32.6609 102.362 33.2983C103.414 33.8584 104.59 34.1515 105.784 34.1515C106.978 34.1515 108.154 33.8584 109.207 33.2983C110.242 32.6737 111.047 31.7329 111.5 30.6164C112.049 29.3894 112.322 27.8373 112.322 25.95V12.3328H121.002L120.988 28.1323Z" fill="#011028"/>
<path d="M150.82 38.8095C149.652 39.4182 148.428 39.9155 147.165 40.2946C145.933 40.662 144.672 40.9278 143.395 41.0891C142.09 41.2472 140.775 41.3244 139.46 41.3204C137.17 41.3573 134.89 41.0105 132.716 40.2946C130.797 39.6468 129.035 38.6078 127.544 37.2439C126.107 35.946 124.986 34.3414 124.263 32.5507C123.518 30.6658 123.147 28.6555 123.17 26.6305C123.122 24.4057 123.56 22.1969 124.455 20.1571C125.275 18.3595 126.51 16.7792 128.059 15.5443C129.627 14.3092 131.42 13.3871 133.34 12.8289C135.366 12.2378 137.467 11.943 139.578 11.954C142.847 11.954 146.55 12.6759 150.689 14.1196V21.7126C149.341 20.8688 147.928 20.1323 146.464 19.5101C144.901 18.8947 143.231 18.596 141.551 18.6318C139.93 18.6216 138.327 18.9649 136.854 19.6375C135.456 20.2561 134.248 21.2324 133.353 22.4669C132.515 23.6774 132.052 25.1061 132.023 26.5756C131.993 28.0452 132.399 29.4911 133.188 30.7337C133.989 31.9605 135.104 32.9533 136.419 33.61C137.864 34.3318 139.464 34.6953 141.082 34.6694C142.421 34.6756 143.754 34.5054 145.048 34.1632C146.13 33.8863 147.183 33.508 148.194 33.0334C149.096 32.5946 149.972 32.1067 150.82 31.5718V38.8095Z" fill="#011028"/>
<path d="M169.474 21.3774C169.474 20.0163 169.066 19.0844 168.26 18.5815C167.454 18.0787 165.994 17.8273 163.904 17.8273H162.079V24.723H163.947C165.063 24.7527 166.179 24.6628 167.276 24.4548C167.943 24.3378 168.544 23.9796 168.962 23.4491C169.35 22.8237 169.532 22.0938 169.484 21.3606L169.474 21.3774ZM178.329 21.3204C178.33 22.3802 178.144 23.432 177.779 24.428C177.388 25.4809 176.783 26.4428 176.002 27.254C175.075 28.206 173.941 28.9352 172.688 29.3861C171.116 29.9595 169.451 30.2357 167.778 30.2007H162.079V40.9282H153.397V12.3328H167.768C169.442 12.2968 171.109 12.5778 172.678 13.1608C173.932 13.6187 175.065 14.3534 175.992 15.3097C176.777 16.1333 177.382 17.1091 177.769 18.1759C178.133 19.1907 178.319 20.2599 178.319 21.3372" fill="#011028"/>
<path d="M45.3853 17.7435C45.8304 18.6318 46.5486 19.0073 47.7456 18.4541L50.6658 17.1132L50.5815 16.3053L47.3882 17.7736C46.7678 18.0485 46.3463 17.8843 46.1102 17.4116C45.8742 16.9389 46.0259 16.5567 46.6093 16.245L49.7317 14.609L49.1349 14.0492L46.262 15.5577C45.1829 16.1444 44.9368 16.8383 45.3853 17.7367V17.7435ZM8.24964 16.8383C8.72846 15.9667 8.58684 15.2694 7.45722 14.6124L4.66522 13.01L4.04815 13.543L7.10991 15.2896C7.68652 15.6248 7.8214 15.96 7.56513 16.436C7.30886 16.9121 6.95817 16.9422 6.3647 16.6472L3.22876 15.0448L3.10737 15.8527L6.00053 17.3244C7.10317 17.8641 7.76745 17.7166 8.24964 16.8383ZM47.5636 25.7421L48.3762 25.6784L48.238 24.0726L49.5867 23.9553L49.6812 25.1018L50.4904 25.0381L50.4061 23.8849L51.7752 23.7642L51.9168 25.3868L52.7092 25.3197L52.5136 22.9463L47.3612 23.3653L47.5636 25.7421ZM31.9479 5.72871L30.353 5.39348L30.6194 4.06931L31.7523 4.29727L31.9209 3.52288L30.7846 3.28152L31.051 1.94059L32.656 2.2557L32.8145 1.48132L30.4575 1.01199L29.4459 6.04048L31.8063 6.51316L31.9479 5.72871ZM24.7589 5.89968L24.6273 5.09848L23.0257 5.37002L22.7964 4.02908L23.9327 3.84135L23.8046 3.0435L22.6547 3.22453L22.4221 1.8836L24.0339 1.6087L23.899 0.830965L21.5386 1.22319L22.3917 6.29191L24.7589 5.89968ZM5.72065 26.2584L4.90801 26.3087L5.01591 27.9178L3.66712 28.0116L3.59631 26.8651L2.78366 26.9121L2.84435 28.0653L1.46521 28.1658L1.35731 26.5433L0.561523 26.5869L0.713263 28.9637L5.87239 28.6285L5.72065 26.2584ZM39.282 48.9503L37.1273 45.1755L37.7477 44.8202L39.8957 48.5949L39.282 48.9503ZM37.6533 49.7582L35.7583 45.8494L36.4023 45.541L38.294 49.4565L37.6533 49.7582ZM34.7163 50.8946L31.7186 47.2909L32.393 47.0763L34.1195 49.0877L34.3353 46.4494L35.0097 46.2349L34.7163 50.8946ZM30.9633 51.8165L29.7528 50.3582L28.9502 52.0545L28.2455 52.145L29.3245 49.7984L27.7228 47.8172L28.4309 47.72L29.6381 49.2084L30.4406 47.4853L31.1521 47.4149L30.063 49.728L31.668 51.7394L30.9633 51.8165ZM26.6337 52.1953L26.0672 49.4565L24.9072 50.7337L23.9631 49.2922L22.9886 51.9104L22.2805 51.8433L23.7439 47.6093L24.9983 49.5906L26.5595 47.844L27.3384 52.2523L26.6337 52.1953ZM20.318 51.2734C19.5896 51.0857 19.2052 49.9794 19.5154 48.8195C19.8256 47.6596 20.699 46.8819 21.4543 47.0763C21.9534 47.2171 22.2568 47.7468 22.3277 48.4407L21.6195 48.2262C21.5521 47.9949 21.4307 47.8071 21.2823 47.7837C20.9013 47.6864 20.4326 48.2262 20.2168 49.0039C20.001 49.7816 20.1426 50.4957 20.5236 50.5896C20.6233 50.6037 20.725 50.5895 20.817 50.5486C20.9089 50.5077 20.9872 50.4417 21.0429 50.3582L21.7747 50.5627C21.3734 51.1092 20.8305 51.4176 20.3314 51.2734H20.318ZM18.2745 50.7806L17.6406 50.4722L18.0857 47.7334L16.5515 48.5145L16.1738 46.8383L14.3091 48.9503L13.6684 48.6452L16.5346 45.1755L17.0303 47.4618L19.0838 46.3757L18.2745 50.7806ZM26.7112 47.2741C21.9625 47.2585 17.363 45.6236 13.6808 42.6425C9.99853 39.6615 7.45654 35.5146 6.47935 30.8946H0.787446C1.82504 36.9859 4.9985 42.5151 9.74527 46.5022C14.492 50.4893 20.5055 52.6768 26.7197 52.6768C32.9338 52.6768 38.9473 50.4893 43.6941 46.5022C48.4408 42.5151 51.6143 36.9859 52.6519 30.8946H46.9431C45.9648 35.5141 43.4225 39.6602 39.7405 42.6411C36.0585 45.6219 31.4596 47.2573 26.7112 47.2741ZM51.9809 27.254L47.6377 27.0529L47.604 27.844L51.9471 28.0452L51.8999 29.2252L52.7227 29.262L52.8475 26.0941L52.0281 26.0572L51.9809 27.254ZM48.9933 18.7123C47.4826 19.0207 46.5655 20.1705 46.8183 21.421C46.9176 21.9071 47.1862 22.3428 47.577 22.6513L48.1604 22.2121C47.8708 21.9555 47.679 21.6074 47.6175 21.2265C47.4557 20.4421 48.238 19.7113 49.2057 19.5135C50.1735 19.3157 51.1143 19.6878 51.2829 20.5192C51.3459 20.9002 51.2642 21.291 51.0536 21.6154L51.7718 21.8199C51.9215 21.6053 52.0259 21.3628 52.0787 21.1069C52.1314 20.8511 52.1314 20.5873 52.0786 20.3315C51.8291 19.0844 50.5545 18.4106 48.9933 18.7257V18.7123ZM44.4681 15.8494L45.1425 15.3767L44.1747 14.0056L47.7423 11.5349L47.2871 10.8913L43.0485 13.8279L44.4681 15.8494ZM41.9593 10.6265C41.9023 10.7034 41.8293 10.7673 41.7454 10.8138C41.6614 10.8604 41.5685 10.8886 41.4727 10.8966C41.3769 10.9045 41.2805 10.892 41.1899 10.8598C41.0994 10.8277 41.0168 10.7767 40.9477 10.7103C40.7604 10.4951 40.6429 10.2287 40.6105 9.94594L39.8856 10.2812C39.9697 10.6919 40.1779 11.0674 40.4824 11.3573C40.6311 11.4864 40.8047 11.5841 40.9927 11.6443C41.1806 11.7046 41.379 11.7261 41.5756 11.7076C41.7722 11.6891 41.9629 11.6309 42.1361 11.5367C42.3094 11.4424 42.4615 11.3141 42.5831 11.1595C43.6925 9.93924 42.1482 8.97042 42.8327 8.21949C42.8929 8.14986 42.967 8.09328 43.0501 8.05326C43.1333 8.01325 43.2239 7.99065 43.3162 7.98688C43.4085 7.98311 43.5006 7.99824 43.5868 8.03133C43.673 8.06443 43.7515 8.11478 43.8173 8.17927C44.0173 8.40305 44.1464 8.68063 44.1882 8.97712L44.8997 8.69552C44.8182 8.26615 44.6064 7.87189 44.2927 7.56579C44.1514 7.43314 43.9838 7.33108 43.8008 7.26605C43.6177 7.20103 43.423 7.17445 43.2291 7.18799C43.0352 7.20154 42.8462 7.25492 42.6741 7.34476C42.5019 7.43459 42.3504 7.55894 42.2291 7.70994C41.0388 9.01064 42.6337 9.86213 41.9391 10.6298L41.9593 10.6265ZM39.2145 10.1739L42.3066 6.04048L41.6626 5.57451L38.5941 9.71798L39.2145 10.1739ZM38.3547 4.45483L38.7526 4.67273C38.8418 4.71601 38.9206 4.7777 38.984 4.85369C39.0473 4.92967 39.0935 5.01821 39.1197 5.11338C39.1459 5.20856 39.1513 5.30819 39.1357 5.40563C39.1201 5.50306 39.0837 5.59607 39.0291 5.67843C38.993 5.77351 38.9365 5.8596 38.8635 5.9307C38.7905 6.00179 38.7028 6.05617 38.6064 6.09002C38.5101 6.12386 38.4074 6.13637 38.3057 6.12665C38.204 6.11694 38.1056 6.08524 38.0175 6.03378L37.5859 5.79576L38.3547 4.45483ZM36.1966 8.26978L37.2082 6.46958L37.4206 6.59026C37.4735 6.61791 37.5172 6.66013 37.5465 6.71187C37.5758 6.7636 37.5895 6.82265 37.5859 6.88192L37.6601 9.19837L38.5233 9.0978L38.3884 6.82493C38.6696 6.85242 38.9525 6.79317 39.1987 6.65522C39.4448 6.51727 39.6423 6.30731 39.7642 6.05389C40.1654 5.33649 40.1216 4.54534 39.2179 4.04249L38.0276 3.38879L35.4885 7.8742L36.1966 8.26978ZM34.2813 5.00796C34.831 5.2024 35.0029 5.54769 34.831 6.03713C34.8045 6.13587 34.7557 6.22729 34.6882 6.30441C34.6208 6.38153 34.5365 6.4423 34.4419 6.48208C34.3472 6.52187 34.2446 6.53961 34.142 6.53396C34.0394 6.5283 33.9394 6.4994 33.8497 6.44946L33.3439 6.26844L33.8699 4.85711L34.2813 5.00796ZM34.6185 2.80213L35.0906 2.96975C35.1875 2.99191 35.2783 3.03509 35.3564 3.09622C35.4346 3.15734 35.4982 3.2349 35.5427 3.32332C35.5871 3.41174 35.6114 3.50884 35.6137 3.60768C35.616 3.70651 35.5963 3.80462 35.5559 3.89499C35.5262 3.99526 35.4746 4.0878 35.4049 4.16609C35.3353 4.24438 35.2491 4.3065 35.1526 4.34807C35.0562 4.38964 34.9517 4.40963 34.8466 4.40665C34.7415 4.40366 34.6383 4.37777 34.5443 4.33079L34.1094 4.17323L34.6185 2.80213ZM33.8092 7.20709C33.9801 7.2778 34.1642 7.31128 34.3492 7.30528C34.5341 7.29927 34.7157 7.25392 34.8815 7.17228C35.0473 7.09063 35.1937 6.97459 35.3106 6.83198C35.4275 6.68937 35.5123 6.5235 35.5593 6.34554C35.7684 5.75889 35.6504 5.19905 35.1918 4.93421C35.6065 5.01802 36.0685 4.70625 36.3045 4.0492C36.3745 3.88552 36.4086 3.70893 36.4046 3.53114C36.4006 3.35335 36.3587 3.17843 36.2815 3.018C36.2043 2.85758 36.0937 2.7153 35.957 2.60064C35.8203 2.48597 35.6606 2.40153 35.4885 2.35292L34.1161 1.85007L32.3357 6.68748L33.8092 7.20709ZM26.0537 2.12496L27.9251 6.074L28.731 5.82258L28.8626 0.830965L28.0701 0.814203L28.0432 4.65932L26.1076 0.676758L25.3624 0.931535L25.2343 5.9198H26.0233L26.0537 2.12496ZM18.8377 2.82895L20.0785 6.98248L20.8406 6.75117L19.5761 2.59764L20.7057 2.26241L20.4731 1.47461L17.4383 2.40656L17.6676 3.191L18.8377 2.82895ZM14.7947 9.55707L12.7411 6.35225V6.33213L16.4705 8.65194L17.0067 8.00159L14.4136 3.73408L13.7392 4.15312L15.8062 7.39817L12.0263 5.08842L11.5272 5.70525L14.1203 9.96941L14.7947 9.55707ZM13.547 10.5024L10.2762 6.51316L9.66587 7.01936L12.9367 11.0086L13.547 10.5024ZM8.94427 14.8806L9.72657 14.6291L8.86334 12.544L11.0518 12.9798L11.1529 12.1417L8.58347 11.716L7.67303 9.36934L6.8705 9.60736L7.72698 11.6188L5.61949 11.183L5.53857 12.0445L7.97988 12.43L8.94427 14.8806ZM7.36955 18.5447L6.594 18.2765L6.04774 19.8621L1.95078 18.4206L1.69114 19.1682L6.56702 20.8745L7.36955 18.5447ZM1.5394 24.4112L5.86228 24.8772L5.95669 24.0894L1.62033 23.6201L1.74172 22.4468L0.922325 22.3596L0.601987 25.5141L1.41801 25.6013L1.5394 24.4112ZM16.9898 41.5416C16.3924 41.711 15.8121 41.9355 15.2566 42.2121L15.0307 42.3127C18.3124 44.8153 22.3611 46.1176 26.4954 46.0002C27.1698 46.0002 27.8442 45.9298 28.5186 45.8594C31.2099 45.6036 33.8162 44.7845 36.1663 43.4558C35.8189 43.3302 35.5228 43.0946 35.3233 42.7853C35.1986 42.5871 35.1222 42.3627 35.0999 42.1299C35.0777 41.8972 35.1103 41.6625 35.1951 41.4444C35.0292 41.4503 34.8643 41.4728 34.7028 41.5115C34.0691 41.6972 33.4549 41.943 32.8685 42.2456C31.3599 43.0291 29.7017 43.4861 28.0027 43.5865C27.7071 43.5973 27.4134 43.535 27.1479 43.4051C26.8825 43.2752 26.6537 43.0818 26.4819 42.8423C26.3136 42.5948 26.2233 42.303 26.2223 42.0042C26.2243 41.8124 26.2621 41.6226 26.3336 41.4444C26.1676 41.4472 26.0024 41.4686 25.8413 41.5081C25.197 41.6943 24.5725 41.9424 23.9766 42.249C22.4772 43.0312 20.828 43.4883 19.1378 43.5899C18.851 43.5989 18.5664 43.5368 18.3098 43.4092C18.0531 43.2816 17.8324 43.0926 17.6676 42.8591C17.4888 42.6007 17.3936 42.2943 17.3944 41.9808C17.3952 41.7977 17.4283 41.6161 17.4922 41.4444C17.3253 41.4514 17.1593 41.4739 16.9966 41.5115L16.9898 41.5416ZM41.5783 30.3415C41.5783 30.3214 41.5783 30.3013 41.5783 30.2845C41.5798 30.1625 41.538 30.0438 41.4603 29.9493C41.1939 29.5939 40.4487 29.4498 39.6799 29.5906C39.4135 29.6409 39.1741 29.7046 38.9515 29.7683L37.4544 27.8306L38.7526 29.8655C38.4597 29.9607 38.1726 30.0726 37.8927 30.2007L36.0988 27.8306L37.6735 30.3147L37.3161 30.5125L36.7867 30.7706L34.6185 27.8641L36.5372 30.8812C36.2189 31.0205 35.8936 31.1436 35.5627 31.25L33.0202 27.8977L35.2086 31.3673C34.9591 31.4377 34.6961 31.5014 34.4027 31.555L31.6208 27.8306L33.9441 31.612C33.6373 31.659 33.3102 31.6992 32.9325 31.7327C32.6916 31.7192 32.4587 31.6416 32.2581 31.5081V31.4813C32.2088 31.4412 32.1773 31.3834 32.1705 31.3204C32.1688 31.2969 32.1688 31.2734 32.1705 31.25C32.1669 31.1474 32.1991 31.0468 32.2615 30.965L32.5245 30.7773C32.6267 30.645 32.6856 30.4847 32.6931 30.318C32.6956 30.2135 32.6636 30.1111 32.6021 30.0264C32.3559 29.6442 31.5703 29.48 30.7812 29.6308C30.0744 29.768 29.3879 29.9933 28.7378 30.3013C28.1039 28.8296 27.8712 27.073 27.9589 24.4716C30.3032 26.3589 33.3036 27.2471 36.3045 26.9422C36.5068 26.9188 36.7024 26.8785 36.898 26.8417C38.4991 26.6302 39.9939 25.927 41.1737 24.8303C41.5977 24.4631 41.9882 24.0593 42.3404 23.6234C42.3774 23.5828 42.4123 23.5403 42.4449 23.496C42.5191 23.4055 42.5933 23.3251 42.6607 23.2312L43.6487 23.9721C43.6487 23.9721 44.6603 24.7297 44.7446 24.7967C43.9488 27.2909 42.9035 29.1179 41.5716 30.3784L41.5783 30.3415ZM28.259 30.5125C27.1732 27.6026 26.7112 26.3254 26.9709 23.4726C27.1631 23.6704 27.6453 24.143 27.8004 24.3408C27.6992 27.0227 27.9386 28.843 28.5928 30.375C28.4781 30.4287 28.3669 30.4789 28.2556 30.5359L28.259 30.5125ZM28.1173 30.5996C27.9993 30.4454 27.8948 30.2912 27.7801 30.1404L27.7161 30.0331C27.6486 29.9359 27.5879 29.8319 27.5273 29.7347C27.4666 29.6375 27.4193 29.5571 27.3721 29.4699C27.3721 29.4431 27.3418 29.4163 27.3283 29.3894C26.6778 28.2151 26.2395 26.9363 26.0335 25.6114C25.9997 25.37 25.9761 25.1521 25.9593 24.9409C25.939 24.7029 25.939 24.4984 25.939 24.3207C25.939 24.0726 25.939 23.9017 25.939 23.8246C26.1024 23.7617 26.2613 23.6878 26.4145 23.6033C26.5389 23.5355 26.6673 23.4751 26.7989 23.4223C26.5291 26.3522 26.9911 27.6295 28.0904 30.5862L28.1173 30.5996ZM27.5846 30.8008C26.5917 29.4902 25.7597 28.0666 25.1062 26.5601C25.1062 26.5601 24.9511 26.2248 24.9207 26.1679C25.1605 25.7457 25.4553 25.3568 25.7974 25.0113C25.7974 25.1119 25.8244 25.2292 25.8379 25.3465C26.0693 27.2669 26.7965 29.095 27.9487 30.6533L27.5846 30.8075V30.8008ZM25.875 16.6271H32.5953C32.4166 17.0864 31.6883 19.0777 31.6883 20.8745C31.6883 20.9684 31.6883 21.0623 31.6883 21.1528C31.749 22.3998 32.2919 23.895 33.2697 25.4873L33.2967 25.5343C33.6845 26.2852 33.9913 26.7914 33.9913 26.7914C33.992 26.7981 33.992 26.8048 33.9913 26.8115C31.7926 26.5689 29.7086 25.7097 27.9825 24.3341C27.9825 24.3341 27.9622 24.3341 27.9555 24.3107L27.3688 23.7005L26.9473 23.2647L26.9203 23.2312H26.8731C26.6853 23.3008 26.5027 23.3837 26.3268 23.4793L25.8649 23.6972L25.821 23.7139V23.7575C25.7978 24.098 25.7978 24.4396 25.821 24.78L25.7738 24.8303L25.6288 24.9811C24.9851 23.6145 24.6293 22.1315 24.5835 20.6231C24.5747 19.1758 25.0373 17.7646 25.902 16.6003L25.875 16.6271ZM30.235 14.8303H37.9298C37.0227 15.836 35.6773 18.0083 35.6133 20.0264C35.6133 20.1236 35.6133 20.2175 35.6133 20.3147C35.6025 22.2385 36.26 24.107 37.4746 25.6047C36.0516 24.6928 34.6758 24.9342 33.3743 25.3365C32.4335 23.781 31.8973 22.3194 31.8434 21.1159C31.8434 21.0254 31.8434 20.9382 31.8434 20.8444C31.8568 20.0914 31.9564 19.3423 32.1401 18.6117C32.2986 17.9982 32.5077 17.3244 32.7842 16.5467L32.7167 16.4528H28.957C29.2834 15.8413 29.716 15.292 30.235 14.8303ZM32.5953 12.9195C32.4884 13.1418 32.4394 13.3873 32.453 13.6333C32.4665 13.8794 32.5422 14.1181 32.6729 14.3274C32.2716 14.0995 31.2229 13.4491 30.3125 13.2983C31.2061 13.0804 32.5953 12.9195 32.5953 12.9195ZM32.8954 12.7351H33.1079C33.1079 12.7351 33.1079 12.7351 33.1079 12.7619L33.3507 14.656H32.9325L32.9022 12.8088C32.8954 12.7847 32.8954 12.7592 32.9022 12.7351H32.8954ZM38.1928 26.3723C37.8326 26.4912 37.4655 26.5886 37.0936 26.664C37.2386 26.5131 37.4645 26.2651 37.7309 25.9701C37.8152 26.0338 37.9028 26.1042 37.9871 26.1813L38.1928 26.3723ZM42.4381 23.2614C41.96 23.88 41.4125 24.4424 40.8061 24.9375C40.8061 24.9375 40.8061 24.9375 40.7758 24.961L40.5195 25.1554C39.8555 25.6432 39.1226 26.0307 38.3446 26.3053C38.2603 26.2215 38.1726 26.1444 38.095 26.0706L37.8556 25.8192C38.4874 25.1356 39.0742 24.4122 39.6124 23.6536C40.5679 23.6415 41.5177 23.5063 42.4381 23.2513V23.2614ZM20.5203 17.3814L17.735 17.6027C17.735 17.6027 18.5375 18.4709 18.9118 18.8933C19.0804 19.0777 18.9321 19.3123 18.6927 19.1414L18.6117 19.0542L17.4686 17.8843C17.4686 17.8843 17.2326 25.9298 17.1618 26.8685C17.1416 27.1501 16.9291 27.1769 16.8785 26.8685L16.6122 17.891C16.2345 18.2731 15.813 18.8061 15.3949 19.1581C15.2027 19.3224 15.0206 19.1112 15.1858 18.8765L16.2716 17.6094C15.351 17.5323 14.4305 17.4652 13.5066 17.3915C13.1019 17.368 13.0547 17.016 13.5066 16.9456L16.3053 16.6942C16.3053 16.6942 15.496 15.8594 15.115 15.4337C14.9127 15.2124 15.0543 15.0381 15.2431 15.1588L16.5919 16.3992V16.3288C16.6358 15.4136 16.7066 14.4917 16.7807 13.5732C16.8044 13.191 17.155 13.1239 17.2259 13.5732L17.4383 16.4226C17.4383 16.4226 18.3453 15.551 18.7871 15.1689C19.013 14.9778 19.1816 15.199 18.9489 15.4337L17.6979 16.6942C17.6979 16.6942 19.566 16.8718 20.4866 16.9456C20.8912 16.9691 20.9384 17.3211 20.4866 17.3915L20.5203 17.3814ZM46.0597 26.4897C46.0597 15.7622 37.3768 7.04618 26.664 7.04618C15.9512 7.04618 7.07956 15.8829 7.07956 26.6405C7.08428 28.3166 7.31103 29.9848 7.75396 31.602C8.76458 31.4065 9.73914 31.0583 10.6437 30.5695C11.3757 30.1635 12.1661 29.8718 12.9873 29.7046C13.7561 29.5537 14.508 29.7046 14.7474 30.0733C14.801 30.1499 14.8282 30.2416 14.825 30.3348C14.8178 30.4958 14.76 30.6506 14.6598 30.7773L14.4136 30.9617C14.3417 31.0496 14.3035 31.1601 14.3057 31.2734C14.3057 31.2969 14.3057 31.3237 14.3057 31.3505C14.3105 31.3895 14.3231 31.4271 14.3428 31.4611C14.3625 31.495 14.3889 31.5247 14.4204 31.5483L14.4575 31.5718C14.6721 31.7102 14.9201 31.7889 15.1757 31.7998C16.7097 31.7073 18.2052 31.2853 19.5593 30.5628C20.2878 30.1611 21.0734 29.8717 21.8893 29.7046C22.675 29.5537 23.4404 29.7046 23.6731 30.0767C23.723 30.151 23.7488 30.2387 23.7473 30.3281C23.7384 30.4926 23.6769 30.6499 23.5719 30.7773L23.3393 30.9617C23.261 31.0455 23.2177 31.1557 23.2179 31.2701C23.2145 31.2923 23.2145 31.3149 23.2179 31.3371C23.2216 31.3801 23.2354 31.4217 23.2583 31.4583C23.2811 31.495 23.3123 31.5259 23.3494 31.5483L23.3865 31.5718C23.5798 31.7026 23.8041 31.7812 24.0373 31.7998C25.256 31.7244 26.452 31.4374 27.5711 30.9516L28.0735 30.7471L28.1207 30.7203C28.9573 30.2704 29.8578 29.9494 30.7913 29.7683C31.5129 29.6241 32.2514 29.7683 32.4773 30.1035C32.5207 30.1668 32.5442 30.2414 32.5448 30.318C32.5365 30.4535 32.4871 30.5832 32.4031 30.6901L32.1637 30.8645H32.1435C32.0585 30.9725 32.0133 31.1062 32.0154 31.2433C32.012 31.2745 32.012 31.3059 32.0154 31.3371C32.0212 31.3904 32.0387 31.4417 32.0666 31.4875C32.0946 31.5332 32.1324 31.5723 32.1772 31.602L32.2177 31.6221C32.4401 31.7704 32.6988 31.8562 32.9663 31.8702C34.5152 31.7778 36.0252 31.3499 37.3903 30.6164C38.1163 30.2178 38.8983 29.9296 39.7102 29.7615C40.4284 29.6308 41.1197 29.7615 41.3524 30.0599C41.4051 30.1339 41.4348 30.2216 41.4378 30.3122C41.4408 30.4028 41.4169 30.4922 41.3692 30.5695C41.3372 30.6377 41.2988 30.7028 41.2546 30.7639L41.0219 30.9483C40.9763 30.9987 40.9424 31.0584 40.9226 31.1233C40.9028 31.1882 40.8975 31.2566 40.9073 31.3237C40.91 31.3661 40.9232 31.4072 40.9455 31.4434C40.9678 31.4796 40.9987 31.5099 41.0354 31.5316L41.0826 31.5584C41.2813 31.6961 41.5151 31.7751 41.757 31.7864C43.0828 31.6866 44.3789 31.3457 45.5808 30.7807C45.8995 29.3723 46.0601 27.9332 46.0597 26.4897ZM36.8541 42.6211C37.1205 42.601 37.3937 42.5674 37.6634 42.5306C39.3556 41.3564 40.8519 39.9254 42.0976 38.2899C41.6864 38.1849 41.3315 37.9268 41.1062 37.5691C40.9825 37.3705 40.9067 37.1461 40.8844 36.9135C40.8622 36.681 40.8943 36.4464 40.9781 36.2282L40.6409 36.2684L40.5127 36.2919C39.8673 36.4778 39.2416 36.7259 38.6447 37.0327C37.1393 37.812 35.4863 38.2688 33.7924 38.3737C33.494 38.3854 33.1974 38.3228 32.9295 38.1917C32.6616 38.0605 32.4308 37.865 32.2581 37.6228C32.0922 37.3755 32.0031 37.0852 32.0019 36.788C32.0034 36.5986 32.0399 36.4111 32.1098 36.2349C32.0524 36.2349 31.7726 36.2718 31.7726 36.2718L31.604 36.2986C30.9596 36.483 30.336 36.7323 29.7426 37.0428C28.2512 37.8237 26.6099 38.2808 24.9275 38.3837C24.6363 38.3941 24.3471 38.3325 24.0858 38.2043C23.8245 38.0762 23.5992 37.8856 23.4303 37.6496C23.255 37.3923 23.1611 37.0887 23.1605 36.778C23.1613 36.596 23.1944 36.4155 23.2583 36.2449L22.9211 36.2852L22.793 36.3086C22.1509 36.4935 21.5286 36.7405 20.935 37.0462C19.4178 37.8289 17.752 38.2858 16.0457 38.3871C15.7442 38.3987 15.4445 38.3356 15.1737 38.2033C14.9029 38.071 14.6695 37.8738 14.4945 37.6295C14.3317 37.3847 14.2438 37.0982 14.2416 36.8048C14.2424 36.6139 14.2802 36.425 14.3529 36.2483L13.9719 36.2919L13.8572 36.312C13.2053 36.4946 12.5746 36.7452 11.9757 37.0596C11.5204 37.2895 11.0533 37.4954 10.5763 37.6764C10.7213 37.8909 10.8764 38.0988 11.0315 38.3066C11.9479 39.5378 13.001 40.6624 14.1708 41.659C14.3428 41.5785 14.508 41.4947 14.6699 41.4142C15.3918 41.0168 16.1708 40.7319 16.9797 40.5695C17.7553 40.4085 18.5207 40.5695 18.7534 40.9047C18.8048 40.9785 18.8319 41.0663 18.8309 41.1561C18.8211 41.3204 18.7598 41.4775 18.6556 41.6053L18.4263 41.7897C18.3478 41.8838 18.3059 42.0027 18.3083 42.1249C18.3066 42.1472 18.3066 42.1697 18.3083 42.192C18.3133 42.2324 18.3275 42.2711 18.3497 42.3054C18.3718 42.3396 18.4015 42.3685 18.4364 42.3898L18.4836 42.4166C18.6729 42.5474 18.8943 42.625 19.1243 42.6412C20.6451 42.5595 22.1285 42.1427 23.4674 41.4209C24.2056 41.0176 25.0016 40.7293 25.8278 40.5661C26.5898 40.4052 27.3485 40.5661 27.5846 40.9013C27.6385 40.9781 27.6678 41.0692 27.6689 41.1628C27.6621 41.3229 27.6043 41.4767 27.5036 41.602L27.2507 41.783C27.1833 41.882 27.1469 41.9987 27.1462 42.1182C27.1427 42.1438 27.1427 42.1697 27.1462 42.1953C27.1505 42.2335 27.1629 42.2703 27.1827 42.3032C27.2024 42.3362 27.2291 42.3646 27.2609 42.3864L27.298 42.4099C27.506 42.5439 27.7452 42.6224 27.9926 42.6378C29.5209 42.5577 31.0118 42.1385 32.3559 41.4109C33.0847 41.0147 33.8689 40.7288 34.6826 40.5627C35.4615 40.4018 36.2236 40.5627 36.4596 40.898C36.5507 41.0321 36.6046 41.2634 36.3618 41.5986L36.1325 41.783C36.0867 41.8367 36.0525 41.8993 36.0322 41.9668C36.0119 42.0343 36.0058 42.1053 36.0145 42.1752C36.0205 42.2154 36.035 42.2538 36.0571 42.2879C36.0792 42.322 36.1084 42.351 36.1427 42.373L36.1899 42.3998C36.3894 42.5353 36.6229 42.6131 36.8643 42.6244L36.8541 42.6211ZM42.7585 37.3747C43.874 35.7195 44.7269 33.9037 45.2875 31.9908C44.1361 32.3437 42.9592 32.6082 41.7671 32.782C41.4711 32.7844 41.179 32.7149 40.9163 32.5793C40.6536 32.4437 40.4282 32.2463 40.2598 32.0043C40.0919 31.7565 40.0016 31.4649 40.0002 31.1662C40.0005 30.986 40.0348 30.8074 40.1014 30.6399L39.6091 30.6834C38.9813 30.8706 38.3727 31.1164 37.7916 31.4176C36.2741 32.2004 34.611 32.6648 32.9056 32.782C32.6045 32.7854 32.3073 32.7154 32.0398 32.578C31.7723 32.4407 31.5428 32.2402 31.3713 31.9942C31.2087 31.7541 31.1197 31.4723 31.115 31.1829C31.1163 30.9979 31.1529 30.8147 31.2229 30.6432C31.058 30.6454 30.8934 30.66 30.7306 30.6868C30.0939 30.8761 29.4764 31.1241 28.8862 31.4277C27.3797 32.2103 25.7263 32.6738 24.0305 32.7887C23.7388 32.7895 23.4513 32.7197 23.1929 32.5854C22.9344 32.4511 22.7126 32.2562 22.5468 32.0177C22.3812 31.7701 22.291 31.4802 22.2872 31.1829C22.288 31.0031 22.3211 30.8249 22.385 30.6566L21.8893 30.7002C21.2644 30.8848 20.659 31.1295 20.0819 31.431C18.553 32.2142 16.8784 32.6763 15.1622 32.7887C14.8574 32.7927 14.5562 32.7227 14.2848 32.5848C14.0133 32.447 13.7798 32.2454 13.6043 31.9975C13.4439 31.7554 13.3562 31.4729 13.3514 31.1829C13.352 31.0017 13.3863 30.8221 13.4526 30.6533C13.2944 30.6587 13.1367 30.6744 12.9805 30.7002C12.3434 30.8895 11.7257 31.1387 11.1361 31.4444C10.1543 31.9616 9.10266 32.3353 8.0136 32.554C8.50806 34.0605 9.18759 35.5006 10.0368 36.8417C10.5437 36.6515 11.0372 36.4275 11.5137 36.1712C12.2515 35.7664 13.0477 35.4769 13.8741 35.313C14.6429 35.1588 15.4016 35.313 15.6376 35.6683C15.7013 35.7818 15.7271 35.9123 15.7113 36.0412C15.6956 36.1702 15.6391 36.2908 15.55 36.3857L15.2971 36.5634C15.2298 36.6509 15.1942 36.7584 15.1959 36.8685V36.9255C15.1996 36.9701 15.2122 37.0136 15.2331 37.0533C15.2539 37.0931 15.2826 37.1283 15.3173 37.1568C15.5419 37.2906 15.7974 37.3645 16.0591 37.3713C17.5958 37.2923 19.0965 36.8804 20.4562 36.1645C21.1872 35.7678 21.9737 35.4819 22.7896 35.3164C23.5584 35.1621 24.3104 35.3164 24.5464 35.6717C24.6408 35.8091 24.6982 36.0405 24.4621 36.3891C24.3707 36.4377 24.2858 36.4974 24.2092 36.5668C24.1318 36.6709 24.0969 36.8002 24.1114 36.9288C24.1151 36.9735 24.1277 37.017 24.1486 37.0567C24.1694 37.0964 24.1981 37.1316 24.2328 37.1601H24.2531C24.456 37.2868 24.6882 37.3595 24.9275 37.3713C26.4451 37.2887 27.9257 36.8744 29.2638 36.1578C29.9937 35.7573 30.7805 35.4691 31.5972 35.3029C32.366 35.1487 33.1247 35.3029 33.3608 35.6583C33.4249 35.7716 33.451 35.9022 33.4353 36.0313C33.4195 36.1603 33.3627 36.281 33.2731 36.3757C33.1902 36.4276 33.1123 36.4871 33.0404 36.5534C32.9581 36.6452 32.9157 36.7657 32.9224 36.8886C32.9239 36.9337 32.9345 36.978 32.9537 37.0189C32.9728 37.0598 33 37.0964 33.0337 37.1266L33.0607 37.1434C33.2769 37.2706 33.5212 37.3431 33.7722 37.3546C35.3054 37.273 36.8018 36.8575 38.1557 36.1377C38.8956 35.7388 39.6911 35.4519 40.5161 35.2862C41.2849 35.132 42.0436 35.2862 42.2797 35.6415C42.3434 35.7551 42.3689 35.886 42.3526 36.0151C42.3362 36.1441 42.2787 36.2646 42.1886 36.3589C42.0987 36.4082 42.0149 36.4678 41.9391 36.5366C41.8592 36.6384 41.8218 36.7668 41.8346 36.8953C41.8374 36.9395 41.8489 36.9827 41.8686 37.0224C41.8883 37.0621 41.9157 37.0975 41.9492 37.1266L41.9796 37.1467C42.1835 37.2707 42.4153 37.3421 42.654 37.3546L42.7585 37.3747Z" fill="#011028"/>
</svg>
