<svg width="146" height="63" viewBox="0 0 146 63" fill="none" xmlns="http://www.w3.org/2000/svg">
<path fill-rule="evenodd" clip-rule="evenodd" d="M5.69037 6.87465C4.09478 7.29076 2.53128 7.82143 1.01207 8.46254V14.1311C1.01207 15.8386 0.858398 15.3776 2.56581 15.4458C11.7346 15.7361 16.6349 16.9825 23.5157 21.234C23.3632 19.5296 22.8511 17.8769 22.0132 16.3849C17.8054 13.1287 12.7097 11.2238 7.39778 10.9212C11.103 10.0451 14.975 10.1754 18.6129 11.2984C22.2509 12.4214 25.5226 14.4964 28.0892 17.3086C30.6559 20.1208 32.4242 23.5679 33.2111 27.293C33.998 31.0181 33.775 34.8859 32.565 38.4959C31.5333 38.0305 30.3963 37.8485 29.2709 37.9686C28.1456 38.0886 27.0725 38.5064 26.1622 39.1788C27.3574 42.4912 26.4012 47.7159 21.9791 47.3403C21.9878 48.3861 21.7289 49.4168 21.2268 50.3343C20.7247 51.2518 19.9962 52.0256 19.1106 52.582C15.986 54.4943 11.1712 55.1431 8.86615 53.7089C6.16883 54.0355 3.44075 53.4332 1.13158 52.0015V54.7333C2.57072 55.5981 4.14721 56.2102 5.79281 56.5432L6.97092 61.802C7.10914 62.0816 7.32747 62.3138 7.5981 62.4688C7.86873 62.6239 8.1794 62.6949 8.49052 62.6728H16.3275C16.6269 62.6793 16.9221 62.601 17.1789 62.4469C17.4357 62.2928 17.6437 62.0692 17.7788 61.802L18.9057 56.3895C19.9596 56.1033 20.9923 55.7439 21.9961 55.3139L26.111 58.9336C26.3807 59.0805 26.6889 59.1413 26.9942 59.1077C27.2994 59.0741 27.5871 58.9478 27.8184 58.7458L33.8456 54.2894C34.0756 54.1067 34.2547 53.8677 34.3654 53.5955C34.476 53.3233 34.5146 53.0271 34.4773 52.7357L32.2235 47.7842C32.9048 46.9386 33.5375 46.055 34.1187 45.1377L39.5824 45.6499C40.163 45.6499 40.5557 45.2743 40.8118 44.523L43.0143 37.4202C43.1351 37.1483 43.1637 36.8444 43.0959 36.5547C43.0281 36.265 42.8676 36.0054 42.6387 35.8152L37.8921 33.1175C37.9604 32.0316 37.9604 30.9424 37.8921 29.8564L42.6046 27.0733C43.1339 26.783 43.2022 26.2025 42.9119 25.3659L40.5557 18.2631C40.5178 17.9659 40.3712 17.6933 40.1442 17.4978C39.9172 17.3024 39.6258 17.1979 39.3263 17.2045L33.8626 17.8191C33.2733 16.911 32.623 16.0439 31.9162 15.2239L34.0846 10.2041C34.1823 9.91132 34.1663 9.5925 34.0398 9.31097C33.9132 9.02944 33.6854 8.80581 33.4016 8.68451L27.3062 4.33061C27.0835 4.11105 26.7915 3.97568 26.48 3.94765C26.1686 3.91962 25.8571 4.00067 25.5988 4.17695L21.6034 7.86495C20.59 7.46824 19.552 7.13745 18.4959 6.87465L17.3008 1.53046C17.0959 0.898721 16.6349 0.676758 15.7982 0.676758H8.33685C7.449 0.676758 7.05629 1.06946 6.88555 1.53046L5.69037 6.87465ZM14.5006 29.8393H15.1836C15.2008 29.8391 15.2179 29.8427 15.2336 29.8497C15.2494 29.8568 15.2634 29.8671 15.2747 29.8801C15.2861 29.8931 15.2945 29.9084 15.2994 29.9249C15.3043 29.9414 15.3055 29.9588 15.3031 29.9759V30.232C15.3031 30.2637 15.2905 30.2941 15.2681 30.3165C15.2457 30.3389 15.2153 30.3515 15.1836 30.3515H14.5006C14.4671 30.3518 14.4348 30.3398 14.4096 30.3177C14.3844 30.2957 14.3682 30.2652 14.364 30.232V29.9759C14.364 29.9397 14.3784 29.9049 14.404 29.8793C14.4296 29.8537 14.4644 29.8393 14.5006 29.8393ZM16.208 18.4167C16.6157 18.5251 16.9822 18.7519 17.2611 19.0685C17.54 19.385 17.7188 19.7771 17.775 20.1953C17.8311 20.6134 17.7621 21.0388 17.5766 21.4177C17.3911 21.7966 17.0975 22.1121 16.7328 22.3242C16.3682 22.5363 15.9488 22.6356 15.5277 22.6095C15.1066 22.5835 14.7027 22.4332 14.367 22.1776C14.0313 21.9221 13.7789 21.5728 13.6416 21.1739C13.5043 20.775 13.4883 20.3443 13.5957 19.9363C13.6671 19.6648 13.7914 19.4101 13.9614 19.1867C14.1315 18.9633 14.3439 18.7757 14.5866 18.6345C14.8292 18.4934 15.0973 18.4015 15.3756 18.3641C15.6538 18.3267 15.9367 18.3446 16.208 18.4167ZM16.669 19.3046C16.8349 19.3525 16.9757 19.4629 17.0617 19.6127C17.1477 19.7624 17.1722 19.9397 17.13 20.1071C17.1083 20.1882 17.0707 20.2643 17.0192 20.3307C16.9678 20.3971 16.9037 20.4526 16.8305 20.494C16.7574 20.5353 16.6767 20.5617 16.5933 20.5714C16.5099 20.5812 16.4253 20.5743 16.3446 20.551C16.18 20.5069 16.0394 20.3997 15.9531 20.2528C15.8669 20.1058 15.8419 19.9308 15.8836 19.7656C15.9277 19.601 16.0349 19.4604 16.1818 19.3741C16.3288 19.2879 16.5038 19.2629 16.669 19.3046ZM14.8421 28.5417C15.1494 28.5417 15.4498 28.6328 15.7053 28.8035C15.9608 28.9743 16.16 29.2169 16.2776 29.5008C16.3952 29.7847 16.4259 30.0971 16.366 30.3985C16.306 30.6999 16.158 30.9768 15.9407 31.1941C15.7234 31.4114 15.4466 31.5594 15.1452 31.6193C14.8438 31.6793 14.5314 31.6485 14.2475 31.5309C13.9636 31.4133 13.7209 31.2141 13.5502 30.9586C13.3795 30.7031 13.2883 30.4027 13.2883 30.0954C13.2883 29.6833 13.452 29.2881 13.7434 28.9968C14.0348 28.7054 14.43 28.5417 14.8421 28.5417ZM14.8421 29.31C15.049 29.3144 15.2463 29.3985 15.3926 29.5449C15.539 29.6912 15.6231 29.8885 15.6275 30.0954C15.6275 30.1986 15.6072 30.3007 15.5677 30.396C15.5282 30.4913 15.4704 30.5779 15.3974 30.6508C15.3245 30.7237 15.2379 30.7816 15.1426 30.821C15.0474 30.8605 14.9452 30.8808 14.8421 30.8808C14.7328 30.8931 14.6222 30.8818 14.5176 30.8476C14.4131 30.8134 14.3171 30.7572 14.2362 30.6827C14.1553 30.6083 14.0913 30.5173 14.0485 30.416C14.0058 30.3147 13.9852 30.2053 13.9884 30.0954C13.9884 29.9923 14.0087 29.8902 14.0482 29.7949C14.0876 29.6996 14.1455 29.613 14.2184 29.5401C14.2914 29.4671 14.3779 29.4093 14.4732 29.3698C14.5685 29.3303 14.6706 29.31 14.7738 29.31H14.8421ZM18.8545 19.9193C20.3912 20.5681 21.9961 21.2681 23.4816 22.0706C23.4816 22.395 23.4816 22.7536 23.4816 23.095C23.3468 23.9218 23.1528 24.7377 22.9011 25.5366C20.1269 24.5481 17.1251 24.3879 14.2616 25.0756C13.4169 24.6342 12.7367 23.9327 12.3216 23.0748C11.9065 22.2169 11.7785 21.2482 11.9566 20.312L12.52 20.4827C12.5925 21.2961 12.9707 22.0517 13.5783 22.5973C14.1859 23.1428 14.9777 23.4378 15.7942 23.4226C16.6106 23.4074 17.391 23.0833 17.9779 22.5156C18.5648 21.9478 18.9147 21.1787 18.9569 20.3632C18.9661 20.2154 18.9661 20.0671 18.9569 19.9193H18.8545ZM17.13 30.0442C17.0942 29.405 16.8264 28.8009 16.3769 28.3451C15.9274 27.8893 15.327 27.6132 14.6884 27.5685C13.3657 27.3254 12.0175 27.2508 10.676 27.3465C13.5274 25.0244 19.3838 24.9732 22.5254 26.2367C21.3452 26.2455 20.1958 26.615 19.2315 27.2955C18.2671 27.9761 17.5339 28.9351 17.13 30.0442ZM1.18281 17.5801C0.909621 17.5801 0.841324 16.2313 1.18281 16.2313C5.38189 16.1867 9.56456 16.762 13.5957 17.9387C13.0737 18.3808 12.7084 18.9796 12.5542 19.6461C8.86434 18.4873 5.04441 17.7933 1.18281 17.5801ZM1.18281 19.9193C0.858398 19.9193 0.841324 18.2119 1.18281 18.2119C4.55858 18.5099 7.90467 19.0809 11.1882 19.9193C11.0526 20.5897 11.0526 21.2806 11.1882 21.9511C7.91315 21.0537 4.58205 20.3749 1.21695 19.9193H1.18281ZM1.21695 22.8731C0.943769 22.8731 0.755954 20.7559 1.21695 20.8413C4.64098 21.3472 8.03735 22.0253 11.3931 22.8731C11.7719 23.8344 12.3543 24.7024 13.1005 25.4171C11.1541 26.1172 4.1537 23.7097 1.26818 22.8219L1.21695 22.8731ZM1.26818 27.705C0.994991 27.705 0.414472 23.5902 1.45599 23.8805C4.69769 24.9508 8.021 25.7559 11.3931 26.2879C10.7881 26.6128 10.2163 26.9959 9.68571 27.4319C8.55881 27.4319 7.43192 27.4319 6.27089 27.4319C4.56348 27.4319 2.85607 27.6538 1.14866 27.7733L1.26818 27.705ZM1.14866 30.6589C0.551065 30.6589 0.568139 28.5417 1.14866 28.4734C5.22786 27.9856 9.34433 27.8884 13.442 28.1831C13.1543 28.3631 12.9102 28.6048 12.7274 28.8907C12.5447 29.1767 12.4278 29.4997 12.3853 29.8364C12.3428 30.1731 12.3757 30.515 12.4817 30.8374C12.5877 31.1598 12.7641 31.4546 12.9981 31.7004C9.17317 30.8799 5.26403 30.5188 1.35355 30.6247L1.14866 30.6589ZM1.01207 34.8249V31.8541C1.0008 31.7554 1.02575 31.656 1.08228 31.5743C1.13881 31.4927 1.22307 31.4343 1.3194 31.4101C3.63886 31.2056 5.97319 31.2399 8.28563 31.5126H8.4393C6.0768 32.6016 3.79453 33.8569 1.60966 35.2689C1.54018 35.3111 1.46045 35.3334 1.37916 35.3334C1.29787 35.3334 1.21813 35.3111 1.14866 35.2689C1.02914 35.1835 1.14866 35.0128 1.14866 34.8762L1.01207 34.8249ZM17.9154 35.2689C16.9236 34.4734 16.1581 33.4312 15.6958 32.2468C15.9745 32.1507 16.2313 32 16.4512 31.8036C16.671 31.6072 16.8496 31.369 16.9763 31.1028C16.8598 32.3693 17.1725 33.6382 17.8642 34.7054C17.934 34.8259 18.014 34.9401 18.1032 35.0469C18.3764 35.3542 18.1886 35.5079 17.8642 35.2689H17.9154ZM8.11489 52.0015C5.57085 52.1552 1.2511 51.899 0.329102 49.0647C3.01303 42.8887 6.50378 37.0956 10.7102 31.837L11.6834 31.9906C9.15838 38.3549 7.91661 45.1556 8.02952 52.0015H8.11489ZM1.47307 43.6693C0.670583 44.1986 -0.234344 37.7275 1.47307 36.3787C3.18048 35.0298 5.36596 33.8176 7.5173 32.4517L8.86615 31.5809L9.77108 31.7004L8.9003 32.6907C6.14056 36.1499 3.65716 39.8207 1.47307 43.6693ZM25.4792 25.6903C26.0939 25.8952 25.3597 27.9441 24.8987 27.8246C24.674 27.7837 24.4434 27.7883 24.2205 27.8382C23.9976 27.888 23.787 27.9821 23.6011 28.1148C24.151 29.2089 24.5969 30.3522 24.9329 31.5296C25.0182 31.9224 25.1378 32.8956 24.6768 33.2371C24.1624 33.3939 23.6265 33.4688 23.0889 33.459L22.9864 34.2274C22.9864 34.3298 23.1742 34.381 23.1572 34.4493C23.1115 34.6069 23.0144 34.7446 22.8813 34.8406C22.7483 34.9365 22.5869 34.9851 22.423 34.9786C22.423 35.2347 22.662 35.3372 22.5937 35.7299C22.5254 36.1226 22.0986 36.0201 21.7912 36.1738C21.4839 36.3275 21.6376 36.4299 21.4498 36.447H21.3302C17.0446 35.6957 16.908 30.2832 20.118 28.2173L21.0912 28.5417C21.3644 28.6271 21.3473 28.6441 21.0912 28.7466L20.6985 28.8319C20.357 28.8319 20.3229 28.8319 20.6985 29.0198C21.0741 29.2076 21.5864 29.2588 21.8766 29.3612C22.1669 29.4637 22.0303 29.4637 22.1498 29.3612C22.2006 29.2668 22.2272 29.1612 22.2272 29.0539C22.2272 28.9466 22.2006 28.841 22.1498 28.7466C22.3381 28.7694 22.5289 28.7337 22.6962 28.6441C23.0035 28.4563 22.9011 28.3539 22.5766 28.3709C22.3739 28.4133 22.1647 28.4133 21.962 28.3709L20.5961 27.9953C21.3651 27.3709 22.3387 27.0545 23.3279 27.1075L23.8231 25.2122L25.4792 25.6903ZM22.0644 37.369C23.3621 38.4959 25.3427 37.6763 24.267 38.4788C20.818 41.1594 15.6958 36.5324 14.9445 32.6053C15.0977 32.6224 15.2523 32.6224 15.4055 32.6053C15.8356 33.9789 16.698 35.1767 17.8642 36.0201C18.6549 36.6334 19.6139 36.9907 20.6131 37.0446C21.5351 37.0446 21.3985 36.8055 22.1498 37.4373L22.0644 37.369ZM30.8917 23.778C31.7625 25.9806 31.6601 28.9856 29.7136 30.1979C29.0307 30.6076 28.7575 30.1979 29.2526 29.6344C29.4238 29.3887 29.5359 29.1068 29.5803 28.8107C29.6248 28.5145 29.6003 28.2121 29.5087 27.927C28.9965 26.1172 25.6158 24.939 24.0109 24.5122C24.5769 22.2564 24.3478 19.8744 23.3621 17.7679C24.9993 18.124 26.5315 18.8552 27.8381 19.904C29.1447 20.9529 30.19 22.2907 30.8917 23.8122V23.778ZM10.2321 52.8381C9.71985 47.3573 10.0272 37.3519 12.4176 32.3492C12.9469 32.4516 13.4591 32.6053 14.0055 32.7078C14.0055 32.7931 14.0055 33.4419 14.0055 33.4932C13.5274 40.9033 16.447 45.5987 20.7326 47.75C20.2546 52.5649 14.1762 53.6406 10.2833 52.8723L10.2321 52.8381ZM25.3939 39.913C26.4183 41.6204 24.8817 46.2134 22.7645 46.6061C17.2495 45.428 13.903 37.9666 14.4152 32.7931H14.6372C14.6777 33.0751 14.7347 33.3545 14.8079 33.6298C15.8495 37.6763 20.9205 42.1668 25.3939 39.8789" fill="#011028"/>
<path fill-rule="evenodd" clip-rule="evenodd" d="M68.3523 29.7027V23.8463H66.5424V22.2926H71.4939V23.8463H69.7865V29.7027H68.3523ZM117.235 24.8366V22.7536C116.97 22.4971 116.651 22.3023 116.302 22.1831C115.952 22.0639 115.581 22.0233 115.214 22.064C114.847 22.1048 114.494 22.226 114.179 22.4189C113.865 22.6119 113.596 22.8719 113.394 23.1804C112.823 24.0068 112.53 24.9935 112.557 25.9976C112.512 27.146 112.917 28.2667 113.684 29.1222C113.908 29.3675 114.179 29.5649 114.481 29.7026C114.783 29.8402 115.11 29.9153 115.441 29.9233C115.773 29.9313 116.103 29.872 116.412 29.749C116.72 29.626 117 29.4418 117.235 29.2076V27.3465C116.467 28.2002 115.187 28.7466 114.384 27.6197C114.045 27.1174 113.883 26.5168 113.923 25.9123C113.892 25.3087 114.053 24.7108 114.384 24.2049C114.519 24.0077 114.7 23.8463 114.911 23.7348C115.122 23.6233 115.357 23.5651 115.596 23.5651C115.835 23.5651 116.07 23.6233 116.282 23.7348C116.493 23.8463 116.674 24.0077 116.809 24.2049L117.235 24.8366ZM100.708 21.5072L101.186 20.8754L100.844 20.4486L100.042 21.4901L100.708 21.5072ZM81.2262 24.8195V22.7536C80.9607 22.4971 80.6419 22.3023 80.2926 22.1831C79.9432 22.0639 79.5719 22.0233 79.205 22.064C78.8381 22.1048 78.4848 22.226 78.1701 22.4189C77.8554 22.6119 77.5872 22.8719 77.3845 23.1804C76.8135 24.0068 76.5205 24.9935 76.5479 25.9976C76.5032 27.146 76.9074 28.2667 77.6748 29.1222C77.8984 29.3675 78.1695 29.5649 78.4715 29.7026C78.7736 29.8402 79.1004 29.9153 79.4322 29.9233C79.7641 29.9313 80.0941 29.872 80.4024 29.749C80.7107 29.626 80.9909 29.4418 81.2262 29.2076V27.3465C80.4408 28.2002 79.1773 28.7466 78.3577 27.6197C78.0619 27.1179 77.9059 26.546 77.9059 25.9635C77.9059 25.381 78.0619 24.8091 78.3577 24.3073C78.4905 24.1101 78.6698 23.9486 78.8797 23.8369C79.0896 23.7252 79.3237 23.6668 79.5614 23.6668C79.7992 23.6668 80.0333 23.7252 80.2432 23.8369C80.4531 23.9486 80.6323 24.1101 80.7652 24.3073L81.2262 24.8195ZM109.262 26.2879V25.6732H106.854V27.1758H107.896V28.2514C107.661 28.3433 107.413 28.3952 107.162 28.4051C106.086 28.4051 105.454 27.3636 105.454 26.0318C105.419 25.4227 105.594 24.82 105.949 24.3244C106.174 23.9977 106.518 23.772 106.908 23.6954C107.297 23.6189 107.7 23.6975 108.032 23.9146C108.336 24.118 108.601 24.3722 108.818 24.6659L108.954 22.8219C108.698 22.5905 108.404 22.4056 108.084 22.2755C107.53 22.0652 106.922 22.0432 106.354 22.2129C105.786 22.3827 105.29 22.7347 104.942 23.2146C104.339 24.0335 104.032 25.0328 104.071 26.0489C104.071 28.3197 105.335 29.9759 107.076 29.9759C107.857 29.9419 108.611 29.6808 109.245 29.2246L109.262 26.2879ZM110.406 29.7027H111.755V22.2926H110.406V29.7027ZM94.2366 29.7027H97.788V28.1148H95.5855V22.3096H94.2366V29.7027ZM82.1311 22.8731V29.7027H83.3946V25.6562L86.6899 29.7027H87.0484V22.2926H85.802V26.3733L82.3872 22.2926H82.0457L82.1311 22.8731ZM72.3476 22.8731V29.7027H75.8649V28.149H73.6453V26.6806H74.9258V25.1781H73.6453V23.8463H75.8307V22.3096H72.4159L72.3476 22.8731ZM87.7143 25.9635C87.7143 23.8122 88.9437 22.0194 90.5998 22.0194C92.256 22.0194 93.5024 23.8122 93.5024 25.9635C93.5024 28.1148 92.2902 29.8905 90.5998 29.8905C88.9095 29.8905 87.7143 28.0807 87.7143 25.9635ZM89.1144 25.9635C89.1144 27.1075 89.6608 28.2173 90.5998 28.2173C91.5389 28.2173 92.1024 27.1075 92.1024 25.9635C92.1024 24.8195 91.556 23.6756 90.5998 23.6756C89.6437 23.6756 89.1144 24.8195 89.1144 25.9635ZM97.6514 25.9635C97.6533 25.4434 97.728 24.9262 97.8734 24.4268C98 23.7897 98.3296 23.2108 98.8129 22.7768C99.2962 22.3428 99.9071 22.077 100.554 22.0194C102.261 22.0194 103.44 23.8292 103.44 25.9635C103.44 28.0978 102.21 29.8905 100.554 29.8905C98.8979 29.8905 97.6514 28.0978 97.6514 25.9976V25.9635ZM99.0515 25.9976C99.0515 27.1416 99.5979 28.2514 100.554 28.2514C101.51 28.2514 102.039 27.1416 102.039 25.9976C102.039 24.8537 101.493 23.7097 100.554 23.7097C99.615 23.7097 99.0515 24.8537 99.0515 25.9976ZM120.48 22.0535C121.141 22.0915 121.772 22.3461 122.275 22.7781C122.778 23.21 123.125 23.7954 123.263 24.4439C123.403 24.9496 123.472 25.4727 123.467 25.9976C123.467 28.1319 122.272 29.9247 120.582 29.9247C118.892 29.9247 117.696 28.1148 117.696 25.9976C117.696 23.8805 118.892 22.0535 120.582 22.0535H120.48ZM119.079 25.9976C119.079 27.1416 119.626 28.2514 120.582 28.2514C121.538 28.2514 122.084 27.1416 122.084 25.9976C122.084 24.8537 121.538 23.7097 120.582 23.7097C119.626 23.7097 119.079 24.8537 119.079 25.9976Z" fill="#011028"/>
<path fill-rule="evenodd" clip-rule="evenodd" d="M133.814 35.7811C133.667 35.5832 133.475 35.4226 133.254 35.3119C133.033 35.2013 132.789 35.1437 132.542 35.1437C132.295 35.1437 132.052 35.2013 131.831 35.3119C131.61 35.4226 131.418 35.5832 131.27 35.7811C130.953 36.2688 130.784 36.8383 130.784 37.4202C130.784 38.0022 130.953 38.5716 131.27 39.0593C132.107 40.1691 133.439 39.6398 134.275 38.7861V40.6472C133.762 41.119 133.086 41.3736 132.389 41.3577C131.691 41.3418 131.028 41.0566 130.536 40.5618C129.827 39.7559 129.41 38.7339 129.354 37.6615C129.299 36.5892 129.607 35.5294 130.229 34.6542C130.455 34.3452 130.744 34.0869 131.076 33.896C131.408 33.705 131.777 33.5856 132.158 33.5454C132.539 33.5052 132.924 33.5451 133.289 33.6626C133.653 33.78 133.989 33.9724 134.275 34.2274V36.2762L133.814 35.7811ZM118.328 33.3054L118.601 32.9639L118.26 32.537L117.628 33.3054H118.328ZM127.275 41.1424H128.709V33.8005H127.275V41.1424ZM122.58 37.3348L120.445 41.1424H121.999L123.365 38.6495L124.816 41.1424H126.524L124.185 37.1812L126.097 33.7664H124.543L123.399 35.8665L122.17 33.7664H120.804L122.58 37.3348ZM116.228 41.1424H119.933V39.5886H117.611V38.1373H119.011V36.6348H117.611V35.303H119.848V33.8005H116.228V41.1424ZM109.791 33.8005L108.562 41.1424H109.842L110.355 37.7275L111.925 41.1424H112.284L113.769 37.7275L114.265 41.1424H115.613L114.418 33.8005H114.162L112.147 38.3422L110.013 33.8005H109.791ZM136.205 37.4714C136.205 38.5983 136.785 39.7081 137.776 39.7081C138.766 39.7081 139.346 38.6154 139.346 37.4714C139.346 36.3275 138.783 35.2006 137.776 35.2006C136.768 35.2006 136.205 36.3275 136.205 37.4714ZM134.753 37.4714C134.642 36.5533 134.897 35.6281 135.462 34.8963C136.028 34.1645 136.859 33.6849 137.776 33.5615C139.483 33.5615 140.815 35.2689 140.815 37.4714C140.93 37.9322 140.939 38.4133 140.841 38.878C140.743 39.3428 140.54 39.7791 140.248 40.1536C139.955 40.5282 139.582 40.8312 139.155 41.0396C138.728 41.248 138.259 41.3563 137.784 41.3563C137.309 41.3563 136.84 41.248 136.413 41.0396C135.986 40.8312 135.613 40.5282 135.321 40.1536C135.028 39.7791 134.825 39.3428 134.727 38.878C134.629 38.4133 134.638 37.9322 134.753 37.4714Z" fill="#011028"/>
<path fill-rule="evenodd" clip-rule="evenodd" d="M95.4318 41.0058H97.0026C97.7352 41.0572 98.4636 40.8586 99.0686 40.4423C99.5526 40.0914 99.9408 39.6246 100.197 39.0846C100.454 38.5446 100.571 37.9488 100.537 37.3519C100.565 36.8652 100.497 36.3777 100.336 35.9176C100.175 35.4574 99.9238 35.0338 99.5979 34.6713C99.2574 34.3367 98.8505 34.0771 98.4034 33.9095C97.9564 33.7419 97.4792 33.6698 97.0026 33.6981H95.4318V41.0058ZM101.322 41.0058H105.01V39.4691H102.774V38.0178H104.276V36.5324H102.774V35.2177H105.062V33.7151H101.322V41.0058ZM87.407 41.0058H91.1291V39.435H88.8241V33.6981H87.407V41.0058ZM80.9188 41.0058H82.2848L82.6604 39.9301H85.0678L85.4435 41.0058H86.9289L84.0605 33.6981H83.7873L80.9188 41.0058ZM83.1214 38.6837L83.9922 36.3958L84.7605 38.6837H83.1214ZM75.4551 41.0058H76.7527V37.0104L80.1676 40.9716H80.5773V33.6981H79.2626V37.7275L75.8478 33.6981H75.4551V41.0058ZM66.5937 41.0058H68.0108V33.6981H66.5937V41.0058ZM64.9716 35.6616C64.8256 35.4639 64.6352 35.3032 64.4157 35.1925C64.1963 35.0818 63.9539 35.0241 63.7081 35.0241C63.4623 35.0241 63.22 35.0818 63.0005 35.1925C62.7811 35.3032 62.5907 35.4639 62.4447 35.6616C62.0924 36.1582 61.9235 36.7617 61.9666 37.369C61.9227 37.9739 62.0852 38.5758 62.4276 39.0764C63.2813 40.1862 64.6131 39.6569 65.4156 38.8032V40.6472C64.9098 41.1209 64.2384 41.3773 63.5456 41.3613C62.8528 41.3454 62.1939 41.0583 61.7105 40.5618C61.3176 40.1516 61.0109 39.6667 60.8086 39.1359C60.6062 38.6051 60.5123 38.0391 60.5324 37.4714C60.5088 36.4732 60.8149 35.4951 61.4031 34.6884C61.628 34.3825 61.9142 34.1268 62.2434 33.9377C62.5726 33.7486 62.9377 33.6301 63.3152 33.59C63.6927 33.5498 64.0745 33.5888 64.4361 33.7044C64.7978 33.82 65.1313 34.0098 65.4156 34.2615V36.2933L64.9716 35.6616ZM54.7272 41.0058H56.1443L56.537 39.9301H58.9445L59.303 41.0058H60.7885L57.92 33.6981H57.6468L54.7272 41.0058ZM56.9468 38.6837L57.7322 36.3958L58.5005 38.6837H56.9468ZM49.161 41.0058V33.6981H49.4854L52.9002 37.7275V33.6981H54.1979V41.0058H53.8222L50.4074 37.0104V41.0058H49.161ZM68.745 37.3519C68.745 35.2177 70.0256 33.459 71.75 33.459C73.4745 33.459 74.7722 35.1664 74.7722 37.3519C74.8789 38.2674 74.6221 39.1881 74.0569 39.9161C73.4917 40.6442 72.6634 41.1213 71.75 41.2448C70.8398 41.1172 70.0157 40.6384 69.4541 39.9108C68.8925 39.1833 68.6379 38.2648 68.745 37.3519ZM70.1963 37.3519C70.1963 38.4788 70.7768 39.5886 71.75 39.5886C72.7233 39.5886 73.3209 38.4788 73.3209 37.3519C73.3209 36.225 72.7574 35.0981 71.75 35.0981C70.7427 35.0981 70.1963 36.2079 70.1963 37.3519ZM96.8319 39.435V35.2518H97.1392C97.4072 35.2376 97.6752 35.2805 97.9254 35.3776C98.1756 35.4748 98.4023 35.6239 98.5905 35.8152C98.9502 36.2438 99.1334 36.7932 99.1027 37.3519C99.1379 37.906 98.9539 38.4517 98.5905 38.8715C98.4023 39.0628 98.1756 39.212 97.9254 39.3091C97.6752 39.4063 97.4072 39.4492 97.1392 39.435H96.8319Z" fill="#011028"/>
<path fill-rule="evenodd" clip-rule="evenodd" d="M143.615 37.4885C143.994 37.4885 144.364 37.6011 144.679 37.812C144.994 38.0229 145.239 38.3226 145.383 38.673C145.527 39.0234 145.564 39.4088 145.489 39.7802C145.414 40.1516 145.23 40.4923 144.961 40.7591C144.692 41.0258 144.349 41.2066 143.977 41.2784C143.605 41.3503 143.22 41.3099 142.871 41.1626C142.522 41.0152 142.225 40.7675 142.017 40.4508C141.808 40.134 141.699 39.7627 141.703 39.3837C141.703 39.1334 141.752 38.8856 141.848 38.6545C141.945 38.4234 142.086 38.2137 142.264 38.0375C142.442 37.8613 142.652 37.7221 142.884 37.6278C143.116 37.5336 143.365 37.4863 143.615 37.4885ZM143.615 37.7446C143.277 37.7446 142.947 37.8448 142.666 38.0324C142.386 38.22 142.167 38.4866 142.037 38.7986C141.908 39.1106 141.874 39.4539 141.94 39.7851C142.006 40.1163 142.169 40.4206 142.408 40.6593C142.646 40.8981 142.951 41.0607 143.282 41.1266C143.613 41.1925 143.956 41.1587 144.268 41.0295C144.58 40.9002 144.847 40.6814 145.035 40.4006C145.222 40.1198 145.322 39.7897 145.322 39.452C145.322 38.9992 145.142 38.5649 144.822 38.2447C144.502 37.9245 144.068 37.7446 143.615 37.7446Z" fill="#011028"/>
<path fill-rule="evenodd" clip-rule="evenodd" d="M143.222 39.6057V40.4253H142.847V38.3593C143.233 38.3249 143.621 38.3249 144.008 38.3593C144.134 38.3819 144.248 38.4481 144.33 38.5464C144.413 38.6448 144.458 38.7689 144.458 38.8971C144.458 39.0253 144.413 39.1495 144.33 39.2478C144.248 39.3461 144.134 39.4124 144.008 39.435C144.117 39.4682 144.213 39.5361 144.281 39.6285C144.349 39.7208 144.384 39.8327 144.383 39.9472C144.392 40.0893 144.392 40.2319 144.383 40.374H144.076C144.076 40.374 144.076 40.2545 144.076 40.2033C144.085 40.101 144.085 39.9982 144.076 39.896C144.068 39.8098 144.029 39.7294 143.966 39.6698C143.903 39.6102 143.821 39.5753 143.734 39.5715H143.205L143.222 39.6057ZM143.205 39.3154H143.837C143.909 39.2923 143.972 39.2467 144.017 39.1853C144.062 39.124 144.086 39.0499 144.086 38.974C144.086 38.898 144.062 38.8239 144.017 38.7626C143.972 38.7012 143.909 38.6556 143.837 38.6325C143.616 38.5985 143.392 38.5985 143.171 38.6325L143.205 39.3154Z" fill="#011028"/>
</svg>
