<svg width="185" height="45" viewBox="0 0 185 45" fill="none" xmlns="http://www.w3.org/2000/svg">
<path d="M7.42288 0.677246C6.14273 0.677424 4.89117 1.05583 3.82537 1.76496C2.75958 2.47408 1.92706 3.4823 1.43237 4.663C0.937676 5.8437 0.802866 7.14424 1.04487 8.40131C1.28687 9.65837 1.89489 10.8159 2.79258 11.7286C3.69027 12.6412 4.8376 13.2683 6.09049 13.531C7.34339 13.7938 8.64598 13.6805 9.8347 13.2054C11.0234 12.7303 12.0453 11.9145 12.7719 10.8606C13.4985 9.80666 13.8976 8.56152 13.9189 7.28155C13.9189 5.5587 13.2345 3.9064 12.0163 2.68816C10.798 1.46992 9.14573 0.785513 7.42288 0.785513" fill="#011028"/>
<path d="M22.9054 0.677676C21.6301 0.699114 20.3893 1.09552 19.3378 1.81746C18.2863 2.5394 17.4705 3.55493 16.9924 4.7374C16.5142 5.91987 16.3947 7.21694 16.6488 8.46688C16.9029 9.71681 17.5193 10.8643 18.4212 11.7662C19.3231 12.6681 20.4706 13.2845 21.7205 13.5386C22.9705 13.7927 24.2675 13.6732 25.45 13.195C26.6325 12.7168 27.648 11.9011 28.3699 10.8496C29.0919 9.79809 29.4883 8.5573 29.5097 7.28198C29.5244 6.41066 29.3636 5.54529 29.0368 4.7374C28.7101 3.92951 28.2242 3.19561 27.608 2.5794C26.9918 1.9632 26.2579 1.47727 25.45 1.15056C24.6421 0.823847 23.7767 0.663028 22.9054 0.677676Z" fill="#011028"/>
<path d="M38.4083 0.677734C37.133 0.699173 35.8922 1.09558 34.8407 1.81752C33.7892 2.53946 32.9735 3.55499 32.4953 4.73746C32.0171 5.91992 31.8976 7.217 32.1517 8.46693C32.4058 9.71687 33.0222 10.8643 33.9241 11.7663C34.826 12.6682 35.9735 13.2846 37.2235 13.5387C38.4734 13.7928 39.7705 13.6733 40.9529 13.1951C42.1354 12.7169 43.1509 11.9012 43.8729 10.8497C44.5948 9.79815 44.9912 8.55736 45.0126 7.28204C45.0128 6.41978 44.8412 5.56613 44.508 4.77085C44.1748 3.97557 43.6866 3.25459 43.0719 2.64994C42.4572 2.04529 41.7282 1.56908 40.9275 1.24906C40.1269 0.929043 39.2705 0.771631 38.4083 0.786002" fill="#011028"/>
<path d="M22.9054 16.1816C21.6254 16.2029 20.3803 16.6019 19.3263 17.3286C18.2724 18.0552 17.4567 19.0771 16.9815 20.2658C16.5064 21.4545 16.3931 22.7571 16.6559 24.01C16.9186 25.2629 17.5457 26.4102 18.4583 27.3079C19.371 28.2056 20.5285 28.8136 21.7856 29.0556C23.0427 29.2976 24.3432 29.1628 25.5239 28.6681C26.7046 28.1734 27.7128 27.3409 28.422 26.2751C29.1311 25.2093 29.5095 23.9578 29.5097 22.6776C29.5098 21.8153 29.3382 20.9617 29.005 20.1664C28.6718 19.3711 28.1836 18.6502 27.5689 18.0455C26.9542 17.4409 26.2252 16.9646 25.4245 16.6446C24.6239 16.3246 23.7675 16.1672 22.9054 16.1816Z" fill="#011028"/>
<path d="M22.9054 31.6855C21.6254 31.7068 20.3803 32.1059 19.3263 32.8325C18.2724 33.5591 17.4567 34.581 16.9815 35.7697C16.5064 36.9584 16.3931 38.261 16.6559 39.5139C16.9186 40.7668 17.5457 41.9141 18.4583 42.8118C19.371 43.7095 20.5285 44.3175 21.7856 44.5595C23.0427 44.8015 24.3432 44.6667 25.5239 44.172C26.7046 43.6773 27.7128 42.8448 28.422 41.779C29.1311 40.7132 29.5095 39.4617 29.5097 38.1815C29.5098 37.3193 29.3382 36.4656 29.005 35.6703C28.6718 34.875 28.1836 34.1541 27.5689 33.5494C26.9542 32.9448 26.2252 32.4685 25.4245 32.1485C24.6239 31.8285 23.7675 31.6711 22.9054 31.6855Z" fill="#011028"/>
<path d="M69.0272 13.9727H52.917V17.6321H59.0666V34.4568H62.8776V17.6321H69.0272V13.9727Z" fill="#011028"/>
<path d="M74.9816 19.2346C73.9619 19.2097 72.948 19.3951 72.0032 19.7792C71.0583 20.1633 70.2026 20.738 69.4896 21.4673C68.7765 22.1966 68.2213 23.065 67.8586 24.0183C67.4958 24.9716 67.3334 25.9894 67.3812 27.0082C67.3364 28.0253 67.5012 29.0408 67.8653 29.9915C68.2294 30.9422 68.7851 31.8079 69.4978 32.5349C70.2105 33.2619 71.0651 33.8345 72.0085 34.2173C72.9518 34.6001 73.9638 34.7849 74.9816 34.7602C76.4797 34.8246 77.9587 34.4044 79.1991 33.5619C80.4394 32.7194 81.3752 31.4994 81.8674 30.083H78.0564C77.7348 30.6014 77.2796 31.0237 76.7386 31.3057C76.1976 31.5876 75.5907 31.7187 74.9816 31.6854C74.0059 31.6962 73.0613 31.3426 72.3325 30.6939C71.6037 30.0451 71.143 29.1479 71.0407 28.1775H82.1706V27.7661C82.1995 27.413 82.1995 27.0582 82.1706 26.7051C82.1967 25.7297 82.0264 24.759 81.6698 23.8508C81.3132 22.9426 80.7775 22.1154 80.0947 21.4185C79.4118 20.7215 78.5958 20.169 77.6951 19.7938C76.7944 19.4186 75.8274 19.2285 74.8517 19.2346H74.9816ZM70.9107 25.7307C71.0446 24.7591 71.5359 23.8723 72.2887 23.2436C73.0415 22.6149 74.0017 22.2896 74.9816 22.3311C75.9053 22.3283 76.7958 22.675 77.4746 23.3015C78.1533 23.9281 78.57 24.7881 78.641 25.709L70.9107 25.7307Z" fill="#011028"/>
<path d="M88.1682 13.9727H84.5088V34.4568H88.1682V13.9727Z" fill="#011028"/>
<path d="M97.9562 19.2346C96.9365 19.2097 95.9227 19.3951 94.9778 19.7792C94.0329 20.1633 93.1772 20.738 92.4642 21.4673C91.7511 22.1966 91.1959 23.065 90.8332 24.0183C90.4705 24.9716 90.308 25.9894 90.3558 27.0082C90.311 28.0253 90.4758 29.0408 90.8399 29.9915C91.204 30.9422 91.7597 31.808 92.4724 32.5349C93.1852 33.2619 94.0397 33.8345 94.9831 34.2173C95.9265 34.6001 96.9384 34.7849 97.9562 34.7602C99.4398 34.8058 100.899 34.3768 102.122 33.5355C103.345 32.6943 104.267 31.4848 104.755 30.083H101.031C100.709 30.6014 100.254 31.0237 99.7133 31.3057C99.1723 31.5876 98.5654 31.7188 97.9562 31.6854C96.9658 31.7182 95.9997 31.3746 95.2524 30.7237C94.5051 30.0729 94.0322 29.1631 93.9287 28.1775H105.059V27.7661C105.087 27.413 105.087 27.0582 105.059 26.7051C105.085 25.7297 104.914 24.759 104.558 23.8508C104.201 22.9426 103.665 22.1154 102.983 21.4185C102.3 20.7215 101.484 20.169 100.583 19.7938C99.6824 19.4186 98.7154 19.2285 97.7397 19.2346H97.9562ZM93.7987 25.7307C93.9336 24.7434 94.4374 23.8438 95.2088 23.2131C95.9801 22.5823 96.9618 22.2672 97.9562 22.3311C98.8784 22.3334 99.7662 22.6818 100.444 23.3073C101.122 23.9328 101.54 24.7899 101.616 25.709L93.7987 25.7307Z" fill="#011028"/>
<path d="M115.581 13.6701H112.312C111.822 13.6346 111.33 13.7049 110.87 13.8763C110.41 14.0477 109.993 14.316 109.645 14.6632C109.298 15.0103 109.03 15.4281 108.858 15.8882C108.687 16.3483 108.617 16.8398 108.652 17.3295V19.4949H106.162V23.0027H108.652V34.4574H112.312V23.046H115.581V19.5382H112.312V18.0008C112.294 17.8516 112.311 17.7004 112.36 17.5585C112.41 17.4166 112.491 17.2877 112.597 17.1815C112.703 17.0753 112.832 16.9945 112.974 16.9451C113.116 16.8957 113.267 16.8791 113.416 16.8964H115.581V13.6701Z" fill="#011028"/>
<path d="M123.681 19.2347C122.661 19.2098 121.647 19.3952 120.702 19.7793C119.757 20.1634 118.902 20.738 118.189 21.4674C117.476 22.1967 116.92 23.065 116.558 24.0183C116.195 24.9717 116.033 25.9895 116.08 27.0083C115.967 28.0716 116.078 29.147 116.407 30.1645C116.736 31.182 117.275 32.1189 117.99 32.9143C118.705 33.7097 119.579 34.3458 120.556 34.7812C121.532 35.2167 122.59 35.4417 123.659 35.4417C124.729 35.4417 125.786 35.2167 126.763 34.7812C127.739 34.3458 128.614 33.7097 129.328 32.9143C130.043 32.1189 130.583 31.182 130.912 30.1645C131.24 29.147 131.352 28.0716 131.238 27.0083C131.286 25.9876 131.123 24.9679 130.759 24.0131C130.395 23.0583 129.838 22.1889 129.122 21.4593C128.407 20.7296 127.548 20.1554 126.601 19.7727C125.654 19.3899 124.637 19.2068 123.616 19.2347H123.681ZM123.616 31.3823C123.069 31.369 122.53 31.2449 122.032 31.0176C121.534 30.7903 121.088 30.4644 120.719 30.0596C120.351 29.6548 120.069 29.1796 119.889 28.6626C119.71 28.1456 119.637 27.5976 119.675 27.0516C119.603 26.4901 119.651 25.9197 119.817 25.3784C119.982 24.8371 120.261 24.3373 120.635 23.9122C121.009 23.4872 121.469 23.1468 121.985 22.9135C122.501 22.6803 123.061 22.5597 123.627 22.5597C124.193 22.5597 124.752 22.6803 125.268 22.9135C125.784 23.1468 126.244 23.4872 126.618 23.9122C126.992 24.3373 127.271 24.8371 127.437 25.3784C127.602 25.9197 127.651 26.4901 127.578 27.0516C127.614 27.5987 127.538 28.1472 127.356 28.6642C127.174 29.1813 126.889 29.6563 126.519 30.0607C126.149 30.4652 125.701 30.7907 125.202 31.0178C124.703 31.2449 124.164 31.3689 123.616 31.3823Z" fill="#011028"/>
<path d="M141.394 19.2345C140.293 19.2342 139.216 19.558 138.297 20.1656C137.921 20.4083 137.585 20.7078 137.301 21.0534H137.236L136.933 19.581H133.49V34.4569H137.236V25.7955C137.236 24.9341 137.578 24.1079 138.188 23.4988C138.797 22.8897 139.623 22.5475 140.484 22.5475C141.346 22.5475 142.172 22.8897 142.781 23.4988C143.39 24.1079 143.732 24.9341 143.732 25.7955V34.4569H147.392V25.5357C147.458 24.7298 147.356 23.9191 147.091 23.1549C146.827 22.3908 146.406 21.6901 145.856 21.0974C145.306 20.5046 144.639 20.0329 143.897 19.7122C143.155 19.3915 142.354 19.2288 141.545 19.2345" fill="#011028"/>
<path d="M163.501 19.2346C162.481 19.2097 161.468 19.3951 160.523 19.7792C159.578 20.1633 158.722 20.738 158.009 21.4673C157.296 22.1966 156.741 23.065 156.378 24.0183C156.015 24.9716 155.853 25.9894 155.901 27.0082C155.853 28.0261 156.015 29.043 156.378 29.9951C156.741 30.9473 157.297 31.8144 158.01 32.542C158.724 33.2696 159.579 33.8422 160.524 34.2239C161.469 34.6055 162.483 34.7881 163.501 34.7602C165.197 34.8042 166.85 34.2245 168.147 33.131C169.444 32.0375 170.295 30.5061 170.539 28.8271H166.879C166.69 29.5684 166.25 30.2213 165.635 30.6752C165.019 31.1291 164.265 31.356 163.501 31.3173C162.954 31.304 162.415 31.1799 161.917 30.9526C161.42 30.7252 160.973 30.3993 160.605 29.9945C160.236 29.5898 159.954 29.1145 159.774 28.5975C159.595 28.0805 159.522 27.5325 159.56 26.9866C159.522 26.4406 159.595 25.8926 159.774 25.3756C159.954 24.8586 160.236 24.3834 160.605 23.9786C160.973 23.5738 161.42 23.2479 161.917 23.0206C162.415 22.7933 162.954 22.6692 163.501 22.6559C164.242 22.6274 164.971 22.84 165.58 23.2617C166.189 23.6834 166.645 24.2915 166.879 24.9945H170.539C170.24 23.3591 169.366 21.8844 168.076 20.8362C166.786 19.788 165.163 19.2354 163.501 19.2779" fill="#011028"/>
<path d="M178.659 19.2345C177.192 19.0781 175.722 19.4924 174.552 20.3915C173.383 21.2907 172.605 22.6056 172.38 24.0633H176.039C176.177 23.4871 176.518 22.9798 176.999 22.6339C177.48 22.2881 178.069 22.1268 178.659 22.1794C179.022 22.1623 179.384 22.2233 179.721 22.3583C180.058 22.4933 180.362 22.6993 180.613 22.9621C180.863 23.225 181.054 23.5386 181.173 23.8818C181.292 24.2249 181.335 24.5896 181.301 24.9511V25.2542H177.945C173.83 25.2542 171.795 27.2896 171.795 30.2129C171.829 30.8753 171.998 31.5238 172.294 32.1177C172.589 32.7117 173.004 33.2384 173.512 33.665C174.02 34.0917 174.61 34.4091 175.246 34.5975C175.882 34.7859 176.55 34.8413 177.208 34.7601C178.341 34.7922 179.458 34.4829 180.413 33.8723C180.804 33.6419 181.155 33.3494 181.452 33.0062H181.582L181.885 34.4569H184.874V24.9511C184.861 24.1535 184.686 23.3669 184.357 22.6401C184.028 21.9133 183.554 21.2617 182.963 20.7258C182.372 20.1898 181.678 19.7809 180.923 19.5244C180.167 19.2679 179.367 19.1692 178.572 19.2345H178.659ZM177.706 31.8369C176.212 31.8369 175.368 31.1006 175.368 29.9314C175.368 28.7621 176.234 28.0259 178.139 28.0259H181.214V28.4589C181.245 28.9218 181.174 29.3858 181.007 29.8185C180.84 30.2513 180.58 30.6422 180.246 30.964C179.912 31.2858 179.511 31.5306 179.073 31.6814C178.634 31.8322 178.168 31.8852 177.706 31.8369Z" fill="#011028"/>
<path d="M153.714 19.5381H150.055V34.4573H153.714V19.5381Z" fill="#011028"/>
<path d="M151.872 13.0635C151.444 13.0635 151.025 13.1905 150.669 13.4284C150.313 13.6663 150.036 14.0045 149.872 14.4002C149.708 14.7958 149.665 15.2312 149.749 15.6513C149.832 16.0713 150.038 16.4571 150.341 16.76C150.644 17.0628 151.03 17.269 151.45 17.3526C151.87 17.4361 152.305 17.3932 152.701 17.2293C153.097 17.0655 153.435 16.7879 153.673 16.4318C153.911 16.0757 154.038 15.6571 154.038 15.2288C154.038 14.6545 153.81 14.1038 153.404 13.6977C152.997 13.2916 152.447 13.0635 151.872 13.0635Z" fill="#011028"/>
<path d="M128.812 13.2373H125.001L122.208 17.4814H125.283L128.812 13.2373Z" fill="#011028"/>
</svg>
