<svg width="64" height="65" viewBox="0 0 64 65" fill="none" xmlns="http://www.w3.org/2000/svg">
<path fill-rule="evenodd" clip-rule="evenodd" d="M32.0318 64.071C49.482 64.071 63.6281 49.9248 63.6281 32.4747C63.6281 15.0245 49.482 0.878418 32.0318 0.878418C14.5817 0.878418 0.435547 15.0245 0.435547 32.4747C0.435547 49.9248 14.5817 64.071 32.0318 64.071ZM9.27873 21.6611C9.28106 23.2586 9.2797 24.8575 9.27834 26.4563C9.27673 28.3492 9.27512 30.2418 9.27963 32.1314C9.27959 37.9136 12.6693 42.6017 19.7491 42.6017C22.0488 42.5978 24.3947 42.5991 26.7329 42.6004H26.7387C27.903 42.601 29.0655 42.6017 30.2194 42.6017V32.1314V21.6611H26.7483V32.522C26.7485 36.191 23.6147 39.1652 19.7491 39.165C15.8838 39.1647 12.7505 36.1906 12.7507 32.522V21.6611H9.27876H9.27873ZM54.6738 37.8114C54.6725 39.4085 54.6711 41.0058 54.6734 42.6017H51.2015V31.7407C51.2016 28.0721 48.0684 25.098 44.2031 25.0978C40.3375 25.0975 37.2037 28.0718 37.2038 31.7407V42.6017H33.7328V32.1314V21.6611C34.8886 21.6611 36.053 21.6617 37.2192 21.6624C39.5575 21.6637 41.9034 21.665 44.2031 21.6611C51.2829 21.6611 54.6726 26.3491 54.6725 32.1314C54.6771 34.0226 54.6755 35.9169 54.6738 37.8114Z" fill="#011028"/>
</svg>
