<svg width="163" height="37" viewBox="0 0 163 37" fill="none" xmlns="http://www.w3.org/2000/svg">
<path d="M159.104 0.676758L150.234 19.6527L146.898 12.4626H143.291L148.776 24.2238H151.692L162.687 0.676758H159.104Z" fill="#011028"/>
<path d="M121.053 35.9109H128.194V22.8402C128.194 19.8505 129.923 17.7503 132.493 17.7503C134.964 17.7503 136.249 19.4799 136.249 21.9754V35.9109H143.389V20.6165C143.389 15.4277 140.276 11.7709 135.236 11.7709C132.024 11.7709 129.775 13.1546 128.095 15.6748H127.947V12.4627H121.028L121.053 35.9109ZM107.019 11.8203C99.557 11.8203 94.5659 17.182 94.5659 24.2486C94.5659 31.2658 99.557 36.6769 107.019 36.6769C114.481 36.6769 119.472 31.2658 119.472 24.2486C119.497 17.182 114.481 11.8203 107.019 11.8203ZM106.969 31.3893C103.584 31.3893 101.781 28.5478 101.781 24.2486C101.781 19.8999 103.56 17.1079 106.969 17.1079C110.354 17.1079 112.232 19.8999 112.232 24.2486C112.257 28.5478 110.379 31.3893 106.969 31.3893ZM74.2062 35.9109H94.2694V30.2774H82.9036V30.1292L93.7752 17.948V12.438H74.2062V18.0962H85.2014V18.2445L74.2062 30.5245V35.9109ZM65.0395 35.9109H72.2296V12.4627H65.0395V35.9109ZM48.3614 35.9109H55.5268V25.1381C55.5268 20.2459 58.4671 18.0715 62.9393 18.6892H63.0875V12.5122C62.7169 12.3639 62.2968 12.3392 61.6297 12.3392C58.8377 12.3392 56.9599 13.624 55.3538 16.3666H55.2056V12.4627H48.3614V35.9109ZM35.2165 31.414C32.0539 31.414 30.1266 29.3632 29.756 26.2006H46.6565C46.7059 21.1601 45.3717 17.1326 42.5796 14.6124C40.603 12.7839 38.0086 11.7709 34.6977 11.7709C27.6311 11.7709 22.7389 17.1326 22.7389 24.1498C22.7389 31.2163 27.4087 36.6027 35.1671 36.6027C38.1074 36.6027 40.43 35.8121 42.3572 34.5025C44.408 33.0942 45.8905 31.0187 46.2859 28.9679H39.417C38.7498 30.4998 37.3167 31.414 35.2165 31.414ZM34.8459 16.8855C37.3662 16.8855 39.0957 18.7634 39.3922 21.506H29.8054C30.3737 18.7386 31.8809 16.8855 34.8459 16.8855ZM8.45745 35.9109H15.9688L24.1225 12.4627H16.9324L12.3614 27.5348H12.2625L7.69149 12.4627H0.303711L8.45745 35.9109ZM65.0395 4.11133H72.2296V10.4861H65.0395V4.11133Z" fill="#011028"/>
</svg>
