<svg width="61" height="60" viewBox="0 0 61 60" fill="none" xmlns="http://www.w3.org/2000/svg">
<path d="M30.291 56.4643C15.8267 56.4643 3.93387 44.4643 3.93387 30C3.93387 27 4.46959 24.1071 5.43387 21.3214L20.8624 51.3214C21.0767 51.75 21.291 52.0714 21.8267 52.0714C22.3624 52.0714 22.5767 51.75 22.791 51.3214L29.9696 35.3571C30.0767 35.1429 30.1839 35.0357 30.291 35.0357C30.5053 35.0357 30.5053 35.25 30.6124 35.3571L37.8982 51.3214C38.1124 51.75 38.3267 52.0714 38.8624 52.0714C39.3982 52.0714 39.6124 51.75 39.8267 51.3214L55.2553 21.3214C56.2196 24 56.7553 26.8929 56.7553 30C56.6482 44.4643 44.7553 56.4643 30.291 56.4643ZM30.291 23.1429C30.0767 23.1429 30.0767 22.9286 29.9696 22.8214L21.7196 5.03571C24.3982 4.07143 27.291 3.53571 30.291 3.53571C33.291 3.53571 36.1839 4.07143 38.8624 5.03571L30.6124 22.8214C30.5053 22.9286 30.5053 23.1429 30.291 23.1429ZM21.6124 42.4286C21.3982 42.4286 21.3982 42.2143 21.291 42.1071L7.79102 16.1786C10.1482 12.3214 13.5767 9.10714 17.541 6.85714L27.0767 27.4286C27.291 27.8571 27.5053 27.9643 27.8267 27.9643H32.7553C33.0767 27.9643 33.291 27.8571 33.5053 27.4286L42.9339 6.85714C46.8982 9.10714 50.3267 12.3214 52.6839 16.1786L39.291 42.1071C39.1839 42.3214 39.0767 42.4286 38.9696 42.4286C38.7553 42.4286 38.7553 42.2143 38.6482 42.1071L33.5053 30.75C33.291 30.3214 33.0767 30.2143 32.7553 30.2143H27.8267C27.5053 30.2143 27.291 30.3214 27.0767 30.75L21.9339 42.1071C21.8267 42.2143 21.8267 42.4286 21.6124 42.4286ZM30.291 60C46.8982 60 60.291 46.6071 60.291 30C60.291 13.3929 46.8982 0 30.291 0C13.6839 0 0.291016 13.3929 0.291016 30C0.291016 46.6071 13.6839 60 30.291 60Z" fill="white"/>
</svg>
