<svg width="465" height="301" viewBox="0 0 465 301" fill="none" xmlns="http://www.w3.org/2000/svg">
<path d="M403.738 299.507C334.92 287.126 257.16 238.418 192.237 263.006C-108.84 377.036 -25.6304 28.0554 246.232 1.99152C518.094 -24.0723 489.76 314.982 403.738 299.507Z" stroke="#CCCFD4"/>
<path d="M375.24 275.132C317.795 264.797 252.885 224.133 198.691 244.66C-52.6316 339.856 16.827 48.5144 243.763 26.7553C470.699 4.99627 447.047 288.052 375.24 275.132Z" stroke="#CCCFD4"/>
<path d="M348.586 252.211C301.856 243.777 249.053 210.596 204.968 227.346C0.524231 305.026 57.0268 67.2911 241.633 49.5357C426.238 31.7803 406.998 262.753 348.586 252.211Z" stroke="#CCCFD4"/>
</svg>
