<svg width="253" height="184" viewBox="0 0 253 184" fill="none" xmlns="http://www.w3.org/2000/svg">
<path opacity="0.1" fill-rule="evenodd" clip-rule="evenodd" d="M180.525 98.7381C173.624 93.1096 167.634 89.863 163.088 88.9463C159.295 88.1816 156.367 89.0058 152.868 91.2032C150.971 92.3943 149.024 93.9241 146.727 95.8374C146.198 96.2781 145.638 96.7493 145.056 97.24C143.266 98.7473 141.258 100.439 139.229 102.001C133.673 106.279 126.618 110.692 117.272 112.01C107.883 113.335 97.4036 111.378 85.151 105.296C54.6722 90.1687 28.8099 106.164 19.8068 115.963C16.3698 119.704 10.551 119.951 6.81013 116.514C3.06922 113.077 2.82282 107.258 6.25978 103.517C18.5036 90.1905 52.8699 68.7363 93.3298 88.8179C103.246 93.7393 109.948 94.465 114.702 93.7943C119.5 93.1174 123.549 90.8568 128.006 87.4247C129.687 86.1302 131.244 84.8192 132.945 83.3864C133.589 82.8439 134.254 82.284 134.954 81.7009C137.362 79.696 140.091 77.5037 143.084 75.6239C149.365 71.6796 157.074 68.9672 166.723 70.9126C175.618 72.7059 184.399 78.1587 192.152 84.4815C200.078 90.9456 207.771 99.0183 214.519 107.189C221.28 115.376 227.26 123.865 231.723 131.289C233.953 134.999 235.862 138.54 237.31 141.718C238.684 144.734 239.922 148.017 240.354 151.042C241.072 156.071 237.578 160.73 232.549 161.448C227.52 162.167 222.861 158.672 222.142 153.643C222.086 153.254 221.725 151.882 220.569 149.345C219.488 146.971 217.937 144.062 215.956 140.766C211.997 134.18 206.554 126.435 200.334 118.904C194.101 111.356 187.254 104.225 180.525 98.7381Z" fill="white"/>
</svg>
