<svg width="613" height="432" viewBox="0 0 613 432" fill="none" xmlns="http://www.w3.org/2000/svg">
<path opacity="0.2" fill-rule="evenodd" clip-rule="evenodd" d="M407.197 150.055C383.228 123.444 361.421 106.86 343.914 100.422C329.311 95.0516 317.168 96.5275 301.911 103.11C293.641 106.678 284.964 111.561 274.658 117.753C272.283 119.179 269.771 120.708 267.154 122.3C259.116 127.19 250.094 132.679 241.072 137.64C216.361 151.227 185.608 164.428 147.656 163.924C109.527 163.417 69.083 149.197 24.126 117.497C-87.7058 38.6428 -200.32 86.3159 -242.124 119.727C-258.082 132.482 -281.359 129.885 -294.114 113.926C-306.869 97.9673 -304.271 74.6905 -288.313 61.9358C-231.462 16.4984 -81.6953 -47.6426 66.7589 57.035C103.141 82.6888 129.333 89.6923 148.639 89.9489C168.122 90.2078 185.602 83.7122 205.427 72.8118C212.904 68.7005 219.897 64.4472 227.539 59.7984C230.432 58.0385 233.418 56.2219 236.559 54.3349C247.36 47.8467 259.553 40.8114 272.604 35.1805C299.99 23.3655 332.295 17.3238 369.448 30.9863C403.697 43.5809 435.242 70.6483 462.167 100.542C489.695 131.104 515.304 167.915 537.101 204.535C558.939 241.227 577.49 278.639 590.662 310.889C597.243 327.002 602.655 342.249 606.456 355.77C610.063 368.599 612.963 382.407 612.821 394.695C612.585 415.123 595.834 431.492 575.406 431.256C554.978 431.02 538.609 414.269 538.845 393.841C538.863 392.258 538.27 386.585 535.236 375.793C532.396 365.693 528.02 353.179 522.173 338.863C510.487 310.253 493.618 276.129 473.527 242.373C453.394 208.547 430.565 175.999 407.197 150.055Z" fill="#CCCFD4"/>
</svg>
