<svg width="139" height="121" viewBox="0 0 139 121" fill="none" xmlns="http://www.w3.org/2000/svg">
<g opacity="0.1">
<path d="M7.05085 3.60949C7.05085 5.55873 5.47246 7.1389 3.52542 7.1389C1.57839 7.1389 0 5.55873 0 3.60949C0 1.66025 1.57839 0.0800781 3.52542 0.0800781C5.47246 0.0800781 7.05085 1.66025 7.05085 3.60949Z" fill="white"/>
<path d="M25.8531 3.60949C25.8531 5.55873 24.2747 7.1389 22.3277 7.1389C20.3806 7.1389 18.8023 5.55873 18.8023 3.60949C18.8023 1.66025 20.3806 0.0800781 22.3277 0.0800781C24.2747 0.0800781 25.8531 1.66025 25.8531 3.60949Z" fill="white"/>
<path d="M44.6554 3.60949C44.6554 5.55873 43.077 7.1389 41.1299 7.1389C39.1829 7.1389 37.6045 5.55873 37.6045 3.60949C37.6045 1.66025 39.1829 0.0800781 41.1299 0.0800781C43.077 0.0800781 44.6554 1.66025 44.6554 3.60949Z" fill="white"/>
<path d="M63.4576 3.60949C63.4576 5.55873 61.8792 7.1389 59.9322 7.1389C57.9852 7.1389 56.4068 5.55873 56.4068 3.60949C56.4068 1.66025 57.9852 0.0800781 59.9322 0.0800781C61.8792 0.0800781 63.4576 1.66025 63.4576 3.60949Z" fill="white"/>
<path d="M82.2599 3.60949C82.2599 5.55873 80.6815 7.1389 78.7345 7.1389C76.7874 7.1389 75.209 5.55873 75.209 3.60949C75.209 1.66025 76.7874 0.0800781 78.7345 0.0800781C80.6815 0.0800781 82.2599 1.66025 82.2599 3.60949Z" fill="white"/>
<path d="M101.062 3.60949C101.062 5.55873 99.4838 7.1389 97.5367 7.1389C95.5897 7.1389 94.0113 5.55873 94.0113 3.60949C94.0113 1.66025 95.5897 0.0800781 97.5367 0.0800781C99.4838 0.0800781 101.062 1.66025 101.062 3.60949Z" fill="white"/>
<path d="M119.864 3.60949C119.864 5.55873 118.286 7.1389 116.339 7.1389C114.392 7.1389 112.814 5.55873 112.814 3.60949C112.814 1.66025 114.392 0.0800781 116.339 0.0800781C118.286 0.0800781 119.864 1.66025 119.864 3.60949Z" fill="white"/>
<path d="M138.667 3.60949C138.667 5.55873 137.088 7.1389 135.141 7.1389C133.194 7.1389 131.616 5.55873 131.616 3.60949C131.616 1.66025 133.194 0.0800781 135.141 0.0800781C137.088 0.0800781 138.667 1.66025 138.667 3.60949Z" fill="white"/>
<path d="M7.05085 22.433C7.05085 24.3823 5.47246 25.9624 3.52542 25.9624C1.57839 25.9624 0 24.3823 0 22.433C0 20.4838 1.57839 18.9036 3.52542 18.9036C5.47246 18.9036 7.05085 20.4838 7.05085 22.433Z" fill="white"/>
<path d="M25.8531 22.433C25.8531 24.3823 24.2747 25.9624 22.3277 25.9624C20.3806 25.9624 18.8023 24.3823 18.8023 22.433C18.8023 20.4838 20.3806 18.9036 22.3277 18.9036C24.2747 18.9036 25.8531 20.4838 25.8531 22.433Z" fill="white"/>
<path d="M44.6554 22.433C44.6554 24.3823 43.077 25.9624 41.1299 25.9624C39.1829 25.9624 37.6045 24.3823 37.6045 22.433C37.6045 20.4838 39.1829 18.9036 41.1299 18.9036C43.077 18.9036 44.6554 20.4838 44.6554 22.433Z" fill="white"/>
<path d="M63.4576 22.433C63.4576 24.3823 61.8792 25.9624 59.9322 25.9624C57.9852 25.9624 56.4068 24.3823 56.4068 22.433C56.4068 20.4838 57.9852 18.9036 59.9322 18.9036C61.8792 18.9036 63.4576 20.4838 63.4576 22.433Z" fill="white"/>
<path d="M82.2599 22.433C82.2599 24.3823 80.6815 25.9624 78.7345 25.9624C76.7874 25.9624 75.209 24.3823 75.209 22.433C75.209 20.4838 76.7874 18.9036 78.7345 18.9036C80.6815 18.9036 82.2599 20.4838 82.2599 22.433Z" fill="white"/>
<path d="M101.062 22.433C101.062 24.3823 99.4838 25.9624 97.5367 25.9624C95.5897 25.9624 94.0113 24.3823 94.0113 22.433C94.0113 20.4838 95.5897 18.9036 97.5367 18.9036C99.4838 18.9036 101.062 20.4838 101.062 22.433Z" fill="white"/>
<path d="M119.864 22.433C119.864 24.3823 118.286 25.9624 116.339 25.9624C114.392 25.9624 112.814 24.3823 112.814 22.433C112.814 20.4838 114.392 18.9036 116.339 18.9036C118.286 18.9036 119.864 20.4838 119.864 22.433Z" fill="white"/>
<path d="M138.667 22.433C138.667 24.3823 137.088 25.9624 135.141 25.9624C133.194 25.9624 131.616 24.3823 131.616 22.433C131.616 20.4838 133.194 18.9036 135.141 18.9036C137.088 18.9036 138.667 20.4838 138.667 22.433Z" fill="white"/>
<path d="M7.05085 41.2565C7.05085 43.2058 5.47246 44.786 3.52542 44.786C1.57839 44.786 0 43.2058 0 41.2565C0 39.3073 1.57839 37.7271 3.52542 37.7271C5.47246 37.7271 7.05085 39.3073 7.05085 41.2565Z" fill="white"/>
<path d="M25.8531 41.2565C25.8531 43.2058 24.2747 44.786 22.3277 44.786C20.3806 44.786 18.8023 43.2058 18.8023 41.2565C18.8023 39.3073 20.3806 37.7271 22.3277 37.7271C24.2747 37.7271 25.8531 39.3073 25.8531 41.2565Z" fill="white"/>
<path d="M44.6554 41.2565C44.6554 43.2058 43.077 44.786 41.1299 44.786C39.1829 44.786 37.6045 43.2058 37.6045 41.2565C37.6045 39.3073 39.1829 37.7271 41.1299 37.7271C43.077 37.7271 44.6554 39.3073 44.6554 41.2565Z" fill="white"/>
<path d="M63.4576 41.2565C63.4576 43.2058 61.8792 44.786 59.9322 44.786C57.9852 44.786 56.4068 43.2058 56.4068 41.2565C56.4068 39.3073 57.9852 37.7271 59.9322 37.7271C61.8792 37.7271 63.4576 39.3073 63.4576 41.2565Z" fill="white"/>
<path d="M82.2599 41.2565C82.2599 43.2058 80.6815 44.786 78.7345 44.786C76.7874 44.786 75.209 43.2058 75.209 41.2565C75.209 39.3073 76.7874 37.7271 78.7345 37.7271C80.6815 37.7271 82.2599 39.3073 82.2599 41.2565Z" fill="white"/>
<path d="M101.062 41.2565C101.062 43.2058 99.4838 44.786 97.5367 44.786C95.5897 44.786 94.0113 43.2058 94.0113 41.2565C94.0113 39.3073 95.5897 37.7271 97.5367 37.7271C99.4838 37.7271 101.062 39.3073 101.062 41.2565Z" fill="white"/>
<path d="M119.864 41.2565C119.864 43.2058 118.286 44.786 116.339 44.786C114.392 44.786 112.814 43.2058 112.814 41.2565C112.814 39.3073 114.392 37.7271 116.339 37.7271C118.286 37.7271 119.864 39.3073 119.864 41.2565Z" fill="white"/>
<path d="M138.667 41.2565C138.667 43.2058 137.088 44.786 135.141 44.786C133.194 44.786 131.616 43.2058 131.616 41.2565C131.616 39.3073 133.194 37.7271 135.141 37.7271C137.088 37.7271 138.667 39.3073 138.667 41.2565Z" fill="white"/>
<path d="M7.05085 60.0801C7.05085 62.0293 5.47246 63.6095 3.52542 63.6095C1.57839 63.6095 0 62.0293 0 60.0801C0 58.1308 1.57839 56.5507 3.52542 56.5507C5.47246 56.5507 7.05085 58.1308 7.05085 60.0801Z" fill="white"/>
<path d="M25.8531 60.0801C25.8531 62.0293 24.2747 63.6095 22.3277 63.6095C20.3806 63.6095 18.8023 62.0293 18.8023 60.0801C18.8023 58.1308 20.3806 56.5507 22.3277 56.5507C24.2747 56.5507 25.8531 58.1308 25.8531 60.0801Z" fill="white"/>
<path d="M44.6554 60.0801C44.6554 62.0293 43.077 63.6095 41.1299 63.6095C39.1829 63.6095 37.6045 62.0293 37.6045 60.0801C37.6045 58.1308 39.1829 56.5507 41.1299 56.5507C43.077 56.5507 44.6554 58.1308 44.6554 60.0801Z" fill="white"/>
<path d="M63.4576 60.0801C63.4576 62.0293 61.8792 63.6095 59.9322 63.6095C57.9852 63.6095 56.4068 62.0293 56.4068 60.0801C56.4068 58.1308 57.9852 56.5507 59.9322 56.5507C61.8792 56.5507 63.4576 58.1308 63.4576 60.0801Z" fill="white"/>
<path d="M82.2599 60.0801C82.2599 62.0293 80.6815 63.6095 78.7345 63.6095C76.7874 63.6095 75.209 62.0293 75.209 60.0801C75.209 58.1308 76.7874 56.5507 78.7345 56.5507C80.6815 56.5507 82.2599 58.1308 82.2599 60.0801Z" fill="white"/>
<path d="M101.062 60.0801C101.062 62.0293 99.4838 63.6095 97.5367 63.6095C95.5897 63.6095 94.0113 62.0293 94.0113 60.0801C94.0113 58.1308 95.5897 56.5507 97.5367 56.5507C99.4838 56.5507 101.062 58.1308 101.062 60.0801Z" fill="white"/>
<path d="M119.864 60.0801C119.864 62.0293 118.286 63.6095 116.339 63.6095C114.392 63.6095 112.814 62.0293 112.814 60.0801C112.814 58.1308 114.392 56.5507 116.339 56.5507C118.286 56.5507 119.864 58.1308 119.864 60.0801Z" fill="white"/>
<path d="M138.667 60.0801C138.667 62.0293 137.088 63.6095 135.141 63.6095C133.194 63.6095 131.616 62.0293 131.616 60.0801C131.616 58.1308 133.194 56.5507 135.141 56.5507C137.088 56.5507 138.667 58.1308 138.667 60.0801Z" fill="white"/>
<path d="M7.05085 78.9036C7.05085 80.8529 5.47246 82.433 3.52542 82.433C1.57839 82.433 0 80.8529 0 78.9036C0 76.9544 1.57839 75.3742 3.52542 75.3742C5.47246 75.3742 7.05085 76.9544 7.05085 78.9036Z" fill="white"/>
<path d="M25.8531 78.9036C25.8531 80.8529 24.2747 82.433 22.3277 82.433C20.3806 82.433 18.8023 80.8529 18.8023 78.9036C18.8023 76.9544 20.3806 75.3742 22.3277 75.3742C24.2747 75.3742 25.8531 76.9544 25.8531 78.9036Z" fill="white"/>
<path d="M44.6554 78.9036C44.6554 80.8529 43.077 82.433 41.1299 82.433C39.1829 82.433 37.6045 80.8529 37.6045 78.9036C37.6045 76.9544 39.1829 75.3742 41.1299 75.3742C43.077 75.3742 44.6554 76.9544 44.6554 78.9036Z" fill="white"/>
<path d="M63.4576 78.9036C63.4576 80.8529 61.8792 82.433 59.9322 82.433C57.9852 82.433 56.4068 80.8529 56.4068 78.9036C56.4068 76.9544 57.9852 75.3742 59.9322 75.3742C61.8792 75.3742 63.4576 76.9544 63.4576 78.9036Z" fill="white"/>
<path d="M82.2599 78.9036C82.2599 80.8529 80.6815 82.433 78.7345 82.433C76.7874 82.433 75.209 80.8529 75.209 78.9036C75.209 76.9544 76.7874 75.3742 78.7345 75.3742C80.6815 75.3742 82.2599 76.9544 82.2599 78.9036Z" fill="white"/>
<path d="M101.062 78.9036C101.062 80.8529 99.4838 82.433 97.5367 82.433C95.5897 82.433 94.0113 80.8529 94.0113 78.9036C94.0113 76.9544 95.5897 75.3742 97.5367 75.3742C99.4838 75.3742 101.062 76.9544 101.062 78.9036Z" fill="white"/>
<path d="M119.864 78.9036C119.864 80.8529 118.286 82.433 116.339 82.433C114.392 82.433 112.814 80.8529 112.814 78.9036C112.814 76.9544 114.392 75.3742 116.339 75.3742C118.286 75.3742 119.864 76.9544 119.864 78.9036Z" fill="white"/>
<path d="M138.667 78.9036C138.667 80.8529 137.088 82.433 135.141 82.433C133.194 82.433 131.616 80.8529 131.616 78.9036C131.616 76.9544 133.194 75.3742 135.141 75.3742C137.088 75.3742 138.667 76.9544 138.667 78.9036Z" fill="white"/>
<path d="M7.05085 97.7271C7.05085 99.6764 5.47246 101.257 3.52542 101.257C1.57839 101.257 0 99.6764 0 97.7271C0 95.7779 1.57839 94.1977 3.52542 94.1977C5.47246 94.1977 7.05085 95.7779 7.05085 97.7271Z" fill="white"/>
<path d="M25.8531 97.7271C25.8531 99.6764 24.2747 101.257 22.3277 101.257C20.3806 101.257 18.8023 99.6764 18.8023 97.7271C18.8023 95.7779 20.3806 94.1977 22.3277 94.1977C24.2747 94.1977 25.8531 95.7779 25.8531 97.7271Z" fill="white"/>
<path d="M44.6554 97.7271C44.6554 99.6764 43.077 101.257 41.1299 101.257C39.1829 101.257 37.6045 99.6764 37.6045 97.7271C37.6045 95.7779 39.1829 94.1977 41.1299 94.1977C43.077 94.1977 44.6554 95.7779 44.6554 97.7271Z" fill="white"/>
<path d="M63.4576 97.7271C63.4576 99.6764 61.8792 101.257 59.9322 101.257C57.9852 101.257 56.4068 99.6764 56.4068 97.7271C56.4068 95.7779 57.9852 94.1977 59.9322 94.1977C61.8792 94.1977 63.4576 95.7779 63.4576 97.7271Z" fill="white"/>
<path d="M82.2599 97.7271C82.2599 99.6764 80.6815 101.257 78.7345 101.257C76.7874 101.257 75.209 99.6764 75.209 97.7271C75.209 95.7779 76.7874 94.1977 78.7345 94.1977C80.6815 94.1977 82.2599 95.7779 82.2599 97.7271Z" fill="white"/>
<path d="M101.062 97.7271C101.062 99.6764 99.4838 101.257 97.5367 101.257C95.5897 101.257 94.0113 99.6764 94.0113 97.7271C94.0113 95.7779 95.5897 94.1977 97.5367 94.1977C99.4838 94.1977 101.062 95.7779 101.062 97.7271Z" fill="white"/>
<path d="M119.864 97.7271C119.864 99.6764 118.286 101.257 116.339 101.257C114.392 101.257 112.814 99.6764 112.814 97.7271C112.814 95.7779 114.392 94.1977 116.339 94.1977C118.286 94.1977 119.864 95.7779 119.864 97.7271Z" fill="white"/>
<path d="M138.667 97.7271C138.667 99.6764 137.088 101.257 135.141 101.257C133.194 101.257 131.616 99.6764 131.616 97.7271C131.616 95.7779 133.194 94.1977 135.141 94.1977C137.088 94.1977 138.667 95.7779 138.667 97.7271Z" fill="white"/>
<path d="M7.05085 116.551C7.05085 118.5 5.47246 120.08 3.52542 120.08C1.57839 120.08 0 118.5 0 116.551C0 114.601 1.57839 113.021 3.52542 113.021C5.47246 113.021 7.05085 114.601 7.05085 116.551Z" fill="white"/>
<path d="M25.8531 116.551C25.8531 118.5 24.2747 120.08 22.3277 120.08C20.3806 120.08 18.8023 118.5 18.8023 116.551C18.8023 114.601 20.3806 113.021 22.3277 113.021C24.2747 113.021 25.8531 114.601 25.8531 116.551Z" fill="white"/>
<path d="M44.6554 116.551C44.6554 118.5 43.077 120.08 41.1299 120.08C39.1829 120.08 37.6045 118.5 37.6045 116.551C37.6045 114.601 39.1829 113.021 41.1299 113.021C43.077 113.021 44.6554 114.601 44.6554 116.551Z" fill="white"/>
<path d="M63.4576 116.551C63.4576 118.5 61.8792 120.08 59.9322 120.08C57.9852 120.08 56.4068 118.5 56.4068 116.551C56.4068 114.601 57.9852 113.021 59.9322 113.021C61.8792 113.021 63.4576 114.601 63.4576 116.551Z" fill="white"/>
<path d="M82.2599 116.551C82.2599 118.5 80.6815 120.08 78.7345 120.08C76.7874 120.08 75.209 118.5 75.209 116.551C75.209 114.601 76.7874 113.021 78.7345 113.021C80.6815 113.021 82.2599 114.601 82.2599 116.551Z" fill="white"/>
<path d="M101.062 116.551C101.062 118.5 99.4838 120.08 97.5367 120.08C95.5897 120.08 94.0113 118.5 94.0113 116.551C94.0113 114.601 95.5897 113.021 97.5367 113.021C99.4838 113.021 101.062 114.601 101.062 116.551Z" fill="white"/>
<path d="M119.864 116.551C119.864 118.5 118.286 120.08 116.339 120.08C114.392 120.08 112.814 118.5 112.814 116.551C112.814 114.601 114.392 113.021 116.339 113.021C118.286 113.021 119.864 114.601 119.864 116.551Z" fill="white"/>
<path d="M138.667 116.551C138.667 118.5 137.088 120.08 135.141 120.08C133.194 120.08 131.616 118.5 131.616 116.551C131.616 114.601 133.194 113.021 135.141 113.021C137.088 113.021 138.667 114.601 138.667 116.551Z" fill="white"/>
</g>
</svg>
