<svg width="1920" height="1256" viewBox="0 0 1920 1256" fill="none" xmlns="http://www.w3.org/2000/svg">
<path d="M-92 737C-36.5 655.333 238.7 488.4 895.5 474C1552.3 459.6 1912.83 277.667 2011 188.5" stroke="#CCCFD4"/>
<path d="M-92 611.5C-36.5 529.833 238.7 362.9 895.5 348.5C1552.3 334.1 1912.83 152.167 2011 63" stroke="#CCCFD4"/>
<path d="M-92 509.5C-36.5 427.833 238.7 260.9 895.5 246.5C1552.3 232.1 1912.83 50.1667 2011 -39" stroke="#CCCFD4"/>
<path d="M-92 1295C-36.5 1213.33 238.7 1046.4 895.5 1032C1552.3 1017.6 1912.83 835.667 2011 746.5" stroke="#CCCFD4"/>
<path d="M-92 1169.5C-36.5 1087.83 238.7 920.9 895.5 906.5C1552.3 892.1 1912.83 710.167 2011 621" stroke="#CCCFD4"/>
<path d="M-92 1067.5C-36.5 985.833 238.7 818.9 895.5 804.5C1552.3 790.1 1912.83 608.167 2011 519" stroke="#CCCFD4"/>
</svg>
