<svg width="1920" height="1157" viewBox="0 0 1920 1157" fill="none" xmlns="http://www.w3.org/2000/svg">
<path d="M-33.2397 123.943C199.159 -10.6384 644.094 -147.449 564.642 381.961C465.328 1043.72 1333.2 1154.52 1581.24 833.117C1829.28 511.718 1814.8 388.948 1978 332.054" stroke="#F5F6F9" stroke-width="3"/>
<path d="M-94.623 198.654C137.776 64.0725 582.71 -72.7383 503.259 456.672C403.945 1118.43 1333.21 1229.23 1581.24 907.828C1829.28 586.429 1814.81 463.659 1978 406.765" stroke="#F5F6F9" stroke-width="3"/>
<path d="M-161 272.515C71.3987 137.934 516.333 1.12302 436.882 530.533C337.568 1192.3 1333.21 1303.09 1581.24 981.689C1829.28 660.29 1814.8 537.52 1978 480.626" stroke="#F5F6F9" stroke-width="3"/>
</svg>
